
        <svg xmlns="http://www.w3.org/2000/svg" xmlns:xlink="http://www.w3.org/1999/xlink" version="1.1" width="3162.303664921466" height="744.3344073714263" viewBox="0 0 3162.303664921466 744.3344073714263">
			
			<g transform="scale(8.115183246073299) translate(10, 10)">
				<defs id="SvgjsDefs25341"><linearGradient id="SvgjsLinearGradient25348"><stop id="SvgjsStop25349" stop-color="#8f5e25" offset="0"/><stop id="SvgjsStop25350" stop-color="#fbf4a1" offset="0.5"/><stop id="SvgjsStop25351" stop-color="#8f5e25" offset="1"/></linearGradient><linearGradient id="SvgjsLinearGradient25352"><stop id="SvgjsStop25353" stop-color="#8f5e25" offset="0"/><stop id="SvgjsStop25354" stop-color="#fbf4a1" offset="0.5"/><stop id="SvgjsStop25355" stop-color="#8f5e25" offset="1"/></linearGradient><linearGradient id="SvgjsLinearGradient25356"><stop id="SvgjsStop25357" stop-color="#8f5e25" offset="0"/><stop id="SvgjsStop25358" stop-color="#fbf4a1" offset="0.5"/><stop id="SvgjsStop25359" stop-color="#8f5e25" offset="1"/></linearGradient></defs><g id="SvgjsG25342" featureKey="symbolFeature-0" transform="matrix(1.0660425424575806,0,0,1.0660425424575806,-2.8100877053746265,-12.110242507143044)" fill="#000"><path xmlns="http://www.w3.org/2000/svg" d="M65.488,65.37c-0.571,0.471-1.272,0.724-1.988,0.741c-0.424,0.009-0.85-0.063-1.255-0.223  c-0.492-0.195-0.905-0.517-1.24-0.899c-3.28,4.264-7.92,7.411-13.282,8.8c2.99-2.082,5.463-5.671,7.121-10.209h5.453  c-0.021-0.096-0.063-0.182-0.074-0.279l-0.285-2.165H55.63c0.841-2.991,1.343-6.308,1.438-9.836h1.574l-0.322-2.444h-1.252  c-0.045-1.637-0.187-3.225-0.396-4.757c-0.779,0.217-1.588,0.431-2.39,0.645c0.174,1.336,0.302,2.7,0.344,4.112h-8.61L45.52,51.3  h9.105c-0.104,3.541-0.639,6.884-1.537,9.836H42.795v-5.401l-1.252,0.875c-0.363,0.257-0.772,0.399-1.192,0.486v4.04H30.058  c-0.439-1.446-0.79-2.989-1.047-4.6c-0.267,0.108-0.542,0.217-0.804,0.329c-0.524,0.223-0.992,0.445-1.49,0.668  c0.219,1.238,0.477,2.451,0.798,3.603h-7.807v-0.002c-0.703,0.429-1.374,0.857-1.996,1.292c-0.491,0.346-0.938,0.686-1.361,1.023  c4.805,9.025,14.303,15.189,25.221,15.189c10.239,0,19.208-5.433,24.25-13.549L65.488,65.37z M21.114,63.58h7.188  c1.661,4.538,4.13,8.127,7.121,10.209C29.482,72.252,24.412,68.564,21.114,63.58z M40.351,73.266  c-3.883-0.645-7.27-4.322-9.421-9.686h9.421V73.266z M42.795,63.58h9.421c-2.149,5.361-5.54,9.041-9.421,9.686V63.58z"/><path xmlns="http://www.w3.org/2000/svg" d="M87.363,24.459c-3.995-2.627-12.348-0.773-21.615,2.803L49.466,11.36l-5.485,0.188L57.07,30.955  c-5.385,2.476-10.719,5.232-15.396,7.779l-6.756-5.102l-2.806,0.327l6.977,8.789l0.601,11.208l2.317-1.617l1.677-8.297  c5.19-1.188,11.015-2.66,16.687-4.372l3.053,23.206l4.232-3.495l1.654-22.695C78.628,33.219,86.111,29.072,87.363,24.459z"/><path xmlns="http://www.w3.org/2000/svg" d="M48.527,24.071l-1.348-1.999c-1.819-0.362-3.688-0.56-5.61-0.56c-14.262,0-26.082,10.519-28.192,24.199  c1.755-1.324,3.46-2.488,5.021-3.501c0.37-1.097,0.789-2.173,1.308-3.194h3.933c1.418-0.817,2.874-1.633,4.406-2.444h-6.933  c3.296-4.984,8.368-8.671,14.31-10.209c-1.592,1.11-3.032,2.657-4.287,4.538c0.197-0.063,0.393-0.13,0.604-0.153l2.806-0.327  c0.017-0.001,0.037,0,0.052-0.001c1.697-1.917,3.647-3.184,5.752-3.532v6.794l1.615,1.221c0.282-0.151,0.549-0.284,0.829-0.435  v-7.58c2.373,0.393,4.56,1.933,6.396,4.285l3.166-1.505L48.527,24.071z"/><path xmlns="http://www.w3.org/2000/svg" d="M35.919,43.951l-4.397-5.538c-2.987,1.531-6.322,3.345-9.807,5.517c-3.892,2.446-7.978,5.27-11.725,8.869  c-1.86,1.813-3.648,3.828-5.098,6.258c-0.717,1.217-1.339,2.549-1.767,3.991c-0.115,0.353-0.192,0.733-0.28,1.101  c-0.047,0.183-0.069,0.375-0.104,0.563l-0.102,0.681l-0.003,0.832l0.023,1.226c0.107,1.477,0.501,3.049,1.285,4.42  c0.766,1.383,1.916,2.446,3.06,3.128c2.327,1.363,4.509,1.586,6.388,1.697c3.773,0.115,6.669-0.5,8.695-0.902  c0.631-0.134,1.162-0.256,1.612-0.361c-5.88-0.309-9.543-1.719-11.51-2.787c-0.562-0.285-1.083-0.605-1.528-0.977  c-0.205-0.159-0.317-0.263-0.317-0.263l0.038-0.003c-0.121-0.115-0.262-0.223-0.364-0.346c-0.886-1.059-0.909-2.021-0.595-3.401  c0.054-0.142,0.101-0.271,0.14-0.405l0.239-0.799l0.008-0.023c0.022-0.125-0.022,0.141-0.016,0.106l0.013-0.028l0.022-0.063  l0.044-0.121c0.033-0.079,0.051-0.159,0.092-0.242c0.079-0.163,0.133-0.326,0.228-0.491c0.332-0.663,0.786-1.338,1.348-2.008  c1.127-1.343,2.652-2.629,4.323-3.804c3.372-2.351,7.309-4.276,11.085-5.885c3.284-1.394,6.455-2.523,9.317-3.473L35.919,43.951z"/></g><g id="SvgjsG25343" featureKey="nameFeature-0" transform="matrix(1.2060306072235107,0,0,1.2060306072235107,105.97459960615993,-5.598197257727268)" fill="#000"><path d="M27.888 16.95 c2.9747 0 7.4 1.8319 7.4 6.8776 s-4.1128 6.8776 -6.8776 6.8776 l-20.344 0 l-0.033476 9.0684 l-4.6952 -0.017539 l0.075588 -20.455 l0 -2.3514 l0.0086328 0 l0 -0.0086328 l2.3477 0.0086328 l22.118 0 z M29.711 25.647 c0.43632 -0.24144 0.8826 -0.64608 0.88236 -1.819 c0 -0.94328 -0.31914 -1.4539 -1.139 -1.8214 c-0.745 -0.33402 -1.5585 -0.36098 -1.5661 -0.36098 l-19.779 0 l0 4.3645 l20.281 0 c0.2048 -0.0070704 0.81636 -0.08422 1.3204 -0.36305 z M71.849 19.299 c1.8355 1.8198 1.8204 4.452 1.7971 8.4364 c-0.0018359 0.29664 -0.0033984 0.604 -0.0046876 0.92236 c-0.0089064 2.3647 -0.015195 4.0732 -0.26344 5.514 c-0.21137 1.2284 -0.69948 2.9991 -2.4872 4.1908 c-2.2642 1.5093 -5.6464 1.5434 -13.056 1.6174 c-1.1572 0.011524 -2.2245 0.020156 -3.2091 0.020156 c-5.8708 0 -8.822 -0.31074 -10.708 -2.1844 c-1.964 -1.9514 -1.953 -4.8252 -1.9368 -9.1752 c0.018047 -4.8536 0.029024 -7.7832 2.4894 -9.602 c2.1227 -1.569 5.2056 -1.6103 11.96 -1.7011 l1.3479 -0.018555 c8.4176 -0.12031 11.902 -0.17027 14.071 1.9805 z M68.983 27.708 c0.013086 -2.2896 0.026914 -4.6576 -0.41728 -5.0976 c-0.55112 -0.54644 -3.0246 -0.67276 -6.3168 -0.67276 c-1.3547 0 -2.8484 0.021445 -4.4036 0.043672 l-1.3521 0.018555 c-4.8388 0.064884 -8.3348 0.11195 -9.25 0.78812 c-0.5776 0.42692 -0.587 2.9488 -0.59796 5.8692 c-0.010195 2.7118 -0.019883 5.2732 0.56032 5.8496 c0.9108 0.90508 5.8276 0.85564 10.583 0.80856 c5.4604 -0.054412 9.4056 -0.093908 10.516 -0.8342 c0.65372 -0.4358 0.66208 -2.7032 0.67384 -5.8416 c0.0010547 -0.32148 0.0028906 -0.632 0.0047264 -0.93176 z M85.034 35.238 l27.18 0 l0 4.6954 l-31.875 0 l0 -22.815 l4.6954 0 l0 18.119 z M148.459 35.3 l0.080272 4.6484 l-2.3241 0.04004 c-0.030078 0.0005078 -2.055 0.034258 -6.0152 0.034258 c-2.0063 0 -4.5092 -0.0089064 -7.5012 -0.034805 c-4.8264 -0.042108 -8.6856 -1.0842 -11.47 -3.0979 c-2.767 -2.0014 -4.2908 -4.9124 -4.2908 -8.1972 c0 -3.2826 1.5371 -6.2004 4.328 -8.2148 c2.766 -1.9969 6.7232 -3.0621 11.444 -3.0804 c8.882 -0.034258 13.438 0.00054688 13.483 0.00082032 l2.3244 0.01832 l-0.036641 4.6492 l-2.3244 -0.01832 c-0.044728 -0.0005078 -4.5784 -0.035039 -13.429 -0.00078124 c-6.8716 0.02668 -11.14 2.5732 -11.14 6.6464 c0 1.8039 0.79624 3.2946 2.3662 4.43 c1.9587 1.4167 4.9968 2.1832 8.7852 2.2161 c8.8288 0.077148 13.352 0.0017969 13.396 0.0010156 z M171.59099999999998 15.421 l18.353 24.38 l-5.9015 0 l-5.132 -6.7948 l-14.639 0 l-5.0572 6.7948 l-5.8354 0 z M167.79199999999997 28.311 l7.5966 0 l-3.7984 -5.0644 z M186.7785 16.95 l31.875 0 l0 4.6954 l-13.591 0 l0 18.186 l-4.6951 0 l0 -18.186 l-13.589 0 l0 -4.6954 z"/></g><g id="SvgjsG25344" featureKey="sloganFeature-0" transform="matrix(0.38070181012153625,0,0,0.38070181012153625,126.85118352348556,50.832546706841114)" fill="#000"><path d="M10.01 5.888999999999999 l0 2.5781 l-3.3496 0 l0 11.533 l-2.9004 0 l0 -11.533 l-3.3691 0 l0 -2.5781 l9.6191 0 z M34.58735859375 20 l-3.6719 -6.2109 l-0.84961 0 l0 6.2109 l-2.9297 0 l0 -14.111 l5.1172 0 c3.1934 0 4.541 1.8848 4.541 4.2188 c0 1.8945 -1.0742 3.125 -2.9883 3.5352 l4.248 6.3574 l-3.4668 0 z M30.06595859375 8.32 l0 3.3691 l1.7285 0 c1.5625 0 2.1973 -0.66406 2.1973 -1.6797 c0 -1.0059 -0.63477 -1.6895 -2.1973 -1.6895 l-1.7285 0 z M64.5561328125 20 l-1.0254 -2.9102 l-5.9277 0 l-1.0254 2.9102 l-2.998 0 l5.1953 -14.111 l3.584 0 l5.1953 14.111 l-2.998 0 z M58.4619328125 14.6387 l4.209 0 l-2.0996 -5.9863 z M93.55734765625 5.888999999999999 l3.1152 0 l-5.2148 14.111 l-3.2227 0 l-5.1855 -14.111 l3.1055 0 l3.7012 10.693 z M121.885 8.467 l-5.2344 0 l0 3.2031 l4.6387 0 l0 2.5488 l-4.6387 0 l0 3.1934 l5.2344 0 l0 2.5879 l-8.1836 0 l0 -14.111 l8.1836 0 l0 2.5781 z M142.74173984375 17.4121 l4.4238 0 l0 2.5879 l-7.3535 0 l0 -14.111 l2.9297 0 l0 11.523 z M193.86033203125 20 l-1.0254 -2.9102 l-5.9277 0 l-1.0254 2.9102 l-2.998 0 l5.1953 -14.111 l3.584 0 l5.1953 14.111 l-2.998 0 z M187.76613203125 14.6387 l4.209 0 l-2.0996 -5.9863 z M219.990246875 20.19531 c-4.0723 0 -7.0703 -2.8125 -7.0703 -7.2168 c0 -4.4629 3.0664 -7.2852 7.2168 -7.2852 c2.7246 0 4.9805 1.2012 6.2109 3.3203 l-2.5684 1.3672 c-0.74219 -1.4453 -2.0703 -2.1387 -3.6426 -2.1387 c-2.4414 0 -4.2773 1.6797 -4.2773 4.668 c0 2.8809 1.7188 4.7363 4.3848 4.7363 c1.8066 0 3.4668 -0.89844 3.8672 -2.959 l-3.8574 0 l0 -2.3535 l6.6309 0 l0 7.666 l-2.3047 0 l0 -1.9531 c-0.9082 1.3379 -2.4316 2.1484 -4.5898 2.1484 z M253.01537109375 8.467 l-5.2344 0 l0 3.2031 l4.6387 0 l0 2.5488 l-4.6387 0 l0 3.1934 l5.2344 0 l0 2.5879 l-8.1836 0 l0 -14.111 l8.1836 0 l0 2.5781 z M280.5812109375 5.888999999999999 l2.9199 0 l0 14.111 l-3.3887 0 l-6.25 -10.088 l0 10.088 l-2.9199 0 l0 -14.111 l3.3496 0 l6.2891 10.029 l0 -10.029 z M308.31301640625 20.19531 c-4.1504 0 -7.2168 -2.8223 -7.2168 -7.2559 s3.0664 -7.2461 7.2168 -7.2461 c3.1445 0 5.6641 1.6113 6.6699 4.2871 l-2.7344 0.99609 c-0.625 -1.6406 -2.1191 -2.5879 -3.9355 -2.5879 c-2.4316 0 -4.2969 1.6992 -4.2969 4.5508 s1.8652 4.5605 4.2969 4.5605 c1.8164 0 3.3105 -0.95703 3.9355 -2.5977 l2.7344 0.99609 c-1.0059 2.6758 -3.5254 4.2969 -6.6699 4.2969 z M342.88075 5.888999999999999 l-4.6387 7.3535 l0 6.7578 l-2.9395 0 l0 -6.6895 l-4.668 -7.4219 l3.2422 0 l2.8809 4.8047 l2.8906 -4.8047 l3.2324 0 z M379.8779578125 20 l0 -14.111 l2.9297 0 l0 14.111 l-2.9297 0 z M410.99869140625 5.888999999999999 l2.9199 0 l0 14.111 l-3.3887 0 l-6.25 -10.088 l0 10.088 l-2.9199 0 l0 -14.111 l3.3496 0 l6.2891 10.029 l0 -10.029 z M438.730496875 20.19531 c-4.1504 0 -7.2168 -2.8223 -7.2168 -7.2559 s3.0664 -7.2461 7.2168 -7.2461 c3.1445 0 5.6641 1.6113 6.6699 4.2871 l-2.7344 0.99609 c-0.625 -1.6406 -2.1191 -2.5879 -3.9355 -2.5879 c-2.4316 0 -4.2969 1.6992 -4.2969 4.5508 s1.8652 4.5605 4.2969 4.5605 c1.8164 0 3.3105 -0.95703 3.9355 -2.5977 l2.7344 0.99609 c-1.0059 2.6758 -3.5254 4.2969 -6.6699 4.2969 z M468.96243046875 20.19531 c-4.1504 0 -7.2168 -2.832 -7.2168 -7.2559 c0 -4.4336 3.0664 -7.2461 7.2168 -7.2461 c4.1406 0 7.207 2.8125 7.207 7.2461 c0 4.4238 -3.0664 7.2559 -7.207 7.2559 z M468.96243046875 17.5098 c2.4316 0 4.2969 -1.709 4.2969 -4.5703 c0 -2.8516 -1.8652 -4.5508 -4.2969 -4.5508 s-4.2969 1.6992 -4.2969 4.5508 c0 2.8613 1.8652 4.5703 4.2969 4.5703 z M509.9462421875 20 l-2.9199 0 l-0.92773 -10.635 l-3.5742 10.635 l-1.8945 0 l-3.5742 -10.635 l-0.9375 10.635 l-2.9297 0 l1.1816 -14.111 l4.1797 0 l3.0078 8.8574 l3.0469 -8.8574 l4.1797 0 z M527.92239140625 20 l0 -14.111 l2.9297 0 l0 14.111 l-2.9297 0 z M559.043125 5.888999999999999 l2.9199 0 l0 14.111 l-3.3887 0 l-6.25 -10.088 l0 10.088 l-2.9199 0 l0 -14.111 l3.3496 0 l6.2891 10.029 l0 -10.029 z M586.62843046875 20.19531 c-4.0723 0 -7.0703 -2.8125 -7.0703 -7.2168 c0 -4.4629 3.0664 -7.2852 7.2168 -7.2852 c2.7246 0 4.9805 1.2012 6.2109 3.3203 l-2.5684 1.3672 c-0.74219 -1.4453 -2.0703 -2.1387 -3.6426 -2.1387 c-2.4414 0 -4.2773 1.6797 -4.2773 4.668 c0 2.8809 1.7188 4.7363 4.3848 4.7363 c1.8066 0 3.4668 -0.89844 3.8672 -2.959 l-3.8574 0 l0 -2.3535 l6.6309 0 l0 7.666 l-2.3047 0 l0 -1.9531 c-0.9082 1.3379 -2.4316 2.1484 -4.5898 2.1484 z"/></g>
			</g>
		</svg>
	