<svg version="1.2" xmlns="http://www.w3.org/2000/svg" viewBox="0 0 652 778" width="652" height="778">
	<style>
		tspan { white-space:pre } 
		.t0 { font-size: 67px;fill: #030302;font-family: "Impact" } 
		.s1 { fill: #000000 } 
		.s2 { fill: #01bcf1 } 
		.s3 { fill: #fefefe } 
		.s4 { fill: #00adee } 
		.s5 { fill: #aae0f9 } 
		.s6 { fill: #eb008b } 
		.s7 { fill: #ec1c24 } 
		.s8 { fill: #f37620 } 
		.s9 { fill: #fbb216 } 
		.s10 { fill: #fff100 } 
		.s11 { fill: #e92a24 } 
	</style>
	<g id="Warstwa 2">
		<g id="&lt;Group&gt;">
			<g id="&lt;Group&gt;">
				<text id="BARCELONA " style="transform: matrix(1,0,-0.309,.951,348.159,651.781)" >
					<tspan x="-202.4" y="0" class="t0" dx="0" >B</tspan><tspan  y="0" class="t0" dx="0" >A</tspan><tspan  y="0" class="t0" dx="0" >R</tspan><tspan  y="0" class="t0" dx="0" >C</tspan><tspan  y="0" class="t0" dx="0" >E</tspan><tspan  y="0" class="t0" dx="0" >L</tspan><tspan  y="0" class="t0" dx="0" >O</tspan><tspan  y="0" class="t0" dx="0" >N</tspan><tspan  y="0" class="t0" dx="0" >A</tspan><tspan  y="0" class="t0" dx="0" >
</tspan>
				</text>
			</g>
			<g id="&lt;Group&gt;">
				<path id="&lt;Path&gt;" class="s1" d="m610.6 229.12q-0.05-0.35-0.1-0.7-0.17-1.13-0.37-2.24c-2.51-14.42-8.26-27-16.32-35.07-13.06-13.05-28.6-19.95-44.97-19.95-14.7 0-26.65 5.43-34.08 9.99-4.03 2.47-7.4 5.22-10.21 8.04q-1.93-1.94-4.16-3.75-0.01 0.01-0.02 0.02-2.33-1.9-4.98-3.62l29.53-84.67c5.13-14.71 2.79-31.05-6.26-43.73-9-12.61-23.62-20.13-39.15-20.13q-0.08 0-0.17 0l-89.61 0.4c-14.75 0.07-28.45 6.76-37.56 18.37l-41.29 52.56c-4.56-4.03-9.69-7.53-15.47-10.52q1.33-0.64 2.54-1.38c3.89-2.35 6.87-5.24 8.88-8.59 1.36-2.26 2.61-5.1 3.94-8.93 0 0 5.07-14.62 5.75-16.6 2.03-5.86 2.02-11.33-0.03-16.26-1.58-3.77-5.16-8.86-13.3-11.69-4.15-1.44-9.2-2.15-15.43-2.15-4.79 0-9.31 0.49-13.43 1.45q-5.31 1.25-9.66 3.56c-5.12-3.39-11.85-4.98-21.01-4.98-4.45 0-8.58 0.47-12.28 1.39-3.34 0.83-6.4 2.05-9.17 3.61-2.09-1.31-4.52-2.39-7.36-3.25-3.92-1.18-8.27-1.75-13.29-1.75-5.83 0-11.25 0.79-16.1 2.34q-3.4 1.09-6.26 2.61c-5.12-3.37-11.83-4.95-20.95-4.95-4.45 0-8.58 0.47-12.28 1.39-4.13 1.03-7.86 2.63-11.09 4.75-3.63 2.38-6.33 5.01-8.26 8.04-1.43 2.25-2.68 4.96-3.83 8.28 0 0-6.94 20.03-6.93 20.03l-4.66 13.39-2.23 6.39-2.4 6.89h29.26c-23.87 12.88-41.32 34.64-51.88 64.77l-6.11 17.4c-1.13 3.23-1.89 6.53-2.31 9.85q-0.01 0.06-0.02 0.13-0.1 0.86-0.18 1.73-0.02 0.22-0.03 0.43-0.06 0.75-0.1 1.49-0.01 0.35-0.02 0.69-0.02 0.64-0.03 1.27 0 0.47 0 0.93 0.01 0.53 0.03 1.06 0.02 0.58 0.05 1.15 0.03 0.43 0.06 0.87 0.05 0.67 0.13 1.34 0.03 0.34 0.07 0.69 0.09 0.77 0.21 1.53 0.04 0.25 0.08 0.51 0.14 0.86 0.31 1.73 0.03 0.15 0.06 0.3 0.21 0.98 0.45 1.94 0.01 0.05 0.02 0.1 0.79 3.13 2 6.13-0.79 0.45-1.51 0.97c-4.36 2.67-8.29 6.02-11.61 9.95-3.72 4.39-6.68 9.49-8.67 15.14l-5.66 16.14c-9.85 28.11-13.1 47.06-10.84 63.4 1.86 13.53 9.83 38.78 42.25 55.88 17.47 9.21 40.33 13.69 69.91 13.7h0.13q2.17 0 4.31-0.04 0.44-0.01 0.87-0.02 1.67-0.03 3.32-0.08 0.66-0.02 1.33-0.05 1.4-0.05 2.79-0.12 0.76-0.04 1.52-0.08 1.29-0.08 2.56-0.16 0.81-0.05 1.61-0.11 1.21-0.09 2.41-0.2 0.83-0.07 1.66-0.14 1.16-0.11 2.3-0.23 0.85-0.08 1.7-0.17 1.11-0.13 2.22-0.27 0.85-0.1 1.7-0.2 1.14-0.16 2.27-0.32 0.62-0.09 1.23-0.18 0.35-0.06 0.71-0.11 0.79-0.12 1.57-0.24 0.79-0.12 1.58-0.25 1.11-0.19 2.21-0.39 0.73-0.13 1.45-0.26 1.12-0.21 2.22-0.44 0.69-0.14 1.38-0.28 1.12-0.23 2.23-0.48 0.65-0.15 1.29-0.29 0.59-0.14 1.19-0.29 0.03 0 0.07-0.01 0.5-0.12 1-0.24 0.59-0.14 1.17-0.29 0.75-0.19 1.48-0.39 0.03 0 0.06-0.01 0.39-0.1 0.77-0.2 0.5-0.14 1-0.28 1.22-0.33 2.42-0.68 0.04-0.01 0.08-0.02-0.6 1.86-1.26 3.92l-15.57 47.14-0.36 0.93q-2.03-0.92-4.31-1.61c-4.52-1.35-9.75-2.04-15.54-2.04-5.9 0-11.43 0.68-16.43 2.01-5.25 1.39-9.89 3.48-13.85 6.19-1.88-1.62-4.17-3.16-7.11-4.5-5.5-2.49-12.29-3.7-20.75-3.7-5.9 0-11.49 0.7-16.61 2.07-5.52 1.47-10.33 3.63-14.31 6.41-4.45 3.11-7.78 6.7-9.87 10.64-1.46 2.73-2.93 6.4-4.5 11.22l-5.28 16.18c-2.53 7.78-3.31 13.76-2.45 18.84 0.73 4.34 3.58 12.3 14.45 16.89 5.41 2.28 12.07 3.39 20.38 3.39 7.77 0 14.92-1.22 21.24-3.61q5.37-2.03 9.33-4.64 4.56 4.15 11.41 6.21c4.53 1.36 9.75 2.04 15.54 2.04q3.88 0 7.74-0.43c2.23-0.25 4.51-0.46 6.71-0.82-0.94 2.31-1.93 4.23-2.93 6.52-1.15 2.65-2.2 5.73-3.09 8.47l-5.27 16.19c-2.53 7.78-3.31 13.76-2.46 18.84 0.73 4.34 3.58 12.04 14.45 16.63 5.41 2.29 12.08 2.69 20.38 2.69 5.09 0 14.22-0.2 14.22-0.2h262.98c6.05 0 11.41-3.89 13.28-9.64q2.02-6.73 4.04-13.47 3.85-12.85 7.71-25.69 1.57-5.25 3.14-10.5c0.91-3.04 1.88-5.44 4.27-7.69 1.79-1.68 4.88-2.06 7.15-2.06 0.07 0 48.37 0 48.37 0 6.05 0 11.41-3.89 13.28-9.64l18.04-55.38c1.39-4.25 0.65-8.91-1.97-12.53-2.63-3.62-6.83-5.76-11.31-5.76h-169.29l12.31-39.64h12.75c4.37 0 7.76-0.19 10.36-0.57 3.31-0.49 6.37-1.41 9.09-2.72 3.57-1.73 6.53-4.2 8.81-7.36 1.85-2.56 3.38-5.94 5.12-11.29l3.88-11.95c7.18 5.49 13.69 9.71 19.03 12.86l0.01 0.02c6.33 3.73 11.02 5.95 13.19 6.91l0.36 0.16c1.83 0.82 3.8 1.24 5.76 1.24 1.93 0 3.87-0.4 5.67-1.2l0.42-0.18c5.67-2.51 29.29-13.88 54.59-39.48 8.43-8.53 17.05-18.64 25.25-30.52 4.02-5.83 7.31-11.58 9.99-17.18q0.52-1.07 1-2.14 0.02-0.04 0.04-0.07c9.61-21.07 11.56-41.55 9.08-58.69z"/>
				<g id="&lt;Group&gt;">
					<g id="&lt;Group&gt;">
						<path id="&lt;Compound Path&gt;" class="s2" d="m132.81 469h-21.66l3.14-9.63q1.37-4.2 1.01-5.24-0.36-1.04-2.72-1.04-2.68 0-3.81 1.27-1.14 1.27-2.51 5.47l-8.38 25.72q-1.31 4.04-0.99 5.27 0.32 1.23 2.84 1.23 2.42 0 3.56-1.23 1.15-1.24 2.64-5.8l2.27-6.96h21.66l-0.71 2.16q-2.8 8.6-5.8 12.2-2.99 3.59-10.13 6.3-7.13 2.7-16.29 2.7-9.52 0-14.94-2.29-5.43-2.29-6.12-6.34-0.68-4.06 1.97-12.2l5.27-16.17q1.95-5.99 3.54-8.98 1.6-3 5.56-5.77 3.96-2.77 9.91-4.36 5.95-1.59 13-1.59 9.57 0 14.99 2.46 5.42 2.46 6.18 6.13 0.76 3.67-1.76 11.43z"/>
						<path id="&lt;Compound Path&gt;" class="s2" d="m187.37 477.31q-2.72 8.34-4.44 11.82-1.72 3.47-5.77 6.34-4.06 2.88-9.85 4.41-5.81 1.54-12.86 1.54-6.68 0-11.54-1.45-4.85-1.45-7.14-4.36-2.3-2.91-1.8-6.33 0.5-3.42 3.28-11.97l3.09-9.48q2.72-8.34 4.44-11.81 1.73-3.47 5.78-6.35 4.05-2.87 9.85-4.41 5.8-1.54 12.85-1.54 6.69 0 11.54 1.45 4.85 1.46 7.14 4.37 2.3 2.9 1.8 6.32-0.5 3.42-3.28 11.97zm-15.73-18.19q1.26-3.87 0.96-4.94-0.29-1.08-2.3-1.08-1.69 0-2.88 0.87-1.18 0.88-2.58 5.15l-8.42 25.86q-1.57 4.82-1.35 5.95 0.22 1.13 2.38 1.13 2.22 0 3.26-1.3 1.04-1.3 2.64-6.19z"/>
						<path id="&lt;Compound Path&gt;" class="s2" d="m227.68 444.88l-14.43 44.3h13.17l-3.61 11.08h-34.84l18.05-55.38z"/>
						<path id="&lt;Compound Path&gt;" class="s2" d="m267.76 444.88l-14.43 44.3h13.17l-3.61 11.08h-34.84l18.05-55.38z"/>
						<path id="&lt;Compound Path&gt;" class="s2" d="m286.18 444.88h36.12l-3.61 11.09h-14.46l-3.42 10.5h13.53l-3.43 10.53h-13.53l-3.97 12.18h15.9l-3.61 11.08h-37.56z"/>
						<path id="&lt;Compound Path&gt;" class="s2" d="m372.69 469h-21.66l3.13-9.63q1.37-4.2 1.01-5.24-0.35-1.04-2.72-1.04-2.68 0-3.81 1.27-1.13 1.27-2.5 5.47l-8.38 25.72q-1.32 4.04-1 5.27 0.32 1.23 2.84 1.23 2.42 0 3.57-1.23 1.15-1.24 2.63-5.8l2.27-6.96h21.66l-0.7 2.16q-2.8 8.6-5.8 12.2-3 3.59-10.13 6.3-7.14 2.7-16.29 2.7-9.52 0-14.95-2.29-5.43-2.29-6.12-6.34-0.68-4.06 1.97-12.2l5.27-16.17q1.95-5.99 3.55-8.98 1.59-3 5.55-5.77 3.97-2.77 9.92-4.36 5.94-1.59 12.99-1.59 9.57 0 14.99 2.46 5.43 2.46 6.19 6.13 0.76 3.67-1.77 11.43z"/>
						<path id="&lt;Compound Path&gt;" class="s2" d="m431.94 444.88l-3.61 11.09h-12.86l-14.43 44.29h-21.67l14.44-44.29h-12.81l3.61-11.09z"/>
						<path id="&lt;Compound Path&gt;" class="s2" d="m458.55 444.88l-18.04 55.38h-21.67l18.05-55.38z"/>
						<path id="&lt;Compound Path&gt;" class="s2" d="m506.17 477.31q-2.71 8.34-4.44 11.82-1.72 3.47-5.77 6.34-4.05 2.88-9.85 4.41-5.8 1.54-12.85 1.54-6.69 0-11.54-1.45-4.85-1.45-7.15-4.36-2.29-2.91-1.79-6.33 0.49-3.42 3.28-11.97l3.09-9.48q2.72-8.34 4.44-11.81 1.72-3.47 5.77-6.35 4.05-2.87 9.85-4.41 5.8-1.54 12.85-1.54 6.69 0 11.55 1.45 4.84 1.46 7.14 4.37 2.29 2.9 1.8 6.32-0.5 3.42-3.29 11.97zm-15.73-18.19q1.26-3.87 0.97-4.94-0.29-1.08-2.3-1.08-1.7 0-2.88 0.87-1.19 0.88-2.58 5.15l-8.42 25.86q-1.58 4.82-1.35 5.95 0.22 1.13 2.38 1.13 2.21 0 3.26-1.3 1.04-1.3 2.63-6.19z"/>
						<path id="&lt;Compound Path&gt;" class="s2" d="m573.18 444.88l-18.04 55.38h-18.99l-3.06-25.17-8.2 25.17h-18.12l18.05-55.38h18.11l4.02 24.94 8.12-24.94z"/>
					</g>
					<g id="&lt;Group&gt;">
						<path id="&lt;Compound Path&gt;" class="s2" d="m225.87 538.05h-21.67l3.14-9.63q1.37-4.19 1.01-5.24-0.35-1.04-2.72-1.04-2.68 0-3.81 1.27-1.13 1.27-2.5 5.47l-8.38 25.72q-1.32 4.04-1 5.27 0.32 1.23 2.84 1.23 2.42 0 3.57-1.23 1.15-1.24 2.63-5.8l2.27-6.96h21.66l-0.7 2.16q-2.8 8.6-5.8 12.19-3 3.6-10.13 6.31-7.14 2.7-16.3 2.7-9.52 0-14.94-2.29-5.43-2.29-6.12-6.34-0.68-4.06 1.97-12.2l5.27-16.18q1.95-5.98 3.55-8.97 1.59-3 5.55-5.77 3.97-2.77 9.91-4.36 5.95-1.59 13-1.59 9.57 0 14.99 2.46 5.43 2.46 6.19 6.13 0.76 3.67-1.77 11.43z"/>
						<path id="&lt;Compound Path&gt;" class="s2" d="m241.49 513.94h36.12l-3.61 11.08h-14.46l-3.42 10.5h13.53l-3.43 10.53h-13.53l-3.97 12.18h15.9l-3.61 11.08h-37.56z"/>
						<path id="&lt;Compound Path&gt;" class="s2" d="m333.64 513.94l-18.04 55.37h-18.98l-3.07-25.17-8.2 25.17h-18.11l18.04-55.37h18.11l4.02 24.93 8.12-24.93z"/>
						<path id="&lt;Compound Path&gt;" class="s2" d="m385.97 513.94l-3.61 11.08h-12.86l-14.43 44.29h-21.67l14.44-44.29h-12.81l3.61-11.08z"/>
						<path id="&lt;Compound Path&gt;" class="s2" d="m390.91 513.94h15.33q15.34-0.01 20.51 0.78 5.17 0.79 7.54 4.02 2.37 3.23 0.06 10.31-2.1 6.47-5.25 8.69-3.14 2.22-10.38 2.67 6.08 1.06 7.72 2.84 1.63 1.77 1.69 3.26 0.05 1.49-2.14 8.2l-4.76 14.6h-20.11l5.99-18.4q1.45-4.45 0.74-5.51-0.71-1.06-5.18-1.06l-8.14 24.97h-21.66zm18.58 9.47l-4.02 12.32q3.66 0 5.34-0.67 1.68-0.67 2.88-4.33l0.99-3.04q0.85-2.64-0.29-3.46-1.15-0.82-4.9-0.82z"/>
						<path id="&lt;Compound Path&gt;" class="s2" d="m447.67 513.94h36.12l-3.62 11.08h-14.45l-3.43 10.5h13.54l-3.44 10.53h-13.53l-3.97 12.18h15.9l-3.61 11.08h-37.56z"/>
					</g>
				</g>
				<g id="&lt;Group&gt;">
					<g id="&lt;Group&gt;">
						<path id="&lt;Compound Path&gt;" class="s3" d="m507.31 61.54c-6.43-9.01-16.85-14.33-27.91-14.29l-89.6 0.4c-10.42 0.05-20.24 4.85-26.67 13.04l-51.6 65.7q-2.14-3.11-4.37-5.71-0.01 0-0.01 0c-15.5-18.09-42.14-26.16-86.37-26.18-31.22-0.01-55.65 4.44-74.73 13.63-22.57 10.88-39.04 30.72-48.95 58.96l-6.1 17.41c-3.66 10.43-2.04 21.98 4.35 31q2.44 3.43 5.56 6.12c-13.97 0.51-26.27 9.51-30.92 22.79l-5.67 16.14c-8.95 25.53-12.09 43.07-10.19 56.87 1.83 13.29 9.38 31.96 34.94 45.45 15.41 8.12 36.15 12.08 63.41 12.09q0.06 0 0.12 0c22.44 0 42.51-2.96 59.64-8.81 19.19-6.54 34.98-16.61 46.93-29.92 11.18-12.45 20.15-28.57 27.41-49.28q0.48-1.39 0.94-2.74l19.15-0.09c-0.36 7.56 1.8 15.12 6.3 21.43 6.41 8.97 16.75 14.29 27.76 14.29q0.08 0 0.15 0l67.67-0.31c14.45-0.06 27.28-9.23 32.04-22.87l4.72-13.52c12.35-1.88 22.87-10.44 27.07-22.49l12.13-34.79c3.65-10.46 1.99-22.03-4.44-31.04q-1.29-1.8-2.78-3.41l34.46-98.83c3.65-10.45 1.99-22.03-4.44-31.04zm-3.96 28.11l-36.42 104.45c2.25 1.6 4.25 3.58 5.89 5.89 4.76 6.66 5.98 15.21 3.29 22.94l-12.13 34.79c-3.52 10.08-13.01 16.85-23.69 16.9l-1.44 0.01-6.66 19.1c-3.52 10.08-13.01 16.85-23.68 16.9l-67.67 0.31q-0.05 0-0.11 0c-8.14 0-15.78-3.93-20.51-10.56-4.75-6.66-5.98-15.21-3.29-22.94l0.8-2.27-36.64 0.17q-1.32 4.14-2.91 8.66c-6.86 19.58-15.25 34.72-25.63 46.29-10.93 12.16-25.45 21.39-43.18 27.44-16.21 5.53-35.31 8.33-56.77 8.33q-0.06 0-0.11 0c-25.78-0.01-45.16-3.63-59.26-11.07-22.22-11.72-28.73-27.56-30.28-38.78-1.7-12.33 1.31-28.59 9.77-52.71l5.66-16.15c3.55-10.1 13.08-16.86 23.78-16.86q0.01 0 0.01 0l33.42 0.02 3.34-9.52h-15.77c-8.16-0.01-15.82-3.97-20.55-10.63-4.72-6.67-5.92-15.21-3.21-22.92l6.1-17.4c9.1-25.94 24.04-44.07 44.42-53.89 17.8-8.58 40.94-12.75 70.71-12.75q0.07 0 0.15 0c41.4 0.02 65.95 7.13 79.61 23.07q0.01 0 0.01 0c3.59 4.19 7.11 9.58 9.6 16.27l60.13-76.55c4.75-6.05 12.01-9.6 19.71-9.64l89.6-0.4q0.06 0 0.12 0c8.13 0 15.78 3.93 20.51 10.56 4.75 6.66 5.97 15.21 3.28 22.94z"/>
						<path id="&lt;Path&gt;" class="s3" d="m281.26 142.87q-12.21-14.25-60.49-14.27-38.6-0.02-59.91 10.25-21.32 10.27-31.58 39.53l-6.1 17.41 67.49 0.03 5.89-16.78q4.11-11.73 7.96-15.32 3.85-3.59 10.87-3.59 6.18 0 7.91 3.41 1.73 3.41-2.03 14.13l-3.98 11.35q-3.5 9.96-7.64 14.63-4.15 4.66-10.31 6.05-6.17 1.38-30.23 1.37l-10.39 29.64q19.62 0.26 25.88 1.97 6.25 1.7 7.86 7.13 1.6 5.42-2.51 17.15l-4.96 14.13q-6.72 19.17-10.82 23.7-4.1 4.55-11.95 4.54-7.18 0-8.01-3.6-0.83-3.59 3.82-16.84l11.63-33.17-67.5-0.03-5.66 16.15q-10.22 29.13-8.59 40.93 1.63 11.79 17.07 19.94 15.44 8.14 47.52 8.15 28.23 0.01 48.73-6.98 20.5-7 32.57-20.43 12.06-13.43 20.6-37.79 11.51-32.81 7.11-41.71-4.39-8.9-18.39-12.82 17.75-6.29 26.6-13.91 8.86-7.63 14.87-24.77 8.88-25.33-3.33-39.58z"/>
					</g>
					<path id="&lt;Compound Path&gt;" class="s3" d="m479.56 81.35l-46.51 133.37 19.26-0.09-12.13 34.79-19.26 0.09-12.53 35.92-67.66 0.31 12.53-35.93-80.4 0.36 12.13-34.79 104.96-133.63zm-114.17 133.67l30.29-86.85-60.18 86.99z"/>
					<g id="&lt;Group&gt;">
						<g id="&lt;Group&gt;">
							<path id="&lt;Compound Path&gt;" class="s4" d="m164.7 76.84l-2.39 6.89h-36.06l2.01-5.77q21.61-16.13 25.96-19.96 4.35-3.84 5.09-5.98 0.57-1.65-0.06-2.46-0.63-0.81-2.5-0.82-1.87 0-3.09 0.9-1.23 0.9-2.16 3.57l-1.33 3.85h-14.68l0.51-1.47q1.17-3.4 2.42-5.36 1.25-1.96 4.14-3.86 2.88-1.89 6.79-2.87 3.91-0.97 8.9-0.97 9.77 0 13.75 2.98 3.98 2.99 2.4 7.55-1.21 3.48-5.37 7.35-4.16 3.87-22.3 16.43z"/>
							<path id="&lt;Compound Path&gt;" class="s5" d="m216.19 56.98l-4.67 13.49q-1.59 4.59-3.13 6.69-1.54 2.1-4.73 3.92-3.18 1.82-7.07 2.62-3.89 0.8-8.35 0.8-5.88 0-9.49-0.84-3.6-0.83-5.3-2.6-1.7-1.78-1.99-3.74-0.3-1.96 1.18-6.23l4.89-14.11q1.93-5.56 4.45-8.34 2.52-2.77 7.75-4.44 5.22-1.67 11.83-1.67 5.4 0 9.26 1.16 3.85 1.16 5.38 2.83 1.53 1.68 1.56 3.77 0.02 2.1-1.57 6.69zm-15.21-3.39q1.11-3.22 0.89-4.03-0.23-0.81-2.09-0.82-1.83 0.01-2.72 0.87-0.88 0.86-1.96 3.98l-6.84 19.72q-1.22 3.53-0.92 4.25 0.3 0.72 2.12 0.72 1.83 0 2.69-0.85 0.86-0.84 1.89-3.82z"/>
							<path id="&lt;Compound Path&gt;" class="s4" d="m250.11 76.84l-2.39 6.89h-36.06l2.01-5.77q21.61-16.13 25.96-19.96 4.35-3.84 5.1-5.98 0.57-1.65-0.07-2.46-0.63-0.81-2.5-0.82-1.87 0-3.09 0.9-1.23 0.9-2.15 3.57l-1.33 3.85h-14.69l0.51-1.47q1.18-3.4 2.42-5.36 1.25-1.96 4.14-3.86 2.89-1.89 6.8-2.87 3.9-0.97 8.89-0.97 9.78 0 13.76 2.98 3.97 2.99 2.39 7.55-1.2 3.48-5.36 7.35-4.17 3.87-22.31 16.43z"/>
							<path id="&lt;Compound Path&gt;" class="s5" d="m303.31 54.04h-16.38q0.97-2.82 1.13-3.56 0.15-0.74-0.55-1.23-0.7-0.51-2.2-0.51-1.26 0-2.23 0.48-0.98 0.47-1.36 1.22-0.38 0.75-1.17 3.02l-2.23 6.45q1.82-1.63 4.54-2.44 2.71-0.81 6.28-0.81 4.5 0 7.43 1.5 2.93 1.5 3.14 3.59 0.2 2.1-1.03 5.67l-1.12 3.22q-1.47 4.25-2.71 6.32-1.25 2.07-4.15 3.83-2.9 1.76-7.24 2.74-4.33 0.97-9.64 0.97-6.62 0-10.45-1.12-3.83-1.13-5.39-3.24-1.56-2.11-1.14-4.43 0.42-2.32 2.74-9.01l1.94-5.6q2.5-7.21 3.68-9.65 1.19-2.43 4.42-4.6 3.23-2.18 7.88-3.26 4.66-1.09 10.26-1.09 6.89 0 10.84 1.38 3.94 1.37 4.99 3.87 1.04 2.49-0.28 6.29zm-20.75 12.61q0.74-2.15 0.25-2.95-0.5-0.8-2.24-0.8-1.71 0-2.76 0.76-1.06 0.77-1.83 2.99l-2.53 7.31q-0.93 2.68-0.46 3.5 0.46 0.82 2.21 0.82 1.05 0 2.41-0.63 1.36-0.64 2.33-3.44z"/>
						</g>
					</g>
					<g id="&lt;Group&gt;">
						<g id="&lt;Group&gt;">
							<path id="&lt;Compound Path&gt;" class="s6" d="m294.57 351.19h-15.24l1.22-3.74q1.15-3.55 1.01-4.44-0.15-0.89-1.78-0.89-1.41 0-2.17 0.76-0.75 0.77-1.78 3.93l-6.44 19.81q-0.9 2.78-0.68 3.66 0.22 0.88 1.75 0.88 1.66 0 2.58-1 0.92-0.99 1.86-3.87l1.59-4.9h-3.08l2.04-6.27h17.85l-7.2 22.15h-9.58l-0.45-2.95q-2.18 1.91-4.86 2.87-2.69 0.95-5.91 0.95-3.84 0-6.76-1.31-2.93-1.31-4.04-3.25-1.11-1.94-0.85-4.07 0.26-2.13 1.64-6.39l3.98-12.26q1.93-5.91 3.7-8.59 1.77-2.68 6.79-4.91 5.01-2.23 11.82-2.23 6.7 0 10.49 1.94 3.78 1.94 4.26 4.6 0.47 2.66-1.18 7.74z"/>
							<path id="&lt;Compound Path&gt;" class="s7" d="m305.41 336h10.79q10.79 0 14.42 0.58 3.63 0.59 5.25 3 1.62 2.41-0.09 7.69-1.57 4.82-3.81 6.47-2.24 1.66-7.34 1.99 4.27 0.79 5.39 2.12 1.13 1.32 1.15 2.43 0.02 1.11-1.6 6.11l-3.54 10.88h-14.16l4.46-13.71q1.08-3.32 0.59-4.11-0.48-0.79-3.63-0.79l-6.05 18.61h-15.24zm12.95 7.07l-2.99 9.18q2.57 0 3.77-0.5 1.19-0.5 2.08-3.23l0.73-2.27q0.64-1.96-0.15-2.57-0.8-0.61-3.44-0.61z"/>
							<path id="&lt;Compound Path&gt;" class="s8" d="m371.69 336l-4.7 41.27h-15.57l1.59-7.41h-5.45l-3.33 7.41h-15.76l21.19-41.27zm-16.7 26.54q1.12-7.01 3.31-17.34-6.18 11.86-8.56 17.34z"/>
							<path id="&lt;Compound Path&gt;" class="s9" d="m417.02 336l-13.41 41.27h-13.36l-1.83-18.76-6.09 18.76h-12.75l13.41-41.27h12.75l2.5 18.58 6.04-18.58z"/>
							<path id="&lt;Compound Path&gt;" class="s10" d="m423.14 336h11.41q11.04 0 14.7 0.71 3.66 0.72 5.15 2.35 1.5 1.63 1.36 3.63-0.15 2-2.05 7.87l-4.7 14.45q-1.8 5.56-3.15 7.43-1.36 1.88-3.55 2.94-2.19 1.05-5.04 1.47-2.85 0.42-8.32 0.42h-19.22zm12.95 7.07l-8.83 27.15q3.3 0 4.36-0.93 1.06-0.93 2.41-5.06l5.21-16.04q0.91-2.8 0.91-3.59 0-0.79-0.78-1.16-0.79-0.37-3.28-0.37z"/>
						</g>
					</g>
					<g id="&lt;Group&gt;">
						<g id="&lt;Group&gt;">
							<path id="&lt;Compound Path&gt;" class="s10" d="m222.23 389.19h25.81l-2.68 8.26h-10.57l-2.54 7.83h9.41l-2.55 7.85h-9.41l-5.64 17.34h-15.24z"/>
							<path id="&lt;Compound Path&gt;" class="s9" d="m266.98 389.19l-13.41 41.28h-15.24l13.41-41.28z"/>
							<path id="&lt;Compound Path&gt;" class="s8" d="m307.13 389.19l-13.41 41.28h-13.36l-1.83-18.76-6.1 18.76h-12.74l13.41-41.28h12.74l2.51 18.59 6.03-18.59z"/>
							<path id="&lt;Compound Path&gt;" class="s7" d="m339.59 389.19l-4.69 41.28h-15.58l1.59-7.42h-5.45l-3.33 7.42h-15.75l21.18-41.28zm-16.7 26.54q1.12-7.01 3.31-17.33-6.18 11.85-8.55 17.33z"/>
							<g id="&lt;Group&gt;">
								<path id="&lt;Compound Path&gt;" class="s7" d="m365.95 389.16l-10.74 33.04h9.15l-2.69 8.27h-24.18l13.42-41.31z"/>
								<path id="&lt;Compound Path&gt;" class="s6" d="m378.74 389.16h25.07l-2.68 8.27h-10.04l-2.55 7.83h9.4l-2.55 7.86h-9.4l-2.95 9.08h11.04l-2.69 8.27h-26.08z"/>
							</g>
						</g>
					</g>
					<g id="&lt;Group&gt;">
						<g id="&lt;Group&gt;">
							<g id="&lt;Group&gt;">
								<g id="&lt;Group&gt;">
									<path id="&lt;Path&gt;" class="s11" d="m583.88 201.04c-22.33-22.34-46.64-17.24-61.81-7.93-13.8 8.47-17.04 21.22-17.51 23.44-0.47-2.22-3.7-14.97-17.51-23.44-15.16-9.31-39.47-14.41-61.8 7.93-14.48 14.47-23.43 57.11 4.94 98.22 30.98 44.89 68.04 62.51 73.97 65.13l0.4 0.18 0.41-0.18c5.93-2.62 42.99-20.24 73.97-65.13 28.37-41.11 19.42-83.75 4.94-98.22z"/>
								</g>
							</g>
						</g>
						<g id="&lt;Group&gt;">
							<g id="&lt;Group&gt;">
								<g id="&lt;Group&gt;">
									<g id="&lt;Group&gt;">
										<path id="&lt;Path&gt;" class="s3" d="m501.85 247.05c0.3-0.06 0.83-0.09 2.3 0.12 0.6 3.11-0.51 5.28-1.4 6.2-0.9 0.72-1.45 0.81-2.25 0.72-5.03-0.5-2.16-13.26-2.24-18.44-0.65-0.05-1.35-0.19-2.01-0.24 0-1.64 0.1-2.68 0.19-4.37 0.65 0 1.22 0.14 1.87 0.14 0.1-3.55 0.28-7.24 0.37-10.8q1.19 0.22 2.39 0.43 0 0.08 0 0.15c-0.33 4.55-0.47 6.7-0.74 10.37 0.98 0.2 2.28 0.53 3.26 0.72 0-0.07-0.04 2.63-0.19 3.98-1.77-0.14-2.99-0.28-2.99-0.28-0.08 4.08-1.6 14.75 0.95 13.24 0.72-0.59 0.45-1.52 0.49-1.94z"/>
										<path id="&lt;Path&gt;" class="s3" d="m436.13 221.68c0.8 0.05 1.73 0 2.52 0.05-0.04 4.11-0.19 8.61-0.09 12.77 0.8-0.37 1.12-0.72 2.98-0.53 1.6 0.87 2.26 2.62 2.62 4.85 0.4 2.42 0.79 15.44 0.42 16.28-0.65-0.05-1.53-0.05-2.23-0.15-0.35-5.16 0.33-9.63-0.2-15.26-0.2-2.2-1.3-1.78-1.77-1.88-0.83 0.14-1.11 0.33-1.4 1.01-0.69 4.26 0.02 11.97-0.33 15.79-0.7 0.14-1.49 0-2.19-0.1-0.01-6.18 0.36-13.1 0.14-19.44-0.12-3.18-0.36-10.33-0.47-13.39z"/>
										<path id="&lt;Path&gt;" class="s3" d="m430.29 221.97q1.05 0 2.1 0 0.07 5.18 0.14 10.37c0.98 0.05 1.78 0 2.66 0.1 0.05 1.2 0.1 2.59 0.14 3.79q-0.07 0.14-0.14 0.29-1.54 0.14-3.08 0.28c0.07 4.24-0.99 12.61 0.76 13.31 1.14 0.09 1.24-1.84 1.38-1.93 0.5-0.01 0.98-0.03 1.93 0 0.01 2.45-0.64 5.86-2.34 6.63-5.9 2.62-3.84-9.48-3.69-18.15q-1.12 0-2.24 0 0-2.31 0-4.61 1.12-0.07 2.24-0.14 0.07-4.97 0.14-9.94z"/>
										<path id="&lt;Path&gt;" class="s3" d="m534.14 221.97c0.94 0.05 2.15-0.01 3.09 0.03-0.08 4.22-0.65 8.85-0.14 12.93 0.69-0.42 2.34-1.05 3.6-0.61 2.82 0.88 3.85 4.75 3.58 10.84-0.1 2.08 0.63 6.37 0.56 10.22-0.8-0.04-2.12-0.02-2.91-0.07-0.56-2.52 0.56-15.67-0.53-16.42-0.9-1.15-2.33-1.22-3.32-0.5-1.6 0.97-0.7 9.95-0.77 16.42-0.85-0.06-1.9 0.02-2.74-0.07 0.1-6.61 0.52-10.47 0.21-17.29-0.23-5.12-0.77-10.26-0.63-15.48z"/>
										<path id="&lt;Path&gt;" class="s3" d="m570.02 249.62c0.14 4.06-0.14 6.54-3.36 6.48-4.75-0.19-2.19-13.89-2.25-17.57q-0.98-0.07-1.96-0.14 0.07-2.09 0.14-4.18c0.75 0.02 1.08 0.08 1.82 0.11 0.14-3.31 0.29-6.88 0.42-10.19q1.13 0.14 2.25 0.29c-0.21 2.81-0.57 5.97-0.63 10.19 0.98 0.14 2.13 0.39 3.11 0.54 0 0.24 0.04 0.55 0.04 0.79q-0.14 1.51-0.28 3.02-1.4-0.14-2.8-0.28c-0.23 4.5-0.3 5.77-0.42 9.21-0.18 3.76 0.38 3.63 0.98 3.61 0.72-0.06 0.82-1.19 0.98-2.02q0.98 0.07 1.96 0.14z"/>
										<path id="&lt;Path&gt;" class="s3" d="m475.46 233.3c-0.04 1.59-0.14 3.36-0.18 4.94-0.52 0.1-2.31 0.57-2.82 1.75-0.91 4.77-0.39 8.24-0.27 14.1q-0.07 0-0.14 0-1.33-0.15-2.66-0.29 0-0.43 0-0.86c0.51-7.06 0.71-13.03 0.7-19.31q0.98 0 1.96 0 0 1.44 0 2.89 0.14-0.08 0.28-0.15c0.4-1.34 1.5-2.95 3.13-3.07z"/>
										<path id="&lt;Path&gt;" class="s3" d="m533.3 233.92c0.01 1.59 0.05 3.2 0 4.78-6.91-0.76-6.91 11.83-0.98 11.93q0.07 2.09 0.14 4.18c-10.93 1.45-9.05-22.47 0.84-20.89z"/>
										<path id="&lt;Path&gt;" class="s3" d="m525.31 234.07q-0.07 2.37-0.14 4.75c-5.85-0.13-2.7 12.74-3.18 15.84-0.98-0.09-2.14-0.19-3.13-0.28 0.65-4.06 0.72-15.95 0.68-20.15 0.4-0.03 0.93-0.02 2.27-0.02 0 0.96-0.09 1.9-0.09 2.86 0.08 0.06 0.12 0.01 0.21-0.03 0.63-1.45 1.52-2.96 3.38-2.97z"/>
										<path id="&lt;Path&gt;" class="s3" d="m571.84 234.35c0.66 0 1.42 0 2.07 0 0.02 0.89-0.02 1.35 0.07 2.45 0.83-0.98 1.43-2.11 3.05-2.3-0.05 1.05-0.06 2.18-0.11 3.24-4.2 0.38-2.53 10.22-2.7 17.36-0.98 0.13-1.92 0.12-2.9 0.07 0.42-5.82 0.25-10.38 0.52-20.82z"/>
										<path id="&lt;Path&gt;" class="s3" d="m561.47 237.96c-1.74-0.24-3.7 0.96-1.47 5.54 2.65 4.57 3.45 12.79-4.55 12.03q0.06-1.73 0.14-3.46c5.29-0.44 3.28-6.28 2.59-7.34-1.26-1.99-4.66-10.64 3.71-9.4-0.14 0.81-0.28 1.81-0.42 2.63z"/>
										<path id="&lt;Compound Path&gt;" class="s3" d="m463.93 252.94c-1.12-0.51-2.56-0.67-2.67-1.44-0.23-3.03 1.19-0.25 2.81-1.01 0.86-0.41 1.64-1.54 1.96-2.16 1.74-3.44 1.88-8.47 0.98-12.82 0.28 0.05 0.88 0.09 1.16 0.14 0.18-1 0.28-1.97-0.46-2.73-0.37-0.34-0.65-0.39-0.98-0.29-0.33 0.2-0.65 0.21-0.84 1.58-5.59-2.57-7.29 7.84-5.47 13.4-1.04 0.48-1.99 1.14-2.01 2.54 0.05 1.75 0.68 2.22 1.31 2.93-1.54 0.85-1.53 3.1-0.89 4.22 0.66-0.29 1.28-0.65 2.1-1.29-0.49-1.77 0.77-2.11 2.3-1.22 1.56 1.02 2.75 1.82 3.32 3.1 0.64 1.46 0.04 2.28-0.75 2.39-1.86-0.28-2.81-1.29-4.02-2.63-0.61 0.28-1.26 0.69-1.87 1.14 1.64 2.71 9.07 6.8 9.34 0.77 0.09-2.66-2.64-5.41-5.32-6.62zm0.5-16.19c1.79 0.12 2.17 5.44-0.23 10.19-1.03 1.35-1.84 0.15-2.17-1.36-0.66-2.67-0.23-8.51 2.4-8.83z"/>
										<path id="&lt;Compound Path&gt;" class="s3" d="m479.76 243.72q3.09-0.07 6.17-0.15c-0.25-3.61-1.11-7.84-2.52-8.64-6.5-2.9-7.75 8.71-5.75 14.4 0.98 2.78 3.56 5.28 7.85 4.47-0.05-1.2-0.19-2.49-0.23-3.69-4.47 0.11-5.65-2.75-5.52-6.39zm1.18-6.64c0.23-0.28 0.6-0.74 1.06-0.13 0.75 1.24 1.06 2.63 0.99 4.75q-1.62 0.07-3.23 0.14c0-2.08 0.39-3.46 1.18-4.76z"/>
										<path id="&lt;Compound Path&gt;" class="s3" d="m548.3 244.58q3.29-0.07 6.58-0.14c-0.34-5.33-1.51-8.42-2.52-8.79-6.93-2.99-8.21 8.79-6.16 14.55 0.89 2.53 3.74 5.32 8.26 4.46 0-1.2-0.14-2.4-0.14-3.6-4.21 0.01-6-2.24-6.02-6.48zm1.54-6.91c0.37-0.09 0.71-0.17 1.26 0.75 0.44 1.42 0.75 2.25 0.7 4.14q-1.75 0.08-3.5 0.15c-0.05-0.1-0.03-0.81-0.07-0.9 0.11-1.53 0.73-3.74 1.61-4.14z"/>
										<path id="&lt;Compound Path&gt;" class="s3" d="m448.04 245.35c1.96-0.24 3.69-0.34 5.65-0.58 0.01-4.57-0.7-9.89-4.34-10.27-1.14 0.19-2.05 0.61-2.66 1.44-2.65 3.61-2.25 14.46 0.98 17 1.42 1.11 3.44 1.22 6.02 1q-0.21-1.87-0.42-3.74c-6.61 1.13-5.23-5.68-5.23-4.85zm-0.18-6.26c0.35-1.08 0.46-1.28 1.21-1.28 1.19 0.71 1.39 1.46 1.64 3.08 0 0.34 0.18 1.05 0.18 1.39q-1.61 0.36-3.22 0.72c-0.01-1.84-0.12-2.59 0.19-3.91z"/>
										<path id="&lt;Compound Path&gt;" class="s3" d="m513.61 235.17c-7.11 0.06-5.78 15.17-3.2 18.1 4.21 3.24 6.85-1.39 7.31-8.34 0.33-4.97-0.86-10.03-4.11-9.76zm1.98 8.39c-0.15 3.36-0.87 7.78-3.17 6.93-1.41-0.52-1.99-5.82-1.53-8.66 0.42-1.5 0.85-3.01 2.09-3.44 0.63-0.3 1.17 0.03 1.71 0.75 0.55 0.72 0.95 3.29 0.9 4.42z"/>
										<path id="&lt;Compound Path&gt;" class="s3" d="m583.48 235.58c-3.19-3.06-5.8 0.12-6.17 4.25q0 0.07 0 0.14 1.12 0 2.24 0 0.07-0.93 0.14-1.87 0.49-0.36 0.98-0.72c1.64 0.28 1.71 2.8 1.54 4.46-7.28-0.59-7.36 11.71-3.5 13.4 2.15 0.48 2.76-0.41 3.78-1.44q0.07 0.86 0.14 1.73 1.41-0.07 2.81-0.15c-1.17-6.28 0.4-16.37-1.96-19.8zm-3.51 16.64c-1.21-0.73-1.92-2.87-1.09-6.02 0.38-1.13 2.17-1.95 3.44-2.48-0.44 3.49 1.09 9-2.35 8.5z"/>
										<path id="&lt;Compound Path&gt;" class="s3" d="m492.32 233.44c-0.57-0.36-1.05-0.39-1.74-0.19-1.39 0.45-2.52 2.28-3.72 5.76 0.75 0.29 1.55 0.39 2.29 0.67 0.38-0.62 0.63-1.52 1.15-1.82 1.28-0.57 1.99 1.61 1.94 3.41-2.84 2.4-6.63 5.92-4.49 11.23 1.32 3.28 5.74 1.99 5.89-2.01 0.14 0 0.14 0 0.28 0 0.01 1.41 0.03 2.51 0.12 3.54 0.8 0 1.7-0.04 2.54-0.14-0.48-7.27-0.75-18.3-4.26-20.45zm-0.5 16.79c-0.49 0.7-1.58 1.09-2.04 0.62-0.97-1.21-0.51-4.07 2.6-6.41 0.96-0.38 0.17 4.44-0.56 5.79z"/>
										<path id="&lt;Path&gt;" class="s3" d="m485.72 260.31c-0.06 3.5-0.33 6-0.2 11.96 5.41-1.77 7.9 2.41 7.63 5.56 0 2.73 0.07 3.91 0.07 5.93 0.23 2.13 0.95 5.03 0.74 7.85-0.89-0.05-2.3-0.1-3.19-0.14-0.76-7.25 1.13-15.92-2.02-16.09-4.8-0.28-2.53 3.81-3.08 15.82-0.88-0.1-1.77-0.09-2.74-0.11 0.02-7.53 0.64-13.67-0.14-22.96q-0.07-3.89-0.14-7.78c1.16-0.17 1.67-0.03 3.07-0.04z"/>
										<path id="&lt;Path&gt;" class="s3" d="m520.75 261.07c0.75 0 1.66 0 2.41 0-0.04 1.7-0.04 6.88-0.02 9.63 0.88 0.09 2.07 0.1 2.96 0.2 0.05 1.15 0.09 2.42 0.14 3.57q-0.07 0.14-0.14 0.29c-1.07 0.09-2.09 0.05-3.17 0.14-0.13 3.88-0.59 9.87-0.07 11.77 0.18 0.64 0.71 1.11 1.33 0.79 0.66-0.51 0.49-0.85 0.79-1.75 0.7 0.04 1.51 0.03 2.27-0.03 0 0.05-0.03 0.26-0.03 0.31-0.38 3.33-0.86 6.32-4.23 6.12-1.74-0.4-2.43-2.5-2.5-3.38q0.14-6.91 0.28-13.83-1.19 0-2.38 0c0.05-1.44 0.07-3.02 0.12-4.46 0.74-0.05 1.52 0.04 2.26 0 0.05-3.12-0.07-6.25-0.02-9.37z"/>
										<path id="&lt;Path&gt;" class="s3" d="m466.68 288.44c-1.03 0.16-2.01 0.13-2.95 0.22 0 3.36 0 6.94 0 10.3q-1.05 0-2.1 0-0.07-4.97-0.14-9.94-1.19-0.07-2.38-0.15 0-2.3 0-4.61 1.19 0 2.38 0c0.01-6.93-1.73-16.22 1.26-18 0.98-0.44 1.76-0.5 2.78 0.04 1.65 0.75 2.23 4.35 2.24 6.44-0.7 0.07-1.43 0.03-2.13-0.01-0.08-1.29-0.26-1.83-0.84-2.01-0.57-0.11-1.12 0.13-1.21 0.58-0.67 3.71-0.38 8.86 0 12.96q1.61 0.15 3.23 0.29-0.07 1.95-0.14 3.89z"/>
										<path id="&lt;Path&gt;" class="s3" d="m505.08 265.97c0.82 0.1 1.11 0.15 1.4 0.78 0.41 0.83 0.25 1.82 0.02 2.68-0.17 0.33-0.47 0.64-1 0.72-0.48 0-0.75-0.04-1.12-0.43-0.36-0.78-0.47-1.46-0.28-2.43 0.17-0.57 0.48-1.03 0.98-1.32z"/>
										<path id="&lt;Path&gt;" class="s3" d="m560.3 290.89c0.04-1.2-0.1-2.34-0.05-3.54 11.04-2.06-3.62-12.78 2.88-16.97 1.42-0.91 2.74-1.06 4.6-0.52q-0.28 1.37-0.56 2.74c-1.09-0.33-2.08 0.15-2.53 0.89-0.57 2.69 0.94 4.58 2.47 8.3 1.17 2.84 1.09 9.88-6.81 9.1z"/>
										<path id="&lt;Path&gt;" class="s3" d="m517.16 273.06c-1.67-0.32-3.18-0.48-3.58 1.72-0.77 2.99 6.18 10.99 0.61 15.33-1.34 1.04-2.67 1.78-4.91 1.93q-0.28-1.87-0.56-3.74c0.05-0.05 1.16-0.21 1.21-0.26 5.99-2 1.84-8.01 0.63-11.09-1.96-5.01 1.58-8.23 6.99-6.88-0.09 0.91-0.29 2.08-0.39 2.99z"/>
										<path id="&lt;Path&gt;" class="s3" d="m532.55 270.44q0 0.86 0 1.73 0.14-0.15 0.28-0.29c0.59-0.78 1.79-1.69 3.14-1.12 1.58 0.68 1.64 1.68 2.19 3.4 0.18 0.23 0.38 0.07 0.47 0.02 0.28-2.63 1.74-4.54 4.46-3.8 0.85 0.47 1.28 0.85 1.79 1.93 0.77 3.08 0.29 8.92 0.53 13.88 0 1.17 0.17 4.36 0.31 5.42-1.21 0.09-2.43 0.04-3.64 0-0.16-3.58 0.97-16.53-1.67-15.67-2.59 0.07-1.21 11.12-1.42 15.67q-1.68 0-3.36 0c0.08-3.34 1.33-14.41-0.28-15.7-0.49-0.38-0.87-0.41-1.54-0.29-2.27 0.36-1.56 10.66-1.68 15.85q-1.54 0-3.09 0 0-0.08 0-0.15c0.29-5.23 0.45-10.27 0.74-15.5 0-1.78 0.1-3.75 0.1-5.53q1.34 0.07 2.67 0.15z"/>
										<path id="&lt;Path&gt;" class="s3" d="m495.97 271.44q1.05 0 2.1 0c-0.02 0.83 0.11 1.43 0.14 2.34 0.19-0.15 0.32-0.07 0.51-0.21 0.5-1.12 1.24-1.73 2.85-2.13-0.04 1.06-0.01 2.09-0.05 3.15-5.31 1.51-2.48 10.16-3.03 17.16q-1.54 0-3.08 0 0.28-10.15 0.56-20.31z"/>
										<path id="&lt;Path&gt;" class="s3" d="m481.24 272.15c-0.03 0.73-0.07 2.5-0.13 3.62-1.61 0.33-3.38 1.57-3.68 3.01-0.61 3.79-0.02 6.96 3.68 7.79q0.07 2.45 0.14 4.9-0.42 0-0.84 0c-2.1-0.46-2.95-1.29-4.06-2.31-2.25-2.05-3.04-10.62-0.84-14.11 1.65-2.65 3.47-2.87 5.73-2.9z"/>
										<path id="&lt;Path&gt;" class="s3" d="m503.96 275.19q1.19 0.07 2.38 0.14 0.07 8 0.14 15.99-1.4 0-2.8 0 0.14-8.06 0.28-16.13z"/>
										<path id="&lt;Compound Path&gt;" class="s3" d="m452.34 273.19c-2.03 0.44-2.95 2.24-3.6 4.02-1.56 4.24-1.7 16.15 3.71 16.11 6.99-0.04 7.25-20.77-0.11-20.13zm-0.1 16.12c-2.32-0.53-2.24-13.17 1.4-12.39 2.38 0.86 2.32 12.52-1.4 12.39z"/>
										<path id="&lt;Compound Path&gt;" class="s3" d="m555.25 273.03c-2.51-3.83-8.09-1.92-7.99 3.02 0.7 0.1 1.52 0.2 2.21 0.29 0.32-1.23 0.49-1.53 1.44-2.16 0.67-0.26 1.12-0.21 1.68 0.15 0.61 0.86 0.84 1.66 0.9 2.67-1.4 1.25-2.72 2.42-4.12 3.66-2.97 3.9-1.92 10.82 2.16 10.41 1.53-0.2 2.76-1.68 3.16-4.07q0.14-0.07 0.28-0.14 0.21 1.73 0.42 3.45 0.07 0.15 0.14 0.29c0.94-0.09 1.84-0.22 2.83-0.15-0.4-5.45-0.94-14.11-3.11-17.42zm-4.06 14.55c-2.43-1.47-0.7-5.43 0.73-6.34 0.72-0.51 1.65-1.13 1.79-1.13 0.1 2.6-0.56 8.29-2.52 7.47z"/>
										<path id="&lt;Path&gt;" class="s3" d="m528.76 324.93c0.08 2.8-0.21 4.64-1.03 5.73-0.65 0.86-1.35 1.05-2.78 1.04-4.46-0.05-2.06-13.23-2.21-18.41-0.66-0.05-1.48-0.1-2.13-0.15 0.05-1.61 0.01-3.59 0.22-4.4 0.82 0.2 1.42 0.31 2.05 0.08q0.14-5.33 0.28-10.66c0.79 0.15 1.59 0.15 2.38 0.29 0 0.05-0.17 1.68-0.31 4.09-0.23 3.33-0.28 4.4-0.39 6.63 0.98 0.19 2.24 0.47 3.22 0.66q0 0.65 0 1.3c-0.06 1.12-0.07 1.7-0.17 2.56-2.05-0.14-2.88-0.34-2.99-0.23-0.09 4.08-0.85 13.29 0.05 13.4 1.62 0.34 1.23-1.62 1.47-2.1 0.1-0.2 1.5-0.05 2.34 0.17z"/>
										<path id="&lt;Path&gt;" class="s3" d="m483.21 298.88c0.19 0.05 0.52 0.01 0.71 0.06-0.43 3.62-0.67 8.34-0.29 12.04 5.44-1.81 7.57 1.76 7.57 5.62 0 3.4 0 4.34 0.14 6.66 0.31 1.91 0.73 3.18 0.73 7-0.89-0.05-2.22 0.04-3.11 0-1.17-4.55 0.78-15.17-1.12-15.96-6.38-2.61-3.47 8.19-4.01 15.55-0.89-0.09-1.94-0.07-2.86 0 0.02-7.52 0.33-15.57-0.14-23.04q-0.07-3.89-0.14-7.78 1.26-0.07 2.52-0.15z"/>
										<path id="&lt;Path&gt;" class="s3" d="m515.87 301.33c0.3-0.15 0.63-0.1 0.95-0.05 0.24 0.14 0.55 0.31 0.73 0.63 0.29 0.47 0.38 0.94 0.28 1.58-0.27 0.59-0.34 0.95-0.92 1.24-0.42 0.23-0.9 0.2-1.32-0.08-0.52-0.5-0.7-0.95-0.7-2.02 0.18-0.75 0.4-1.14 0.98-1.3z"/>
										<path id="&lt;Path&gt;" class="s3" d="m531.71 307.67q1.68 0.07 3.36 0.14c0.39 3.64 1.04 7.67 1.82 11.53q0.07-0.15 0.14-0.29 1.75-4.97 3.51-9.94 1.89 0.07 3.78 0.14c-1.01 3.85-1.96 5.93-2.94 8.62-1.36 4.03-2.71 7.52-4.07 11.55q-1.75 4.39-3.5 8.79-2.03-1.01-4.07-2.02 2.6-4.75 5.19-9.51c-1.27-6.48-2.4-12.67-3.22-19.01z"/>
										<path id="&lt;Path&gt;" class="s3" d="m506.87 309.08c0.7 0 1.68-0.06 2.38-0.06 0.1 0.77-0.03 1.54 0.06 2.31 0.19-0.15 0.51-0.38 0.7-0.52 0.5-1.13 1.41-1.31 2.64-1.7q-0.07 1.59-0.14 3.17c-2.97 0.44-3.31 3.96-3.06 9.91 0.11 2.58-0.01 5.21 0.11 7.23q-1.54 0-3.08 0c0.19-6.77 0.21-13.57 0.39-20.34z"/>
										<path id="&lt;Path&gt;" class="s3" d="m478.11 311.42c0.04 1.07 0.03 2.6-0.03 3.71-1.84 0.29-3.28 1.45-3.64 2.65-0.61 3.79 0.27 7.35 3.59 8.04q0.07 2.45 0.14 4.9c-0.3 0-6.37 0.23-6.92-8.24-0.23-3.41 0.07-6.36 1.17-8.18 1.61-2.68 3.72-2.92 5.69-2.88z"/>
										<path id="&lt;Path&gt;" class="s3" d="m517.83 312.42c-0.14 5.92 0.13 11.98 0.14 17.86q-1.82 0.08-3.64 0.15 0-0.07 0-0.15 0.35-9 0.7-18 0.07 0 0.14 0 1.33 0.07 2.66 0.14z"/>
										<path id="&lt;Compound Path&gt;" class="s3" d="m500.73 309.25c-4.31-1.33-5.67 1.5-6.16 5.33q1.26 0 2.52 0c0.09-0.67 0.19-1.2 0.28-1.87 0.51-0.96 1.39-1.14 2.07-0.55 0.58 0.58 0.88 2 0.87 4.15-3.53 0.3-6.39 2.27-6.89 5.68-0.73 4.93 1.2 10.52 5.35 8.58 0.66-0.29 1.24-0.7 1.8-1.44 0.2-0.06 0.14 0.86 0.16 1.73 1.08-0.05 2.15 0.02 3.23-0.03-0.99-8.23 0.27-20.39-3.23-21.58zm-0.45 16.54c-0.28 1.32-1.67 2-2.69 1.56-2.75-2.04-2.27-7.06 1.57-8.53 0.61-0.18 1.02-0.39 1.21-0.35-0.06 2.65-0.01 5.54-0.09 7.32z"/>
									</g>
								</g>
							</g>
						</g>
					</g>
				</g>
				<g id="&lt;Group&gt;">
					<path id="&lt;Path&gt;" class="s1" d="m519.41 101.2l-27.59 0.76-16.52 49.53h59.05l16.77-50.29z"/>
					<g id="&lt;Group&gt;">
						<path id="&lt;Compound Path&gt;" class="s10" d="m506.75 113.35l-1.28 3.89 2.78 0.01-1.28 3.9-2.78-0.01-4.34 13.18q-0.8 2.43-0.55 2.71 0.26 0.28 2.79 0.3l-1.31 3.97-4.16-0.02q-3.53-0.02-4.96-0.24-1.44-0.22-2.34-1-0.89-0.77-0.85-1.77 0.05-0.99 1.26-4.67l4.12-12.52-2.23-0.01 1.29-3.9 2.22 0.01 1.28-3.88z"/>
						<path id="&lt;Compound Path&gt;" class="s9" d="m523.34 111.3l-2.22 6.76q1.62-0.89 3.31-1.33 1.69-0.43 3.45-0.43 2.71 0.02 4.28 1.03 1.58 1.01 1.57 2.32-0.01 1.32-1.16 4.79l-5.58 16.99-10.32-0.05 5.7-17.35q0.71-2.15 0.62-2.76-0.09-0.62-1.11-0.62-0.95-0.01-1.49 0.62-0.54 0.63-1.15 2.51l-5.79 17.58-10.31-0.05 9.88-30.07z"/>
					</g>
				</g>
			</g>
		</g>
	</g>
</svg>