<svg version="1.2" xmlns="http://www.w3.org/2000/svg" viewBox="0 0 652 672" width="652" height="672">
	<style>
		tspan { white-space:pre } 
		.s0 { fill: #000000 } 
		.s1 { fill: #01bcf1 } 
		.s2 { fill: #eb008b } 
		.s3 { fill: #ec1c24 } 
		.s4 { fill: #f37620 } 
		.s5 { fill: #fbb216 } 
		.s6 { fill: #fff100 } 
		.s7 { fill: #fefefe } 
		.s8 { fill: #e92a24 } 
		.s9 { fill: #00adee } 
		.s10 { fill: #aae0f9 } 
		.t11 { font-size: 67px;fill: #030302;font-family: "Impact" } 
	</style>
	<g id="Warstwa 2">
		<g id="&lt;Group&gt;">
			<g id="&lt;Group&gt;">
				<path id="&lt;Path&gt;" class="s0" d="m594.13 189.79q0 0 0 0c-12.52-12.52-27.4-19.41-43.03-19.93-15.51-0.5-28.14 5.14-36 9.96-4.04 2.48-7.41 5.23-10.22 8.05-2.64-2.66-5.69-5.15-9.14-7.38l29.52-84.67c5.13-14.71 2.79-31.05-6.26-43.73-9-12.61-23.62-20.13-39.14-20.13q-0.09 0-0.18 0l-89.6 0.4c-14.76 0.07-28.45 6.76-37.57 18.37l-41.29 52.56c-4.55-4.04-9.69-7.53-15.46-10.52q1.32-0.64 2.54-1.38c3.88-2.35 6.87-5.24 8.88-8.59 1.36-2.26 2.61-5.1 3.94-8.93 0 0 5.06-14.62 5.75-16.6 2.03-5.86 2.02-11.33-0.04-16.26-1.57-3.77-5.16-8.86-13.29-11.69-4.16-1.44-9.21-2.15-15.44-2.15-4.78 0-9.3 0.49-13.43 1.45q-5.31 1.25-9.65 3.56c-5.13-3.39-11.85-4.98-21.01-4.98-4.46 0-8.59 0.46-12.28 1.39-3.34 0.83-6.41 2.05-9.17 3.61-2.09-1.31-4.53-2.39-7.37-3.25-3.92-1.18-8.27-1.75-13.28-1.75-5.84 0-11.26 0.78-16.1 2.34q-3.41 1.09-6.27 2.61c-5.11-3.37-11.82-4.95-20.95-4.95-4.45 0-8.58 0.46-12.28 1.39-4.12 1.03-7.85 2.62-11.08 4.75-3.64 2.38-6.34 5.01-8.26 8.04-1.43 2.25-2.69 4.96-3.84 8.28 0 0-6.94 20.03-6.92 20.03l-4.67 13.38-2.22 6.39-2.4 6.9h29.26c-23.88 12.88-41.32 34.64-51.89 64.77l-6.11 17.4c-3.89 11.11-3.52 23.16 0.79 33.87-9.98 5.58-17.81 14.68-21.8 26.04l-5.66 16.15c-9.73 27.72-13.07 47.28-10.85 63.39 2.28 16.52 11.46 39.63 42.25 55.87 17.46 9.21 40.33 13.69 69.92 13.71h0.11c23.98-0.01 45.56-3.22 64.15-9.56 15.52-5.3 29.09-12.72 40.55-22.12l-8.79 27.04-2.53 7.8c-3.13-0.41-6.52-0.62-10.24-0.62-6.97 0-13.34 0.79-18.95 2.35-6.29 1.75-11.49 4.37-15.44 7.79-4.32 3.75-7.54 9-9.83 16.07-1.87 5.74-6.03 20.92-7.14 24.32l-1.35 4.18c-2.3 7.07-2.83 12.64-1.68 17.52 3.48 14.78 20.51 16.6 36.73 16v0.1h201.63c16.2 0 48.52 3.98 60.97-8.02 3.62-3.49 6.37-8.24 8.4-14.5l1.92-5.9c1.78-5.5 4.95-20.71 6.26-24.73 2.98-9.17 2.55-16.71-1.29-22.4-2.39-3.52-7.02-8.1-15.59-9.95q-1.27-0.27-2.72-0.48l0.03-0.24c3.11-9.57 7.57-23.29 7.57-23.29q0 0 0 0c6.34 3.73 11.02 5.94 13.2 6.9l6.05 2.73 6.13-2.71c7.57-3.34 47.02-22.44 79.83-69.98 33.25-48.19 21.64-97.75 3.32-116.07z"/>
				<g id="&lt;Group&gt;">
					<g id="&lt;Group&gt;">
						<path id="&lt;Compound Path&gt;" class="s1" d="m257.13 422.73h-23.09l1.53-4.72q1.08-3.31 0.49-4.21-0.6-0.91-2.66-0.91-2.25 0-3.79 1.22-1.55 1.22-2.36 3.7-1.04 3.19-0.27 4.81 0.72 1.62 5.76 3.89 14.47 6.57 17.41 10.79 2.94 4.21-0.1 13.57-2.22 6.82-5.66 10.04-3.44 3.23-10.99 5.42-7.57 2.18-16.66 2.18-9.98 0-16.21-2.52-6.24-2.52-7.16-6.41-0.92-3.9 1.41-11.07l1.36-4.17h23.08l-2.52 7.76q-1.16 3.58-0.52 4.6 0.64 1.03 3.12 1.03 2.48-0.01 4.11-1.3 1.64-1.3 2.47-3.86 1.83-5.63 0.09-7.36-1.8-1.74-9.75-5.79-7.95-4.09-10.35-5.94-2.42-1.85-3.33-5.12-0.92-3.27 0.73-8.35 2.38-7.32 6.29-10.7 3.9-3.39 10.78-5.3 6.88-1.91 15.74-1.91 9.68 0 15.82 2.09 6.14 2.09 7.33 5.25 1.18 3.17-1.29 10.77z"/>
						<path id="&lt;Compound Path&gt;" class="s1" d="m315.43 402.44l-4.15 12.76-30.93 38.22h18.51l-4.14 12.75h-45.82l3.01-9.25 32.68-41.72h-16.88l4.14-12.76z"/>
						<path id="&lt;Compound Path&gt;" class="s1" d="m372.54 403.44l-4.14 12.76h-14.77l-16.56 50.97h-24.86l16.57-50.97h-14.71l4.15-12.76z"/>
						<path id="&lt;Compound Path&gt;" class="s1" d="m416.94 403.44l-6.49 63.73h-25.4l2.38-11.45h-8.89l-5.22 11.45h-25.69l33.38-63.73zm-26.49 40.98q1.63-10.83 4.91-26.77-9.74 18.31-13.46 26.77z"/>
						<path id="&lt;Compound Path&gt;" class="s1" d="m435.98 403.44h24.8q11.75 0 17.41 1.22 5.66 1.22 8.17 4.94 2.51 3.72-0.17 11.98-1.82 5.58-5.16 7.78-3.35 2.21-11.46 3.39 8.19 1.3 10.29 4.31 2.09 3.01 0.07 9.24l-1.92 5.9q-2.1 6.47-5.33 9.58-3.22 3.11-8.44 4.25-5.21 1.14-20.21 1.14h-28.75zm13.49 35l-5.8 17.83q5.29-0.12 7.06-1.1 1.77-0.99 3.02-4.84l1.93-5.95q1.33-4.09 0.32-4.96-1.02-0.86-6.53-0.98zm7.82-24.09l-4.6 14.17q1.61-0.04 2.49-0.04 3.66 0 5.06-1.2 1.39-1.2 3.23-6.87 0.97-2.99 0.54-4.19-0.44-1.2-1.67-1.52-1.22-0.31-5.05-0.35z"/>
					</g>
				</g>
				<g id="&lt;Group&gt;">
					<g id="&lt;Group&gt;">
						<g id="&lt;Group&gt;">
							<path id="&lt;Path&gt;" class="s2" d="m306.07 356h-12.33l3.15-9.71h13.86l3.33-10.24h-33.83l-16.64 51.2h19.97l6.99-21.51h12.34z"/>
							<path id="&lt;Path&gt;" class="s3" d="m318.92 336.05l-16.64 51.2h19.97l16.64-51.2z"/>
							<path id="&lt;Path&gt;" class="s4" d="m374.8 336.05l-7.49 23.05-3.7-23.05h-16.7l-16.64 51.2h16.7l7.56-23.28 2.83 23.28h17.5l16.64-51.2z"/>
							<path id="&lt;Compound Path&gt;" class="s5" d="m405.18 336.05l-26.83 51.2h20.65l4.19-9.2h7.15l-1.92 9.2h20.41l5.22-51.2zm7.58 32.92h-6.87q2.99-6.8 10.82-21.51-2.64 12.81-3.95 21.51z"/>
						</g>
						<path id="&lt;Path&gt;" class="s6" d="m461.38 360.72l6.08-0.87c0.59-1.8 1.19-3.64 1.77-5.44l-6.08 0.87 6.25-19.23h-19.97l-7.23 22.24-4.08 0.59-1.77 5.44 4.08-0.59-7.64 23.52h32.12l3.33-10.25h-12.15z"/>
					</g>
					<g id="&lt;Group&gt;">
						<path id="&lt;Compound Path&gt;" class="s7" d="m507.65 60.19c-6.43-9.01-16.84-14.33-27.9-14.29l-89.61 0.4c-10.41 0.05-20.23 4.85-26.66 13.04l-51.61 65.7q-2.14-3.11-4.37-5.71 0 0 0 0c-15.51-18.09-42.14-26.16-86.37-26.18-31.22-0.01-55.66 4.44-74.73 13.63-22.58 10.88-39.05 30.72-48.95 58.96l-6.11 17.41c-3.66 10.43-2.03 21.98 4.36 31q2.44 3.43 5.56 6.12c-13.97 0.5-26.28 9.51-30.93 22.79l-5.66 16.14c-8.96 25.53-12.1 43.07-10.2 56.87 1.84 13.29 9.39 31.97 34.95 45.45 15.41 8.12 36.15 12.08 63.41 12.09q0.05 0 0.11 0c22.44 0 42.51-2.96 59.65-8.81 19.18-6.54 34.97-16.61 46.93-29.92 11.18-12.45 20.14-28.57 27.41-49.28q0.48-1.39 0.94-2.74l19.14-0.09c-0.36 7.56 1.81 15.12 6.31 21.43 6.4 8.97 16.74 14.29 27.75 14.29q0.08 0 0.16 0l67.66-0.31c14.45-0.06 27.29-9.23 32.05-22.87l4.71-13.52c12.36-1.88 22.87-10.44 27.07-22.49l12.14-34.79c3.64-10.46 1.98-22.03-4.45-31.04q-1.29-1.8-2.78-3.41l34.47-98.83c3.64-10.45 1.99-22.03-4.45-31.04zm-3.96 28.11l-36.42 104.45c2.25 1.6 4.25 3.58 5.9 5.89 4.75 6.66 5.98 15.21 3.28 22.94l-12.13 34.79c-3.51 10.08-13 16.85-23.68 16.9l-1.45 0.01-6.66 19.1c-3.51 10.08-13 16.85-23.68 16.9l-67.66 0.31q-0.06 0-0.12 0c-8.14 0-15.78-3.93-20.51-10.56-4.75-6.66-5.97-15.21-3.28-22.94l0.79-2.27-36.63 0.17q-1.33 4.14-2.91 8.66c-6.87 19.58-15.26 34.72-25.64 46.28-10.92 12.17-25.45 21.4-43.18 27.45-16.21 5.53-35.31 8.33-56.77 8.33q-0.05 0-0.11 0c-25.78-0.01-45.16-3.63-59.26-11.07-22.22-11.72-28.73-27.56-30.28-38.78-1.7-12.33 1.31-28.59 9.78-52.71l5.66-16.15c3.54-10.1 13.07-16.86 23.78-16.86q0 0 0.01 0l33.41 0.02 3.34-9.52h-15.76c-8.17-0.01-15.83-3.97-20.55-10.63-4.72-6.67-5.92-15.21-3.22-22.92l6.1-17.4c9.1-25.94 24.05-44.07 44.42-53.89 17.81-8.58 40.94-12.75 70.71-12.75q0.08 0 0.15 0c41.4 0.02 65.96 7.13 79.62 23.07q0 0 0 0c3.59 4.19 7.11 9.57 9.61 16.27l60.13-76.55c4.75-6.05 12.01-9.6 19.7-9.64l89.61-0.4q0.05 0 0.11 0c8.14 0 15.78 3.93 20.51 10.56 4.75 6.66 5.98 15.21 3.28 22.94z"/>
						<path id="&lt;Path&gt;" class="s7" d="m281.61 141.52q-12.22-14.25-60.5-14.27-38.6-0.02-59.91 10.25-21.32 10.27-31.58 39.53l-6.1 17.41 67.5 0.03 5.88-16.78q4.11-11.73 7.96-15.32 3.85-3.59 10.87-3.59 6.18 0 7.91 3.41 1.73 3.41-2.03 14.13l-3.98 11.35q-3.5 9.96-7.64 14.63-4.14 4.66-10.31 6.05-6.17 1.38-30.22 1.37l-10.4 29.64q19.63 0.26 25.88 1.97 6.25 1.7 7.86 7.13 1.61 5.42-2.51 17.15l-4.95 14.13q-6.73 19.17-10.82 23.7-4.1 4.55-11.96 4.54-7.18 0-8.01-3.6-0.83-3.59 3.82-16.84l11.63-33.17-67.49-0.03-5.67 16.15q-10.21 29.13-8.59 40.93 1.63 11.79 17.07 19.94 15.45 8.14 47.52 8.15 28.24 0.01 48.74-6.98 20.5-7 32.56-20.43 12.07-13.43 20.61-37.79 11.51-32.81 7.11-41.71-4.4-8.9-18.4-12.82 17.75-6.29 26.61-13.92 8.85-7.62 14.86-24.76 8.89-25.33-3.32-39.58z"/>
					</g>
					<path id="&lt;Compound Path&gt;" class="s7" d="m479.9 80l-46.5 133.37 19.26-0.09-12.13 34.79-19.27 0.09-12.52 35.92-67.67 0.31 12.53-35.93-80.4 0.36 12.14-34.79 104.95-133.63zm-114.16 133.67l30.28-86.85-60.18 86.99z"/>
					<g id="&lt;Group&gt;">
						<g id="&lt;Group&gt;">
							<g id="&lt;Group&gt;">
								<g id="&lt;Group&gt;">
									<g id="&lt;Group&gt;">
										<path id="&lt;Path&gt;" class="s8" d="m584.23 199.69c-22.33-22.34-46.65-17.24-61.81-7.93-13.81 8.47-17.04 21.22-17.51 23.44-0.47-2.22-3.7-14.97-17.51-23.44-15.17-9.31-39.48-14.41-61.81 7.93-14.47 14.47-23.43 57.11 4.94 98.22 30.98 44.89 68.04 62.51 73.97 65.13l0.41 0.18 0.41-0.18c5.92-2.62 42.99-20.24 73.97-65.13 28.36-41.11 19.41-83.75 4.94-98.22z"/>
									</g>
								</g>
							</g>
						</g>
						<g id="&lt;Group&gt;">
							<g id="&lt;Group&gt;">
								<path id="&lt;Compound Path&gt;" class="s7" d="m558.11 216.78l-2.51-0.2-0.52 10.88-2.1-0.11-0.15 3.77 2.25 0.16-0.53 13.13c-0.1 3.56 1.05 5.39 3.56 5.55q2.68 0.08 3.4-3.14l0.21-3.3-2.3-0.31c-0.26 1.73-0.79 2.56-1.47 2.56q-0.94 0.02-1.1-0.99l-0.05-0.94 0.52-12.25 3.51 0.27 0.16-3.61-3.56-0.48z"/>
								<path id="&lt;Compound Path&gt;" class="s7" d="m579.15 231.7q-0.18-1.57-0.43-2.2-0.93-1.97-3.76-1.99c-1.88-0.05-3.14 0.94-3.82 2.88-0.32 1-0.42 1.94-0.42 2.93l2.57-0.15c-0.06-0.48 0-0.95 0.1-1.47 0.21-0.94 0.68-1.36 1.31-1.41 1.09-0.06 1.57 1.62 1.51 4.86q-1.64 0-3.45 0.94c-2.3 1.31-3.5 3.46-3.56 6.6-0.1 2.82 0.63 4.81 2.04 5.96q1.18 0.85 2.67 0.84c1.62-0.11 2.56-0.89 2.88-2.46l0.06 2.3 3.13-0.05zm-7.07 10.52c0-1.1 0.27-2.04 0.84-2.88 0.73-1.05 1.83-1.67 3.29-1.73 0.06 0 0.11 1.57 0.27 4.71 0.1 2.46-0.53 3.77-1.89 3.87q-2.59 0.17-2.51-3.97z"/>
								<path id="&lt;Compound Path&gt;" class="s7" d="m566.27 227.41l-2.56 0.05-0.16 21.4h3.14c-0.21-7.48-0.21-12.14-0.1-13.92 0.05-1.36 0.52-2.4 1.25-3.19 0.58-0.52 1.21-0.89 1.94-0.99q0.15 0 0.15-3.3c-1.2 0.05-2.4 0.89-3.6 2.61-0.06 0.06-0.06-0.78-0.06-2.66z"/>
								<path id="&lt;Compound Path&gt;" class="s7" d="m543.25 236.36q-0.06-2.28-0.68-4.56c-0.84-3.03-2.14-4.55-4.08-4.55-1.99 0.05-3.56 1.15-4.66 3.4q-1.25 2.53-1.25 5.44c0 2.88 0.32 4.92 0.99 6.18 1.47 2.98 4.56 4.45 9.26 4.34 0.11 0 0-1.2-0.21-3.61q-1.71 0.31-3.35-0.31c-2.25-0.84-3.35-2.93-3.24-6.23zm-7.12-1.78c-0.2 0-0.1-0.78 0.27-2.41q0.54-2.34 1.62-2.4c1.05-0.06 1.67 1.62 1.88 4.81q-2.91 0.08-3.77 0z"/>
								<path id="&lt;Compound Path&gt;" class="s7" d="m551.72 228.4c-0.83-0.37-1.72-0.57-2.66-0.47-1.83 0.1-3.04 1.36-3.51 3.77-0.31 1.78 0.06 3.66 1.21 5.6 1.3 2.19 1.98 3.76 1.98 4.6 0.05 1.73-0.62 2.93-2.08 3.56l-2.2 0.37 0.15 3.66q4.24-0.02 6.12-2.46c0.79-1.05 1.16-2.3 1.16-3.72-0.11-2.25-0.79-4.5-2.1-6.8-1.1-1.83-1.52-3.29-1.1-4.34 0.32-0.94 0.84-1.31 1.57-1.26 0.37 0 0.73 0.16 1.05 0.37z"/>
								<path id="&lt;Compound Path&gt;" class="s7" d="m562.3 257.65c-0.79-0.05-1.31 0.42-1.68 1.36q-0.24 0.71-0.31 1.41l0.2 1.52c0.32 1.05 0.95 1.57 2 1.57 0.52 0.05 0.99-0.37 1.35-1.21 0.32-0.73 0.48-1.35 0.42-1.98-0.05-1.73-0.73-2.67-1.98-2.67z"/>
								<path id="&lt;Compound Path&gt;" class="s7" d="m544.87 266.13c-0.52-0.37-1.2-0.58-2.09-0.68-1.2-0.11-2.14 0.15-2.98 0.83-0.53 0.63-0.84 0.89-0.84 0.89l-0.05-3.35c0-0.1-0.99-0.1-2.88 0.06l-0.21 20.4c2.2 0 3.25-0.05 3.25-0.16q0-0.45 0.15-12.76 0.33-2.27 2.15-2.36c0.99 0 1.62 0.58 1.83 1.83q0.24 13.28 0.31 13.45c2.51-0.05 3.77-0.1 3.87-0.1-0.15-8.64-0.36-13.4-0.57-14.34-0.52-1.78-1.15-3.03-1.94-3.71z"/>
								<path id="&lt;Compound Path&gt;" class="s7" d="m557.17 268.69q-1.41-1.4-3.14-1.47c-1.05-0.05-2.09 0.37-3.04 1.21-1.77 1.46-2.61 4.13-2.56 7.95q0.08 7.46 4.55 9.58c1 0.41 2.1 0.68 3.45 0.73 0.74 0 1.52 0 2.47-0.05q0.08 0.01 0-3.35c-1.21 0.15-2.31 0.05-3.46-0.37q-3.46-1.18-3.4-5.18 0-0.17 3.93-0.26c2.56-0.1 3.87-0.16 3.87-0.21-0.11-4.03-0.99-6.85-2.67-8.58zm-4.5 2.14c0.31-0.52 0.57-0.83 0.84-0.99 1.83-0.05 2.87 1.78 3.14 5.39-3.19 0.1-4.82 0.16-4.82 0.1 0-1.98 0.32-3.5 0.84-4.5z"/>
								<path id="&lt;Compound Path&gt;" class="s7" d="m564.39 268.06l-3.3 0.16 0.73 18.57c-0.15 6.44-2.3 9.79-6.43 9.89-0.05 3.24 0.05 4.87 0.21 4.87 3.19 0 5.76-1.52 7.58-4.45 1.52-2.41 2.31-5.07 2.25-7.95 0-0.37-0.31-7.38-1.04-21.09z"/>
								<path id="&lt;Compound Path&gt;" class="s7" d="m528.28 221.76c-0.05 1.51 0.43 2.3 1.37 2.3q1.02 0.06 1.41-1.2c0.21-0.58 0.26-1.05 0.26-1.52q-0.15-1.73-1.57-1.73c-0.89 0-1.36 0.68-1.47 2.15zm0.84 0.57q0.07-0.07 0.06 0c0 0.06 0 0.16 0.05 0.21-0.05-0.05-0.11-0.15-0.11-0.21z"/>
								<path id="&lt;Compound Path&gt;" class="s7" d="m520.96 215.79l-2.72 0.16-1.2 30.82 2.98-0.16 0.21-9.68 3.04 9.52 3.86 0.11-5.33-11.2 5.5-8.58-3.09-0.11-3.92 5.34z"/>
								<path id="&lt;Compound Path&gt;" class="s7" d="m469.9 213.28h-3.14l0.47 33.17h3.13z"/>
								<path id="&lt;Compound Path&gt;" class="s7" d="m476.18 212.76h-3.14l-0.53 34.01h2.62v-7.28l2.45 7.43 3.31-0.15-4.71-11.99 5.75-8.89h-3.14l-3.14 4.71z"/>
								<path id="&lt;Compound Path&gt;" class="s7" d="m484.02 230.39c0.47-0.58 0.95-0.84 1.52-0.84 0.84 0 1.46 1.21 1.73 3.67 0-0.11-1.31 0.94-3.77 3.19q-0.55 0.53-1.1 1.46c-0.68 1.21-1.04 2.46-0.99 3.72 0 1.62 0.47 2.88 1.25 3.66 0.58 0.52 1.26 0.79 1.99 0.79q2.97-0.01 3.82-3.3l0.84 3.09 2.72-0.11c-0.1-4.34-0.53-8.9-1.2-13.71-0.42-3.19-1.37-5.28-2.73-6.23-0.46-0.36-1.25-0.52-2.24-0.52-2.3 0-3.83 1.83-4.5 5.55l2.14 0.47zm2.78 11.77c-0.74 0.79-1.36 1-1.99 0.58q-0.71-0.41-0.79-1.21c-0.05-0.99 0.21-1.93 0.84-2.92 0.68-1.05 1.57-1.84 2.62-2.36 0.05 3.4-0.16 5.39-0.68 5.91z"/>
								<path id="&lt;Compound Path&gt;" class="s7" d="m462.05 227.88c-1.25-1.21-2.67-1.57-4.34-1.15q-2.53 0.7-3.41 4.24c-0.36 1.57-0.57 2.87-0.57 3.81-0.05 0.43 0.05 1.84 0.21 4.03q0.31 4.73 3.93 6.86c1.31 0.78 3.6 0.99 6.8 0.52l-0.53-4.18c-1.72 0.73-3.29 0.73-4.81 0.15q-1.33-0.61-2.04-2.88l-0.37-2.14c4.4-0.26 6.91-0.47 7.38-0.63-0.31-4.6-1.1-7.48-2.25-8.63zm-2.09 2.72c0.31 0.42 0.58 1.15 0.89 2.2 0.31 1.04 0.41 1.57 0.26 1.62q-4.18 0.54-4.19 0.36-0.31-2.5 0.16-3.92c0.26-0.83 0.68-1.25 1.15-1.31 0.68-0.05 1.26 0.26 1.73 1.05z"/>
								<path id="&lt;Compound Path&gt;" class="s7" d="m477.58 256.14q-1.15-0.1-1.3 2.09c0 0.52 0.21 0.99 0.58 1.3q0.53 0.48 0.99 0.47c0.94 0 1.42-0.68 1.36-2.04-0.05-1.15-0.57-1.77-1.63-1.82zm0.16 1.41c0 0.1 0.06 0.2 0 0.31-0.05 0-0.16-0.05-0.16-0.15 0-0.11 0-0.16 0.11-0.22 0 0 0.05 0 0.05 0.06z"/>
								<path id="&lt;Compound Path&gt;" class="s7" d="m466.08 267.07h-1.94l-2.04 8.47-2.41-8.05-3.34 0.21 4.71 17.79h2.61l1.57-10.47 4.19 10.47h3.14l2.61-18.84h-3.14l-2.09 11.51z"/>
								<path id="&lt;Compound Path&gt;" class="s7" d="m497.47 254.41l-2.51-0.06-0.11 10.21-2.77-0.11v4.45h2.83q-0.41 12.87-0.42 13.81 0 4.87 3.29 4.71 2.51-0.08 3.61-3.45l0.58-3.35h-2.61c-0.32 1.46-0.85 2.14-1.47 2.2q-0.63 0-0.95-1.1l-0.2-1.1 0.31-11.72 3.56-0.16-0.21-3.82-3.04-0.1z"/>
								<path id="&lt;Compound Path&gt;" class="s7" d="m480.67 270.63l2.41 0.31 0.37-1.05c0.36-0.68 0.89-1.04 1.62-1.15 1.52-0.16 2.41 0.74 2.67 2.57 0 0.36-0.26 0.73-0.94 1.2-0.89 0.63-1.62 1.1-2.15 1.52-2.14 1.56-3.19 3.5-3.19 5.65q0 3.51 1.1 4.6c0.52 0.47 1.36 0.74 2.62 0.84q2.5 0.09 4.13-4.14l0.37 3.67 3.24-0.11c-0.69-7.94-1.31-12.66-1.88-14.23q-1.67-4.16-5.91-4.24c-1.68 0-2.89 0.74-3.72 2.3-0.42 0.74-0.68 1.52-0.74 2.26zm5.29 4.96c1.1-0.88 1.73-1.25 1.94-1.2l0.15 3.72c-0.26 1.72-0.94 2.92-2.14 3.5-0.68 0.37-1.26 0.27-1.63-0.31-0.47-0.63-0.57-1.47-0.41-2.62q0.3-1.58 2.09-3.09z"/>
								<path id="&lt;Compound Path&gt;" class="s7" d="m479.42 266.91h-2.77l-0.79 18.31 3.77 0.16z"/>
								<path id="&lt;Compound Path&gt;" class="s7" d="m516.57 230.7q0.15 0.01 0.31-4.55c-1.04 0-2.09 0.42-3.04 1.41-0.73 1.05-1.09 1.52-1.15 1.52 0-1.15 0.06-2.04 0.06-2.67l-2.3-0.2c-0.27 12.6-0.53 19.35-0.74 20.29l3.25-0.05 0.05-13.18 0.83-1.26c0.74-0.89 1.68-1.31 2.73-1.31z"/>
								<path id="&lt;Compound Path&gt;" class="s7" d="m506.42 228.56c-0.84-1.1-1.83-1.67-3.04-1.63-0.78 0.11-1.57 0.63-2.41 1.52q-2.42 2.58-2.82 7.91c-0.21 3.66 0.31 6.33 1.68 8.11 0.88 1.15 1.93 1.77 3.03 1.77 3.3 0.11 5.02-3.03 5.23-9.36q0.22-5.81-1.67-8.32zm-2.73 1.78q2.22-0.08 2.15 6.28c0 2.19-0.31 3.82-0.99 4.97-0.47 0.83-1.1 1.25-1.72 1.25-0.84 0.06-1.53-0.68-2-2.14-0.47-1.26-0.63-2.57-0.58-3.93q0.4-6.27 3.14-6.43z"/>
								<path id="&lt;Compound Path&gt;" class="s7" d="m507.46 265.55q-1.96 0.07-3.45 1.78-2.12 2.42-1.88 7.11 0.39 8.72 5.96 9.89 2.83 0.55 5.49-0.62l-0.73-3.98c-3.14 1.05-5.34 0.63-6.53-1.21-0.58-0.94-0.9-2.19-0.9-3.71 4.92-0.31 7.54-0.47 7.8-0.52 0.26-5.97-1.62-8.9-5.76-8.74zm0.84 2.51q0.41 0.08 0.74 0.31c0.78 0.63 1.25 1.99 1.51 4.14 0 0-0.78 0.11-2.36 0.21q-2.41 0.16-2.87 0.16c-0.05 0-0.05-0.22 0-0.73 0-0.58 0.1-1.1 0.26-1.63 0.42-1.62 1.21-2.41 2.41-2.41z"/>
								<path id="&lt;Compound Path&gt;" class="s7" d="m519.91 266.7c-2.87 1.21-4.55 4.03-4.96 8.32-0.53 4.92 0.46 8.32 3.03 10.25 1.72 1.26 3.56 1.73 5.44 1.32 0.06-0.06-0.1-1.32-0.41-3.83-3.36-0.21-4.98-2.4-4.83-6.69q0.09-2.84 1.89-4.35 1.66-1.41 3.88-1.25 0.15-0.02 0.15-4.34c-1.36-0.27-2.72-0.06-4.19 0.57z"/>
								<path id="&lt;Compound Path&gt;" class="s7" d="m526.2 269.94q4.08-0.24 4.23-0.1c0.11 0.05-1.57 5.65-5.07 16.64 2.04 0.16 4.86 0.26 8.53 0.26q0.08 0 0.26-3.14c-2.15 0-3.51-0.05-4.03-0.05-0.1 0 0.63-2.93 2.14-8.74q2.36-8.79 2.2-8.79h-8.37c-0.05 0.53-0.05 1.89 0.11 3.92z"/>
								<path id="&lt;Compound Path&gt;" class="s7" d="m449.8 221.34c0.42 0.1 0.79 0 1.05-0.37 1.2-1.56 0.84-2.66-1.09-3.19-0.58 0.05-1 0.32-1.26 0.89-0.68 1.46-0.26 2.3 1.3 2.67z"/>
								<path id="&lt;Compound Path&gt;" class="s7" d="m451.58 229.03h-2.61l-0.52 17.74h3.66z"/>
								<path id="&lt;Compound Path&gt;" class="s7" d="m454.73 254.09l-3.35 0.21 1.25 5.55h2.1z"/>
								<path id="&lt;Compound Path&gt;" class="s7" d="m453.89 266.49q0.88 0.08 1.67 0.47l0.68-3.03q-1.79-0.47-3.66-0.32c-2.56 0.21-4.03 1.47-4.5 3.66-0.36 1.89 0.05 3.93 1.36 6.13 1.36 2.35 2.04 4.29 1.94 5.7-0.06 1.57-0.89 2.72-2.46 3.51-0.84 0.36-1.62 0.62-2.36 0.68l0.37 3.76c1.31 0 2.62-0.36 3.92-0.99 2.62-1.26 3.93-3.4 3.98-6.38 0-1.68-0.68-3.88-1.99-6.54-1.15-2.36-1.62-3.98-1.3-4.92q0.54-1.8 2.35-1.73z"/>
								<path id="&lt;Compound Path&gt;" class="s7" d="m515.36 304.79c-0.63 1.63-0.94 3.19-0.99 4.76 0 2.62 0.32 4.82 1.04 6.6 0.95 2.3 2.31 3.45 4.2 3.56 1.83 0.05 3.13-1.26 3.97-3.98q0.88-3.07 0.73-7.22c-0.05-1.83-0.42-3.46-1.09-4.76-0.84-1.73-2.15-2.62-3.83-2.57q-2.6 0-4.03 3.61zm1.79 4.92c0.2-3.25 0.93-4.92 2.19-4.92 1.57-0.05 2.3 1.63 2.3 4.97q0.02 5.89-2.41 5.81c-0.62-0.05-1.15-0.73-1.56-2.14-0.42-1.26-0.58-2.47-0.52-3.72z"/>
								<path id="&lt;Compound Path&gt;" class="s7" d="m508.77 302.38c-1.26 0.11-2.25 0.73-3.09 1.83-0.36 0.58-0.68 1.15-0.78 1.73-0.26-2.35-1.31-3.5-3.19-3.4q-1.33 0.07-2.35 0.99c-0.37 0.37-0.59 0.63-0.79 0.95l0.05-2.2-2.83 0.05-0.78 18.84 3.25-0.06c0.1-6.64 0.2-10.46 0.36-11.51 0.21-1.78 0.89-2.77 2.15-2.92 1.15-0.11 1.83 0.46 1.98 1.83l-0.46 12.71 3.45 0.06 0.05-11.94q0.23-2.27 1.72-2.36c1-0.04 1.53 0.63 1.53 1.95l0.1 12.35 3.93 0.05-0.48-15.7c-0.26-2.25-1.52-3.35-3.82-3.25z"/>
								<path id="&lt;Compound Path&gt;" class="s7" d="m529.28 308.3q0-2.06 1.1-3.4c0.84-1.1 2.04-1.62 3.55-1.62 0.22-2.52 0.27-3.83 0.22-3.83-5.18-0.26-7.9 2.57-8.06 8.53-0.16 4.24 0.68 7.33 2.4 9.26q2.04 2.36 5.4 2.36c0.04 0 0.04-1.62 0.04-4.82-1.4-0.2-2.5-0.89-3.39-2.04-0.84-1.2-1.31-2.66-1.26-4.44z"/>
								<path id="&lt;Compound Path&gt;" class="s7" d="m491.93 287.89c0-0.05-0.69-0.05-1.99 0-0.16 1.41-0.16 2.46-0.06 3.04q0.24 1.41 1.26 2.35c1.88-0.84 2.77-1.25 2.77-1.25-0.68-0.58-1.2-1.47-1.62-2.57-0.26-1.05-0.36-1.52-0.36-1.57z"/>
								<path id="&lt;Compound Path&gt;" class="s7" d="m474.71 299.04h-3.04l-0.25 30.4 3.5-0.11-0.05-11.04q1.17 0.86 3.3 0.78 2.19-0.06 3.29-3.03 0.86-2.44 0.78-5.6c-0.21-3.92-0.88-6.69-2.19-8.37-0.89-1.15-1.83-1.68-2.88-1.68-1.25 0.06-2.04 0.64-2.46 1.84q0 0.17 0-3.19zm1.05 5.6l0.68-0.22c1.78 0.06 2.72 2.15 2.93 6.28-0.26 3.3-1.05 4.93-2.41 4.93-0.42-0.06-0.83-0.22-1.36-0.53l-0.58-0.52c-0.31-1-0.46-2.52-0.46-4.66 0.04-1.57 0.1-2.83 0.26-3.67q0.15-1.16 0.94-1.61z"/>
								<path id="&lt;Compound Path&gt;" class="s7" d="m494.18 308.98c-0.06-2.88-0.27-4.87-0.68-6.07q-1.04-3.14-4.19-3.14c-3.04-0.06-4.71 2.87-4.92 8.74-0.37 7.48 1.1 11.14 4.34 11.09 1.83-0.06 3.2-1.1 4.19-3.14 0.84-1.88 1.26-4.4 1.26-7.48zm-4.98-5.13c1.41-0.15 2.26 1.46 2.46 4.81 0.16 4.5-0.68 6.86-2.56 7.02-0.94 0.1-1.62-0.95-1.94-3.25q-0.23-2.21-0.16-3.87c0.11-1 0.32-2.04 0.74-2.99 0.42-1.09 0.94-1.67 1.46-1.72z"/>
								<path id="&lt;Path&gt;" class="s7" d="m544.25 303.75l-3.67 10.93-1.88-12.09-3.35-0.15 3.24 18.99-5.44 9.36 4.5 1.94 10.62-28.78z"/>
								<path id="&lt;Path&gt;" class="s7" d="m528.18 229.29l-0.37 17.11 3.35 0.05-0.36-17.11z"/>
								<path id="&lt;Path&gt;" class="s7" d="m441.12 247.29l-3.66-9.89-2.62 9.89h-3.14l-3.66-17.74h2.62l2.62 10.99 2.09-10.99h2.61l3.67 10.99 2.09-12.03h3.14l-2.63 18.78z"/>
							</g>
						</g>
					</g>
					<g id="&lt;Group&gt;">
						<path id="&lt;Compound Path&gt;" class="s9" d="m165.04 75.48l-2.39 6.9h-36.06l2.01-5.77q21.61-16.13 25.96-19.96 4.35-3.84 5.1-5.98 0.57-1.65-0.07-2.46-0.63-0.82-2.5-0.82-1.87 0-3.09 0.9-1.23 0.9-2.15 3.57l-1.33 3.85h-14.69l0.51-1.47q1.18-3.4 2.42-5.36 1.25-1.96 4.14-3.86 2.89-1.89 6.8-2.87 3.9-0.97 8.89-0.97 9.78 0 13.76 2.98 3.97 2.98 2.39 7.55-1.2 3.47-5.36 7.35-4.17 3.87-22.31 16.42z"/>
						<path id="&lt;Compound Path&gt;" class="s10" d="m216.53 55.63l-4.67 13.49q-1.59 4.59-3.13 6.69-1.54 2.1-4.72 3.92-3.19 1.82-7.08 2.62-3.88 0.8-8.35 0.8-5.88 0-9.48-0.84-3.61-0.83-5.31-2.61-1.69-1.77-1.99-3.73-0.29-1.96 1.19-6.23l4.88-14.11q1.93-5.56 4.45-8.34 2.53-2.77 7.75-4.44 5.23-1.67 11.84-1.67 5.39 0 9.25 1.16 3.86 1.16 5.39 2.83 1.53 1.68 1.55 3.77 0.02 2.1-1.57 6.69zm-15.21-3.39q1.12-3.22 0.89-4.03-0.22-0.82-2.09-0.82-1.83 0-2.71 0.87-0.89 0.86-1.97 3.98l-6.84 19.72q-1.21 3.52-0.92 4.25 0.3 0.72 2.12 0.72 1.83 0 2.69-0.85 0.86-0.84 1.89-3.82z"/>
						<path id="&lt;Compound Path&gt;" class="s9" d="m250.46 75.48l-2.39 6.9h-36.06l2-5.77q21.62-16.13 25.97-19.96 4.35-3.84 5.09-5.98 0.57-1.65-0.06-2.46-0.63-0.82-2.5-0.82-1.87 0-3.1 0.9-1.22 0.9-2.15 3.57l-1.33 3.85h-14.69l0.51-1.47q1.18-3.4 2.43-5.36 1.25-1.96 4.13-3.86 2.89-1.89 6.8-2.87 3.91-0.97 8.9-0.97 9.77 0 13.75 2.98 3.98 2.98 2.39 7.55-1.2 3.47-5.36 7.35-4.16 3.87-22.31 16.42z"/>
						<path id="&lt;Compound Path&gt;" class="s10" d="m303.66 52.69h-16.39q0.98-2.82 1.13-3.56 0.15-0.74-0.55-1.24-0.69-0.5-2.19-0.5-1.26 0-2.24 0.48-0.97 0.47-1.36 1.22-0.38 0.75-1.16 3.02l-2.24 6.45q1.82-1.63 4.54-2.44 2.71-0.81 6.28-0.81 4.51 0 7.44 1.5 2.93 1.5 3.13 3.59 0.21 2.1-1.03 5.67l-1.11 3.22q-1.48 4.25-2.72 6.32-1.25 2.07-4.15 3.83-2.9 1.76-7.23 2.74-4.34 0.97-9.65 0.97-6.61 0-10.44-1.12-3.83-1.13-5.39-3.24-1.57-2.11-1.14-4.43 0.41-2.32 2.73-9.01l1.94-5.6q2.5-7.21 3.69-9.65 1.19-2.43 4.41-4.6 3.23-2.18 7.89-3.26 4.65-1.09 10.25-1.09 6.9 0 10.84 1.38 3.95 1.37 4.99 3.87 1.04 2.49-0.27 6.29zm-20.76 12.61q0.74-2.15 0.25-2.95-0.49-0.8-2.24-0.8-1.7 0-2.76 0.76-1.05 0.77-1.82 2.99l-2.54 7.31q-0.92 2.67-0.46 3.5 0.47 0.82 2.21 0.82 1.06 0 2.41-0.63 1.36-0.64 2.33-3.44z"/>
					</g>
					<g id="&lt;Group&gt;">
						<g id="&lt;Group&gt;">
							<path id="&lt;Path&gt;" class="s2" d="m306.07 356h-12.33l3.15-9.71h13.86l3.33-10.24h-33.83l-16.64 51.2h19.97l6.99-21.51h12.34z"/>
							<path id="&lt;Path&gt;" class="s3" d="m318.92 336.05l-16.64 51.2h19.97l16.64-51.2z"/>
							<path id="&lt;Path&gt;" class="s4" d="m374.8 336.05l-7.49 23.05-3.7-23.05h-16.7l-16.64 51.2h16.7l7.56-23.28 2.83 23.28h17.5l16.64-51.2z"/>
							<path id="&lt;Compound Path&gt;" class="s5" d="m405.18 336.05l-26.83 51.2h20.65l4.19-9.2h7.15l-1.92 9.2h20.41l5.22-51.2zm7.58 32.92h-6.87q2.99-6.8 10.82-21.51-2.64 12.81-3.95 21.51z"/>
						</g>
						<path id="&lt;Path&gt;" class="s6" d="m461.38 360.72l6.08-0.87c0.59-1.8 1.19-3.64 1.77-5.44l-6.08 0.87 6.25-19.23h-19.97l-7.23 22.24-4.08 0.59-1.77 5.44 4.08-0.59-7.64 23.52h32.12l3.33-10.25h-12.15z"/>
					</g>
				</g>
			</g>
			<g id="&lt;Group&gt;">
				<text id="BARCELONA " style="transform: matrix(1,0,-0.309,.951,357.752,547.6)" >
					<tspan x="-201.7" y="0" class="t11" dx="0" >B</tspan><tspan  y="0" class="t11" dx="0" >A</tspan><tspan  y="0" class="t11" dx="0" >R</tspan><tspan  y="0" class="t11" dx="0" >C</tspan><tspan  y="0" class="t11" dx="0" >E</tspan><tspan  y="0" class="t11" dx="0" >L</tspan><tspan  y="0" class="t11" dx="0" >O</tspan><tspan  y="0" class="t11" dx="0" >N</tspan><tspan  y="0" class="t11" dx="0" >A</tspan><tspan  y="0" class="t11" dx="0" >
</tspan>
				</text>
			</g>
		</g>
	</g>
</svg>