<svg version="1.2" xmlns="http://www.w3.org/2000/svg" viewBox="2 0 149 132" width="500" height="443">
	<style>
		tspan { white-space:pre } 
		.s0 { fill: #000000 } 
		.s1 { fill: #fff100 } 
		.s2 { fill: #fbae17 } 
		.s3 { fill: #f26e21 } 
		.s4 { fill: #ec1c24 } 
		.s5 { fill: #2e3092 } 
		.s6 { fill: #6ccff5 } 
		.s7 { fill: #eb008b } 
		.s8 { fill: #80298f } 
		.s9 { fill: #b31e8d } 
		.s10 { fill: #0066b2 } 
		.s11 { fill: #00adee } 
		.s12 { fill: #0075be } 
		.s13 { fill: #00a9a4 } 
		.s14 { fill: #00a550 } 
		.s15 { fill: #8dc63f } 
		.s16 { fill: #01bcf1 } 
		.s17 { fill: #f37620 } 
		.s18 { fill: #fbb216 } 
		.s19 { fill: #fefefe } 
		.s20 { fill: #e92a24 } 
		.s21 { fill: #aae0f9 } 
		.t22 { font-size: 15px;fill: #030302;font-family: "Impact" } 
	</style>
	<g id="grafika">
		<g id="&lt;Group&gt;">
			<path id="&lt;Path&gt;" class="s0" d="m140.59 92.03c0.73-0.66 1.27-1.49 1.49-2.44 0.19-0.83 0.52-3.67-3.11-5.58-1.04-0.55-2.01-0.78-2.98-0.71-1.45 0.1-2.76 0.9-3.58 2.2q-0.28 0.44-0.46 0.93-0.18-0.18-0.36-0.36-0.38-0.32-0.77-0.63 1.28-1.29 2.57-2.83 0.04-0.04 0.07-0.07 0.57-0.69 1.14-1.43 0.09-0.11 0.18-0.22 0.65-0.86 1.29-1.79 0.57-0.84 1.06-1.68 0.15-0.25 0.28-0.49 0.36-0.64 0.66-1.27 0.12-0.23 0.23-0.46 0.39-0.83 0.7-1.65 0.04-0.13 0.09-0.27 0.25-0.69 0.45-1.37 0.08-0.28 0.15-0.55 0.15-0.57 0.27-1.14 0.06-0.25 0.11-0.5 0.14-0.75 0.23-1.49 0.02-0.27 0.04-0.53 0.05-0.49 0.07-0.97 0.02-0.34 0.02-0.66 0.01-0.41-0.01-0.82 0-0.33-0.02-0.65-0.03-0.61-0.1-1.19-0.05-0.39-0.12-0.76-0.04-0.27-0.09-0.52-0.07-0.39-0.16-0.77-0.04-0.19-0.09-0.38-0.23-0.89-0.53-1.7 0.46 0.1 0.95 0.1 0.71 0 1.44-0.19c2.6-0.72 3.55-2.79 3.34-4.52-0.26-2.15-2.2-3.82-4.54-3.89q0.53-0.8 0.96-1.68c2.1-4.4 1.97-9.42-0.35-13.11q-0.02-0.02-0.03-0.04-0.3-0.45-0.64-0.87c0.86-0.24 1.66-0.69 2.29-1.35 0.94-0.98 1.42-2.29 1.32-3.58-0.13-1.82-1.23-3.49-2.88-4.36q-0.67-0.35-1.38-0.49c0.25-1.53 0.04-3.07-0.67-4.52-1.18-2.4-3.62-4.24-6.46-5 1-1.33 1.53-3.05 1.32-4.79-0.28-2.27-1.77-4.32-3.9-5.36-2.01-0.99-4.22-0.92-6.08 0.19-1.95 1.16-3.26 3.31-3.42 5.61q-0.54-0.5-1.14-0.92c-3.4-2.33-8.13-2.52-12.03-0.5-2.56 1.32-4.46 3.37-5.53 5.83-1.25-0.81-2.86-1.09-4.41-0.72-2.83 0.66-3.97 2.85-3.84 4.73 0.07 0.95 0.43 1.84 1 2.6h-0.14c-3.06 0.02-5.89 1.4-7.78 3.81l-8.55 10.89q-1.41-1.26-3.21-2.18 0.28-0.14 0.53-0.29 1.21-0.73 1.84-1.78c0.28-0.47 0.54-1.05 0.82-1.85 0 0 1.05-3.03 1.19-3.44q0.14-0.41 0.21-0.8 0.04-0.23 0.06-0.45 0.01-0.15 0.02-0.3 0.01-0.28-0.01-0.56-0.01-0.06-0.02-0.12-0.03-0.32-0.12-0.63 0.74-1.16 0.88-2.55 0.24-2.43-0.8-4.2-0.42-0.75-1.11-1.35-0.11-0.09-0.21-0.17-1.06-0.97-2.47-1.26-0.55-0.12-1.18-0.11-0.46 0.01-1 0.1c-0.75 0.12-1.64 0.33-2.52 0.94q-0.75 0.51-1.31 1.24c-0.61-2.23-1.98-4.26-3.94-5.66q-1.5-1.07-3.11-1.43-1.08-0.24-2.17-0.15c0.13-1.52-0.16-3.01-0.86-4.26-1.09-1.96-2.93-3.14-5.04-3.24-2.43-0.1-4.96 1.24-6.47 3.44q-0.69 1-1.05 1.97c-2.11-1.25-4.48-2.08-7.06-2.4-5.6-0.69-11.48 1.14-15.72 4.92-4.5 4.01-7.04 10-6.8 16.03q0.06 1.56 0.37 3.08c0.81 3.96 2.91 7.55 5.83 10.27q-0.62-0.03-1.19 0.18c-0.81 0.28-1.45 0.87-1.82 1.62-1.16 0.58-1.88 1.79-1.79 3.11q-0.08 0.09-0.09 0.1-0.02 0.03-0.04 0.05-0.07 0.01-0.14 0.03-0.44 0.08-0.83 0.28-0.42 0.2-0.76 0.51-0.14 0.13-0.26 0.27-0.67 0.77-0.8 1.86-0.07 0.86 0.27 1.62c-0.31 0.63-0.41 1.35-0.28 2.06q0.17 0.83 0.69 1.46-0.03 0.09-0.06 0.19-0.03 0.14-0.06 0.29c-0.11 0.69-0.01 1.4 0.31 2.04 0.4 0.79 1.11 1.38 1.93 1.66q0.19 0.67 0.65 1.22c0.42 0.49 0.98 0.83 1.6 1.02-1.81 1.96-2.52 4.51-1.93 7.02q0.21 0.86 0.6 1.67c-4.58 0.61-8.68 3.63-10.38 7.72-1.12 2.72-3.26 9.62 1.16 15.04 1.11 1.36 2.55 2.46 4.19 3.28q-0.13 0.07-0.27 0.15-1.25 0.82-1.78 1.98c-0.55 1.2-0.49 2.58 0.17 3.78 0.69 1.25 1.92 2.1 3.29 2.29q0.36 0.04 0.7 0.04 0.58 0 1.11-0.13-0.34 2.04 0.14 4.13c0.93 3.97 3.91 7.36 7.78 8.85q2.07 0.79 4.16 0.79 0.95 0 1.87-0.17c-0.09 0.94 0.07 1.89 0.51 2.75 0.88 1.7 2.76 2.76 4.72 2.76q0.52 0 1.05-0.1c2.14-0.43 3.64-2.1 3.82-4.26q0-0.22-0.01-0.44 0.91 0.29 1.99 0.3c1.78 0 3.7-0.62 4.84-1.99 0.82-0.99 1.16-2.11 1.36-2.97 0.18-0.81 0.37-1.89 0.12-3.08q-0.17-0.75-0.5-1.4 1.36-0.33 2.37-1.14-0.12 0.42-0.18 0.62l-0.28 0.86c-0.48 1.47-0.59 2.62-0.35 3.63 0.72 3.06 4.25 3.44 7.61 3.32v0.02h41.54c0.27 0.01 1.99 0.07 2.13 0.07 0.18 0 1.95 0.03 2.12 0.03 0.14 0 2.02 0.02 2.29 0.05 0.17 0.01 1.37 0.01 1.53 0 0.22-0.02 1.37 0.11 1.5 0.09 0.18-0.02 1.15 0.27 1.33 0.32q0.43 0.1 0.86 0.19l0.43 0.09q0.28 0.07 0.57 0.12 0.06 0.01 0.13 0.02 0.03 0.01 0.06 0.02 1.8 0.32 3.53 0.32 1.12 0 2.2-0.14 1.1-0.15 2.07-0.41 0.09-0.02 0.17-0.05 0.73-0.24 1.48-0.43c0.84-0.24 1.71-0.48 2.62-0.83 1.27-0.51 2.32-1.15 3.29-1.76q0.18-0.12 0.35-0.24 1.2-0.87 2.23-2.01 0.02-0.03 0.05-0.05 1.17-1.29 2.05-2.82 0.11-0.19 0.21-0.39l0.06-0.12q0.63-1.18 1.01-2.2 0.64-1.67 1.01-3.52c0.92 0.65 2.03 1.03 3.16 1.03q0.71 0 1.41-0.2c2.71-0.77 4.28-3.46 3.65-6.25-0.43-1.89-1.73-3.23-3.39-3.75z"/>
			<g id="&lt;Group&gt;">
				<g id="&lt;Group&gt;">
					<path id="&lt;Compound Path&gt;" class="s1" d="m20.52 30.49c-0.2-5.07 1.94-10.22 5.81-13.67 3.6-3.21 8.59-4.77 13.35-4.18 4.55 0.57 8.4 2.98 10.84 6.78 2.75 4.29 3.42 9.91 1.79 15.05-0.6 1.91-1.25 3.77-2.41 5.41-4.05 5.69-12.23 7.32-17.78 5.6-5.67-1.75-10.1-6.61-11.28-12.39q-0.27-1.29-0.32-2.6zm30.9-2.35c-0.11-2.79-0.91-5.49-2.37-7.77-2.16-3.36-5.56-5.49-9.58-5.99-4.27-0.53-8.74 0.87-11.98 3.75-4.01 3.58-5.99 9.45-4.93 14.61 1.05 5.16 5.01 9.5 10.08 11.07 4.85 1.5 12.28 0.03 15.83-4.95 1.02-1.43 1.61-3.14 2.17-4.92 0.6-1.9 0.86-3.87 0.78-5.8z"/>
					<path id="&lt;Path&gt;" class="s2" d="m24.44 31.93c0.58 4.67 4.12 8.99 8.74 9.89 1.09 0.22 2.21 0.24 3.32 0.21 1.61-0.05 3.28-0.27 4.63-1.14 1.67-1.08 2.61-3.03 2.87-5 0.19-1.38 0.06-2.84-0.62-4.05-0.68-1.22-1.97-2.14-3.36-2.13-2.14 0.01-3.7 2-5.69 2.77-2.15 0.82-4.81-0.01-6.11-1.91-0.99-1.45-1.16-3.29-0.9-4.99 0.14-0.95 1.84-3.98 0.18-3.7-2.84 0.48-3.32 7.99-3.06 10.05z"/>
					<path id="&lt;Path&gt;" class="s3" d="m49.56 26.19c-0.54-4.67-4.03-9.03-8.63-9.98-1.09-0.23-2.21-0.27-3.32-0.25-1.61 0.04-3.28 0.23-4.65 1.09-1.68 1.06-2.64 3.01-2.93 4.97-0.19 1.38-0.08 2.84 0.58 4.06 0.67 1.22 1.95 2.15 3.34 2.16 2.14 0.02 3.72-1.96 5.72-2.7 2.16-0.8 4.81 0.06 6.09 1.97 0.97 1.47 1.12 3.3 0.85 5-0.16 0.95-1.9 3.97-0.23 3.7 2.84-0.45 3.41-7.95 3.18-10.02z"/>
					<path id="&lt;Path&gt;" class="s2" d="m33.69 18.44c1.15-0.7 2.57-0.79 3.92-0.69 2.42 0.2 4.81 0.99 6.77 2.43 1.96 1.44 3.46 3.54 4.02 5.9 0.03 0.14 0.06 0.29 0.02 0.43-0.09 0.27-0.42 0.39-0.7 0.33-0.27-0.06-0.5-0.25-0.72-0.43-1.22-1-2.56-1.9-4.06-2.43-1.49-0.53-3.17-0.66-4.67-0.14-1.17 0.41-2.19 1.21-3.37 1.61-0.93 0.32-2.12 0.32-2.73-0.45-1.36-1.7-0.17-5.54 1.52-6.56z"/>
					<path id="&lt;Path&gt;" class="s1" d="m37.41 19.41c1.94 0.14 3.85 0.74 5.53 1.72 0.59 0.35 1.18 0.78 1.5 1.39-0.7 0.11-1.42 0.05-2.13-0.03-2.28-0.24-4.7-0.58-6.76 0.43-0.65 0.32-1.53 0.79-2.09 0.08-0.32-0.39-0.32-1.3-0.15-1.76 0.59-1.56 2.66-1.93 4.1-1.83z"/>
				</g>
				<path id="&lt;Path&gt;" class="s4" d="m67.05 24.85c0.36-2.54-0.9-5.19-2.98-6.68-0.61-0.43-1.29-0.78-2.02-0.95-1.7-0.37-3.53 0.32-4.71 1.59-1.19 1.26-1.75 3.03-1.75 4.76 0 0.78 0.11 1.58 0.4 2.3 0.8 1.96 3.74 4.47 5.99 4.32 2.53-0.16 4.74-3.01 5.07-5.34z"/>
				<path id="&lt;Path&gt;" class="s3" d="m65.57 24.15c-0.4 1.86-1.78 3.47-3.56 4.15-0.64 0.25-1.36 0.38-2.01 0.17-0.57-0.19-1.02-0.6-1.39-1.06-1.33-1.65-1.69-4.01-0.93-5.98 0.29-0.75 0.75-1.47 1.44-1.89 3.04-1.89 7.18 1.23 6.45 4.61z"/>
				<path id="&lt;Path&gt;" class="s2" d="m64.29 24.23c-0.3 1.07-1.14 1.93-2.13 2.43-0.66 0.34-1.5 0.53-2.11 0.12-0.33-0.22-0.54-0.57-0.71-0.93-0.42-0.89-0.64-1.89-0.5-2.86 0.13-0.98 0.66-1.92 1.49-2.44q0.39-0.24 0.83-0.33c2.24-0.42 3.69 2 3.13 4.01z"/>
				<path id="&lt;Path&gt;" class="s1" d="m63.09 23.92c-0.1 0.4-0.3 0.79-0.61 1.07-0.31 0.27-0.75 0.42-1.16 0.32q-0.35-0.11-0.62-0.37c-0.52-0.47-0.83-1.19-0.72-1.88 0.1-0.69 0.67-1.32 1.37-1.39 1.33-0.16 2.04 1.05 1.74 2.25z"/>
				<g id="&lt;Group&gt;">
					<path id="&lt;Path&gt;" class="s3" d="m49.77 13.61c-0.61 2.84 2.43 5.74 5.22 4.42 1.13-0.54 1.92-1.66 2.3-2.85 0.41-1.25 0.4-2.68-0.24-3.83-1.58-2.82-4.92-1.75-6.42 0.44-0.39 0.55-0.72 1.16-0.86 1.82z"/>
					<path id="&lt;Path&gt;" class="s4" d="m51.35 13.49c0.05-0.23 0.15-0.47 0.23-0.68q0.02-0.05 0.04-0.08v-0.01q0.18-0.31 0.4-0.58 0.03-0.04 0.06-0.07 0.24-0.24 0.52-0.45c0.18-0.13 0.55-0.29 0.63-0.32q0.04-0.02 0.09-0.04 0.34-0.1 0.71-0.14 0.18-0.01 0.35 0.01 0.44 0.03 0.84 0.23 0.55 0.28 0.9 0.78 0.34 0.53 0.39 1.16 0.03 0.64-0.24 1.21-0.09 0.23-0.19 0.48-0.03 0.11-0.08 0.21 0 0.02-0.01 0.03c-0.06 0.16-0.26 0.39-0.38 0.58q-0.04 0.04-0.07 0.09-0.28 0.34-0.68 0.5-0.25 0.17-0.54 0.19-0.42 0.12-0.83 0.03-0.02 0-0.05-0.01-0.28-0.1-0.54-0.19-0.03-0.01-0.05-0.02-0.51-0.26-0.83-0.74-0.17-0.16-0.31-0.34l-0.28-0.56q-0.21-0.62-0.08-1.27z"/>
					<path id="&lt;Path&gt;" class="s2" d="m51.62 12.73v-0.01q0.18-0.31 0.4-0.58 0.03-0.04 0.06-0.07 0.24-0.24 0.52-0.45c0.18-0.13 0.55-0.29 0.63-0.32q0.04-0.02 0.09-0.04 0.34-0.1 0.71-0.14 0.18-0.01 0.35 0.01c0.5 1.05 0.9 2.16 1.31 3.24q0.16 0.41 0.31 0.83 0 0.02-0.01 0.03c-0.06 0.16-0.26 0.39-0.38 0.58q-0.04 0.04-0.07 0.09-0.28 0.34-0.68 0.5-0.25 0.17-0.54 0.19-0.41 0.12-0.83 0.03-0.26-0.6-0.53-1.21c-0.42-0.94-0.9-1.79-1.34-2.68z"/>
				</g>
				<g id="&lt;Group&gt;">
					<path id="&lt;Path&gt;" class="s2" d="m31.29 51.9c0.45-1.3 0.26-2.87-0.43-4.01-0.58-0.95-1.44-1.69-2.55-1.9-1.01-0.2-2.07 0.05-3 0.47-0.58 0.27-1.1 0.68-1.53 1.16-0.36 0.38-0.68 0.86-0.89 1.34-0.59 1.34-0.49 2.96 0.28 4.23 0.57 0.93 1.43 1.67 2.52 1.89 0.97 0.19 1.98-0.02 2.88-0.41q0.72-0.31 1.36-0.76c0.5-0.35 0.86-0.96 1.13-1.49q0.14-0.25 0.23-0.52z"/>
					<path id="&lt;Path&gt;" class="s1" d="m30.12 55.15c0.12-0.59 0.09-1.23-0.12-1.74-0.12-0.29-0.31-0.54-0.52-0.77-0.64-0.73-1.62-1.16-2.58-1.21-2.01-0.1-3.62 2.43-2.87 4.23 0.12 0.29 0.32 0.54 0.52 0.77 0.85 0.96 2.42 1.47 3.67 1.08 0.77-0.24 1.3-0.88 1.64-1.59q0.17-0.35 0.26-0.77z"/>
					<path id="&lt;Path&gt;" class="s5" d="m21.34 56.62q0 0.01 0 0.01-0.02-0.07-0.01-0.04 0 0 0 0 0 0.02 0.01 0.03z"/>
					<path id="&lt;Path&gt;" class="s6" d="m27.01 55.51q-0.02 0.02-0.03 0.03 0 0.01-0.01 0.02 0.02-0.02 0.04-0.05z"/>
					<path id="&lt;Path&gt;" class="s3" d="m25.03 55.15q0.04 0.14 0.11 0.26 0.07 0.12 0.17 0.23 0.09 0.09 0.22 0.17 0.12 0.07 0.25 0.1 0.05 0.01 0.1 0.02 0.09 0.01 0.19 0.01 0.05-0.01 0.09-0.01 0.1-0.02 0.19-0.05 0.02-0.01 0.04-0.02 0.05 0 0.09-0.01-0.02 0.01-0.04 0.01 0.08 0 0.16-0.03 0 0 0.01 0 0 0 0.01 0 0.02 0 0.03-0.01h-0.01q0.03 0 0.07-0.02 0.01-0.01 0.02-0.01 0.01-0.01 0.03-0.02 0.05-0.03 0.09-0.07 0.04-0.04 0.07-0.08 0.04-0.03 0.06-0.08 0.07-0.09 0.11-0.19 0.03-0.07 0.05-0.14 0.02-0.08 0.02-0.16 0-0.13-0.03-0.26-0.02-0.09-0.06-0.18-0.06-0.12-0.14-0.22-0.08-0.11-0.19-0.19-0.11-0.08-0.24-0.13-0.14-0.05-0.28-0.07-0.15-0.02-0.3 0-0.1 0.01-0.19 0.04-0.05 0.01-0.1 0.03-0.09 0.03-0.18 0.08-0.04 0.02-0.09 0.05-0.08 0.06-0.15 0.13-0.06 0.07-0.11 0.15-0.05 0.09-0.07 0.18-0.02 0.05-0.03 0.11-0.01 0.1 0 0.2 0.01 0.09 0.03 0.18z"/>
					<path id="&lt;Path&gt;" class="s2" d="m26.2 55.84q0 0.04 0.02 0.1 0 0 0 0 0 0.01 0 0.01 0 0 0 0 0.01 0.01 0.01 0.02 0.02 0.03 0.04 0.07 0 0 0 0.01 0 0 0.01 0.01 0 0 0 0.01 0.03 0.03 0.06 0.06 0.01 0.01 0.02 0.02 0.03 0.02 0.07 0.05 0 0 0 0 0.01 0 0.02 0 0 0.01 0.01 0.01 0 0 0.01 0 0.04 0.02 0.09 0.03 0 0.01 0 0.01 0.01 0 0.01 0 0.03 0 0.06 0c0.06 0.01 0.03 0.01 0.09 0q0.02-0.01 0.05-0.01 0 0 0.01-0.01 0.04-0.02 0.08-0.04 0.01 0 0.01 0 0.04-0.03 0.08-0.07 0 0 0 0 0 0 0 0 0.01-0.02 0.02-0.04 0.01 0 0.01 0 0 0 0 0 0.01-0.02 0.02-0.04 0.01-0.01 0.01-0.03 0 0 0-0.01 0.02-0.04 0.03-0.08 0.01-0.01 0.01-0.01 0-0.01 0-0.02 0-0.04 0.01-0.08 0 0 0-0.01 0 0-0.01-0.01 0-0.04-0.01-0.09-0.01 0-0.01-0.01 0 0 0 0-0.02-0.04-0.03-0.07 0 0-0.01-0.01 0 0 0 0-0.02-0.02-0.03-0.04-0.01-0.01-0.03-0.03 0 0-0.01-0.01-0.03-0.02-0.07-0.04-0.04-0.03-0.09-0.04 0.04 0.01 0.07 0.02-0.01 0-0.02-0.01 0 0-0.01 0-0.03-0.01-0.07-0.03-0.01 0-0.01 0 0 0 0 0-0.01 0-0.02-0.01-0.04-0.02-0.08-0.01-0.07-0.01-0.13 0.01-0.01 0-0.02 0-0.04 0.02-0.08 0.05-0.01 0-0.01 0-0.02 0.02-0.04 0.04-0.02 0.01-0.03 0.03-0.01 0-0.01 0 0 0 0 0.01-0.03 0.03-0.05 0.07 0 0-0.01 0 0 0.01 0 0.02c0 0-0.03 0.06-0.03 0.09q-0.01 0.01-0.01 0.02c0 0.01 0 0.09 0 0.09z"/>
					<path id="&lt;Path&gt;" class="s3" d="m20.38 54.45q-0.01 0.37 0.02 0.73-0.24 0.06-0.48 0.1-0.11 0.02-0.22 0.03-0.11 0.02-0.22 0.02h-0.01-0.01q-0.09 0-0.17 0-0.06-0.01-0.12-0.02-0.18-0.05-0.22-0.22c-0.02-0.12 0.02-0.24 0.12-0.3q0.03-0.02 0.07-0.04 0.04-0.02 0.08-0.04 0.03-0.01 0.05-0.02 0.05-0.01 0.08-0.02 0.02-0.01 0.04-0.02 0.03-0.01 0.06-0.01 0.26-0.06 0.52-0.11 0.21-0.03 0.41-0.08z"/>
					<path id="&lt;Path&gt;" class="s3" d="m20.6 58.13q-0.12 0.06-0.24 0.11-0.18 0.08-0.36 0.17-0.06 0.04-0.14 0.05-0.2-0.01-0.3-0.18-0.05-0.1-0.03-0.21 0.03-0.07 0.08-0.14 0.07-0.09 0.18-0.14 0.07-0.04 0.15-0.08 0.16-0.1 0.34-0.2 0.24-0.11 0.48-0.22 0.03 0.11 0.07 0.22 0.08 0.22 0.17 0.43-0.14 0.06-0.28 0.13-0.06 0.03-0.12 0.06z"/>
					<path id="&lt;Path&gt;" class="s2" d="m21.34 56.65q0.01 0.06 0.02 0.11 0.04 0.2 0.09 0.39-0.09 0.03-0.18 0.06-0.3 0.12-0.6 0.25c-0.2-0.67-0.31-1.39-0.36-2.09v-0.05q0.02-0.01 0.05-0.01 0.4-0.09 0.79-0.2 0.01 0.36 0.06 0.71 0.03 0.26 0.07 0.51 0.02 0.13 0.05 0.26v0.01 0.02q0 0.01 0.01 0.01z"/>
					<path id="&lt;Path&gt;" class="s3" d="m20.08 51.99q0.31 0.03 0.61 0.05-0.09 0.33-0.16 0.68-0.16 0-0.33 0-0.27-0.01-0.55-0.05-0.11-0.02-0.23-0.04-0.14-0.03-0.27-0.1c-0.1-0.05-0.16-0.17-0.15-0.28q0.01-0.09 0.07-0.16 0.02-0.03 0.05-0.05 0.03-0.01 0.06-0.03 0.08-0.02 0.15-0.03 0.07-0.03 0.14-0.03 0.04 0.01 0.08 0.01 0.07 0 0.14 0.01 0.15 0 0.3 0.02 0.05 0 0.09 0z"/>
					<path id="&lt;Path&gt;" class="s4" d="m21.14 54.41q-0.01 0.18 0 0.36 0 0.17 0.01 0.34-0.39 0.11-0.79 0.2-0.03 0-0.05 0.01-0.03-0.37-0.03-0.74 0.29-0.05 0.57-0.12 0.15-0.03 0.29-0.05z"/>
					<path id="&lt;Path&gt;" class="s4" d="m21.45 57.15q0.08 0.32 0.19 0.63-0.37 0.16-0.73 0.34-0.09-0.21-0.17-0.43-0.04-0.11-0.07-0.23 0.3-0.13 0.6-0.25 0.09-0.03 0.18-0.06z"/>
					<path id="&lt;Path&gt;" class="s2" d="m21.14 54.41q-0.14 0.02-0.29 0.05-0.28 0.07-0.57 0.12 0-0.72 0.1-1.43 0.03-0.17 0.06-0.33 0.07 0 0.14 0 0.12 0 0.24 0 0.05 0 0.11-0.01 0.1 0 0.2-0.02-0.04 0.01-0.08 0.02 0.09-0.01 0.18-0.02h0.11q-0.01 0.02-0.01 0.03-0.11 0.5-0.16 1.01 0 0.08-0.01 0.15v0.03q-0.01 0.12-0.02 0.24 0 0.08 0 0.16z"/>
					<path id="&lt;Path&gt;" class="s4" d="m21.08 52.17q0.16 0.01 0.33 0.02 0.04 0.01 0.08 0.01-0.02 0.06-0.04 0.12-0.06 0.23-0.11 0.47h-0.11q-0.09 0.01-0.18 0.02 0.04-0.01 0.08-0.02-0.1 0.02-0.2 0.02-0.06 0.01-0.11 0.01-0.12 0-0.24 0-0.07 0-0.14 0 0.06-0.35 0.16-0.69 0.11 0.01 0.21 0.02 0.14 0 0.27 0.02z"/>
					<path id="&lt;Path&gt;" class="s2" d="m21.93 54.36q0.13 0.22 0.29 0.41 0.05 0.06 0.1 0.11 0.01 0.02 0.02 0.03 0.09 0.1 0.17 0.18 0.1 0.1 0.2 0.19-0.09 0.09-0.18 0.17-0.05 0.04-0.1 0.09-0.02 0.02-0.05 0.04-0.02 0.02-0.04 0.05 0 0 0 0-0.09 0.1-0.19 0.18 0 0.01-0.01 0.01-0.08-0.07-0.16-0.14-0.68-0.68-1.07-1.56 0.36-0.18 0.73-0.34 0.03 0.11 0.08 0.21 0.02 0.03 0.04 0.07 0.02 0.05 0.05 0.09 0.05 0.11 0.12 0.21z"/>
					<path id="&lt;Path&gt;" class="s3" d="m21.97 56.01q0.07-0.11 0.17-0.19 0.22 0.21 0.47 0.39-0.04 0.02-0.06 0.04-0.1 0.1-0.22 0.16-0.07 0.05-0.14 0.11c-0.08 0.05-0.15 0.12-0.25 0.13-0.16 0-0.27-0.13-0.25-0.29 0.01-0.1 0.1-0.16 0.16-0.23q0.06-0.06 0.12-0.12z"/>
					<path id="&lt;Path&gt;" class="s4" d="m22.93 55.95q-0.04 0.04-0.09 0.08-0.02 0.02-0.05 0.04-0.01 0.02-0.03 0.02-0.01 0-0.02 0.02-0.07 0.05-0.13 0.1-0.25-0.18-0.47-0.39 0.01 0 0.01-0.01 0.1-0.08 0.19-0.18 0 0 0 0 0.02-0.03 0.04-0.05 0.03-0.02 0.05-0.04 0.05-0.05 0.1-0.09 0.09-0.08 0.18-0.17 0.09 0.07 0.18 0.14 0.1 0.09 0.21 0.16 0.03 0.02 0.06 0.05c0.02 0.01 0.06 0.03 0.08 0.04q0 0 0 0.01-0.06 0.06-0.12 0.1-0.09 0.09-0.19 0.17z"/>
					<path id="&lt;Path&gt;" class="s2" d="m24.55 56.27q0.2 0.05 0.4 0.09-0.05 0.08-0.09 0.16-0.18 0.27-0.36 0.54-0.36-0.09-0.71-0.22-0.63-0.25-1.18-0.63 0.06-0.05 0.13-0.1 0.01-0.02 0.02-0.02 0.02 0 0.03-0.02 0.03-0.02 0.05-0.04 0.05-0.04 0.09-0.08 0.1-0.08 0.19-0.17 0.06-0.04 0.12-0.1 0.21 0.12 0.43 0.24 0.23 0.11 0.46 0.21 0.07 0.02 0.14 0.05 0.01 0.01 0.04 0.01 0.12 0.04 0.24 0.08z"/>
					<path id="&lt;Path&gt;" class="s3" d="m25.05 57.45q-0.2 0.28-0.43 0.54-0.06 0.07-0.11 0.13-0.08 0.09-0.17 0.16-0.03 0.02-0.05 0.03-0.02 0.01-0.03 0.02-0.03 0.02-0.06 0.05-0.09 0.08-0.21 0.09-0.17-0.01-0.2-0.17c-0.01-0.11 0.05-0.22 0.11-0.32q0.01-0.03 0.03-0.08 0.02-0.04 0.05-0.08 0.06-0.1 0.14-0.19 0.08-0.13 0.18-0.26 0.06-0.1 0.12-0.19 0.05-0.06 0.08-0.12 0.36 0.1 0.72 0.14-0.08 0.12-0.17 0.25z"/>
					<path id="&lt;Path&gt;" class="s4" d="m24.5 57.06q0.18-0.27 0.36-0.54 0.04-0.08 0.09-0.16 0.34 0.07 0.69 0.11h0.01l0.01-0.01h0.01q-0.21 0.38-0.44 0.74h-0.01q-0.36-0.04-0.72-0.14z"/>
					<path id="&lt;Path&gt;" class="s2" d="m27.29 57.15q-1.03 0.18-2.06 0.05 0.23-0.36 0.44-0.74 0.03 0.01 0.06 0.01 0.08 0 0.16 0 0.14 0.01 0.28 0.01 0.31-0.01 0.61-0.04 0.3-0.04 0.61-0.1-0.03 0.35-0.08 0.7-0.01 0.05-0.02 0.11z"/>
					<path id="&lt;Path&gt;" class="s3" d="m27.67 58.07q-0.02 0.04-0.04 0.08-0.03 0.09-0.07 0.18-0.02 0.07-0.08 0.12-0.01 0.01-0.02 0.02-0.02 0.03-0.03 0.06-0.05 0.08-0.12 0.13c-0.08 0.07-0.21 0.04-0.22-0.08q-0.01-0.08 0-0.16 0-0.05 0.01-0.11-0.01-0.05 0-0.1 0.01-0.05 0.02-0.11 0.04-0.13 0.06-0.25 0-0.1 0.02-0.21 0.02-0.1 0.04-0.2 0.03-0.15 0.05-0.29 0.35-0.05 0.69-0.14 0 0.01-0.01 0.02-0.06 0.4-0.2 0.78-0.02 0.09-0.06 0.18-0.02 0.02-0.03 0.05-0.01 0.01-0.01 0.03z"/>
					<path id="&lt;Path&gt;" class="s4" d="m27.98 57.01q-0.34 0.09-0.69 0.14 0.01-0.06 0.02-0.11 0.05-0.35 0.08-0.7h0.02q0.03-0.01 0.08-0.02 0.06-0.02 0.14-0.03 0.14-0.04 0.28-0.07 0.08-0.02 0.15-0.05-0.01 0.42-0.08 0.84z"/>
					<path id="&lt;Path&gt;" class="s2" d="m29.62 55.59q0.14 0.34 0.24 0.71-0.55 0.27-1.13 0.47-0.36 0.14-0.75 0.24 0.07-0.42 0.08-0.84 0.52-0.15 1.02-0.37 0.14-0.06 0.29-0.13 0.06-0.03 0.12-0.06 0.01-0.01 0.01-0.01 0.04-0.02 0.07-0.03 0.02-0.01 0.04-0.02 0.01 0.02 0.01 0.04z"/>
					<path id="&lt;Path&gt;" class="s4" d="m29.86 56.3q-0.1-0.37-0.24-0.71 0-0.02-0.01-0.04 0.23-0.13 0.46-0.26 0.06-0.04 0.12-0.07 0.16 0.36 0.28 0.73-0.31 0.19-0.61 0.35z"/>
					<path id="&lt;Path&gt;" class="s3" d="m29.87 56.33q-0.03-0.12-0.07-0.25 0.31-0.16 0.61-0.34 0.14 0.42 0.22 0.88 0.03 0.23 0.04 0.47 0.02 0.12 0.02 0.24c0 0.06-0.01 0.08-0.02 0.13-0.01 0-0.01 0.04-0.01 0.05q-0.01 0.06-0.01 0.12c-0.02 0.09-0.06 0.18-0.16 0.22q-0.09 0.03-0.17-0.02c-0.12-0.06-0.13-0.17-0.17-0.29q0-0.01-0.01-0.04-0.01-0.02-0.01-0.02-0.03-0.06-0.03-0.12-0.02-0.05-0.02-0.11-0.02-0.1-0.04-0.19-0.03-0.13-0.06-0.27-0.05-0.23-0.11-0.46z"/>
					<path id="&lt;Path&gt;" class="s2" d="m30.19 55.22q0.34-0.2 0.65-0.43 0.17 0.22 0.3 0.47 0.05 0.09 0.1 0.19-0.12 0.09-0.26 0.18-0.25 0.17-0.51 0.32-0.12-0.37-0.28-0.73z"/>
					<path id="&lt;Path&gt;" class="s4" d="m31.14 55.26q-0.13-0.25-0.3-0.47 0.1-0.07 0.2-0.13 0.14-0.12 0.29-0.24 0.07 0.11 0.15 0.21 0.14 0.18 0.26 0.37 0.01 0.02 0.02 0.04-0.26 0.22-0.52 0.41-0.05-0.1-0.1-0.19z"/>
					<path id="&lt;Path&gt;" class="s3" d="m31.68 54.85q0.11 0.21 0.21 0.43 0.04 0.1 0.08 0.2 0.02 0.05 0.03 0.11 0.03 0.06 0.04 0.13v0.05q0.04 0.18 0.06 0.37c0.02 0.13-0.08 0.24-0.21 0.27-0.12 0.02-0.25-0.05-0.29-0.17q-0.06-0.16-0.12-0.31 0-0.01-0.01-0.01-0.03-0.05-0.05-0.1-0.02-0.04-0.03-0.08-0.03-0.08-0.06-0.15-0.06-0.15-0.13-0.28-0.02-0.03-0.03-0.07 0.26-0.18 0.51-0.39z"/>
					<path id="&lt;Path&gt;" class="s5" d="m32.7 52.45q0 0 0-0.01 0.01 0.07 0 0.05 0-0.01 0-0.01 0-0.02 0-0.03z"/>
					<path id="&lt;Path&gt;" class="s3" d="m33.64 54.36q0-0.36-0.03-0.73 0.24-0.05 0.48-0.09 0.11-0.02 0.22-0.04 0.11-0.01 0.22-0.01l0.02-0.01q0.09 0.01 0.18 0.01 0.06 0.01 0.12 0.02 0.18 0.05 0.22 0.22c0.02 0.11-0.02 0.23-0.12 0.3q-0.03 0.01-0.08 0.03-0.03 0.02-0.07 0.04-0.03 0.02-0.06 0.02-0.04 0.01-0.07 0.03-0.02 0.01-0.05 0.02-0.03 0-0.05 0-0.26 0.06-0.52 0.12-0.21 0.03-0.41 0.07z"/>
					<path id="&lt;Path&gt;" class="s3" d="m33.41 50.69q0.13-0.06 0.25-0.12 0.18-0.08 0.35-0.17 0.06-0.03 0.15-0.04 0.19 0 0.29 0.18 0.05 0.09 0.03 0.2-0.02 0.08-0.07 0.15-0.08 0.08-0.19 0.14-0.07 0.04-0.14 0.08-0.17 0.1-0.35 0.19-0.23 0.12-0.48 0.23-0.03-0.11-0.07-0.22-0.07-0.23-0.17-0.43 0.14-0.06 0.28-0.13 0.06-0.03 0.12-0.06z"/>
					<path id="&lt;Path&gt;" class="s2" d="m32.69 52.42q-0.01-0.05-0.02-0.11-0.04-0.19-0.09-0.39 0.09-0.03 0.18-0.06 0.3-0.12 0.6-0.25c0.2 0.68 0.31 1.39 0.36 2.09l0.01 0.05q-0.03 0.01-0.06 0.01-0.4 0.09-0.79 0.2-0.01-0.36-0.05-0.71-0.04-0.26-0.08-0.51-0.02-0.13-0.05-0.26v-0.01-0.02q0-0.01-0.01-0.01z"/>
					<path id="&lt;Path&gt;" class="s3" d="m33.94 56.82q-0.31-0.02-0.62-0.05 0.1-0.33 0.16-0.67 0.17 0 0.33 0 0.28 0.01 0.55 0.05 0.12 0.01 0.23 0.04 0.15 0.03 0.28 0.1c0.09 0.05 0.16 0.17 0.15 0.27q-0.01 0.1-0.07 0.17-0.03 0.02-0.05 0.05-0.04 0.01-0.07 0.03-0.07 0.01-0.14 0.03-0.07 0.02-0.14 0.02-0.05 0-0.08 0-0.07-0.01-0.15-0.01-0.15 0-0.29-0.02-0.05 0-0.09-0.01z"/>
					<path id="&lt;Path&gt;" class="s4" d="m32.89 54.67q0.01-0.18 0.01-0.36 0-0.18-0.02-0.35 0.39-0.11 0.79-0.2 0.03 0 0.06-0.01 0.03 0.37 0.02 0.74-0.28 0.05-0.57 0.12-0.14 0.03-0.29 0.06z"/>
					<path id="&lt;Path&gt;" class="s4" d="m32.58 51.92q-0.07-0.32-0.19-0.63 0.37-0.15 0.73-0.34 0.09 0.21 0.17 0.43 0.04 0.12 0.07 0.23-0.3 0.13-0.6 0.25-0.09 0.03-0.18 0.06z"/>
					<path id="&lt;Path&gt;" class="s2" d="m32.89 54.67q0.15-0.03 0.29-0.06 0.29-0.07 0.57-0.12 0 0.72-0.1 1.43-0.02 0.17-0.06 0.33-0.07 0-0.14 0-0.12 0-0.23 0.01-0.06-0.01-0.12 0-0.1 0-0.2 0.02 0.04-0.01 0.08-0.02-0.08 0.01-0.18 0.02h-0.1q0-0.01 0.01-0.03 0.1-0.5 0.15-1.01 0.01-0.07 0.02-0.15v-0.03q0.01-0.12 0.01-0.24 0-0.08 0-0.15z"/>
					<path id="&lt;Path&gt;" class="s4" d="m32.95 56.9q-0.16-0.01-0.33-0.02-0.03-0.01-0.08-0.01 0.02-0.06 0.04-0.12 0.07-0.23 0.12-0.47h0.1q0.1-0.01 0.18-0.02-0.04 0.01-0.08 0.02 0.1-0.02 0.2-0.02 0.06-0.01 0.12 0 0.11-0.01 0.23-0.01 0.07 0 0.14 0-0.06 0.35-0.16 0.69-0.11-0.01-0.21-0.02-0.13 0-0.27-0.02z"/>
					<path id="&lt;Path&gt;" class="s2" d="m32.1 50.71q-0.13-0.21-0.29-0.41-0.05-0.06-0.09-0.11-0.02-0.02-0.03-0.03-0.09-0.1-0.17-0.18-0.1-0.1-0.2-0.19 0.09-0.09 0.19-0.17 0.04-0.04 0.09-0.09 0.03-0.02 0.05-0.04 0.03-0.02 0.04-0.05 0.01 0 0.01 0 0.08-0.1 0.18-0.18 0.01-0.01 0.01-0.01 0.09 0.07 0.16 0.14 0.69 0.68 1.07 1.56-0.36 0.19-0.73 0.34-0.03-0.11-0.08-0.21-0.02-0.03-0.04-0.07-0.02-0.05-0.05-0.09-0.05-0.11-0.12-0.21z"/>
					<path id="&lt;Path&gt;" class="s2" d="m33.22 52.92q-0.13 0-0.27-0.02-0.16-0.01-0.33-0.02-0.03-0.01-0.08-0.01-0.02 0.06-0.03 0.11c-0.01 0.04-0.03 0.07-0.05 0.17-0.08 0.28-0.4 0.67-0.63 0.85q-0.05 0.05-0.11 0.1-0.11 0.1-0.23 0.2-0.08 0.06-0.16 0.12 0.07 0.11 0.15 0.21 0.14 0.18 0.26 0.37 0.01 0.02 0.02 0.04 0.08-0.06 0.17-0.14c0.34-0.29 0.67-0.58 0.95-0.93 0.06-0.08 0.61-1.03 0.55-1.03q-0.11-0.01-0.21-0.02z"/>
					<path id="&lt;Path&gt;" class="s3" d="m31.97 49.02q-0.06 0.1-0.16 0.18-0.22-0.2-0.46-0.37 0.03-0.03 0.06-0.05 0.09-0.09 0.21-0.16 0.07-0.05 0.13-0.1c0.09-0.06 0.16-0.12 0.25-0.13 0.16 0 0.27 0.13 0.25 0.28-0.01 0.1-0.09 0.17-0.16 0.23q-0.06 0.06-0.12 0.12z"/>
					<path id="&lt;Path&gt;" class="s4" d="m31.1 49.12q0.05-0.04 0.1-0.08 0.01-0.02 0.04-0.04 0.01-0.02 0.04-0.02 0.01 0 0.01-0.01 0.07-0.05 0.13-0.1 0.26 0.17 0.47 0.38 0 0-0.01 0.01-0.1 0.08-0.18 0.18 0 0-0.01 0-0.01 0.03-0.04 0.05-0.02 0.02-0.05 0.04-0.05 0.05-0.09 0.09-0.1 0.08-0.19 0.17-0.08-0.07-0.18-0.14-0.1-0.09-0.21-0.16-0.02-0.02-0.06-0.05c-0.02-0.01-0.06-0.03-0.07-0.04q-0.01 0-0.01-0.01 0.06-0.05 0.12-0.1 0.09-0.09 0.19-0.17z"/>
					<path id="&lt;Path&gt;" class="s2" d="m29.48 48.8q-0.2-0.05-0.4-0.09 0.05-0.08 0.1-0.16 0.17-0.27 0.35-0.54 0.36 0.09 0.71 0.22 0.63 0.25 1.18 0.64-0.06 0.05-0.13 0.1 0 0.01-0.01 0.01-0.03 0-0.04 0.02-0.03 0.02-0.04 0.04-0.05 0.04-0.1 0.08-0.1 0.08-0.19 0.17-0.06 0.05-0.12 0.1-0.21-0.12-0.43-0.24-0.23-0.11-0.46-0.21-0.07-0.02-0.14-0.05-0.01 0-0.04-0.01-0.11-0.04-0.24-0.08z"/>
					<path id="&lt;Path&gt;" class="s3" d="m28.95 47.61q0.19-0.28 0.42-0.54 0.05-0.07 0.11-0.13 0.07-0.09 0.16-0.16 0.03-0.01 0.05-0.03 0.02-0.01 0.03-0.02 0.03-0.02 0.06-0.04 0.09-0.08 0.21-0.09 0.16 0.01 0.19 0.17c0.02 0.1-0.05 0.21-0.1 0.31q-0.01 0.03-0.03 0.08-0.03 0.04-0.05 0.07-0.07 0.1-0.14 0.19-0.08 0.14-0.18 0.26-0.06 0.1-0.12 0.19-0.04 0.06-0.08 0.12-0.35-0.1-0.7-0.14 0.08-0.12 0.17-0.24z"/>
					<path id="&lt;Path&gt;" class="s4" d="m29.53 48.01q-0.18 0.27-0.35 0.54-0.05 0.08-0.1 0.16-0.34-0.07-0.69-0.1h-0.01-0.01-0.01q0.21-0.38 0.45-0.73 0.36 0.03 0.72 0.13z"/>
					<path id="&lt;Path&gt;" class="s2" d="m26.74 47.92q1.03-0.18 2.07-0.04-0.24 0.35-0.45 0.73-0.03-0.01-0.05 0-0.09-0.01-0.16-0.01-0.15-0.01-0.29-0.01-0.31 0.02-0.61 0.04-0.3 0.04-0.6 0.1 0.02-0.35 0.08-0.7 0-0.05 0.01-0.11z"/>
					<path id="&lt;Path&gt;" class="s3" d="m26.37 47q0.01-0.05 0.03-0.09 0.04-0.09 0.07-0.17 0.03-0.07 0.08-0.13 0.01 0 0.02-0.01 0.02-0.03 0.04-0.06 0.04-0.08 0.11-0.13c0.08-0.07 0.21-0.04 0.21 0.08q0.01 0.08 0.01 0.16-0.01 0.05-0.02 0.1 0.01 0.05 0.01 0.1-0.01 0.06-0.03 0.12-0.03 0.12-0.05 0.24 0 0.1-0.02 0.2-0.02 0.1-0.04 0.21-0.03 0.14-0.05 0.28-0.35 0.05-0.68 0.14 0-0.02 0.01-0.03 0.06-0.39 0.19-0.76 0.03-0.09 0.07-0.18 0.01-0.02 0.03-0.05 0-0.01 0.01-0.02z"/>
					<path id="&lt;Path&gt;" class="s4" d="m26.05 48.07q0.34-0.1 0.69-0.15-0.01 0.06-0.01 0.11-0.06 0.35-0.08 0.7h-0.01-0.02q-0.03 0.01-0.08 0.02-0.06 0.02-0.14 0.03-0.13 0.04-0.28 0.07-0.07 0.03-0.15 0.05 0.02-0.42 0.08-0.83z"/>
					<path id="&lt;Path&gt;" class="s2" d="m24.41 49.48q-0.13-0.34-0.23-0.71 0.55-0.27 1.12-0.47 0.37-0.14 0.75-0.23-0.06 0.41-0.08 0.83-0.52 0.15-1.01 0.37-0.15 0.06-0.3 0.14-0.05 0.03-0.12 0.06-0.01 0-0.01 0-0.03 0.02-0.07 0.03-0.02 0.01-0.04 0.02 0-0.02-0.01-0.03z"/>
					<path id="&lt;Path&gt;" class="s4" d="m24.18 48.77q0.1 0.37 0.23 0.72 0.01 0.01 0.01 0.03-0.23 0.13-0.46 0.26-0.06 0.04-0.11 0.07-0.17-0.35-0.29-0.73 0.31-0.19 0.62-0.35z"/>
					<path id="&lt;Path&gt;" class="s3" d="m24.14 48.48q0.04 0.13 0.07 0.26-0.3 0.15-0.6 0.33-0.14-0.42-0.22-0.87-0.04-0.23-0.05-0.47-0.01-0.12-0.01-0.24c0-0.06 0-0.08 0.02-0.13 0 0 0.01-0.05 0-0.05q0.02-0.06 0.02-0.12c0.02-0.09 0.06-0.18 0.16-0.22q0.09-0.03 0.17 0.01c0.12 0.06 0.13 0.18 0.16 0.3q0.01 0.01 0.02 0.04 0.01 0.02 0.01 0.02 0.02 0.05 0.03 0.11 0.01 0.06 0.02 0.12 0.02 0.09 0.03 0.19 0.04 0.13 0.07 0.26 0.05 0.23 0.1 0.46z"/>
					<path id="&lt;Path&gt;" class="s2" d="m23.85 49.85q-0.34 0.21-0.66 0.43-0.16-0.22-0.3-0.47-0.05-0.09-0.1-0.19 0.13-0.09 0.26-0.18 0.25-0.17 0.51-0.32 0.12 0.38 0.29 0.73z"/>
					<path id="&lt;Path&gt;" class="s4" d="m22.89 49.81q0.14 0.25 0.3 0.47-0.1 0.07-0.19 0.14-0.15 0.11-0.3 0.23-0.07-0.1-0.15-0.21-0.14-0.17-0.26-0.37-0.01-0.02-0.02-0.04 0.26-0.22 0.52-0.41 0.05 0.1 0.1 0.19z"/>
					<path id="&lt;Path&gt;" class="s3" d="m22.34 49.97q-0.11-0.21-0.21-0.43-0.04-0.1-0.08-0.2-0.03-0.06-0.04-0.11-0.02-0.06-0.03-0.13v-0.05q-0.04-0.18-0.07-0.37c-0.02-0.13 0.09-0.24 0.21-0.27 0.13-0.02 0.26 0.05 0.3 0.17q0.05 0.16 0.12 0.31 0 0 0.01 0.01 0.03 0.04 0.05 0.1 0.01 0.03 0.03 0.08 0.03 0.08 0.06 0.15 0.06 0.15 0.13 0.28 0.01 0.03 0.03 0.06-0.26 0.19-0.51 0.4z"/>
					<path id="&lt;Path&gt;" class="s2" d="m22.55 50.44q-0.14-0.17-0.26-0.37-0.01-0.02-0.02-0.04c-0.02-0.05-0.94 0.62-1.01 0.72-0.3 0.4-0.52 0.89-0.66 1.38q0.11 0.01 0.21 0.02 0.14 0 0.27 0.02 0.16 0.01 0.33 0.02 0.04 0.01 0.08 0.01 0.02-0.05 0.03-0.11c0.01-0.03 0.03-0.07 0.06-0.17 0.12-0.34 0.33-0.54 0.57-0.8q0.01-0.02 0.05-0.05 0.06-0.05 0.11-0.1 0.12-0.1 0.24-0.2 0.07-0.06 0.15-0.12-0.07-0.1-0.15-0.21z"/>
				</g>
				<g id="&lt;Group&gt;">
					<path id="&lt;Compound Path&gt;" class="s1" d="m22.05 65.86c0.81 3.46 4.99 5.75 8.16 3.56 0.31-0.21 0.51-0.54 0.71-0.86 0.76-1.25 1.54-2.57 1.58-4.03 0.07-2.28-1.87-4.34-4.12-4.76-3.41-0.64-7.18 2.44-6.33 6.09zm6.18-4.83q0.43 0.06 0.82 0.26c0.66 0.36 1.03 1.09 1.35 1.78 0.46 0.96 0.92 2.04 0.59 3.05-0.24 0.74-0.86 1.28-1.5 1.73-0.54 0.39-1.12 0.75-1.78 0.86-3.78 0.66-5.37-4.29-2.89-6.63 0.9-0.85 2.2-1.25 3.41-1.05z"/>
					<path id="&lt;Path&gt;" class="s2" d="m26.08 66.58c0.38 0.26 0.84 0.39 1.29 0.4 1.4 0.05 2.79-0.93 1.95-2.54-1.06-2.06-4.71-2.12-4.12 0.81 0.13 0.61 0.45 1.05 0.88 1.33z"/>
				</g>
				<path id="&lt;Path&gt;" class="s3" d="m71.84 23.64q0.33-0.61 0.9-1.01c0.41-0.28 0.85-0.38 1.33-0.46q0.28-0.05 0.56-0.06 0.27 0 0.53 0.05 0.67 0.15 1.13 0.61 0.08 0.06 0.16 0.13 0.3 0.25 0.49 0.57c0.44 0.76 0.51 1.59 0.43 2.45-0.08 0.78-0.47 1.47-1.07 1.96-0.24 0.19-0.56 0.32-0.88 0.37q-0.55 0.29-1.16 0.32-0.26 0.01-0.53-0.06-0.48-0.11-0.89-0.4-0.14-0.1-0.27-0.22c-0.41-0.4-0.72-0.91-0.86-1.47q-0.01-0.03-0.02-0.05c-0.3-0.86-0.31-1.92 0.15-2.73z"/>
				<path id="&lt;Path&gt;" class="s2" d="m72.84 28.11q-0.01-0.44 0.07-0.88c0.3-1.79 0.79-3.58 1.72-5.12q0.27 0 0.53 0.05 0.67 0.15 1.13 0.61 0.08 0.06 0.16 0.13c-0.39 1.88-0.96 3.65-1.95 5.31q-0.11 0.19-0.24 0.36-0.26 0.01-0.53-0.06-0.48-0.11-0.89-0.4z"/>
				<g id="&lt;Group&gt;">
					<path id="&lt;Compound Path&gt;" class="s3" d="m20.82 71.12q1.07-0.07 2.14 0.1c3.22 0.53 6.06 2.69 7.79 5.92 1.75 3.29 1.97 7.08 0.57 10.14-1.37 3.02-4.31 5.03-8.07 5.51-4.06 0.52-8.15-0.93-10.41-3.7-3.41-4.18-1.64-9.78-0.72-12 1.4-3.37 4.98-5.73 8.7-5.97zm1.54 20.69q0.38-0.02 0.76-0.07c3.38-0.44 6.02-2.22 7.24-4.89 1.26-2.77 1.05-6.21-0.55-9.21-1.56-2.94-4.13-4.89-7.03-5.37-3.94-0.65-8.19 1.65-9.68 5.23-0.84 2.04-2.48 7.19 0.56 10.92 1.89 2.33 5.25 3.62 8.7 3.39z"/>
					<path id="&lt;Path&gt;" class="s7" d="m13.82 80.3c0.69-3.2 3.51-6.02 6.79-6.1h0.06c1.09-0.01 2.17 0.25 3.2 0.61 1.02 0.35 2.02 0.79 2.82 1.51q0.04 0.03 0.08 0.08c0.98 0.93 1.56 2.22 1.77 3.54 0.78 4.87-2.12 7.8-5.57 8.67-2.57 0.66-5.44 0.18-7.33-1.46-1.62-1.4-2.51-3.68-1.82-6.85z"/>
					<path id="&lt;Path&gt;" class="s4" d="m15.64 87.15q0.22-0.56 0.43-1.13 0.36-0.98 0.72-1.95 0.76-2.02 1.5-4.05 0.28-0.74 0.55-1.48 0.81-2.2 1.77-4.34h0.06c1.09-0.01 2.17 0.25 3.2 0.61 1.02 0.35 2.02 0.79 2.82 1.51q0.04 0.04 0.08 0.08c-0.09 0.41-0.17 0.76-0.21 0.9q-0.41 1.37-0.84 2.74-0.1 0.31-0.19 0.62c-0.39 1.28-0.76 2.61-1.16 3.92-0.42 1.38-0.86 2.73-1.4 4.03-2.57 0.66-5.44 0.18-7.33-1.46z"/>
					<path id="&lt;Path&gt;" class="s2" d="m16.79 84.07q0.76-2.02 1.5-4.05 0.28-0.74 0.55-1.48c0.72-0.38 1.49-0.6 2.15-0.64 1.62-0.1 3.41 0.46 4.19 1.88q0.23 0.41 0.35 0.88c-0.39 1.28-0.76 2.61-1.16 3.92-1.38 0.73-3.01 0.95-4.53 0.67-0.9-0.17-2.32-0.46-3.05-1.18z"/>
					<path id="&lt;Path&gt;" class="s1" d="m19.35 82.04q0 0.01 0 0.01 0 0.01 0 0.01 0 0 0 0l0.08 0.4q0.01 0.02 0.01 0.03 0.01 0.03 0.02 0.06 0.1 0.21 0.21 0.42 0.02 0.02 0.04 0.05 0 0.01 0.01 0.01v0.01q0.05 0.09 0.14 0.16c0.18 0.2 0.19 0.23 0.49 0.39q0.02 0.01 0.03 0.02 0.04 0.01 0.07 0.03 0.01 0 0.02 0 0.21 0.08 0.42 0.15 0.02 0 0.04 0.01 0.07 0.02 0.14 0.02 0.23 0.02 0.46 0.04 0.01 0 0.02 0 0.02 0 0.03 0 0.04-0.01 0.08-0.01 0.12-0.02 0.23-0.05 0.12-0.02 0.24-0.05 0.02 0 0.04-0.01 0.03-0.01 0.06-0.02 0.21-0.1 0.41-0.21 0.02 0 0.03-0.01 0.02-0.02 0.05-0.04 0.09-0.08 0.16-0.15 0.08-0.06 0.17-0.14 0.01-0.01 0.01-0.01 0.01-0.01 0.02-0.02 0.02-0.03 0.04-0.05 0.15-0.2 0.27-0.41 0.02-0.03 0.03-0.05 0-0.01 0-0.02c0.04-0.1 0.12-0.32 0.15-0.42q0 0 0-0.01 0.01-0.01 0.01-0.02 0.01-0.03 0.01-0.06c0.01-0.06 0.03-0.33 0.03-0.49q0-0.01 0-0.03 0-0.01 0-0.02-0.02-0.13-0.05-0.24-0.02-0.11-0.05-0.24 0-0.03-0.02-0.06 0 0 0 0 0 0 0-0.01-0.1-0.19-0.2-0.39 0-0.01-0.01-0.02 0-0.01-0.01-0.02-0.01-0.01-0.02-0.02 0 0 0 0c-0.07-0.08-0.22-0.26-0.29-0.34q-0.01 0-0.01 0-0.02-0.02-0.04-0.03c-0.05-0.04-0.31-0.22-0.36-0.25q-0.01 0-0.01-0.01 0 0-0.01 0-0.01-0.01-0.02-0.01-0.01-0.01-0.02-0.01-0.01 0-0.01-0.01c-0.11-0.04-0.31-0.11-0.43-0.14l-0.01-0.01q-0.02 0-0.04-0.01-0.25-0.03-0.51-0.03-0.02 0-0.05 0-0.01 0-0.02 0 0 0-0.01 0 0 0-0.01 0l-0.45 0.09q0 0-0.01 0.01-0.02 0-0.04 0.01-0.01 0-0.02 0.01-0.01 0-0.01 0c-0.43 0.2-0.32 0.12-0.58 0.35q-0.09 0.07-0.18 0.17-0.04 0.05-0.07 0.11-0.1 0.09-0.19 0.19-0.05 0.05-0.09 0.11-0.01 0.01-0.02 0.01 0 0.01 0 0.01c-0.06 0.08-0.15 0.22-0.21 0.31q-0.01 0.01-0.02 0.03 0 0.01 0 0.01-0.01 0.01-0.01 0.01 0 0 0 0.01-0.06 0.17-0.12 0.35-0.01 0.02-0.01 0.04 0 0 0 0.01c-0.01 0.06-0.03 0.33-0.03 0.39q0 0.01 0 0.01 0 0.01 0 0.02 0 0.02 0 0.04 0 0.02 0 0.03z"/>
				</g>
				<g id="&lt;Group&gt;">
					<path id="&lt;Compound Path&gt;" class="s7" d="m20.98 105.81c1.34 5.75 8.28 9.54 13.54 5.91 0.51-0.35 0.85-0.9 1.17-1.43 1.26-2.07 2.56-4.26 2.63-6.68 0.12-3.8-3.11-7.21-6.85-7.91-5.64-1.06-11.91 4.05-10.49 10.11zm10.25-8.02c0.48 0.07 0.94 0.2 1.36 0.43 1.1 0.61 1.71 1.82 2.25 2.95 0.75 1.6 1.53 3.4 0.97 5.08-0.4 1.22-1.43 2.11-2.48 2.86-0.9 0.64-1.87 1.24-2.96 1.43-6.28 1.09-8.92-7.12-4.79-11.01 1.48-1.4 3.64-2.07 5.65-1.74z"/>
					<path id="&lt;Path&gt;" class="s8" d="m27.66 107.01c0.63 0.42 1.39 0.63 2.15 0.66 2.31 0.09 4.62-1.55 3.24-4.22-1.76-3.41-7.83-3.52-6.84 1.34 0.2 1.02 0.75 1.75 1.45 2.22z"/>
				</g>
				<path id="&lt;Path&gt;" class="s7" d="m42.75 113.8c1.03 0.37 3 0.16 3.73-0.73 0.41-0.49 0.6-1.11 0.74-1.73 0.14-0.58 0.24-1.19 0.12-1.78-0.63-2.99-5.06-2.87-6.34-0.5-0.9 1.68-0.05 4.09 1.75 4.74z"/>
				<path id="&lt;Path&gt;" class="s7" d="m18.26 98.62c0.6-1.2-0.15-3.05-2.18-1.71-0.28 0.19-0.56 0.43-0.7 0.74-0.35 0.76 0.3 1.72 1.13 1.83 0.89 0.12 1.47-0.3 1.75-0.86z"/>
				<path id="&lt;Path&gt;" class="s8" d="m45.67 112.22q0.53-1.03 0.83-2.16c0.05-0.2 0.1-0.43 0.02-0.63-0.06-0.14-0.19-0.25-0.31-0.34q-0.7-0.55-1.57-0.76c-0.25-0.06-0.51-0.1-0.76-0.03-0.35 0.09-0.61 0.39-0.82 0.69-0.46 0.66-0.76 1.42-0.89 2.21-0.03 0.19-0.05 0.41 0.07 0.57 0.11 0.16 0.34 0.21 0.54 0.25 0.75 0.15 2.47 0.99 2.89 0.2z"/>
				<path id="&lt;Path&gt;" class="s5" d="m136.95 90.47c1.87-0.07 3.62-2.23 0.62-3.81-0.42-0.22-0.89-0.4-1.37-0.37-1.16 0.09-1.9 1.53-1.48 2.62 0.45 1.16 1.36 1.59 2.23 1.56z"/>
				<path id="&lt;Path&gt;" class="s9" d="m37.33 114.48c-0.68-0.12-1.7 0.28-2.12 0.85-0.42 0.57-0.48 1.38-0.16 2.02 0.82 1.59 3.76 1.58 3.93-0.47 0.08-1.09-0.56-2.23-1.65-2.4z"/>
				<path id="&lt;Path&gt;" class="s4" d="m48.66 98.43c-1.08-0.18-2.68 0.44-3.34 1.33-0.66 0.9-0.76 2.18-0.25 3.17 1.29 2.5 5.91 2.49 6.16-0.73 0.14-1.71-0.88-3.5-2.57-3.77z"/>
				<path id="&lt;Path&gt;" class="s5" d="m138.98 36.26q0.09 0.01 0.17 0.01c1.01 0.02 1.98-0.9 1.91-1.91-0.11-1.51-1.84-2.74-3.27-1.91-1.79 1.03-0.57 3.61 1.19 3.81z"/>
				<g id="&lt;Group&gt;">
					<path id="&lt;Compound Path&gt;" class="s10" d="m119.86 54.65c-1.87-2.95-2.14-7.07-0.39-10.37 2.09-3.94 6.61-6.5 11.52-6.53 3.3-0.02 5.98 1.33 7.56 3.81q0 0.01 0.01 0.01c1.79 2.82 1.86 6.75 0.19 10.24-1.59 3.33-4.69 5.82-8.29 6.66-3.04 0.72-6.21 0.14-8.48-1.53q-1.27-0.94-2.12-2.29zm17.88-12.57c-1.4-2.19-3.79-3.38-6.75-3.37-4.48 0.03-8.77 2.45-10.67 6.02-2.05 3.89-1.05 9.01 2.24 11.43 2.04 1.51 4.91 2.02 7.68 1.37 3.27-0.76 6.19-3.11 7.64-6.14 1.53-3.19 1.47-6.76-0.14-9.3q0 0 0-0.01z"/>
					<path id="&lt;Path&gt;" class="s5" d="m131.37 52.97q-0.22 0.09-0.44 0.16-0.19 0.07-0.38 0.12-0.2 0.06-0.39 0.1-0.35 0.09-0.72 0.14v0.01q-0.31 0.04-0.62 0.06-0.12 0.02-0.25 0.02-0.2 0.02-0.4 0.02-0.2 0.01-0.4 0-0.39 0-0.77-0.04-0.68-0.06-1.34-0.19c-0.84-0.15-1.71-0.42-2.23-1.09-0.35-0.46-0.49-1.05-0.57-1.63q-0.18-1.36 0.06-2.71 0.01-0.07 0.02-0.14 0.12-0.62 0.32-1.22 0.2-0.58 0.47-1.12 0.22-0.44 0.49-0.84c0.79-1.19 1.76-2.04 2.8-2.58q0.35-0.19 0.71-0.32 0.11-0.05 0.22-0.08 0.25-0.09 0.51-0.16 0.28-0.07 0.56-0.12c3.15-0.52 6.27 1.33 6.54 4.69q0.06 0.78-0.09 1.67-0.12 0.68-0.4 1.41-0.08 0.24-0.19 0.47-0.01 0.06-0.04 0.12c-0.66 1.48-1.97 2.62-3.47 3.25z"/>
					<path id="&lt;Path&gt;" class="s11" d="m135.07 49.13c-0.54-0.14-1.07-0.3-1.62-0.42q-1.26-0.28-2.54-0.45-0.84-0.11-1.67-0.18-0.01 0-0.03-0.01-0.62-0.04-1.24-0.06-0.48-0.02-0.97-0.03h-0.01q-0.03 0-0.06 0-1.14-0.02-2.27-0.07-0.14 0-0.28-0.01-0.72-0.04-1.44-0.1 0.12-0.62 0.32-1.22 0.2-0.58 0.47-1.12 0.3-0.07 0.6-0.14 1.35-0.27 2.75-0.31 0.45-0.01 0.88-0.01 0.4 0 0.79 0.02 0.24 0.01 0.47 0.02 0.49 0.03 0.98 0.07 1.98 0.17 3.92 0.6 0.72 0.15 1.44 0.34 0.06 0.78-0.09 1.67-0.12 0.68-0.4 1.41z"/>
					<path id="&lt;Path&gt;" class="s11" d="m131.37 52.97q-0.22 0.09-0.44 0.16-0.19 0.07-0.38 0.12-0.2 0.06-0.39 0.1-0.35 0.09-0.72 0.14v0.01q-0.31 0.04-0.62 0.06-0.12 0.02-0.25 0.02-0.2 0.02-0.4 0.02-0.2 0.01-0.4 0c0.08-1.27 0.08-2.53 0.14-3.8q0.04-0.84 0.06-1.7 0-0.04 0-0.09 0.01-0.87 0-1.74 0-0.64-0.01-1.27 0-0.03 0-0.06c-0.01-1.08-0.15-2.15-0.23-3.22q0.11-0.05 0.22-0.08 0.25-0.09 0.51-0.16 0.28-0.07 0.56-0.12c0.42 1.1 0.74 2.27 1.07 3.36q0.07 0.2 0.11 0.39 0.2 0.69 0.36 1.39 0.2 0.88 0.35 1.76 0.03 0.15 0.05 0.31 0.1 0.56 0.18 1.12c0.17 1.07 0.22 2.18 0.23 3.28z"/>
					<path id="&lt;Path&gt;" class="s12" d="m134.88 49.6q-1.22-0.42-2.49-0.72-0.72-0.18-1.43-0.31-0.84-0.16-1.7-0.29-0.64-0.1-1.29-0.18-0.42-0.05-0.83-0.1-0.07-0.01-0.14-0.02h-0.01q-0.03 0-0.06 0-0.07-0.01-0.13-0.01c-0.03-0.01-0.09-0.01-0.13-0.02q-0.01 0-0.02 0-0.35-0.03-0.69-0.05-0.67-0.03-1.34-0.01-0.13 0-0.24 0.01-0.54 0.01-1.09 0.04-0.18 0.01-0.37 0 0.01-0.07 0.02-0.14 0.12-0.62 0.32-1.22 0.2-0.02 0.4-0.05 0.87-0.11 1.74-0.16 0.83-0.06 1.67-0.09 0.45-0.02 0.9-0.01 0.27 0.01 0.54 0.03 0.24 0.01 0.47 0.03 0.79 0.06 1.58 0.17 0.61 0.07 1.21 0.2 1.54 0.32 3.02 0.8 0.34 0.11 0.68 0.22-0.12 0.68-0.4 1.41-0.08 0.24-0.19 0.47z"/>
					<path id="&lt;Path&gt;" class="s12" d="m129.44 53.49v0.01q-0.31 0.04-0.62 0.06-0.12 0.02-0.25 0.02-0.2 0.02-0.4 0.02-0.2 0.01-0.4 0-0.39 0-0.77-0.04 0-0.11-0.01-0.23-0.02-0.77-0.01-1.54 0.01-1.38 0-2.76-0.01-0.52 0.02-1.05h-0.01 0.01q0.03-0.85 0.07-1.7h-0.01q0.02-0.64 0.02-1.27 0-0.75-0.05-1.51-0.03-0.68-0.01-1.35 0-0.05 0-0.11 0.35-0.19 0.71-0.32 0.11-0.05 0.22-0.08 0.15 0.37 0.27 0.75c0.2 0.62 0.29 1.27 0.4 1.91q0.01 0.03 0.01 0.07 0 0.01 0.01 0.01 0.02 0.11 0.04 0.21 0.03 0.19 0.06 0.37 0.01 0.03 0.01 0.06 0.09 0.45 0.17 0.92 0.03 0.2 0.06 0.39 0.09 0.61 0.19 1.23 0.04 0.25 0.07 0.52 0.01 0.1 0.02 0.2 0.01 0.05 0.02 0.1 0.04 0.42 0.05 0.83 0.04 0.83 0.07 1.66 0.02 0.82 0.03 1.63 0.01 0.5 0.01 0.99z"/>
				</g>
				<g id="&lt;Group&gt;">
					<path id="&lt;Compound Path&gt;" class="s12" d="m117.2 31.13q-0.5 0.51-1.1 0.94c-2.49 1.76-5.16 2.05-7.5 0.84-2.8-1.45-4.69-4.81-4.68-8.36 0-3.4 1.77-6.27 4.87-7.88 2.94-1.52 6.45-1.4 8.96 0.32 1.21 0.83 2.15 2.03 2.72 3.47 0.6 1.52 0.7 3.22 0.3 4.77-0.4 1.54-1.26 2.91-1.87 3.8-0.44 0.65-1 1.41-1.7 2.1zm-9.94-11.89c-1.81 1.8-2.14 3.99-2.14 5.32 0 3.05 1.66 6.05 4.03 7.28 1.37 0.7 3.55 1.14 6.25-0.76 1.09-0.77 1.91-1.86 2.5-2.73 0.89-1.3 1.43-2.39 1.7-3.42 0.34-1.31 0.25-2.74-0.26-4.03-0.46-1.2-1.27-2.23-2.28-2.92-2.1-1.44-5.21-1.53-7.72-0.23q-1.26 0.66-2.08 1.49z"/>
					<path id="&lt;Path&gt;" class="s11" d="m108.42 21.41c-1.78 2.59-2.26 6.38-0.04 8.15 3.36 2.69 7.46-1.71 8.09-4.76 0.46-2.21-0.21-4.96-2.32-5.77-2.25-0.86-4.37 0.41-5.73 2.38z"/>
				</g>
				<path id="&lt;Path&gt;" class="s11" d="m127.49 22.63c-4.33 1.29-6 7.61-2.11 10.42 1.58 1.15 3.69 1.38 5.61 1.01 2.01-0.38 3.95-1.46 5.04-3.19 2.67-4.27-1.29-8.02-5.41-8.44-1.04-0.1-2.12-0.1-3.13 0.2z"/>
				<path id="&lt;Path&gt;" class="s11" d="m128.84 24.7c0.35-0.11 0.75-0.14 1.1-0.2q0.08-0.01 0.15-0.01h0.01q0.55 0.01 1.08 0.11 0.08 0.01 0.15 0.03 0.5 0.14 1 0.37c0.3 0.15 0.8 0.53 0.91 0.61q0.06 0.05 0.12 0.1 0.39 0.4 0.71 0.86 0.16 0.24 0.26 0.49 0.29 0.63 0.31 1.33 0.04 0.95-0.39 1.8-0.47 0.87-1.28 1.41-0.85 0.52-1.83 0.57-0.39 0.05-0.8 0.1-0.18 0.04-0.35 0.05-0.02 0.01-0.05 0.01c-0.26 0.03-0.72-0.06-1.07-0.09q-0.09-0.02-0.18-0.03-0.67-0.12-1.19-0.54-0.42-0.22-0.66-0.61-0.47-0.47-0.67-1.1-0.01-0.04-0.01-0.07-0.08-0.46-0.16-0.89 0-0.04 0-0.08-0.03-0.89 0.38-1.69h0.01q0.09-0.34 0.23-0.67l0.56-0.8q0.68-0.75 1.66-1.06z"/>
				<path id="&lt;Path&gt;" class="s12" d="m130.09 24.49h0.01q0.55 0.01 1.08 0.11 0.08 0.01 0.15 0.03 0.5 0.14 1 0.37c0.3 0.15 0.8 0.53 0.91 0.62q0.06 0.04 0.12 0.09 0.39 0.4 0.72 0.86 0.15 0.24 0.25 0.49c-1.06 1.47-2.27 2.84-3.43 4.21q-0.45 0.54-0.91 1.05-0.02 0.01-0.05 0.01c-0.26 0.03-0.72-0.06-1.07-0.09q-0.09-0.02-0.18-0.03-0.67-0.12-1.19-0.54-0.42-0.22-0.66-0.61-0.47-0.47-0.67-1.1 0.63-0.81 1.26-1.63c0.97-1.27 1.77-2.57 2.66-3.84z"/>
				<path id="&lt;Compound Path&gt;" class="s12" d="m125.54 12.4c-2.16 1.28-2.81 4.59-0.65 6.26 0.2 0.16 0.47 0.23 0.73 0.29 1 0.24 2.06 0.49 3.05 0.21 1.55-0.45 2.53-2.2 2.33-3.8-0.3-2.43-3.18-4.32-5.46-2.96zm4.58 3.13q0.05 0.3 0 0.6c-0.11 0.53-0.52 0.93-0.91 1.3-0.55 0.51-1.18 1.05-1.94 1.05-0.54-0.01-1.04-0.31-1.48-0.64-0.38-0.29-0.74-0.6-0.96-1.02-1.25-2.41 1.74-4.54 3.85-3.37 0.76 0.43 1.31 1.22 1.44 2.08z"/>
				<path id="&lt;Path&gt;" class="s11" d="m125.91 15.26q-0.12 0.48 0.01 0.96c0.27 0.95 1.23 1.68 2.13 0.77 1.16-1.15 0.43-3.63-1.42-2.6-0.39 0.21-0.62 0.53-0.72 0.87z"/>
				<g id="&lt;Group&gt;">
					<path id="&lt;Compound Path&gt;" class="s13" d="m127.18 110.01q0.09-0.05 0.17-0.11 1.02-0.74 1.85-1.68 0.96-1.05 1.67-2.29 0.64-1.1 1.08-2.29c0.55-1.42 0.92-2.9 1.14-4.39q0.18-1.22 0.2-2.45c0.01-1.65-0.23-3.28-0.89-4.77q-0.07-0.17-0.16-0.34-0.46-0.91-1.09-1.71-0.71-0.91-1.57-1.68-1.12-1-2.38-1.79-0.9-0.55-1.86-1.01-2-0.94-4.17-1.46-0.83-0.21-1.68-0.37-0.08-0.01-0.17-0.03c-1.58-0.28-3.22-0.36-4.81-0.16q-0.86 0.11-1.69 0.33c-2.3 0.61-4.75 1.34-6.73 2.71q-0.08 0.05-0.16 0.11-1.03 0.75-1.86 1.68-0.96 1.06-1.66 2.3-0.64 1.1-1.09 2.29c-0.55 1.41-0.92 2.9-1.13 4.39q-0.18 1.21-0.2 2.45c-0.02 1.64 0.23 3.28 0.88 4.76q0.08 0.17 0.17 0.35 0.46 0.91 1.09 1.71 0.71 0.9 1.57 1.67 1.12 1.01 2.38 1.79 0.89 0.56 1.86 1.01 1.99 0.94 4.16 1.46 0.84 0.21 1.69 0.37 0.08 0.01 0.17 0.03c1.57 0.28 3.21 0.37 4.8 0.17q0.86-0.12 1.7-0.34c1.3-0.43 2.65-0.7 3.94-1.2 1.01-0.4 1.87-0.92 2.78-1.51zm-5.16-0.94q-1.01 0.4-2.05 0.62-1.04 0.21-2.09 0.33-1.91 0.24-3.84 0.06-0.12 0-0.25-0.01-0.94-0.1-1.86-0.32-1.62-0.4-3.07-1.17-0.97-0.52-1.8-1.21-1.14-0.94-1.95-2.2-0.2-0.31-0.37-0.65-0.5-0.95-0.83-1.98-0.06-0.22-0.12-0.44-0.41-1.41-0.55-2.75-0.12-1.24-0.03-2.39 0.14-1.62 0.69-3.05 0.51-1.31 1.35-2.41 0.67-0.87 1.54-1.6 0.85-0.7 1.88-1.24c1.5-0.77 2.97-1.48 4.63-1.81q1.04-0.21 2.09-0.33 1.92-0.25 3.84-0.07 0.12 0 0.26 0.02 0.93 0.09 1.86 0.32 1.61 0.39 3.07 1.17 0.97 0.51 1.8 1.21 1.14 0.94 1.95 2.19 0.2 0.32 0.37 0.65 0.5 0.96 0.82 1.99 0.07 0.22 0.13 0.43 0.41 1.42 0.54 2.75 0.13 1.24 0.04 2.39-0.14 1.63-0.69 3.06-0.51 1.31-1.36 2.4-0.66 0.87-1.53 1.6-0.85 0.7-1.89 1.24c-0.82 0.43-1.69 0.85-2.58 1.2z"/>
					<path id="&lt;Path&gt;" class="s12" d="m114.44 101.37c0.37 0.28 0.73 0.53 1.21 0.56 0.56 0.04 1.05 0.08 1.57-0.13 0.64-0.25 1.24-0.44 1.79-0.86 0.6-0.45 1.1-1.05 1.33-1.77 0.34-1.04 0.22-2.23-0.49-3.1q-0.23-0.29-0.59-0.56-0.18-0.14-0.41-0.25c-1.33-0.64-2.96-0.46-4.14 0.46-1.44 1.14-2.13 3.58-0.86 5.1q0.24 0.29 0.59 0.55z"/>
					<path id="&lt;Compound Path&gt;" class="s14" d="m121.72 106.22q0.52-0.27 1.03-0.62 0.9-0.62 1.69-1.39 0.79-0.79 1.42-1.69 0.36-0.5 0.59-1.03 0.57-1.16 0.63-2.52 0.01-0.12 0.02-0.25c0.05-1.67-0.2-3.72-1.05-5.28q-0.31-0.58-0.73-1.05-0.17-0.2-0.36-0.39-1.07-1.05-2.39-1.76-0.72-0.39-1.51-0.65-0.52-0.18-1.06-0.31-1.16-0.25-2.31-0.26-0.99-0.02-1.99 0.11c-1.87 0.24-3.6 0.73-5.17 1.8q-0.91 0.62-1.69 1.4-0.79 0.78-1.43 1.69-0.35 0.5-0.59 1.03-0.56 1.15-0.63 2.51-0.01 0.12-0.01 0.25c-0.06 1.67 0.19 3.72 1.05 5.29q0.3 0.58 0.72 1.04 0.18 0.21 0.37 0.39 1.07 1.06 2.39 1.77 0.72 0.38 1.51 0.64 0.51 0.19 1.06 0.31 1.16 0.26 2.3 0.27 1 0.02 1.99-0.11c1.49-0.2 2.85-0.53 4.15-1.19zm-4.16-1.65c-0.51 0.06-1.08 0.03-1.64-0.03-0.69-0.09-1.39-0.25-1.99-0.43q-0.15-0.05-0.29-0.1-0.83-0.3-1.56-0.79-0.58-0.38-1.07-0.87-0.45-0.43-0.83-0.95-0.13-0.18-0.26-0.37c-0.35-0.56-0.63-1.18-0.77-1.83q-0.15-0.74-0.08-1.48c0.1-0.83 0.38-1.64 0.78-2.37q0.08-0.17 0.18-0.33 0.37-0.6 0.83-1.07c0.57-0.6 1.2-1.26 2-1.5 0.85-0.25 1.67-0.39 2.56-0.46q0.15-0.01 0.3-0.03c0.51-0.05 1.07-0.03 1.64 0.04 0.69 0.08 1.39 0.24 1.99 0.43q0.15 0.04 0.29 0.1 0.83 0.3 1.56 0.79 0.57 0.38 1.07 0.86 0.45 0.44 0.83 0.96 0.13 0.18 0.25 0.37c0.36 0.56 0.64 1.17 0.78 1.82q0.15 0.74 0.07 1.48c-0.09 0.83-0.37 1.64-0.77 2.37q-0.09 0.18-0.19 0.34-0.37 0.6-0.82 1.06c-0.44 0.46-0.92 0.86-1.4 1.26-0.88 0.74-2.09 0.63-3.16 0.7q-0.15 0.02-0.3 0.03z"/>
					<path id="&lt;Path&gt;" class="s11" d="m115.39 86.52q-1.05 0.12-2.09 0.33-0.03-0.3-0.06-0.59-0.06-0.57-0.16-1.15-0.11-0.66-0.26-1.3 0.83-0.22 1.69-0.33 0.26 0.71 0.47 1.43 0.16 0.56 0.31 1.13 0.03 0.15 0.06 0.29 0.03 0.09 0.04 0.19z"/>
					<path id="&lt;Path&gt;" class="s12" d="m121.35 86.79q-0.93-0.23-1.86-0.32-0.14-0.02-0.26-0.02 0.01-0.1 0.02-0.2 0.02-0.38 0.04-0.75 0.03-0.21 0.05-0.41 0.01-0.21 0.03-0.43 0.01-0.13 0.03-0.28 0-0.06 0-0.13 0.01-0.14 0.03-0.27 0.01-0.06 0.03-0.11 0.01-0.06 0.02-0.12 0-0.04 0.01-0.08 0.85 0.16 1.68 0.37 0 0.05 0.01 0.1 0.01 0.04 0.01 0.09 0.01 0.09 0.03 0.17 0.01 0.18 0.03 0.35 0.07 0.62 0.09 1.24 0.01 0.32 0.01 0.63 0 0.08 0 0.17z"/>
					<path id="&lt;Path&gt;" class="s11" d="m126.22 89.17q-0.83-0.7-1.8-1.21 0-0.05 0.01-0.1 0.02-0.07 0.05-0.16 0.03-0.08 0.06-0.15 0.03-0.1 0.07-0.19 0.07-0.19 0.15-0.37 0.24-0.66 0.5-1.31 0.03-0.09 0.08-0.18 0.96 0.46 1.86 1.01-0.09 0.32-0.2 0.64-0.1 0.35-0.2 0.68-0.05 0.18-0.1 0.34-0.03 0.08-0.05 0.17c-0.07 0.19-0.13 0.35-0.26 0.49q-0.07 0.13-0.14 0.27-0.02 0.03-0.03 0.07z"/>
					<path id="&lt;Path&gt;" class="s12" d="m130.61 93.35l-0.18 0.12q-0.17 0.11-0.37 0.16-0.14 0.07-0.29 0.16-0.12 0.06-0.26 0.13-0.07 0.04-0.15 0.08-0.32-1.03-0.82-1.99 0.12-0.11 0.24-0.21 0.14-0.18 0.32-0.32 0.05-0.04 0.1-0.08 0.1-0.08 0.2-0.16 0.19-0.15 0.4-0.29 0.37-0.27 0.73-0.54 0.31-0.22 0.62-0.43 0.63 0.8 1.09 1.71 0.09 0.17 0.16 0.34-0.07 0.06-0.13 0.11-0.32 0.26-0.66 0.49-0.33 0.25-0.66 0.49-0.17 0.12-0.34 0.23z"/>
					<path id="&lt;Path&gt;" class="s11" d="m133.1 99.46q-0.46 0.08-0.91 0.14-0.65 0.1-1.3 0.17-0.32 0.02-0.64 0.01-0.08 0.01-0.17 0.01 0.09-1.16-0.03-2.39 0.21-0.03 0.42-0.05 0.47-0.05 0.95-0.09 0.92-0.09 1.83-0.24 0.02-0.01 0.05-0.01-0.02 1.23-0.2 2.45z"/>
					<path id="&lt;Path&gt;" class="s12" d="m130.87 105.93q-0.25-0.09-0.5-0.17-0.66-0.23-1.33-0.43-0.35-0.1-0.68-0.19-0.17-0.05-0.34-0.11 0.85-1.09 1.36-2.4 0.23 0.08 0.45 0.16 1.07 0.39 2.11 0.84 0.01 0 0.01 0.01-0.44 1.19-1.08 2.29z"/>
					<path id="&lt;Path&gt;" class="s11" d="m127.18 110.01q-0.11-0.05-0.22-0.1c-0.84-0.42-1.74-1.19-2.36-2.04q1.04-0.54 1.89-1.24c0.93 0.5 1.78 1.07 2.71 1.59q-0.83 0.94-1.85 1.68-0.08 0.06-0.17 0.11z"/>
					<path id="&lt;Path&gt;" class="s15" d="m121.23 93.23q-0.02 0.04-0.03 0.09-0.73-0.49-1.56-0.79 0.39-0.97 0.83-1.92 0.27-0.53 0.59-1.02 0.79 0.26 1.51 0.65-0.19 0.32-0.35 0.65-0.55 1.15-0.99 2.34z"/>
					<path id="&lt;Path&gt;" class="s15" d="m117.36 92c-0.57-0.07-1.13-0.09-1.64-0.04q-0.15 0.02-0.3 0.03-0.02-0.07-0.02-0.15-0.02-0.27-0.02-0.55 0.01-0.6 0.1-1.21 0.07-0.49 0.22-0.95 1-0.13 1.99-0.11-0.01 0.02-0.01 0.05-0.13 0.44-0.2 0.89-0.07 0.38-0.11 0.76-0.03 0.38-0.03 0.74 0.01 0.22 0.02 0.42 0 0.06 0 0.12z"/>
					<path id="&lt;Path&gt;" class="s15" d="m124.58 94.52l-0.36 0.23c-0.18 0.11-0.37 0.24-0.57 0.31q-0.18 0.05-0.37 0.02-0.09 0.03-0.18 0.06-0.38-0.52-0.83-0.96 0.02-0.03 0.05-0.05 0.09-0.12 0.18-0.22 0.06-0.2 0.2-0.35c0.15-0.18 0.37-0.3 0.56-0.44q0.2-0.14 0.39-0.27 0.17-0.13 0.36-0.25 0.18-0.12 0.36-0.23l0.59-0.37q0.19 0.19 0.36 0.39 0.42 0.47 0.73 1.05-0.38 0.3-0.76 0.59-0.17 0.13-0.35 0.25-0.18 0.12-0.36 0.24z"/>
					<path id="&lt;Path&gt;" class="s15" d="m126.45 101.49q-0.07 0-0.15-0.02-0.46-0.04-0.91-0.06-0.28-0.01-0.54-0.03-0.14 0-0.26-0.01c-0.15-0.01-0.31 0-0.44-0.03q-0.15-0.04-0.26-0.09-0.03-0.01-0.05-0.01-0.11-0.02-0.21-0.03-0.1-0.02-0.2-0.03c0.4-0.73 0.68-1.54 0.77-2.37q0.13-0.03 0.27-0.03 0.12 0 0.24 0 0.23 0 0.46 0.01 0.96 0.05 1.91 0.18-0.06 1.36-0.63 2.52z"/>
					<path id="&lt;Path&gt;" class="s15" d="m122.75 105.6q-0.11-0.1-0.22-0.19-0.3-0.27-0.58-0.56-0.37-0.37-0.72-0.77-0.09-0.1-0.18-0.2-0.01-0.02-0.03-0.04c0.48-0.4 0.96-0.8 1.4-1.26q0.01 0.02 0.03 0.03 0.27 0.18 0.52 0.37 0.16 0.14 0.33 0.25 0.33 0.27 0.65 0.54 0.25 0.21 0.49 0.44-0.79 0.77-1.69 1.39z"/>
					<path id="&lt;Path&gt;" class="s11" d="m117.88 110.02q1.05-0.12 2.09-0.33 0.04 0.29 0.06 0.58 0.06 0.58 0.16 1.16 0.11 0.65 0.27 1.29-0.84 0.22-1.7 0.34-0.25-0.71-0.46-1.43-0.17-0.57-0.31-1.14-0.03-0.14-0.07-0.28-0.02-0.1-0.04-0.19z"/>
					<path id="&lt;Path&gt;" class="s12" d="m111.93 109.75q0.92 0.22 1.86 0.32 0.13 0.01 0.25 0.01 0 0.1-0.01 0.2-0.02 0.38-0.05 0.76-0.02 0.21-0.04 0.4-0.02 0.22-0.03 0.43-0.02 0.13-0.03 0.28 0 0.06-0.01 0.13-0.01 0.15-0.03 0.28 0 0.06-0.03 0.1 0 0.07-0.02 0.12 0 0.04 0 0.08-0.85-0.16-1.69-0.37 0-0.05-0.01-0.09 0-0.05-0.01-0.1 0-0.09-0.02-0.17-0.02-0.17-0.03-0.35-0.07-0.62-0.1-1.24 0-0.31 0-0.62 0-0.09 0-0.17z"/>
					<path id="&lt;Path&gt;" class="s11" d="m107.06 107.37q0.83 0.69 1.8 1.21-0.01 0.04-0.01 0.09-0.03 0.08-0.06 0.16-0.02 0.08-0.05 0.16-0.04 0.1-0.08 0.19-0.07 0.18-0.14 0.36-0.25 0.66-0.5 1.31-0.04 0.1-0.08 0.18-0.97-0.45-1.86-1.01 0.09-0.32 0.19-0.64 0.1-0.34 0.21-0.68 0.04-0.17 0.09-0.34 0.03-0.08 0.06-0.17c0.06-0.18 0.12-0.34 0.25-0.49q0.07-0.13 0.14-0.26 0.02-0.04 0.04-0.07z"/>
					<path id="&lt;Path&gt;" class="s12" d="m102.67 103.18l0.18-0.11q0.17-0.12 0.36-0.17 0.15-0.07 0.29-0.15 0.13-0.07 0.27-0.14 0.07-0.04 0.14-0.07 0.33 1.03 0.83 1.98-0.12 0.12-0.24 0.22-0.14 0.17-0.32 0.32-0.05 0.04-0.1 0.08-0.11 0.08-0.2 0.15-0.2 0.16-0.4 0.3-0.37 0.27-0.73 0.53-0.31 0.23-0.62 0.44-0.63-0.8-1.09-1.71-0.09-0.18-0.17-0.35 0.07-0.05 0.14-0.11 0.32-0.25 0.66-0.49 0.32-0.25 0.66-0.49 0.17-0.12 0.34-0.23z"/>
					<path id="&lt;Path&gt;" class="s11" d="m100.19 97.29q0.46-0.08 0.91-0.15 0.65-0.1 1.3-0.16 0.32-0.03 0.64-0.02 0.08 0 0.17 0-0.09 1.15 0.03 2.39-0.21 0.02-0.42 0.05-0.47 0.05-0.95 0.09-0.92 0.08-1.83 0.24-0.02 0-0.05 0.01 0.02-1.24 0.2-2.45z"/>
					<path id="&lt;Path&gt;" class="s12" d="m102.41 90.61q0.25 0.08 0.5 0.17 0.66 0.23 1.33 0.42 0.34 0.1 0.67 0.2 0.17 0.04 0.34 0.1-0.84 1.1-1.35 2.41-0.23-0.09-0.46-0.17-1.06-0.39-2.11-0.83 0-0.01-0.01-0.01 0.45-1.19 1.09-2.29z"/>
					<path id="&lt;Path&gt;" class="s11" d="m106.09 86.52q0.12 0.05 0.22 0.11c0.84 0.42 1.75 1.19 2.36 2.03q-1.03 0.54-1.88 1.24c-0.93-0.5-1.79-1.07-2.72-1.59q0.83-0.93 1.86-1.68 0.08-0.06 0.16-0.11z"/>
					<path id="&lt;Path&gt;" class="s15" d="m112.04 103.3q0.02-0.04 0.04-0.08 0.73 0.49 1.56 0.79-0.39 0.97-0.84 1.91-0.26 0.54-0.58 1.02-0.79-0.26-1.51-0.64 0.19-0.33 0.35-0.65 0.54-1.15 0.98-2.35z"/>
					<path id="&lt;Path&gt;" class="s15" d="m115.92 104.54c0.56 0.06 1.13 0.09 1.64 0.03q0.15-0.01 0.3-0.03 0.02 0.08 0.02 0.15 0.02 0.27 0.01 0.55-0.01 0.61-0.1 1.22-0.07 0.48-0.22 0.95-0.99 0.13-1.99 0.11 0.01-0.03 0.02-0.05 0.13-0.45 0.2-0.9 0.07-0.38 0.1-0.76 0.03-0.37 0.03-0.74-0.01-0.21-0.01-0.42 0-0.06 0-0.11z"/>
					<path id="&lt;Path&gt;" class="s15" d="m108.7 102.02l0.36-0.23c0.18-0.12 0.36-0.24 0.56-0.31q0.19-0.06 0.38-0.03 0.08-0.02 0.18-0.05 0.38 0.52 0.83 0.95-0.03 0.03-0.05 0.06-0.1 0.11-0.19 0.22-0.05 0.19-0.19 0.35c-0.15 0.17-0.38 0.3-0.57 0.43q-0.19 0.14-0.38 0.27-0.18 0.14-0.36 0.26-0.18 0.11-0.37 0.22l-0.58 0.37q-0.19-0.18-0.37-0.39-0.42-0.46-0.72-1.04 0.38-0.3 0.76-0.59 0.17-0.13 0.34-0.25 0.19-0.13 0.37-0.24z"/>
					<path id="&lt;Path&gt;" class="s15" d="m106.82 95.05q0.08 0 0.16 0.01 0.45 0.04 0.91 0.06 0.27 0.02 0.54 0.03 0.13 0.01 0.26 0.02c0.14 0 0.3 0 0.44 0.03q0.15 0.04 0.26 0.09 0.03 0 0.04 0.01 0.11 0.01 0.21 0.03 0.1 0.01 0.21 0.02c-0.4 0.73-0.68 1.54-0.78 2.37q-0.12 0.04-0.26 0.03-0.12 0.01-0.25 0.01-0.23 0-0.45-0.02-0.96-0.05-1.92-0.18 0.07-1.36 0.63-2.51z"/>
					<path id="&lt;Path&gt;" class="s15" d="m110.53 90.93q0.1 0.1 0.22 0.2 0.3 0.27 0.57 0.56 0.38 0.36 0.73 0.76 0.09 0.1 0.17 0.21 0.02 0.01 0.04 0.03c-0.49 0.41-0.97 0.8-1.4 1.26q-0.02-0.01-0.03-0.02-0.27-0.18-0.53-0.38-0.16-0.13-0.32-0.25-0.34-0.26-0.65-0.53-0.25-0.22-0.49-0.44 0.78-0.78 1.69-1.4z"/>
					<path id="&lt;Path&gt;" class="s11" d="m118.07 99.85q0.14-0.12 0.26-0.25c0.41-0.48 0.64-1.12 0.56-1.75-0.05-0.44-0.25-0.85-0.51-1.19-0.25-0.33-0.54-0.34-0.93-0.34-0.8-0.01-1.6 0.33-2.14 0.92-0.28 0.3-0.5 0.68-0.57 1.09-0.15 0.83 0.13 2 1.11 2.21 0.74 0.15 1.66-0.21 2.22-0.69z"/>
				</g>
				<path id="&lt;Path&gt;" class="s13" d="m140.9 56.29c2.04-0.56 1.11-2.46-0.48-2.51-1.36-0.04-2.17 1.55-1.12 2.32 0.42 0.31 1.04 0.35 1.6 0.19z"/>
				<path id="&lt;Path&gt;" class="s13" d="m98.16 22.04c-2.8 0.65-1.34 3.54 0.88 3.74 1.91 0.18 2.9-2.1 1.37-3.32-0.62-0.49-1.48-0.6-2.25-0.42z"/>
				<path id="&lt;Path&gt;" class="s14" d="m85.14 107.33c2.97 1.65 6.12-2.79 2.84-4.37-2.74-1.32-5.89 2.68-2.84 4.37z"/>
				<path id="&lt;Path&gt;" class="s15" d="m87.7 106.57c0.3-0.23 0.35-0.29 0.56-0.61q0.01-0.03 0.02-0.05c0.04-0.11 0.12-0.26 0.14-0.39q0-0.01 0-0.02 0.02-0.19 0.03-0.37 0-0.02 0-0.03-0.01-0.22-0.07-0.43c-0.03-0.13-0.21-0.45-0.18-0.41q-0.06-0.08-0.13-0.15-0.06-0.09-0.13-0.16-0.01 0-0.01-0.01-0.02-0.01-0.03-0.02c-0.04-0.03-0.24-0.19-0.37-0.25q-0.01-0.01-0.03-0.01c-0.11-0.04-0.25-0.1-0.36-0.13q-0.01-0.01-0.02-0.01-0.03-0.01-0.06-0.01-0.2-0.03-0.4-0.04-0.02 0-0.04 0.01-0.3 0-0.55 0.14-0.28 0.1-0.47 0.33-0.11 0.16-0.22 0.31-0.14 0.26-0.14 0.54-0.04 0.19 0.01 0.37 0.03 0.24 0.15 0.45 0 0.04 0 0.09 0.02 0.24 0.17 0.45 0.1 0.17 0.26 0.31 0.01 0.01 0.02 0.02 0.14 0.12 0.3 0.2 0 0.01 0 0.01c0.2 0.12 0.32 0.12 0.51 0.14 0.23 0.02 0.14 0.02 0.37-0.02q0.09-0.01 0.2-0.03 0.02-0.01 0.05-0.02 0.19-0.07 0.37-0.17 0.03-0.02 0.05-0.03z"/>
				<path id="&lt;Path&gt;" class="s15" d="m97.31 113.69c2.7-0.8 3.74-4.74 1.32-6.49-0.99-0.71-2.3-0.86-3.5-0.63-1.25 0.25-2.46 0.91-3.13 1.99-1.66 2.66 0.8 4.99 3.36 5.25 0.65 0.07 1.32 0.07 1.95-0.12z"/>
				<path id="&lt;Path&gt;" class="s15" d="m139.51 99.15c2.57-0.74 1.87-4.78-0.83-4.33-1.48 0.25-2.63 1.59-1.96 3.04 0.46 1.02 1.71 1.6 2.79 1.29z"/>
				<path id="&lt;Path&gt;" class="s15" d="m84.63 110.48q-0.03-0.06-0.07-0.11c-0.42-0.69-1.45-0.95-2.1-0.47-0.97 0.73-1.04 2.41 0.12 3.02 1.46 0.76 2.67-1.17 2.05-2.44z"/>
				<path id="&lt;Path&gt;" class="s11" d="m96.47 112.41c-0.22 0.06-0.47 0.08-0.68 0.12q-0.05 0-0.09 0l-0.01 0.01q-0.35-0.01-0.67-0.07-0.05-0.01-0.09-0.02-0.32-0.09-0.63-0.23c-0.19-0.09-0.5-0.33-0.57-0.39q-0.03-0.03-0.07-0.06-0.24-0.24-0.45-0.53-0.09-0.15-0.15-0.3-0.18-0.4-0.2-0.83-0.02-0.6 0.25-1.13 0.29-0.53 0.79-0.87 0.53-0.32 1.14-0.36 0.25-0.03 0.5-0.06 0.11-0.02 0.22-0.03 0.01 0 0.03-0.01c0.16-0.01 0.45 0.04 0.66 0.06q0.06 0.01 0.12 0.02 0.41 0.07 0.74 0.34 0.26 0.13 0.41 0.37 0.29 0.3 0.41 0.69 0.01 0.02 0.01 0.05 0.05 0.28 0.1 0.55 0 0.02 0 0.05 0.02 0.55-0.23 1.05h-0.01q-0.06 0.21-0.14 0.42l-0.35 0.49q-0.43 0.47-1.04 0.67z"/>
				<path id="&lt;Path&gt;" class="s14" d="m95.7 112.53l-0.01 0.01q-0.35-0.01-0.67-0.07-0.05-0.01-0.09-0.02-0.32-0.09-0.63-0.23c-0.19-0.09-0.5-0.33-0.57-0.39q-0.03-0.03-0.07-0.06-0.24-0.24-0.45-0.53-0.09-0.15-0.15-0.3c0.65-0.92 1.41-1.78 2.13-2.63q0.28-0.33 0.57-0.65 0.01 0 0.03-0.01c0.16-0.01 0.45 0.04 0.66 0.06q0.06 0.01 0.12 0.02 0.41 0.07 0.74 0.34 0.26 0.13 0.41 0.37 0.29 0.3 0.41 0.69-0.39 0.5-0.78 1.01c-0.6 0.8-1.1 1.6-1.65 2.39z"/>
			</g>
			<g id="&lt;Group&gt;">
				<path id="&lt;Path&gt;" class="s0" d="m136.76 55.06q0 0 0 0c-2.6-2.59-5.68-4.02-8.92-4.12-3.21-0.11-5.83 1.06-7.45 2.06q-1.25 0.78-2.12 1.66-0.82-0.83-1.89-1.52l6.11-17.54c1.06-3.05 0.58-6.43-1.29-9.06-1.87-2.61-4.9-4.17-8.11-4.17q-0.02 0-0.04 0l-18.56 0.08c-3.06 0.02-5.89 1.4-7.78 3.81l-8.55 10.89q-1.41-1.26-3.2-2.18 0.27-0.14 0.52-0.29 1.21-0.73 1.84-1.78c0.28-0.47 0.54-1.05 0.82-1.85 0 0 1.05-3.03 1.19-3.44q0.63-1.82-0.01-3.36c-0.33-0.79-1.07-1.84-2.75-2.42q-1.28-0.45-3.2-0.45-1.49 0-2.78 0.3-1.1 0.26-2 0.74c-1.06-0.71-2.46-1.03-4.35-1.03q-1.39 0-2.55 0.28-1.04 0.26-1.9 0.75-0.64-0.41-1.52-0.67-1.21-0.37-2.75-0.36-1.83 0-3.34 0.48-0.7 0.23-1.3 0.54c-1.06-0.7-2.45-1.02-4.34-1.02q-1.38 0-2.54 0.28-1.29 0.32-2.3 0.99-1.12 0.73-1.71 1.66-0.44 0.69-0.79 1.72c0 0-1.44 4.15-1.43 4.15l-0.97 2.77-0.46 1.32-0.5 1.43h6.06c-4.94 2.67-8.56 7.18-10.75 13.42l-1.26 3.6c-0.81 2.3-0.73 4.8 0.16 7.02-2.06 1.15-3.69 3.04-4.51 5.39l-1.18 3.34c-2.01 5.75-2.7 9.8-2.24 13.13 0.47 3.43 2.37 8.21 8.75 11.58 3.62 1.9 8.35 2.83 14.48 2.84h0.02c4.97 0 9.44-0.67 13.29-1.98q4.83-1.66 8.4-4.59l-1.82 5.61-0.53 1.61q-0.96-0.13-2.12-0.13-2.17 0-3.92 0.49-1.96 0.55-3.2 1.61c-0.89 0.78-1.56 1.87-2.04 3.33-0.38 1.19-1.24 4.33-1.47 5.04l-0.28 0.86c-0.48 1.47-0.59 2.62-0.35 3.63 0.72 3.06 4.25 3.44 7.61 3.32v0.02h41.76c3.36 0 10.05 0.82 12.63-1.66 0.75-0.73 1.32-1.71 1.74-3.01l0.4-1.22c0.37-1.14 1.02-4.29 1.29-5.12q0.93-2.86-0.27-4.64c-0.49-0.73-1.45-1.68-3.22-2.06q-0.27-0.06-0.57-0.1l0.01-0.05c0.64-1.98 1.57-4.82 1.57-4.82q0 0 0-0.01c1.31 0.78 2.28 1.24 2.73 1.44l1.25 0.56 1.27-0.56c1.57-0.69 9.74-4.65 16.54-14.5 6.89-9.98 4.48-20.24 0.69-24.04z"/>
				<g id="&lt;Group&gt;">
					<g id="&lt;Group&gt;">
						<path id="&lt;Compound Path&gt;" class="s16" d="m66.95 103.31h-4.78l0.32-0.98q0.22-0.68 0.1-0.87-0.12-0.19-0.55-0.19-0.47 0-0.79 0.26-0.32 0.25-0.48 0.76-0.22 0.66-0.06 1 0.15 0.33 1.19 0.8 3 1.37 3.61 2.24 0.61 0.87-0.02 2.81-0.46 1.41-1.17 2.08-0.72 0.67-2.28 1.12-1.57 0.45-3.45 0.45-2.07 0-3.36-0.52-1.29-0.52-1.48-1.33-0.19-0.8 0.29-2.29l0.28-0.86h4.78l-0.52 1.6q-0.24 0.75-0.11 0.96 0.14 0.21 0.65 0.21 0.51 0 0.85-0.27 0.34-0.27 0.51-0.8 0.38-1.16 0.02-1.52-0.37-0.36-2.02-1.2-1.65-0.85-2.14-1.23-0.5-0.39-0.69-1.06-0.19-0.68 0.15-1.73 0.49-1.52 1.3-2.22 0.81-0.7 2.23-1.1 1.43-0.39 3.26-0.39 2.01 0 3.28 0.43 1.27 0.43 1.52 1.09 0.24 0.66-0.27 2.23z"/>
						<path id="&lt;Compound Path&gt;" class="s16" d="m79.03 99.32l-0.86 2.64-6.41 7.91h3.84l-0.86 2.65h-9.49l0.62-1.92 6.77-8.64h-3.5l0.86-2.64z"/>
						<path id="&lt;Compound Path&gt;" class="s16" d="m90.86 99.32l-0.86 2.64h-3.06l-3.43 10.56h-5.15l3.43-10.56h-3.04l0.86-2.64z"/>
						<path id="&lt;Compound Path&gt;" class="s16" d="m100.06 99.32l-1.35 13.2h-5.26l0.49-2.38h-1.84l-1.08 2.38h-5.32l6.91-13.2zm-5.48 8.48q0.33-2.24 1.01-5.54-2.01 3.79-2.79 5.54z"/>
						<path id="&lt;Compound Path&gt;" class="s16" d="m104 99.32h5.14q2.43 0 3.6 0.25 1.17 0.25 1.69 1.02 0.52 0.77-0.03 2.48-0.38 1.16-1.07 1.62-0.69 0.45-2.37 0.7 1.69 0.27 2.13 0.89 0.43 0.62 0.01 1.91l-0.4 1.23q-0.43 1.33-1.1 1.98-0.67 0.64-1.75 0.88-1.08 0.24-4.18 0.24h-5.96zm2.79 7.24l-1.2 3.7q1.1-0.03 1.47-0.23 0.36-0.2 0.62-1l0.4-1.23q0.28-0.85 0.07-1.03-0.21-0.18-1.36-0.21zm1.63-4.99l-0.96 2.94q0.34-0.01 0.52-0.01 0.76 0 1.05-0.25 0.28-0.25 0.67-1.42 0.2-0.62 0.11-0.87-0.09-0.25-0.35-0.31-0.25-0.07-1.04-0.08z"/>
					</g>
				</g>
				<g id="&lt;Group&gt;">
					<g id="&lt;Group&gt;">
						<g id="&lt;Group&gt;">
							<path id="&lt;Path&gt;" class="s7" d="m77.09 89.49h-2.55l0.65-2.01h2.87l0.69-2.12h-7.01l-3.44 10.6h4.13l1.45-4.45h2.56z"/>
							<path id="&lt;Path&gt;" class="s4" d="m79.75 85.36l-3.44 10.6h4.13l3.45-10.6z"/>
							<path id="&lt;Path&gt;" class="s17" d="m91.33 85.36l-1.55 4.77-0.77-4.77h-3.46l-3.45 10.6h3.46l1.57-4.82 0.58 4.82h3.63l3.45-10.6z"/>
							<path id="&lt;Compound Path&gt;" class="s18" d="m97.62 85.36l-5.56 10.6h4.28l0.87-1.9h1.48l-0.4 1.9h4.23l1.08-10.6zm1.57 6.82h-1.42q0.61-1.41 2.24-4.46-0.55 2.65-0.82 4.46z"/>
						</g>
						<path id="&lt;Path&gt;" class="s1" d="m109.26 90.47l1.26-0.18q0.18-0.57 0.37-1.13l-1.26 0.18 1.29-3.98h-4.13l-1.5 4.6-0.85 0.13-0.36 1.12 0.84-0.12-1.58 4.87h6.65l0.69-2.12h-2.51z"/>
					</g>
					<g id="&lt;Group&gt;">
						<path id="&lt;Compound Path&gt;" class="s19" d="m118.84 28.22c-1.33-1.87-3.48-2.97-5.78-2.96l-18.56 0.08c-2.15 0.01-4.19 1.01-5.52 2.7l-10.69 13.61q-0.44-0.64-0.9-1.18 0 0 0 0c-3.21-3.75-8.73-5.42-17.89-5.42-6.47-0.01-11.53 0.92-15.48 2.82-4.68 2.25-8.09 6.36-10.14 12.21l-1.27 3.61c-0.75 2.16-0.42 4.55 0.91 6.42q0.5 0.71 1.15 1.27c-2.9 0.1-5.44 1.97-6.41 4.72l-1.17 3.34c-1.85 5.29-2.51 8.92-2.11 11.78 0.38 2.75 1.94 6.62 7.24 9.41 3.19 1.69 7.48 2.5 13.13 2.51q0.01 0 0.02 0c4.65 0 8.81-0.62 12.36-1.83 3.97-1.35 7.24-3.44 9.72-6.2 2.31-2.57 4.17-5.91 5.68-10.2q0.1-0.29 0.19-0.57l3.97-0.02c-0.08 1.57 0.37 3.13 1.3 4.44 1.33 1.86 3.47 2.96 5.75 2.96q0.02 0 0.03 0l14.02-0.06c2.99-0.02 5.65-1.92 6.64-4.74l0.97-2.8c2.56-0.39 4.74-2.16 5.61-4.66l2.51-7.21c0.76-2.16 0.41-4.56-0.92-6.43q-0.26-0.37-0.57-0.7l7.14-20.47c0.75-2.17 0.41-4.56-0.93-6.43zm-0.82 5.82l-7.54 21.64q0.71 0.5 1.22 1.22c0.99 1.38 1.24 3.15 0.68 4.75l-2.51 7.2c-0.73 2.09-2.69 3.49-4.91 3.5l-0.3 0.01-1.37 3.95c-0.73 2.09-2.7 3.49-4.91 3.5l-14.02 0.07q-0.01 0-0.02 0c-1.68 0-3.27-0.82-4.25-2.19-0.98-1.38-1.24-3.15-0.68-4.75l0.17-0.47-7.59 0.03q-0.28 0.86-0.6 1.8c-1.43 4.05-3.16 7.19-5.31 9.58-2.27 2.52-5.28 4.44-8.95 5.69-3.35 1.14-7.31 1.72-11.76 1.72q-0.01 0-0.02 0c-5.34 0-9.35-0.75-12.27-2.29-4.61-2.43-5.95-5.71-6.28-8.03-0.35-2.56 0.28-5.92 2.03-10.92l1.17-3.34c0.74-2.1 2.71-3.5 4.93-3.5q0 0 0 0l6.92 0.01 0.69-1.97-3.26-0.01c-1.69 0-3.28-0.82-4.26-2.2-0.98-1.38-1.23-3.15-0.67-4.74l1.27-3.61c1.88-5.37 4.98-9.13 9.2-11.16 3.69-1.78 8.48-2.64 14.64-2.64q0.02 0 0.04 0c8.57 0 13.66 1.48 16.49 4.78q0 0 0 0c0.74 0.87 1.47 1.98 1.99 3.37l12.45-15.86c0.99-1.25 2.49-1.99 4.08-1.99l18.56-0.09q0.01 0 0.03 0c1.68 0 3.26 0.82 4.24 2.19 0.99 1.38 1.24 3.15 0.68 4.75z"/>
						<path id="&lt;Path&gt;" class="s19" d="m72.02 45.06q-2.53-2.95-12.53-2.95-7.99-0.01-12.41 2.12-4.41 2.13-6.54 8.19l-1.26 3.6 13.98 0.01 1.22-3.47q0.85-2.43 1.65-3.18 0.8-0.74 2.25-0.74 1.28 0 1.64 0.71 0.36 0.7-0.42 2.92l-0.83 2.35q-0.72 2.07-1.58 3.03-0.86 0.97-2.13 1.26-1.28 0.28-6.27 0.28l-2.15 6.14q4.07 0.05 5.36 0.41 1.3 0.35 1.63 1.47 0.33 1.13-0.52 3.56l-1.03 2.92q-1.39 3.97-2.24 4.91-0.85 0.94-2.47 0.94-1.49 0-1.66-0.74-0.17-0.75 0.79-3.49l2.41-6.87-13.98-0.01-1.18 3.35q-2.11 6.03-1.77 8.47 0.33 2.45 3.53 4.13 3.2 1.69 9.84 1.69 5.85 0.01 10.1-1.44 4.24-1.45 6.74-4.23 2.5-2.79 4.27-7.83 2.38-6.8 1.47-8.64-0.91-1.84-3.81-2.66 3.68-1.3 5.51-2.88 1.84-1.58 3.08-5.13 1.84-5.24-0.69-8.2z"/>
					</g>
					<path id="&lt;Compound Path&gt;" class="s19" d="m113.1 32.32l-9.64 27.63 3.99-0.02-2.51 7.2-3.99 0.02-2.59 7.44-14.02 0.07 2.6-7.44-16.66 0.07 2.52-7.21 21.74-27.67zm-23.65 27.68l6.27-17.99-12.46 18.02z"/>
					<g id="&lt;Group&gt;">
						<g id="&lt;Group&gt;">
							<g id="&lt;Group&gt;">
								<g id="&lt;Group&gt;">
									<g id="&lt;Group&gt;">
										<path id="&lt;Path&gt;" class="s20" d="m134.71 57.11c-4.63-4.62-9.67-3.57-12.81-1.64-2.86 1.75-3.53 4.4-3.62 4.86-0.1-0.46-0.77-3.11-3.63-4.86-3.14-1.93-8.18-2.98-12.8 1.64-3 3-4.86 11.83 1.02 20.35 6.42 9.3 14.09 12.95 15.32 13.49l0.09 0.03 0.08-0.03c1.23-0.54 8.91-4.19 15.32-13.49 5.88-8.52 4.02-17.35 1.03-20.35z"/>
									</g>
								</g>
							</g>
						</g>
						<g id="&lt;Group&gt;">
							<g id="&lt;Group&gt;">
								<path id="&lt;Compound Path&gt;" class="s19" d="m129.3 60.65l-0.53-0.04-0.1 2.26-0.44-0.03-0.03 0.78 0.47 0.04-0.11 2.72q-0.04 1.1 0.74 1.15 0.55 0.01 0.7-0.66l0.04-0.68-0.47-0.06q-0.09 0.53-0.31 0.53-0.19 0-0.22-0.21l-0.01-0.19 0.1-2.54 0.73 0.06 0.03-0.75-0.73-0.1z"/>
								<path id="&lt;Compound Path&gt;" class="s19" d="m133.65 63.74q-0.03-0.32-0.08-0.45-0.2-0.41-0.78-0.41-0.59-0.01-0.8 0.59-0.09 0.31-0.08 0.61l0.53-0.03q-0.01-0.15 0.02-0.31 0.07-0.28 0.27-0.29 0.34-0.01 0.32 1.01-0.35 0-0.72 0.19-0.72 0.4-0.74 1.37-0.02 0.88 0.43 1.23 0.24 0.18 0.55 0.18 0.5-0.03 0.59-0.51l0.02 0.48 0.65-0.02zm-1.47 2.18q0-0.34 0.18-0.59 0.22-0.34 0.68-0.36 0.01 0 0.05 0.97 0.04 0.77-0.39 0.81-0.53 0.03-0.52-0.83z"/>
								<path id="&lt;Compound Path&gt;" class="s19" d="m130.99 62.85l-0.53 0.02-0.04 4.43h0.65q-0.06-2.33-0.02-2.88 0.03-0.42 0.26-0.67 0.18-0.16 0.4-0.2 0.03 0 0.03-0.68-0.37 0.01-0.74 0.54-0.02 0.02-0.01-0.56z"/>
								<path id="&lt;Compound Path&gt;" class="s19" d="m126.22 64.71q-0.02-0.47-0.14-0.95-0.25-0.94-0.85-0.94-0.62 0.01-0.96 0.71-0.26 0.52-0.26 1.12 0 0.89 0.2 1.28 0.46 0.93 1.92 0.9 0.03 0-0.04-0.75-0.36 0.07-0.7-0.06-0.7-0.26-0.67-1.29zm-1.47-0.37q-0.06 0 0.05-0.5 0.11-0.48 0.34-0.5 0.32 0 0.39 1-0.6 0.02-0.78 0z"/>
								<path id="&lt;Compound Path&gt;" class="s19" d="m127.97 63.06q-0.26-0.12-0.55-0.1-0.57 0.03-0.72 0.78-0.11 0.56 0.24 1.16 0.41 0.69 0.42 0.96 0.01 0.54-0.44 0.73l-0.45 0.08 0.03 0.76q0.88-0.01 1.27-0.51 0.24-0.33 0.24-0.77-0.03-0.7-0.44-1.41-0.35-0.57-0.23-0.9 0.1-0.28 0.33-0.26 0.12 0.01 0.22 0.08z"/>
								<path id="&lt;Compound Path&gt;" class="s19" d="m130.16 69.12q-0.24-0.01-0.34 0.28-0.05 0.15-0.07 0.29l0.04 0.32q0.1 0.32 0.42 0.32 0.16 0.02 0.28-0.25 0.1-0.22 0.08-0.41-0.01-0.54-0.41-0.55z"/>
								<path id="&lt;Compound Path&gt;" class="s19" d="m126.55 70.87q-0.16-0.11-0.43-0.14-0.36-0.03-0.62 0.18-0.17 0.19-0.17 0.18l-0.01-0.69q-0.01-0.04-0.6 0.01l-0.04 4.22q0.68 0 0.67-0.03 0-0.09 0.03-2.64 0.07-0.47 0.45-0.49 0.31-0.01 0.38 0.38 0.05 2.75 0.06 2.78 0.78-0.01 0.8-0.02-0.05-2.68-0.12-2.97-0.15-0.55-0.4-0.77z"/>
								<path id="&lt;Compound Path&gt;" class="s19" d="m129.1 71.41q-0.29-0.3-0.65-0.31-0.33-0.01-0.63 0.25-0.55 0.46-0.53 1.65 0.02 1.54 0.94 1.98 0.31 0.13 0.72 0.15 0.22 0.01 0.51-0.01 0.01 0 0-0.69-0.37 0.05-0.72-0.08-0.71-0.24-0.7-1.07 0-0.04 0.81-0.05 0.8-0.03 0.8-0.05-0.03-1.24-0.55-1.77zm-0.93 0.44q0.09-0.16 0.17-0.21 0.57-0.01 0.65 1.12-0.99 0.03-0.99 0.02 0-0.62 0.17-0.93z"/>
								<path id="&lt;Compound Path&gt;" class="s19" d="m130.6 71.28l-0.69 0.03 0.16 3.84q-0.05 2.01-1.34 2.05-0.01 1.01 0.05 1.01 0.99 0 1.57-0.92 0.47-0.75 0.46-1.65 0.01-0.11-0.21-4.36z"/>
								<path id="&lt;Compound Path&gt;" class="s19" d="m123.12 61.68q-0.02 0.48 0.28 0.48 0.21 0.01 0.29-0.25 0.06-0.17 0.06-0.31-0.04-0.36-0.33-0.36-0.27-0.01-0.3 0.44zm0.17 0.12q0.02-0.01 0.01 0 0 0.02 0.01 0.05-0.02-0.03-0.02-0.05z"/>
								<path id="&lt;Compound Path&gt;" class="s19" d="m121.6 60.45l-0.56 0.03-0.25 6.38 0.62-0.03 0.04-2 0.63 1.97 0.8 0.02-1.11-2.32 1.14-1.78-0.64-0.02-0.81 1.11z"/>
								<path id="&lt;Compound Path&gt;" class="s19" d="m111.02 59.93h-0.65l0.1 6.87h0.65z"/>
								<path id="&lt;Compound Path&gt;" class="s19" d="m112.32 59.82h-0.65l-0.1 7.04h0.54v-1.5l0.51 1.54 0.68-0.04-0.98-2.48 1.2-1.84h-0.65l-0.65 0.98z"/>
								<path id="&lt;Compound Path&gt;" class="s19" d="m113.95 63.47q0.14-0.17 0.31-0.17 0.27 0 0.36 0.76-0.01-0.04-0.78 0.66-0.11 0.11-0.23 0.3-0.21 0.38-0.2 0.77 0.01 0.51 0.26 0.76 0.18 0.16 0.41 0.16 0.62 0 0.79-0.68l0.17 0.64 0.57-0.02q-0.04-1.35-0.25-2.84-0.14-1-0.56-1.29-0.16-0.11-0.47-0.11-0.72 0-0.93 1.15l0.44 0.1zm0.58 2.43q-0.23 0.25-0.42 0.12-0.14-0.08-0.16-0.25-0.02-0.3 0.18-0.6 0.21-0.33 0.54-0.49 0.02 1.06-0.14 1.22z"/>
								<path id="&lt;Compound Path&gt;" class="s19" d="m109.4 62.95q-0.39-0.37-0.9-0.24-0.52 0.15-0.71 0.88-0.11 0.49-0.11 0.79-0.02 0.14 0.04 0.84 0.06 0.98 0.81 1.42 0.41 0.25 1.41 0.1l-0.11-0.86q-0.53 0.22-0.99 0.03-0.28-0.13-0.43-0.6l-0.07-0.44q1.37-0.08 1.52-0.13-0.1-1.43-0.46-1.79zm-0.43 0.57q0.09 0.13 0.18 0.45 0.1 0.32 0.05 0.34-0.86 0.11-0.86 0.07-0.07-0.52 0.03-0.81 0.09-0.26 0.24-0.27 0.21-0.02 0.36 0.22z"/>
								<path id="&lt;Compound Path&gt;" class="s19" d="m112.62 68.81q-0.24-0.02-0.27 0.43 0 0.17 0.12 0.27 0.11 0.1 0.2 0.1 0.3 0 0.28-0.43-0.01-0.36-0.33-0.37zm0.03 0.29q0.01 0.03 0 0.06-0.02 0-0.03-0.03-0.01-0.03 0.02-0.04 0-0.01 0.01 0.01z"/>
								<path id="&lt;Compound Path&gt;" class="s19" d="m110.23 71.07h-0.4l-0.42 1.75-0.5-1.66-0.69 0.04 0.97 3.68h0.54l0.33-2.16 0.87 2.16h0.65l0.54-3.9h-0.65l-0.44 2.39z"/>
								<path id="&lt;Compound Path&gt;" class="s19" d="m116.74 68.45l-0.52-0.01-0.03 2.11-0.57-0.02v0.92h0.58q-0.08 2.66-0.08 2.86 0 1.01 0.68 0.97 0.52-0.01 0.75-0.71l0.12-0.69h-0.54q-0.11 0.44-0.31 0.45-0.13 0-0.19-0.23l-0.05-0.22 0.07-2.43 0.74-0.03-0.05-0.79-0.63-0.03z"/>
								<path id="&lt;Compound Path&gt;" class="s19" d="m113.26 71.81l0.5 0.06 0.07-0.22q0.11-0.2 0.34-0.23 0.47-0.05 0.55 0.53 0.01 0.11-0.19 0.25-0.28 0.19-0.45 0.31-0.66 0.5-0.66 1.17 0 0.73 0.23 0.95 0.15 0.15 0.54 0.18 0.52 0.02 0.85-0.86l0.08 0.76 0.67-0.02q-0.21-2.47-0.39-2.95-0.34-0.86-1.22-0.88-0.52 0-0.77 0.48-0.13 0.23-0.15 0.47zm1.09 1.02q0.34-0.27 0.4-0.24l0.03 0.77q-0.07 0.54-0.44 0.72-0.22 0.12-0.34-0.06-0.14-0.19-0.08-0.55 0.06-0.32 0.43-0.64z"/>
								<path id="&lt;Compound Path&gt;" class="s19" d="m113 71.04h-0.58l-0.16 3.79 0.78 0.03z"/>
								<path id="&lt;Compound Path&gt;" class="s19" d="m120.69 63.54q0.03 0 0.07-0.95-0.33 0-0.63 0.3-0.23 0.32-0.24 0.31 0-0.36 0.01-0.55l-0.48-0.04q-0.08 3.91-0.15 4.2l0.67-0.01 0.01-2.73 0.18-0.26q0.23-0.28 0.56-0.27z"/>
								<path id="&lt;Compound Path&gt;" class="s19" d="m118.59 63.09q-0.26-0.34-0.63-0.33-0.24 0.03-0.5 0.31-0.5 0.53-0.58 1.64-0.07 1.13 0.34 1.68 0.28 0.36 0.63 0.37 1.02 0.03 1.09-1.94 0.04-1.21-0.35-1.73zm-0.57 0.37q0.46-0.01 0.45 1.3 0 0.68-0.21 1.03-0.15 0.26-0.35 0.26-0.27 0.02-0.42-0.44-0.14-0.39-0.12-0.82 0.09-1.3 0.65-1.33z"/>
								<path id="&lt;Compound Path&gt;" class="s19" d="m118.81 70.75q-0.41 0.02-0.72 0.37-0.44 0.5-0.39 1.48 0.08 1.8 1.24 2.05 0.58 0.11 1.13-0.13l-0.15-0.83q-0.98 0.32-1.35-0.25-0.18-0.29-0.19-0.77 1.53-0.09 1.62-0.11 0.08-1.85-1.19-1.81zm0.17 0.53q0.08 0.01 0.15 0.06 0.24 0.19 0.31 0.86 0.01 0-0.48 0.04-0.5 0.03-0.6 0.03-0.01 0.01 0-0.15 0-0.18 0.05-0.34 0.13-0.5 0.5-0.49z"/>
								<path id="&lt;Compound Path&gt;" class="s19" d="m121.38 70.99q-0.89 0.39-1.02 1.73-0.17 1.52 0.62 2.12 0.54 0.4 1.13 0.27 0.01-0.01-0.09-0.79-1.04-0.06-0.99-1.39 0.01-0.59 0.39-0.9 0.34-0.29 0.8-0.26 0.03 0 0.03-0.9-0.42-0.07-0.87 0.12z"/>
								<path id="&lt;Compound Path&gt;" class="s19" d="m122.69 71.66q0.84-0.05 0.87-0.02 0.04 0.03-1.05 3.45 0.63 0.05 1.77 0.05 0.02 0 0.05-0.65-0.67 0-0.83-0.01-0.03 0 0.44-1.81 0.49-1.82 0.46-1.82h-1.74q-0.02 0.17 0.03 0.81z"/>
								<path id="&lt;Compound Path&gt;" class="s19" d="m106.86 61.6q0.14 0.03 0.22-0.08 0.37-0.49-0.23-0.66-0.18 0.01-0.26 0.18-0.21 0.45 0.27 0.56z"/>
								<path id="&lt;Compound Path&gt;" class="s19" d="m107.23 63.19h-0.54l-0.11 3.67h0.76z"/>
								<path id="&lt;Compound Path&gt;" class="s19" d="m107.88 68.38l-0.69 0.04 0.26 1.15h0.43z"/>
								<path id="&lt;Compound Path&gt;" class="s19" d="m107.71 70.95q0.18 0.02 0.34 0.1l0.15-0.63q-0.38-0.1-0.76-0.07-0.79 0.07-0.93 0.76-0.12 0.59 0.28 1.27 0.42 0.74 0.4 1.18-0.02 0.49-0.51 0.73-0.26 0.12-0.49 0.14l0.08 0.78q0.4-0.01 0.81-0.21 0.81-0.39 0.82-1.32 0-0.52-0.41-1.35-0.36-0.73-0.27-1.02 0.11-0.38 0.49-0.36z"/>
								<path id="&lt;Compound Path&gt;" class="s19" d="m120.44 78.88q-0.19 0.5-0.2 0.99-0.01 0.81 0.21 1.36 0.29 0.71 0.87 0.74 0.57 0.02 0.82-0.82 0.19-0.64 0.16-1.5-0.02-0.57-0.23-0.98-0.27-0.55-0.79-0.54-0.54 0-0.84 0.75zm0.37 1.02q0.06-1.01 0.46-1.02 0.48-0.01 0.47 1.03 0 1.22-0.5 1.2-0.19-0.01-0.32-0.44-0.13-0.38-0.11-0.77z"/>
								<path id="&lt;Compound Path&gt;" class="s19" d="m119.08 78.38q-0.39 0.04-0.64 0.38-0.13 0.18-0.17 0.36-0.07-0.73-0.66-0.7-0.27 0.01-0.48 0.2-0.11 0.11-0.17 0.2l0.01-0.46-0.58 0.01-0.16 3.9 0.67-0.01q0.03-2.06 0.07-2.38 0.06-0.56 0.45-0.61 0.36-0.04 0.41 0.38l-0.1 2.64 0.72 0.01 0.01-2.48q0.05-0.47 0.36-0.48 0.31-0.01 0.31 0.4l0.02 2.56 0.82 0.01-0.1-3.25q-0.08-0.71-0.79-0.68z"/>
								<path id="&lt;Compound Path&gt;" class="s19" d="m123.32 79.61q0-0.43 0.23-0.71 0.26-0.33 0.74-0.33 0.06-0.79 0.04-0.79-1.61-0.09-1.67 1.76-0.04 1.32 0.5 1.92 0.42 0.49 1.12 0.49 0.01 0 0.01-1-0.43-0.06-0.7-0.42-0.27-0.37-0.27-0.92z"/>
								<path id="&lt;Compound Path&gt;" class="s19" d="m115.59 75.38q-0.01-0.01-0.41 0-0.05 0.45-0.02 0.63 0.05 0.29 0.26 0.49 0.58-0.26 0.58-0.26-0.21-0.19-0.34-0.53-0.08-0.32-0.07-0.33z"/>
								<path id="&lt;Compound Path&gt;" class="s19" d="m112.02 77.69h-0.63l-0.05 6.3 0.73-0.03-0.02-2.28q0.25 0.18 0.69 0.16 0.45-0.01 0.68-0.63 0.18-0.5 0.16-1.16-0.06-1.21-0.45-1.73-0.28-0.35-0.6-0.35-0.38 0.01-0.51 0.38 0 0.04 0-0.66zm0.22 1.16l0.14-0.04q0.55 0.01 0.61 1.3-0.08 1.02-0.5 1.02-0.13-0.02-0.28-0.11l-0.12-0.11q-0.1-0.31-0.1-0.97 0.01-0.49 0.05-0.75 0.04-0.25 0.2-0.34z"/>
								<path id="&lt;Compound Path&gt;" class="s19" d="m116.05 79.75q-0.01-0.89-0.14-1.26-0.21-0.65-0.87-0.65-0.94-0.01-1.01 1.81-0.12 2.32 0.9 2.3 0.56-0.02 0.86-0.65 0.26-0.59 0.26-1.55zm-1.03-1.06q0.44-0.05 0.51 0.99 0.05 1.41-0.53 1.46-0.3 0.04-0.4-0.68-0.05-0.45-0.03-0.8 0.02-0.31 0.15-0.62 0.14-0.34 0.3-0.35z"/>
								<path id="&lt;Path&gt;" class="s19" d="m126.42 78.67l-0.75 2.26-0.39-2.5-0.7-0.03 0.67 3.93-1.12 1.94 0.93 0.4 2.2-5.96z"/>
								<path id="&lt;Path&gt;" class="s19" d="m123.1 63.24l-0.08 3.55 0.69 0.01-0.07-3.54z"/>
								<path id="&lt;Path&gt;" class="s19" d="m105.06 66.97l-0.75-2.05-0.55 2.05h-0.65l-0.76-3.67h0.55l0.54 2.27 0.43-2.27h0.54l0.76 2.27 0.44-2.49h0.65l-0.55 3.89z"/>
							</g>
						</g>
					</g>
					<g id="&lt;Group&gt;">
						<path id="&lt;Compound Path&gt;" class="s11" d="m47.88 35.39l-0.49 1.42h-7.47l0.41-1.19q4.48-3.34 5.38-4.14 0.9-0.79 1.05-1.23 0.12-0.35-0.01-0.51-0.13-0.17-0.52-0.17-0.38 0-0.64 0.18-0.25 0.19-0.44 0.74l-0.28 0.8h-3.04l0.11-0.3q0.24-0.71 0.5-1.11 0.26-0.41 0.85-0.8 0.6-0.4 1.41-0.6 0.81-0.2 1.84-0.2 2.03 0 2.85 0.62 0.83 0.62 0.5 1.56-0.25 0.72-1.11 1.52-0.86 0.81-4.62 3.41z"/>
						<path id="&lt;Compound Path&gt;" class="s21" d="m58.55 31.28l-0.97 2.79q-0.33 0.95-0.65 1.38-0.32 0.44-0.98 0.82-0.66 0.37-1.46 0.54-0.81 0.16-1.73 0.16-1.22 0-1.97-0.17-0.75-0.17-1.1-0.54-0.35-0.37-0.41-0.77-0.06-0.41 0.25-1.29l1.01-2.92q0.4-1.16 0.92-1.73 0.52-0.58 1.6-0.92 1.09-0.35 2.46-0.35 1.11 0 1.91 0.24 0.8 0.24 1.12 0.59 0.32 0.34 0.32 0.78 0.01 0.43-0.32 1.39zm-3.16-0.71q0.24-0.67 0.19-0.83-0.05-0.17-0.43-0.17-0.38 0-0.57 0.18-0.18 0.18-0.4 0.82l-1.42 4.09q-0.25 0.73-0.19 0.88 0.06 0.15 0.44 0.15 0.38 0 0.56-0.18 0.17-0.17 0.39-0.79z"/>
						<path id="&lt;Compound Path&gt;" class="s11" d="m65.57 35.39l-0.49 1.42h-7.47l0.41-1.19q4.48-3.34 5.38-4.14 0.9-0.79 1.06-1.23 0.11-0.35-0.02-0.51-0.13-0.17-0.51-0.17-0.39 0-0.65 0.18-0.25 0.19-0.44 0.74l-0.28 0.8h-3.04l0.11-0.3q0.24-0.71 0.5-1.11 0.26-0.41 0.86-0.8 0.59-0.4 1.4-0.6 0.81-0.2 1.85-0.2 2.02 0 2.84 0.62 0.83 0.62 0.5 1.56-0.25 0.72-1.11 1.52-0.86 0.81-4.62 3.41z"/>
						<path id="&lt;Compound Path&gt;" class="s21" d="m76.59 30.66h-3.39q0.2-0.58 0.23-0.73 0.03-0.15-0.11-0.26-0.15-0.1-0.46-0.1-0.26 0-0.46 0.1-0.2 0.09-0.28 0.25-0.08 0.16-0.24 0.63l-0.47 1.33q0.38-0.34 0.94-0.5 0.57-0.17 1.31-0.17 0.93 0 1.54 0.31 0.6 0.31 0.64 0.74 0.05 0.44-0.21 1.18l-0.23 0.66q-0.3 0.88-0.56 1.31-0.26 0.43-0.86 0.8-0.6 0.36-1.5 0.56-0.9 0.2-2 0.2-1.37 0-2.16-0.23-0.79-0.23-1.12-0.67-0.32-0.44-0.23-0.92 0.08-0.48 0.56-1.86l0.4-1.16q0.52-1.5 0.77-2 0.24-0.5 0.91-0.95 0.67-0.45 1.64-0.68 0.96-0.22 2.12-0.22 1.43 0 2.24 0.28 0.82 0.28 1.04 0.8 0.21 0.52-0.06 1.3zm-4.3 2.62q0.16-0.45 0.05-0.61-0.1-0.17-0.46-0.17-0.35 0-0.57 0.16-0.22 0.16-0.38 0.62l-0.52 1.51q-0.2 0.56-0.1 0.73 0.1 0.17 0.46 0.17 0.22 0 0.5-0.14 0.28-0.13 0.48-0.71z"/>
					</g>
					<g id="&lt;Group&gt;">
						<g id="&lt;Group&gt;">
							<path id="&lt;Path&gt;" class="s7" d="m77.09 89.49h-2.55l0.65-2.01h2.87l0.69-2.12h-7.01l-3.44 10.6h4.13l1.45-4.45h2.56z"/>
							<path id="&lt;Path&gt;" class="s4" d="m79.75 85.36l-3.44 10.6h4.13l3.45-10.6z"/>
							<path id="&lt;Path&gt;" class="s17" d="m91.33 85.36l-1.55 4.77-0.77-4.77h-3.46l-3.45 10.6h3.46l1.57-4.82 0.58 4.82h3.63l3.45-10.6z"/>
							<path id="&lt;Compound Path&gt;" class="s18" d="m97.62 85.36l-5.56 10.6h4.28l0.87-1.9h1.48l-0.4 1.9h4.23l1.08-10.6zm1.57 6.82h-1.42q0.61-1.41 2.24-4.46-0.55 2.65-0.82 4.46z"/>
						</g>
						<path id="&lt;Path&gt;" class="s1" d="m109.26 90.47l1.26-0.18q0.18-0.57 0.37-1.13l-1.26 0.18 1.29-3.98h-4.13l-1.5 4.6-0.85 0.13-0.36 1.12 0.84-0.12-1.58 4.87h6.65l0.69-2.12h-2.51z"/>
					</g>
				</g>
			</g>
		</g>
	</g>
	<text id="BARCELONA" style="transform: matrix(1,0,-0.309,.951,90.752,129.6)" >
		<tspan x="-46.3" y="0" class="t22" dx="0" >B</tspan><tspan  y="0" class="t22" dx="0" >A</tspan><tspan  y="0" class="t22" dx="0" >R</tspan><tspan  y="0" class="t22" dx="0" >C</tspan><tspan  y="0" class="t22" dx="0" >E</tspan><tspan  y="0" class="t22" dx="0" >L</tspan><tspan  y="0" class="t22" dx="0" >O</tspan><tspan  y="0" class="t22" dx="0" >N</tspan><tspan  y="0" class="t22" dx="0" >A</tspan><tspan  y="0" class="t22" dx="0" >
</tspan>
	</text>
</svg>