<svg version="1.1" xmlns="http://www.w3.org/2000/svg" xmlns:xlink="http://www.w3.org/1999/xlink" viewBox="0 0 149 132" width="500" height="443">
	<style>
		tspan { white-space:pre } 
		.t0 { font-size: 15px;fill: #030302;font-family: "Impact" } 
		.s1 { fill: #000000 } 
		.s2 { fill: #fff100 } 
		.s3 { fill: #fbae17 } 
		.s4 { fill: #f26e21 } 
		.s5 { fill: #ec1c24 } 
		.s6 { fill: #2e3092 } 
		.s7 { fill: #6ccff5 } 
		.s8 { fill: #eb008b } 
		.s9 { fill: #80298f } 
		.s10 { fill: #b31e8d } 
		.s11 { fill: #0066b2 } 
		.s12 { fill: #00adee } 
		.s13 { fill: #0075be } 
		.s14 { fill: #00a9a4 } 
		.s15 { fill: #00a550 } 
		.s16 { fill: #8dc63f } 
		.s17 { fill: #01bcf1 } 
		.s18 { fill: #fefefe } 
		.s19 { fill: #aae0f9 } 
		.s20 { fill: #f37620 } 
		.s21 { fill: #fbb216 } 
		.s22 { fill: #e92a24 } 
	</style>
	<text id="BARCELONA" transform="matrix(1,0,-0.309,.951,84.159,129.781)">
		<tspan x="-46.3" y="0" class="t0" dx="0" >B</tspan><tspan  y="0" class="t0" dx="0" >A</tspan><tspan  y="0" class="t0" dx="0" >R</tspan><tspan  y="0" class="t0" dx="0" >C</tspan><tspan  y="0" class="t0" dx="0" >E</tspan><tspan  y="0" class="t0" dx="0" >L</tspan><tspan  y="0" class="t0" dx="0" >O</tspan><tspan  y="0" class="t0" dx="0" >N</tspan><tspan  y="0" class="t0" dx="0" >A</tspan><tspan  y="0" class="t0" dx="0" >
	</tspan>
	</text>
	<g id="grafika">
		<g id="&lt;Group&gt;">
			<path id="&lt;Compound Path&gt;" class="s1" d="m135.74 32.26q0.04 0 0.08 0c1.05 0 2.07-0.44 2.82-1.23 0.74-0.78 1.12-1.8 1.05-2.82-0.11-1.47-1.01-2.83-2.35-3.54-0.69-0.37-1.43-0.52-2.17-0.48 0.56-1.67 0.46-3.39-0.31-4.97-1.27-2.58-4.17-4.46-7.4-4.78q-0.13-0.01-0.26-0.02c1.66-1.11 2.68-3.19 2.42-5.31-0.24-1.94-1.52-3.7-3.35-4.59-1.69-0.83-3.56-0.78-5.12 0.15-1.69 1.01-2.82 2.88-2.95 4.88q-0.01 0.26 0 0.52c-0.65-0.96-1.45-1.8-2.41-2.46-3.1-2.12-7.42-2.29-11.01-0.43-2.21 1.14-3.85 2.83-4.85 4.87-0.1-1.02-0.61-1.97-1.49-2.67-1.05-0.84-2.52-1.14-3.94-0.81-2.42 0.57-3.17 2.35-3.08 3.69 0.14 2.04 2 3.79 4.23 4q0.19 0.02 0.38 0.02c1.17 0 2.25-0.51 2.98-1.35q-0.17 0.92-0.18 1.9 0.01 0.73 0.1 1.44l-12.14 0.05c-2.63 0.02-5.08 1.21-6.7 3.28l-7.37 9.38q-1.21-1.08-2.75-1.88 0.23-0.12 0.45-0.25 1.04-0.63 1.58-1.53c0.25-0.4 0.47-0.91 0.71-1.59 0 0 0.9-2.61 1.02-2.96q0.54-1.58-0.01-2.9c-0.16-0.4-0.46-0.88-0.97-1.31q0.08 0.03 0.17 0.06 0.39 0.09 0.8 0.09 0.1 0.01 0.19 0.01 0.02 0 0.03 0 0.89-0.02 1.76-0.41c0.56-0.14 1.09-0.39 1.5-0.73 1.03-0.84 1.67-2.02 1.8-3.32q0.2-2.1-0.68-3.62-0.33-0.59-0.9-1.08-0.1-0.08-0.2-0.16-0.87-0.81-2.02-1.05-0.46-0.09-0.96-0.08-0.43 0.01-0.86 0.08c-0.64 0.1-1.4 0.28-2.12 0.78q-0.92 0.62-1.52 1.67c-0.71 1.24-0.82 2.88-0.3 4.37q0 0.01 0.01 0.03c0.24 0.87 0.72 1.66 1.4 2.31q0.12 0.1 0.24 0.2-1.02-0.31-2.49-0.31-1.21 0-2.26 0.24c0.39-3.19-1.09-6.49-3.81-8.43q-1.34-0.96-2.75-1.28c-1.18-0.26-2.44-0.16-3.62 0.25 0.13-1.37-0.11-2.7-0.73-3.81-0.94-1.67-2.43-2.64-4.22-2.72-2.07-0.11-4.28 1.08-5.6 3q-0.9 1.3-1.16 2.53-0.05 0.24-0.07 0.49c-2.26-1.61-4.9-2.66-7.82-3.02-5.32-0.67-10.91 1.08-14.93 4.67-4.28 3.82-6.7 9.51-6.47 15.24q0.06 1.49 0.35 2.93c0.91 4.42 3.51 8.37 7.09 11.05q-0.3 0.12-0.54 0.33-0.27 0.23-0.46 0.51-0.01 0.02-0.02 0.04-0.14-0.11-0.29-0.2c-0.57-0.31-1.23-0.35-1.78-0.15-0.67 0.24-1.16 0.77-1.38 1.44-1.05 0.33-1.73 1.36-1.57 2.38q0.02 0.17 0.05 0.33c-0.2 0.19-0.33 0.34-0.33 0.34q-0.14 0.19-0.26 0.39-0.35 0.02-0.55 0.08-0.29 0.05-0.56 0.19-0.28 0.13-0.51 0.34-0.11 0.1-0.2 0.2-0.47 0.52-0.56 1.31c-0.05 0.55 0.11 1.1 0.43 1.53-0.41 0.52-0.58 1.19-0.45 1.85 0.11 0.59 0.44 1.1 0.91 1.43-0.08 0.13-0.22 0.36-0.3 0.67q-0.03 0.1-0.04 0.2-0.12 0.74 0.22 1.43c0.36 0.7 1.06 1.18 1.91 1.25 0.01 0.52 0.2 1.02 0.54 1.42 0.4 0.47 0.98 0.75 1.6 0.78q0.11 0.61 0.5 1.06-0.23 0.2-0.45 0.41c-1.65 1.73-2.29 3.99-1.77 6.21 0.33 1.4 1.08 2.68 2.1 3.7q-0.92-0.11-1.86-0.06c-4.43 0.29-8.48 3.09-10.09 6.98-1.03 2.47-2.98 8.73 0.98 13.58 1.58 1.94 3.93 3.31 6.55 3.96-0.73-0.1-1.68 0.02-2.81 0.77q0 0 0 0-1 0.66-1.42 1.56c-0.42 0.91-0.37 1.96 0.14 2.88 0.54 0.97 1.49 1.64 2.55 1.78q0.28 0.04 0.55 0.04c1.15 0 2.16-0.5 2.84-1.36-0.86 1.92-1.1 4.03-0.61 6.12 0.86 3.65 3.61 6.78 7.17 8.15q1.89 0.72 3.8 0.72 1.73-0.01 3.36-0.61c-0.64 1.14-0.69 2.56-0.08 3.74 0.7 1.36 2.22 2.22 3.81 2.22q0.43 0 0.86-0.09c1.7-0.34 2.89-1.66 3.02-3.36 0.07-0.8-0.09-1.57-0.4-2.24q0.67 0.58 1.49 0.88c0.54 0.2 1.18 0.3 1.85 0.3 1.53 0 3.2-0.53 4.12-1.63q0.13-0.17 0.25-0.34-0.03 0.49 0.04 0.93c0.13 0.78 0.64 2.15 2.58 2.97 0.96 0.41 2.15 0.48 3.63 0.48 0.91 0 2.54-0.04 2.54-0.04h46.9c0.62 0 1.2-0.23 1.64-0.62 0.65 0.82 1.64 1.37 2.72 1.47q0.18 0.02 0.36 0.02c1.13 0 2.18-0.51 2.87-1.4 0.92-1.2 0.96-2.73 0.1-3.98q-0.08-0.12-0.17-0.22 0.17-0.21 0.33-0.43 0.35 0.3 0.78 0.54c0.73 0.41 1.53 0.61 2.32 0.61 0.87 0 1.75-0.25 2.54-0.74q0.88-0.56 1.46-1.38-0.11 1.28 0.48 2.5c0.9 1.83 2.94 3.16 5.21 3.39q0.49 0.05 0.93 0.05 0.97 0 1.78-0.24c2.07-0.62 3.65-2.45 4.03-4.69 0.36-2.13-0.43-4.12-2.1-5.34-1.36-0.98-3.2-1.33-5.05-0.97-1.89 0.36-3.49 1.4-4.42 2.84q0.02-0.2 0.01-0.41c-0.08-1.37-0.84-2.56-2.11-3.31 1.15 0 1.98 0 1.98 0 1.08 0 2.03-0.7 2.37-1.72l1.46-4.47 1.24 0.03q-0.05 0.94 0.36 1.86c0.71 1.56 2.34 2.54 4.02 2.54q0.57 0 1.14-0.16c2.2-0.63 3.46-2.81 2.95-5.08-0.42-1.87-1.92-3.1-3.72-3.19l3.35-6.34q0.01 0.07 0.03 0.13c0.69 1.76 2.21 2.83 4 2.83q0.09 0 0.17 0c1.97-0.07 3.68-1.38 4.08-3.1 0.14-0.65 0.39-2.89-2.6-4.47q-1.29-0.68-2.45-0.6c-0.92 0.07-1.75 0.51-2.38 1.21q0.22-0.33 0.43-0.67c0.04-0.07 0.08-0.15 0.15-0.29q0.66-1.19 1.05-2.26 0.76-1.95 1.14-4.15 0.09-0.22 0.12-0.46 0.21-1.39 0.22-2.72 0.01-0.12-0.01-0.25 0.02-3.13-1.05-5.55c-0.01-0.01-0.1-0.21-0.1-0.22l-0.11-0.22q-0.27-0.55-0.61-1.06-0.33-0.52-0.69-0.97-0.75-0.98-1.81-1.94-1.24-1.12-2.66-2-0.32-0.2-0.65-0.38c0.52-2.02 0.69-3.95 0.59-5.73q0.62-0.08 1.23-0.21 0.64-0.16 1.27-0.38-0.2 0.32-0.33 0.68c-0.46 1.33-0.02 2.73 1.12 3.56 0.61 0.44 1.35 0.67 2.14 0.67q0.58 0 1.17-0.16c2.17-0.6 2.77-2.22 2.62-3.43-0.19-1.59-1.61-2.84-3.34-2.99 2.12-1.42 3.87-3.38 4.99-5.7 1.96-4.11 1.84-8.78-0.3-12.16q-0.01-0.01-0.02-0.03-0.9-1.38-2.13-2.37 0.33 0.09 0.67 0.13 0.16 0.02 0.33 0.02zm-6.05 52.17v-0.02q0.01-0.02 0.03-0.04-0.01 0.03-0.03 0.06z"/>
			<g id="&lt;Group&gt;">
				<path id="&lt;Compound Path&gt;" class="s2" d="m17.16 24.49c-0.2-5.07 1.93-10.23 5.8-13.67 3.6-3.22 8.6-4.78 13.36-4.19 4.55 0.57 8.4 2.98 10.84 6.79 2.74 4.28 3.41 9.91 1.79 15.04-0.61 1.92-1.25 3.77-2.42 5.41-4.05 5.7-12.22 7.33-17.78 5.61-5.67-1.75-10.1-6.62-11.28-12.39q-0.26-1.29-0.31-2.6zm30.89-2.35c-0.11-2.79-0.91-5.5-2.37-7.78-2.15-3.36-5.56-5.48-9.58-5.99-4.27-0.53-8.74 0.87-11.97 3.76-4.01 3.57-6 9.44-4.94 14.6 1.05 5.16 5.01 9.51 10.08 11.07 4.85 1.5 12.29 0.04 15.83-4.95 1.02-1.43 1.61-3.14 2.17-4.92 0.6-1.9 0.86-3.87 0.78-5.79z"/>
				<path id="&lt;Path&gt;" class="s3" d="m21.07 25.93c0.59 4.66 4.12 8.99 8.74 9.89 1.09 0.21 2.21 0.24 3.32 0.2 1.61-0.05 3.28-0.26 4.63-1.14 1.67-1.07 2.62-3.03 2.88-5 0.18-1.38 0.05-2.83-0.63-4.05-0.68-1.21-1.97-2.13-3.36-2.13-2.13 0.01-3.69 2.01-5.69 2.77-2.15 0.82-4.81-0.01-6.11-1.91-0.99-1.45-1.15-3.28-0.9-4.98 0.14-0.96 1.85-3.99 0.19-3.71-2.85 0.48-3.33 7.99-3.07 10.06z"/>
				<path id="&lt;Path&gt;" class="s4" d="m46.19 20.19c-0.54-4.68-4.03-9.04-8.63-9.99-1.09-0.23-2.21-0.27-3.32-0.24-1.61 0.03-3.28 0.23-4.65 1.08-1.68 1.06-2.64 3.01-2.92 4.97-0.2 1.38-0.09 2.84 0.58 4.06 0.66 1.22 1.94 2.16 3.33 2.17 2.14 0.01 3.72-1.97 5.73-2.71 2.15-0.8 4.8 0.06 6.08 1.98 0.98 1.46 1.12 3.3 0.85 4.99-0.15 0.96-1.89 3.97-0.23 3.71 2.85-0.45 3.42-7.96 3.18-10.02z"/>
				<path id="&lt;Path&gt;" class="s3" d="m30.32 12.43c1.15-0.7 2.57-0.79 3.92-0.68 2.42 0.19 4.82 0.98 6.77 2.42 1.96 1.44 3.46 3.54 4.02 5.9 0.04 0.15 0.07 0.3 0.02 0.44-0.08 0.27-0.42 0.38-0.69 0.32-0.28-0.06-0.51-0.24-0.72-0.42-1.23-1.01-2.57-1.91-4.06-2.44-1.5-0.53-3.18-0.66-4.67-0.14-1.18 0.42-2.2 1.21-3.38 1.61-0.93 0.32-2.12 0.32-2.73-0.45-1.35-1.69-0.16-5.53 1.52-6.56z"/>
				<path id="&lt;Path&gt;" class="s2" d="m34.04 13.4c1.94 0.14 3.85 0.74 5.53 1.73 0.6 0.35 1.19 0.77 1.51 1.38-0.71 0.12-1.42 0.05-2.13-0.02-2.28-0.25-4.71-0.58-6.77 0.42-0.65 0.32-1.53 0.8-2.09 0.09-0.31-0.4-0.32-1.31-0.14-1.76 0.59-1.57 2.66-1.94 4.09-1.84z"/>
			</g>
			<g id="&lt;Group&gt;">
				<path id="&lt;Path&gt;" class="s5" d="m64.35 17.52c0.36-2.54-0.9-5.2-2.99-6.69-0.6-0.43-1.28-0.78-2.02-0.94-1.69-0.38-3.52 0.31-4.7 1.58-1.19 1.26-1.75 3.03-1.75 4.76 0 0.79 0.11 1.58 0.4 2.3 0.8 1.97 3.74 4.47 5.99 4.33 2.53-0.17 4.73-3.01 5.07-5.34z"/>
				<path id="&lt;Path&gt;" class="s4" d="m62.87 16.81c-0.4 1.86-1.78 3.47-3.56 4.16-0.64 0.24-1.36 0.37-2.01 0.16-0.57-0.18-1.02-0.6-1.39-1.06-1.33-1.65-1.69-4.01-0.93-5.98 0.29-0.75 0.75-1.46 1.44-1.89 3.04-1.89 7.18 1.24 6.45 4.61z"/>
				<path id="&lt;Path&gt;" class="s3" d="m61.58 16.89c-0.29 1.07-1.14 1.93-2.12 2.44-0.66 0.34-1.5 0.52-2.11 0.11-0.33-0.22-0.54-0.57-0.71-0.93-0.42-0.89-0.64-1.89-0.51-2.86 0.14-0.98 0.67-1.91 1.5-2.43q0.39-0.25 0.83-0.34c2.24-0.42 3.68 2.01 3.12 4.01z"/>
				<path id="&lt;Path&gt;" class="s2" d="m60.39 16.58c-0.11 0.4-0.3 0.79-0.61 1.07-0.31 0.28-0.76 0.42-1.16 0.32q-0.35-0.11-0.62-0.37c-0.52-0.47-0.83-1.19-0.72-1.88 0.1-0.69 0.67-1.31 1.36-1.39 1.34-0.15 2.05 1.05 1.75 2.25z"/>
			</g>
			<g id="&lt;Group&gt;">
				<path id="&lt;Path&gt;" class="s4" d="m46.4 7.6c-0.61 2.85 2.44 5.74 5.22 4.42 1.14-0.54 1.92-1.65 2.31-2.85 0.4-1.25 0.39-2.68-0.25-3.83-1.58-2.82-4.91-1.75-6.42 0.44-0.38 0.56-0.71 1.16-0.86 1.82z"/>
				<path id="&lt;Path&gt;" class="s5" d="m47.98 7.48c0.05-0.23 0.16-0.46 0.23-0.67q0.02-0.05 0.04-0.09v-0.01q0.18-0.31 0.4-0.57 0.03-0.05 0.07-0.08 0.23-0.24 0.52-0.45c0.17-0.12 0.54-0.29 0.62-0.32q0.05-0.02 0.09-0.04 0.35-0.09 0.71-0.14 0.18-0.01 0.35 0.01 0.45 0.03 0.85 0.24 0.55 0.27 0.89 0.78 0.35 0.53 0.4 1.15 0.03 0.64-0.24 1.21-0.1 0.24-0.19 0.48-0.04 0.11-0.08 0.21-0.01 0.02-0.02 0.04c-0.06 0.15-0.25 0.39-0.38 0.57q-0.04 0.05-0.07 0.1-0.27 0.33-0.67 0.5-0.25 0.16-0.55 0.18-0.41 0.12-0.83 0.03-0.02 0-0.04-0.01-0.28-0.1-0.55-0.18-0.02-0.02-0.05-0.03-0.5-0.26-0.83-0.73v-0.01q-0.16-0.16-0.3-0.34l-0.28-0.56q-0.22-0.62-0.09-1.27z"/>
				<path id="&lt;Path&gt;" class="s3" d="m48.25 6.72v-0.01q0.18-0.31 0.4-0.57 0.03-0.05 0.07-0.08 0.23-0.24 0.52-0.45c0.17-0.12 0.54-0.29 0.62-0.32q0.05-0.02 0.09-0.04 0.35-0.09 0.71-0.13 0.18-0.02 0.35 0c0.5 1.05 0.9 2.16 1.31 3.24q0.17 0.42 0.32 0.83-0.01 0.02-0.02 0.04c-0.06 0.15-0.25 0.39-0.38 0.57q-0.04 0.05-0.07 0.1-0.27 0.33-0.67 0.5-0.25 0.16-0.55 0.18-0.41 0.12-0.83 0.04-0.26-0.61-0.53-1.21c-0.41-0.94-0.9-1.8-1.34-2.69z"/>
			</g>
			<g id="&lt;Group&gt;">
				<path id="&lt;Path&gt;" class="s3" d="m27.92 49.89c0.45-1.29 0.26-2.87-0.43-4.01-0.57-0.94-1.44-1.68-2.55-1.9-1.01-0.2-2.07 0.05-2.99 0.48-0.59 0.27-1.11 0.68-1.54 1.15-0.36 0.39-0.68 0.86-0.89 1.34-0.59 1.35-0.48 2.96 0.29 4.23 0.56 0.93 1.42 1.67 2.51 1.89 0.97 0.2 1.99-0.01 2.88-0.4q0.72-0.32 1.36-0.77c0.5-0.35 0.86-0.96 1.14-1.49q0.13-0.25 0.22-0.52z"/>
				<path id="&lt;Path&gt;" class="s2" d="m26.75 49.14c0.12-0.58 0.1-1.22-0.12-1.73-0.12-0.29-0.31-0.54-0.52-0.78-0.64-0.72-1.62-1.15-2.58-1.2-2-0.11-3.62 2.42-2.87 4.22 0.12 0.29 0.32 0.54 0.53 0.78 0.84 0.95 2.41 1.46 3.66 1.08 0.78-0.24 1.3-0.89 1.65-1.6q0.17-0.35 0.25-0.77z"/>
				<path id="&lt;Path&gt;" class="s6" d="m17.97 50.61q0 0.01 0 0.01-0.01-0.07-0.01-0.04 0 0 0 0.01 0 0.01 0.01 0.02z"/>
				<path id="&lt;Path&gt;" class="s7" d="m23.64 49.51q-0.01 0.01-0.02 0.03-0.01 0.01-0.02 0.02 0.02-0.03 0.04-0.05z"/>
				<path id="&lt;Path&gt;" class="s4" d="m21.66 49.14q0.04 0.14 0.11 0.26 0.07 0.13 0.17 0.23 0.1 0.1 0.22 0.17 0.12 0.07 0.26 0.1 0.04 0.02 0.09 0.02 0.1 0.01 0.19 0.01 0.05 0 0.1-0.01 0.09-0.02 0.18-0.04 0.02-0.01 0.05-0.02 0.04 0 0.08-0.01-0.02 0-0.04 0.01 0.08-0.01 0.16-0.03 0 0 0.01 0 0.01 0 0.01-0.01 0.02 0 0.04 0h-0.02q0.04-0.01 0.07-0.03 0.01 0 0.02-0.01 0.02-0.01 0.03-0.02 0.05-0.03 0.09-0.07 0.04-0.03 0.08-0.07 0.03-0.04 0.06-0.08 0.06-0.09 0.1-0.19 0.03-0.08 0.05-0.15 0.02-0.08 0.02-0.16 0-0.13-0.03-0.26-0.02-0.09-0.06-0.17-0.06-0.12-0.14-0.23-0.08-0.1-0.19-0.18-0.11-0.08-0.23-0.13-0.14-0.06-0.29-0.08-0.15-0.01-0.3 0-0.09 0.02-0.19 0.04-0.05 0.01-0.1 0.03-0.09 0.04-0.17 0.08-0.05 0.03-0.1 0.06-0.07 0.05-0.14 0.12-0.07 0.07-0.12 0.15-0.04 0.09-0.07 0.19-0.02 0.05-0.02 0.1-0.02 0.1-0.01 0.2 0.01 0.09 0.03 0.18z"/>
				<path id="&lt;Path&gt;" class="s3" d="m22.83 49.84q0 0.04 0.02 0.09 0 0 0 0.01 0 0 0 0 0 0 0.01 0.01 0 0 0 0.01 0.02 0.04 0.04 0.07 0 0.01 0 0.01 0 0 0.01 0.01 0 0.01 0.01 0.01 0.02 0.03 0.05 0.07 0.01 0.01 0.02 0.01 0.04 0.03 0.07 0.05 0 0 0.01 0 0 0.01 0.01 0.01 0.01 0 0.01 0 0.01 0.01 0.01 0.01 0.04 0.01 0.09 0.03 0 0 0 0 0.01 0 0.01 0 0.03 0.01 0.06 0.01c0.06 0 0.03 0 0.1-0.01q0.01 0 0.04-0.01 0.01 0 0.01 0 0.04-0.02 0.09-0.05 0 0 0 0 0.04-0.03 0.08-0.06 0-0.01 0-0.01 0 0 0 0 0.01-0.02 0.03-0.04 0 0 0 0 0 0 0 0 0.01-0.02 0.02-0.03 0.01-0.02 0.01-0.04 0.01 0 0.01 0 0.01-0.05 0.03-0.09 0 0 0-0.01 0-0.01 0-0.01 0.01-0.04 0.01-0.08 0-0.01 0-0.01 0-0.01 0-0.01-0.01-0.05-0.02-0.09 0-0.01 0-0.01-0.01-0.01-0.01-0.01-0.01-0.03-0.03-0.07 0 0 0 0-0.01-0.01-0.01-0.01-0.01-0.02-0.03-0.03-0.01-0.02-0.03-0.04 0 0 0 0-0.04-0.03-0.07-0.05-0.05-0.02-0.1-0.04 0.04 0.02 0.07 0.03-0.01-0.01-0.02-0.01 0 0 0-0.01-0.04-0.01-0.08-0.02 0 0-0.01 0 0-0.01 0-0.01-0.01 0-0.02 0-0.04-0.02-0.08-0.02-0.07-0.01-0.13 0.01-0.01 0.01-0.01 0.01-0.05 0.02-0.09 0.04-0.01 0-0.01 0.01-0.02 0.01-0.04 0.03-0.01 0.01-0.03 0.03 0 0-0.01 0 0 0.01 0 0.01-0.03 0.04-0.05 0.07 0 0.01 0 0.01-0.01 0-0.01 0.01c0 0.01-0.03 0.07-0.03 0.1q0 0.01 0 0.02c0 0.01-0.01 0.08-0.01 0.09z"/>
				<path id="&lt;Path&gt;" class="s4" d="m17.01 48.45q0 0.36 0.02 0.73-0.23 0.05-0.47 0.09-0.11 0.02-0.23 0.04-0.1 0.01-0.21 0.02h-0.02-0.01q-0.08-0.01-0.17-0.01-0.06-0.01-0.12-0.02-0.18-0.05-0.22-0.22c-0.02-0.11 0.02-0.23 0.12-0.3q0.03-0.01 0.08-0.03 0.03-0.02 0.07-0.04 0.03-0.02 0.06-0.02 0.04-0.01 0.07-0.02 0.02-0.01 0.05-0.02 0.03-0.01 0.05-0.01 0.26-0.06 0.52-0.12 0.21-0.03 0.41-0.07z"/>
				<path id="&lt;Path&gt;" class="s4" d="m17.24 52.12q-0.13 0.06-0.25 0.12-0.18 0.08-0.35 0.17-0.07 0.03-0.15 0.04-0.2 0-0.3-0.18-0.04-0.09-0.03-0.2 0.03-0.08 0.08-0.15 0.08-0.08 0.19-0.14 0.07-0.04 0.14-0.08 0.17-0.1 0.35-0.19 0.23-0.12 0.48-0.23 0.03 0.11 0.07 0.22 0.07 0.23 0.16 0.43-0.14 0.06-0.27 0.13-0.06 0.03-0.12 0.06z"/>
				<path id="&lt;Path&gt;" class="s3" d="m17.97 50.64q0.01 0.06 0.03 0.11 0.04 0.2 0.08 0.39-0.09 0.03-0.17 0.07-0.31 0.11-0.61 0.25c-0.2-0.68-0.31-1.4-0.36-2.1v-0.04q0.03-0.01 0.05-0.02 0.41-0.08 0.8-0.2 0.01 0.36 0.05 0.72 0.03 0.25 0.07 0.51 0.03 0.12 0.05 0.25v0.01 0.02q0 0.01 0.01 0.02z"/>
				<path id="&lt;Path&gt;" class="s4" d="m16.71 45.99q0.31 0.02 0.62 0.05-0.1 0.33-0.16 0.67-0.17 0-0.33 0-0.28-0.01-0.55-0.05-0.12-0.01-0.24-0.03-0.14-0.04-0.27-0.11c-0.1-0.05-0.16-0.16-0.15-0.27q0.01-0.1 0.07-0.17 0.03-0.02 0.05-0.05 0.03-0.01 0.07-0.03 0.07-0.01 0.14-0.03 0.07-0.02 0.14-0.02 0.04 0 0.08 0 0.07 0.01 0.15 0.01 0.15 0 0.29 0.02 0.05 0 0.09 0.01z"/>
				<path id="&lt;Path&gt;" class="s5" d="m17.78 48.4q-0.02 0.18-0.01 0.36 0 0.17 0.02 0.34-0.39 0.12-0.8 0.2-0.02 0.01-0.05 0.02-0.03-0.37-0.03-0.75 0.29-0.05 0.57-0.11 0.15-0.03 0.3-0.06z"/>
				<path id="&lt;Path&gt;" class="s5" d="m18.08 51.14q0.08 0.33 0.19 0.64-0.36 0.15-0.72 0.33-0.1-0.2-0.17-0.43-0.04-0.11-0.07-0.22 0.29-0.14 0.6-0.25 0.09-0.04 0.17-0.07z"/>
				<path id="&lt;Path&gt;" class="s3" d="m17.78 48.4q-0.15 0.03-0.3 0.06-0.28 0.06-0.57 0.11 0-0.72 0.1-1.43 0.03-0.16 0.06-0.33 0.07 0.01 0.14 0 0.12 0.01 0.24 0 0.05 0 0.11 0 0.1-0.01 0.2-0.03-0.04 0.01-0.08 0.02 0.09-0.01 0.19-0.01l0.1-0.01q-0.01 0.02-0.01 0.04-0.11 0.5-0.16 1 0 0.08-0.01 0.15v0.03q-0.01 0.12-0.01 0.24-0.01 0.08 0 0.16z"/>
				<path id="&lt;Path&gt;" class="s5" d="m17.71 46.16q0.17 0.02 0.33 0.03 0.04 0 0.08 0-0.01 0.06-0.03 0.12-0.07 0.24-0.12 0.47l-0.1 0.01q-0.1 0-0.19 0.01 0.04-0.01 0.08-0.02-0.1 0.02-0.2 0.03-0.06 0-0.11 0-0.12 0.01-0.24 0-0.07 0.01-0.14 0 0.07-0.35 0.16-0.68 0.11 0.01 0.22 0.02 0.13 0 0.26 0.01z"/>
				<path id="&lt;Path&gt;" class="s3" d="m18.56 52.35q0.14 0.22 0.3 0.42 0.04 0.06 0.09 0.11 0.01 0.01 0.03 0.03 0.08 0.09 0.17 0.18 0.1 0.09 0.2 0.18-0.1 0.09-0.19 0.17-0.05 0.04-0.09 0.09-0.03 0.02-0.06 0.04-0.02 0.02-0.03 0.05-0.01 0-0.01 0.01-0.09 0.09-0.18 0.18-0.01 0.01-0.02 0.01-0.08-0.07-0.16-0.15-0.68-0.68-1.06-1.56 0.36-0.18 0.72-0.33 0.04 0.1 0.09 0.2 0.01 0.03 0.03 0.07 0.03 0.05 0.05 0.1 0.06 0.1 0.12 0.2z"/>
				<path id="&lt;Path&gt;" class="s4" d="m18.61 54q0.06-0.1 0.16-0.18 0.22 0.2 0.47 0.38-0.03 0.03-0.06 0.05-0.1 0.09-0.22 0.16-0.06 0.05-0.13 0.1c-0.08 0.06-0.16 0.13-0.26 0.13-0.16 0-0.27-0.13-0.24-0.29 0.01-0.09 0.09-0.16 0.15-0.23q0.06-0.05 0.13-0.12z"/>
				<path id="&lt;Path&gt;" class="s5" d="m19.57 53.94q-0.05 0.04-0.1 0.08-0.02 0.03-0.04 0.05-0.02 0.01-0.04 0.02-0.01 0-0.02 0.01-0.06 0.05-0.13 0.1-0.25-0.18-0.47-0.38 0.01 0 0.02-0.01 0.09-0.09 0.18-0.18 0-0.01 0.01-0.01 0.01-0.03 0.03-0.05 0.03-0.02 0.06-0.04 0.04-0.05 0.09-0.09 0.09-0.08 0.19-0.17 0.08 0.07 0.17 0.15 0.11 0.08 0.21 0.15 0.03 0.03 0.06 0.05c0.02 0.02 0.07 0.04 0.08 0.05q0 0 0.01 0-0.06 0.06-0.12 0.11-0.1 0.08-0.19 0.16z"/>
				<path id="&lt;Path&gt;" class="s3" d="m21.18 54.26q0.2 0.06 0.4 0.1-0.04 0.07-0.09 0.15-0.17 0.28-0.35 0.54-0.37-0.08-0.72-0.22-0.63-0.24-1.18-0.63 0.07-0.05 0.13-0.1 0.01-0.01 0.02-0.01 0.02-0.01 0.04-0.02 0.02-0.02 0.04-0.05 0.05-0.04 0.1-0.08 0.09-0.08 0.19-0.16 0.06-0.05 0.12-0.11 0.2 0.13 0.42 0.24 0.23 0.12 0.46 0.21 0.07 0.03 0.14 0.05 0.02 0.01 0.04 0.02 0.12 0.04 0.24 0.07z"/>
				<path id="&lt;Path&gt;" class="s4" d="m21.68 55.44q-0.2 0.28-0.43 0.54-0.05 0.07-0.11 0.13-0.08 0.1-0.17 0.16-0.02 0.02-0.05 0.04-0.01 0.01-0.03 0.02-0.02 0.02-0.06 0.04-0.09 0.08-0.21 0.09-0.16-0.01-0.19-0.17c-0.02-0.1 0.05-0.22 0.1-0.31q0.01-0.04 0.03-0.08 0.03-0.04 0.05-0.08 0.07-0.1 0.14-0.19 0.09-0.14 0.18-0.27 0.06-0.1 0.12-0.19 0.05-0.06 0.09-0.12 0.35 0.1 0.71 0.14-0.08 0.12-0.17 0.25z"/>
				<path id="&lt;Path&gt;" class="s5" d="m21.14 55.05q0.18-0.26 0.35-0.54 0.05-0.08 0.09-0.15 0.34 0.07 0.69 0.1h0.02 0.01q-0.21 0.37-0.44 0.73h-0.01q-0.36-0.04-0.71-0.14z"/>
				<path id="&lt;Path&gt;" class="s3" d="m23.92 55.14q-1.03 0.18-2.06 0.05 0.23-0.36 0.44-0.73 0.04 0 0.06 0 0.08 0.01 0.16 0.01 0.15 0 0.29 0 0.3-0.01 0.6-0.04 0.31-0.03 0.61-0.09-0.03 0.35-0.08 0.69-0.01 0.06-0.02 0.11z"/>
				<path id="&lt;Path&gt;" class="s4" d="m24.3 56.06q-0.02 0.04-0.03 0.09-0.04 0.09-0.08 0.17-0.02 0.07-0.08 0.13-0.01 0-0.02 0.01-0.01 0.03-0.03 0.07-0.05 0.07-0.11 0.12c-0.08 0.08-0.22 0.05-0.23-0.07q-0.01-0.09 0-0.17 0.01-0.05 0.02-0.1-0.02-0.05-0.01-0.11 0.01-0.05 0.03-0.11 0.03-0.12 0.05-0.24 0-0.11 0.03-0.21 0.01-0.11 0.03-0.21 0.03-0.14 0.05-0.29 0.35-0.05 0.69-0.14 0 0.01 0 0.03-0.07 0.4-0.2 0.77-0.03 0.09-0.07 0.18-0.01 0.03-0.03 0.05 0 0.01-0.01 0.03z"/>
				<path id="&lt;Path&gt;" class="s5" d="m24.61 55q-0.34 0.09-0.69 0.14 0.01-0.05 0.02-0.11 0.05-0.34 0.08-0.69l0.01-0.01h0.01q0.04-0.01 0.08-0.01 0.07-0.02 0.14-0.03 0.14-0.04 0.28-0.08 0.08-0.02 0.15-0.05-0.01 0.42-0.08 0.84z"/>
				<path id="&lt;Path&gt;" class="s3" d="m26.26 53.58q0.13 0.35 0.23 0.71-0.55 0.28-1.12 0.48-0.37 0.13-0.76 0.23 0.07-0.42 0.08-0.84 0.53-0.15 1.02-0.37 0.15-0.06 0.29-0.13 0.06-0.03 0.13-0.06 0 0 0.01-0.01 0.03-0.01 0.06-0.03 0.02-0.01 0.04-0.02 0.01 0.02 0.02 0.04z"/>
				<path id="&lt;Path&gt;" class="s5" d="m26.49 54.29q-0.1-0.36-0.23-0.71-0.01-0.02-0.02-0.04 0.24-0.12 0.46-0.26 0.06-0.03 0.12-0.07 0.17 0.36 0.28 0.74-0.3 0.18-0.61 0.34z"/>
				<path id="&lt;Path&gt;" class="s4" d="m26.5 54.33q-0.03-0.13-0.06-0.26 0.3-0.15 0.6-0.33 0.14 0.42 0.22 0.87 0.04 0.23 0.05 0.47 0.01 0.12 0.01 0.24c0 0.06 0 0.08-0.02 0.13 0 0-0.01 0.05-0.01 0.05q-0.01 0.06-0.01 0.12c-0.02 0.09-0.06 0.18-0.16 0.22q-0.09 0.03-0.17-0.01c-0.12-0.06-0.13-0.18-0.17-0.3q0-0.01-0.01-0.04-0.01-0.02-0.01-0.02-0.03-0.05-0.03-0.11-0.02-0.06-0.02-0.12-0.02-0.09-0.04-0.19-0.03-0.13-0.06-0.26-0.05-0.23-0.11-0.46z"/>
				<path id="&lt;Path&gt;" class="s3" d="m26.82 53.21q0.34-0.2 0.66-0.43 0.16 0.23 0.3 0.47 0.04 0.09 0.09 0.19-0.12 0.1-0.25 0.18-0.26 0.17-0.52 0.33-0.11-0.38-0.28-0.74z"/>
				<path id="&lt;Path&gt;" class="s5" d="m27.78 53.25q-0.14-0.24-0.3-0.47 0.1-0.07 0.19-0.13 0.15-0.12 0.29-0.23 0.08 0.1 0.15 0.2 0.14 0.18 0.26 0.38 0.01 0.02 0.02 0.04-0.25 0.22-0.52 0.4-0.05-0.1-0.09-0.19z"/>
				<path id="&lt;Path&gt;" class="s4" d="m28.31 52.84q0.11 0.21 0.21 0.43 0.04 0.1 0.08 0.2 0.02 0.06 0.04 0.11 0.02 0.06 0.03 0.13v0.06q0.04 0.17 0.06 0.36c0.02 0.13-0.08 0.24-0.2 0.27-0.13 0.02-0.26-0.05-0.3-0.17q-0.05-0.16-0.12-0.3 0-0.01-0.01-0.02-0.03-0.04-0.05-0.1-0.01-0.03-0.03-0.08-0.03-0.08-0.06-0.15-0.06-0.15-0.13-0.28-0.01-0.03-0.03-0.06 0.26-0.19 0.51-0.4z"/>
				<path id="&lt;Path&gt;" class="s6" d="m29.33 46.44q0 0 0 0 0.01 0.06 0.01 0.04 0 0 0-0.01-0.01-0.01-0.01-0.03z"/>
				<path id="&lt;Path&gt;" class="s4" d="m30.27 48.36q0.01-0.37-0.02-0.73 0.24-0.06 0.47-0.09 0.12-0.03 0.23-0.04 0.11-0.02 0.22-0.02h0.01 0.01q0.08 0 0.17 0 0.06 0.01 0.12 0.02 0.18 0.05 0.22 0.23c0.02 0.11-0.02 0.23-0.12 0.29q-0.03 0.02-0.07 0.04-0.04 0.02-0.08 0.04-0.03 0.01-0.05 0.02-0.05 0.01-0.08 0.02-0.02 0.01-0.05 0.02-0.02 0.01-0.05 0.01-0.26 0.06-0.52 0.11-0.21 0.03-0.41 0.08z"/>
				<path id="&lt;Path&gt;" class="s4" d="m30.05 44.68q0.12-0.05 0.24-0.11 0.18-0.08 0.36-0.17 0.06-0.04 0.14-0.05 0.2 0.01 0.3 0.18 0.05 0.1 0.03 0.21-0.03 0.07-0.08 0.14-0.07 0.09-0.19 0.14-0.07 0.04-0.14 0.08-0.17 0.1-0.34 0.2-0.24 0.11-0.48 0.22-0.03-0.11-0.07-0.22-0.08-0.22-0.17-0.43 0.14-0.06 0.28-0.13 0.06-0.03 0.12-0.06z"/>
				<path id="&lt;Path&gt;" class="s3" d="m29.33 46.42q-0.02-0.06-0.03-0.12-0.04-0.19-0.09-0.39 0.09-0.03 0.18-0.06 0.3-0.11 0.6-0.25c0.21 0.68 0.32 1.4 0.37 2.1v0.04q-0.03 0.01-0.06 0.02-0.4 0.08-0.79 0.2-0.01-0.36-0.05-0.72-0.03-0.25-0.07-0.51-0.03-0.12-0.05-0.25v-0.01l-0.01-0.03q0 0 0-0.01z"/>
				<path id="&lt;Path&gt;" class="s4" d="m30.57 50.82q-0.31-0.03-0.61-0.05 0.09-0.33 0.15-0.68 0.17 0 0.34 0 0.27 0.01 0.54 0.05 0.12 0.02 0.24 0.04 0.14 0.03 0.27 0.11c0.1 0.05 0.16 0.16 0.15 0.27q-0.01 0.09-0.07 0.16-0.02 0.03-0.05 0.05-0.03 0.01-0.07 0.03-0.07 0.02-0.14 0.03-0.07 0.03-0.14 0.03-0.04-0.01-0.08-0.01-0.07 0-0.14-0.01-0.16 0-0.3-0.02-0.05 0-0.09 0z"/>
				<path id="&lt;Path&gt;" class="s5" d="m29.52 48.66q0.01-0.18 0.01-0.36 0-0.17-0.02-0.34 0.39-0.12 0.79-0.2 0.03-0.01 0.06-0.02 0.03 0.37 0.03 0.74-0.29 0.06-0.57 0.12-0.15 0.03-0.3 0.06z"/>
				<path id="&lt;Path&gt;" class="s5" d="m29.21 45.91q-0.07-0.32-0.19-0.63 0.37-0.15 0.73-0.34 0.09 0.21 0.17 0.44 0.04 0.11 0.07 0.22-0.3 0.14-0.6 0.25-0.09 0.03-0.18 0.06z"/>
				<path id="&lt;Path&gt;" class="s3" d="m29.52 48.66q0.15-0.03 0.3-0.06 0.28-0.06 0.57-0.12 0 0.73-0.11 1.44-0.02 0.16-0.05 0.33-0.07-0.01-0.14-0.01-0.12 0-0.24 0.01-0.05 0-0.12 0-0.1 0-0.19 0.03 0.04-0.01 0.07-0.02-0.08 0.01-0.18 0.01l-0.1 0.01q0-0.02 0.01-0.04 0.1-0.5 0.16-1 0-0.08 0.01-0.15v-0.04q0.01-0.12 0.01-0.24 0.01-0.07 0-0.15z"/>
				<path id="&lt;Path&gt;" class="s5" d="m29.59 50.89q-0.17-0.01-0.34-0.02-0.03 0-0.08-0.01 0.02-0.05 0.04-0.11 0.07-0.24 0.12-0.47l0.1-0.01q0.1 0 0.18-0.01-0.03 0.01-0.07 0.02 0.09-0.03 0.19-0.03 0.07 0 0.12 0 0.12-0.01 0.24 0 0.07-0.01 0.13 0-0.06 0.35-0.16 0.68-0.1-0.01-0.21-0.02-0.13 0-0.26-0.02z"/>
				<path id="&lt;Path&gt;" class="s3" d="m28.74 44.71q-0.14-0.22-0.3-0.42-0.05-0.06-0.09-0.11-0.01-0.01-0.03-0.03-0.08-0.09-0.17-0.18-0.1-0.09-0.2-0.18 0.1-0.09 0.19-0.18 0.05-0.03 0.09-0.08 0.03-0.02 0.06-0.05 0.02-0.02 0.03-0.04 0.01 0 0.01-0.01 0.08-0.09 0.18-0.18 0.01-0.01 0.02-0.01 0.08 0.07 0.15 0.14 0.69 0.68 1.07 1.56-0.36 0.19-0.73 0.34-0.03-0.1-0.08-0.2-0.02-0.04-0.04-0.08-0.02-0.04-0.04-0.09-0.06-0.1-0.12-0.2z"/>
				<path id="&lt;Path&gt;" class="s3" d="m29.85 50.91q-0.13 0-0.26-0.02-0.17-0.01-0.34-0.02-0.03 0-0.08-0.01-0.01 0.06-0.03 0.11c-0.01 0.04-0.02 0.07-0.05 0.17-0.08 0.28-0.4 0.68-0.62 0.86q-0.06 0.05-0.12 0.1-0.11 0.09-0.23 0.19-0.07 0.07-0.16 0.13 0.08 0.1 0.15 0.2 0.14 0.18 0.26 0.38 0.01 0.02 0.02 0.04 0.09-0.07 0.17-0.15c0.34-0.29 0.67-0.57 0.95-0.93 0.07-0.08 0.61-1.02 0.55-1.03q-0.1-0.01-0.21-0.02z"/>
				<path id="&lt;Path&gt;" class="s4" d="m28.61 43.02q-0.07 0.1-0.17 0.18-0.21-0.21-0.46-0.38 0.03-0.03 0.06-0.05 0.1-0.09 0.21-0.15 0.07-0.05 0.14-0.11c0.08-0.05 0.15-0.12 0.25-0.12 0.16 0 0.26 0.12 0.24 0.28-0.01 0.09-0.09 0.16-0.15 0.23q-0.06 0.05-0.12 0.12z"/>
				<path id="&lt;Path&gt;" class="s5" d="m27.73 43.11q0.05-0.04 0.1-0.08 0.02-0.02 0.04-0.04 0.02-0.01 0.04-0.02 0.01 0 0.02-0.01 0.06-0.05 0.13-0.1 0.25 0.18 0.47 0.38-0.01 0-0.02 0.01-0.1 0.09-0.18 0.18 0 0.01-0.01 0.01-0.01 0.02-0.03 0.04-0.03 0.03-0.06 0.05-0.04 0.05-0.09 0.08-0.09 0.09-0.19 0.18-0.08-0.08-0.17-0.15-0.11-0.08-0.21-0.15-0.03-0.03-0.06-0.05c-0.02-0.02-0.07-0.04-0.08-0.05q0 0-0.01 0 0.06-0.06 0.12-0.11 0.1-0.08 0.19-0.17z"/>
				<path id="&lt;Path&gt;" class="s3" d="m26.12 42.8q-0.2-0.06-0.4-0.1 0.04-0.07 0.09-0.15 0.17-0.28 0.35-0.54 0.36 0.08 0.71 0.22 0.63 0.24 1.19 0.63-0.07 0.05-0.13 0.1-0.01 0.01-0.02 0.01-0.02 0.01-0.04 0.02-0.02 0.02-0.04 0.04-0.05 0.04-0.1 0.08-0.09 0.09-0.19 0.17-0.06 0.05-0.12 0.11-0.21-0.13-0.42-0.24-0.23-0.12-0.46-0.21-0.07-0.03-0.14-0.05-0.02-0.01-0.04-0.02-0.12-0.04-0.24-0.07z"/>
				<path id="&lt;Path&gt;" class="s4" d="m25.58 41.6q0.2-0.28 0.42-0.53 0.05-0.07 0.11-0.14 0.08-0.09 0.16-0.15 0.03-0.02 0.06-0.03 0.01-0.01 0.02-0.02 0.03-0.02 0.06-0.05 0.09-0.08 0.21-0.09 0.16 0.01 0.19 0.17c0.02 0.11-0.05 0.22-0.1 0.31q-0.01 0.04-0.03 0.08-0.03 0.04-0.05 0.08-0.06 0.1-0.14 0.19-0.08 0.13-0.18 0.25-0.05 0.1-0.11 0.19-0.05 0.06-0.08 0.12-0.36-0.1-0.71-0.13 0.08-0.13 0.17-0.25z"/>
				<path id="&lt;Path&gt;" class="s5" d="m26.16 42.01q-0.18 0.26-0.35 0.54-0.05 0.08-0.09 0.15-0.34-0.07-0.7-0.1h-0.01-0.01q0.2-0.37 0.44-0.73h0.01q0.36 0.04 0.71 0.14z"/>
				<path id="&lt;Path&gt;" class="s3" d="m23.38 41.92q1.03-0.19 2.06-0.05-0.24 0.36-0.44 0.73-0.04 0-0.06 0-0.09-0.01-0.16-0.01-0.15 0-0.29 0-0.31 0.01-0.61 0.04-0.3 0.03-0.6 0.09 0.03-0.35 0.08-0.69 0.01-0.06 0.02-0.11z"/>
				<path id="&lt;Path&gt;" class="s4" d="m23 40.99q0.01-0.04 0.03-0.09 0.04-0.08 0.07-0.17 0.03-0.07 0.09-0.12 0.01-0.01 0.01-0.02 0.02-0.03 0.04-0.06 0.04-0.07 0.11-0.13c0.08-0.07 0.21-0.04 0.22 0.08q0.01 0.08 0 0.16-0.01 0.05-0.01 0.11 0.01 0.05 0 0.1-0.01 0.05-0.02 0.11-0.04 0.12-0.06 0.24 0 0.1-0.02 0.2-0.02 0.11-0.04 0.21-0.02 0.14-0.05 0.28-0.34 0.05-0.68 0.14 0.01-0.01 0.01-0.03 0.06-0.39 0.2-0.76 0.02-0.09 0.06-0.17 0.01-0.03 0.03-0.05 0-0.02 0.01-0.03z"/>
				<path id="&lt;Path&gt;" class="s5" d="m22.69 42.06q0.34-0.09 0.69-0.14-0.01 0.05-0.02 0.11-0.05 0.34-0.08 0.69h-0.01-0.01q-0.04 0.02-0.08 0.02-0.07 0.02-0.14 0.03-0.14 0.04-0.28 0.08-0.08 0.02-0.16 0.05 0.02-0.42 0.09-0.84z"/>
				<path id="&lt;Path&gt;" class="s3" d="m21.04 43.48q-0.13-0.35-0.23-0.71 0.55-0.28 1.12-0.48 0.37-0.14 0.76-0.23-0.07 0.42-0.09 0.84-0.52 0.14-1.01 0.37-0.15 0.06-0.3 0.13-0.05 0.03-0.12 0.06 0 0-0.01 0.01-0.03 0.01-0.06 0.03-0.02 0.01-0.04 0.02-0.01-0.02-0.02-0.04z"/>
				<path id="&lt;Path&gt;" class="s5" d="m20.81 42.77q0.1 0.36 0.23 0.71 0.01 0.02 0.02 0.04-0.24 0.12-0.47 0.26-0.05 0.03-0.11 0.07-0.17-0.36-0.28-0.74 0.3-0.18 0.61-0.34z"/>
				<path id="&lt;Path&gt;" class="s4" d="m20.78 42.48q0.03 0.12 0.06 0.25-0.3 0.16-0.6 0.34-0.14-0.42-0.22-0.88-0.03-0.23-0.04-0.47-0.02-0.12-0.02-0.24c0-0.06 0.01-0.08 0.02-0.13 0.01 0 0.01-0.04 0.01-0.05q0.01-0.06 0.01-0.12c0.02-0.09 0.06-0.18 0.16-0.22q0.09-0.03 0.17 0.02c0.12 0.06 0.13 0.17 0.17 0.29q0 0.01 0.01 0.04 0.01 0.02 0.01 0.02 0.03 0.06 0.03 0.12 0.02 0.05 0.02 0.11 0.02 0.1 0.04 0.19 0.03 0.13 0.06 0.27 0.05 0.23 0.11 0.46z"/>
				<path id="&lt;Path&gt;" class="s3" d="m20.48 43.85q-0.34 0.2-0.66 0.43-0.16-0.23-0.3-0.47-0.05-0.09-0.1-0.19 0.13-0.1 0.26-0.18 0.25-0.18 0.52-0.33 0.11 0.38 0.28 0.74z"/>
				<path id="&lt;Path&gt;" class="s5" d="m19.52 43.81q0.14 0.24 0.3 0.47-0.1 0.06-0.19 0.13-0.15 0.11-0.29 0.23-0.08-0.1-0.15-0.2-0.15-0.18-0.26-0.38-0.01-0.02-0.02-0.04 0.25-0.22 0.51-0.4 0.05 0.1 0.1 0.19z"/>
				<path id="&lt;Path&gt;" class="s4" d="m18.97 43.97q-0.11-0.21-0.21-0.43-0.04-0.11-0.08-0.21-0.02-0.05-0.04-0.11-0.02-0.06-0.03-0.13v-0.05q-0.04-0.18-0.06-0.37c-0.02-0.13 0.08-0.24 0.2-0.26 0.13-0.03 0.26 0.04 0.3 0.16q0.05 0.16 0.12 0.31 0 0.01 0.01 0.01 0.03 0.05 0.05 0.1 0.01 0.04 0.03 0.08 0.03 0.08 0.06 0.15 0.06 0.15 0.13 0.28 0.02 0.03 0.03 0.07-0.26 0.18-0.51 0.4z"/>
				<path id="&lt;Path&gt;" class="s3" d="m19.19 44.44q-0.15-0.18-0.26-0.38-0.01-0.02-0.02-0.04c-0.03-0.05-0.95 0.62-1.02 0.72-0.3 0.41-0.52 0.89-0.66 1.39q0.11 0.01 0.22 0.02 0.13 0 0.26 0.01 0.17 0.02 0.33 0.03 0.04 0 0.08 0 0.02-0.05 0.04-0.11c0.01-0.03 0.02-0.07 0.05-0.16 0.12-0.34 0.34-0.54 0.57-0.81q0.01-0.02 0.05-0.05 0.06-0.05 0.12-0.1 0.11-0.1 0.23-0.2 0.07-0.06 0.16-0.12-0.08-0.1-0.15-0.2z"/>
			</g>
			<g id="&lt;Group&gt;">
				<path id="&lt;Compound Path&gt;" class="s2" d="m18.68 63.86c0.82 3.46 5 5.74 8.17 3.55 0.3-0.21 0.51-0.54 0.7-0.86 0.76-1.24 1.54-2.56 1.59-4.02 0.06-2.29-1.88-4.35-4.13-4.77-3.4-0.63-7.18 2.44-6.33 6.1zm6.19-4.84q0.43 0.06 0.81 0.26c0.67 0.37 1.03 1.09 1.36 1.78 0.45 0.96 0.92 2.05 0.58 3.06-0.24 0.73-0.86 1.27-1.49 1.72-0.54 0.39-1.13 0.75-1.79 0.86-3.78 0.66-5.37-4.29-2.89-6.63 0.9-0.85 2.2-1.25 3.42-1.05z"/>
				<path id="&lt;Path&gt;" class="s3" d="m22.71 64.58c0.38 0.25 0.84 0.38 1.3 0.4 1.39 0.05 2.78-0.94 1.95-2.55-1.06-2.05-4.72-2.12-4.12 0.81 0.12 0.62 0.45 1.05 0.87 1.34z"/>
			</g>
			<g id="&lt;Group&gt;">
				<path id="&lt;Path&gt;" class="s4" d="m71.48 11.8q0.33-0.61 0.9-1.01c0.41-0.29 0.85-0.39 1.33-0.47q0.28-0.05 0.57-0.05 0.27-0.01 0.52 0.04 0.67 0.15 1.13 0.62 0.08 0.06 0.16 0.13 0.3 0.24 0.49 0.56c0.44 0.76 0.51 1.6 0.43 2.45-0.08 0.78-0.47 1.47-1.07 1.96-0.24 0.2-0.56 0.32-0.88 0.37q-0.55 0.3-1.16 0.32-0.26 0.01-0.53-0.05-0.48-0.12-0.89-0.4-0.14-0.1-0.27-0.23c-0.41-0.39-0.72-0.91-0.86-1.47q-0.01-0.02-0.02-0.05c-0.3-0.85-0.31-1.92 0.15-2.72z"/>
				<path id="&lt;Path&gt;" class="s3" d="m72.48 16.27q-0.01-0.45 0.07-0.89c0.3-1.78 0.79-3.58 1.73-5.11q0.27-0.01 0.52 0.04 0.67 0.15 1.13 0.62 0.08 0.06 0.16 0.13c-0.39 1.88-0.96 3.65-1.95 5.31q-0.11 0.18-0.24 0.35-0.26 0.01-0.53-0.05-0.48-0.12-0.89-0.4z"/>
			</g>
			<g id="&lt;Group&gt;">
				<path id="&lt;Compound Path&gt;" class="s4" d="m17.11 69.95q1.03-0.07 2.05 0.1c3.11 0.51 5.85 2.59 7.51 5.69 1.68 3.17 1.89 6.82 0.55 9.77-1.32 2.91-4.15 4.84-7.77 5.31-3.92 0.49-7.86-0.9-10.03-3.57-3.28-4.02-1.57-9.42-0.69-11.55 1.35-3.25 4.79-5.52 8.38-5.75zm1.48 19.92q0.36-0.02 0.73-0.07c3.26-0.42 5.8-2.13 6.97-4.71 1.21-2.66 1.01-5.98-0.53-8.86-1.5-2.83-3.97-4.72-6.76-5.17-3.8-0.63-7.89 1.58-9.32 5.03-0.82 1.97-2.4 6.92 0.53 10.52 1.83 2.24 5.06 3.48 8.38 3.26z"/>
				<path id="&lt;Path&gt;" class="s8" d="m10.36 78.79c0.67-3.09 3.38-5.8 6.54-5.87l0.06-0.01c1.05-0.01 2.09 0.25 3.08 0.59 0.98 0.34 1.95 0.76 2.71 1.45q0.05 0.04 0.08 0.09c0.95 0.88 1.5 2.13 1.71 3.4 0.75 4.69-2.04 7.51-5.36 8.35-2.48 0.63-5.25 0.17-7.06-1.4-1.56-1.36-2.41-3.56-1.76-6.6z"/>
				<path id="&lt;Path&gt;" class="s5" d="m12.12 85.39q0.21-0.55 0.41-1.1 0.35-0.94 0.69-1.87 0.74-1.95 1.45-3.9 0.27-0.72 0.53-1.43 0.78-2.12 1.7-4.17l0.06-0.01c1.05-0.01 2.09 0.25 3.08 0.59 0.98 0.34 1.95 0.76 2.71 1.45q0.05 0.04 0.08 0.09c-0.08 0.39-0.16 0.73-0.19 0.86q-0.4 1.32-0.81 2.63-0.1 0.31-0.19 0.6c-0.38 1.24-0.73 2.51-1.12 3.78-0.4 1.32-0.82 2.63-1.34 3.88-2.48 0.63-5.25 0.17-7.06-1.4z"/>
				<path id="&lt;Path&gt;" class="s3" d="m13.22 82.42q0.74-1.95 1.45-3.9 0.27-0.72 0.53-1.43c0.69-0.36 1.43-0.57 2.07-0.61 1.56-0.1 3.28 0.44 4.04 1.81q0.22 0.39 0.34 0.84c-0.39 1.24-0.74 2.51-1.13 3.78-1.32 0.7-2.89 0.91-4.36 0.64-0.87-0.16-2.23-0.44-2.94-1.13z"/>
				<path id="&lt;Path&gt;" class="s2" d="m15.69 80.46q0 0.01 0 0.02 0 0 0 0 0 0 0 0.01l0.08 0.38q0 0.01 0.01 0.03 0.01 0.03 0.02 0.05 0.09 0.21 0.2 0.4 0.02 0.03 0.04 0.06 0 0 0.01 0.01 0.05 0.09 0.13 0.16c0.17 0.19 0.18 0.23 0.47 0.38q0.02 0 0.04 0.01 0.03 0.02 0.06 0.03 0.01 0 0.02 0.01 0.2 0.07 0.4 0.14 0.02 0 0.04 0.01 0.07 0.02 0.14 0.02 0.22 0.02 0.44 0.03 0.01 0 0.02 0 0.01 0 0.03 0 0.04 0 0.07-0.01 0.12-0.02 0.23-0.04 0.11-0.02 0.23-0.05 0.01 0 0.03-0.01 0.03-0.01 0.06-0.02 0.2-0.09 0.4-0.2 0.01-0.01 0.03-0.01 0.02-0.02 0.04-0.04 0.09-0.07 0.16-0.14 0.08-0.07 0.16-0.14 0.01-0.01 0.01-0.01 0.01-0.01 0.03-0.02 0.01-0.02 0.03-0.05 0.14-0.19 0.26-0.39 0.02-0.03 0.03-0.05 0-0.01 0-0.02c0.04-0.09 0.11-0.31 0.14-0.4q0.01 0 0.01-0.01 0-0.01 0.01-0.03 0-0.02 0-0.05c0.01-0.05 0.04-0.32 0.04-0.47q0-0.01-0.01-0.03 0-0.01 0-0.02-0.02-0.13-0.04-0.23-0.02-0.1-0.05-0.23-0.01-0.03-0.02-0.06 0 0 0 0 0 0 0 0-0.1-0.2-0.2-0.39 0 0 0-0.01-0.01-0.01-0.02-0.02 0-0.01-0.01-0.02 0 0 0 0c-0.07-0.08-0.22-0.25-0.29-0.33q0 0 0 0-0.02-0.02-0.04-0.03c-0.05-0.04-0.3-0.21-0.35-0.24q-0.01 0-0.01 0 0-0.01-0.01-0.01-0.01-0.01-0.02-0.01-0.01-0.01-0.02-0.01 0 0-0.01 0c-0.11-0.04-0.3-0.11-0.41-0.15h-0.01q-0.02-0.01-0.04-0.01-0.24-0.03-0.49-0.03-0.02-0.01-0.04 0-0.02 0-0.03 0 0 0-0.01 0 0 0 0 0l-0.44 0.09q0 0-0.01 0-0.02 0.01-0.04 0.01-0.01 0.01-0.02 0.01 0 0-0.01 0.01c-0.41 0.19-0.3 0.12-0.55 0.34q-0.09 0.06-0.18 0.15-0.03 0.06-0.07 0.11-0.09 0.09-0.18 0.18-0.05 0.05-0.09 0.11-0.01 0.01-0.01 0.01 0 0.01-0.01 0.01c-0.05 0.08-0.14 0.21-0.19 0.29q-0.01 0.02-0.02 0.04-0.01 0-0.01 0.01 0 0 0 0.01 0 0 0 0-0.06 0.17-0.12 0.34-0.01 0.02-0.01 0.04 0 0.01 0 0.01c-0.01 0.06-0.03 0.32-0.03 0.38q0 0 0 0.01 0 0.01 0 0.02 0 0.02 0 0.03 0 0.02 0 0.03z"/>
			</g>
			<g id="&lt;Group&gt;">
				<path id="&lt;Compound Path&gt;" class="s8" d="m17.61 103.81c1.35 5.74 8.29 9.53 13.55 5.9 0.51-0.35 0.84-0.9 1.17-1.43 1.26-2.06 2.55-4.26 2.63-6.68 0.11-3.79-3.12-7.21-6.85-7.91-5.65-1.05-11.92 4.05-10.5 10.12zm10.26-8.03c0.47 0.08 0.94 0.2 1.35 0.43 1.11 0.61 1.71 1.82 2.25 2.96 0.76 1.59 1.53 3.39 0.98 5.07-0.41 1.22-1.44 2.12-2.49 2.87-0.9 0.64-1.87 1.23-2.96 1.42-6.27 1.1-8.92-7.12-4.79-11.01 1.49-1.4 3.64-2.06 5.66-1.74z"/>
				<path id="&lt;Path&gt;" class="s9" d="m24.29 105c0.63 0.43 1.39 0.64 2.15 0.67 2.32 0.08 4.62-1.55 3.24-4.22-1.76-3.42-7.83-3.53-6.84 1.34 0.21 1.02 0.75 1.75 1.45 2.21z"/>
			</g>
			<path id="&lt;Path&gt;" class="s8" d="m39.38 111.79c1.03 0.38 3 0.16 3.74-0.72 0.4-0.49 0.59-1.12 0.74-1.73 0.13-0.59 0.23-1.2 0.11-1.78-0.63-2.99-5.05-2.87-6.34-0.5-0.9 1.68-0.04 4.08 1.75 4.73z"/>
			<path id="&lt;Path&gt;" class="s8" d="m14.89 96.61c0.61-1.2-0.15-3.04-2.17-1.7-0.29 0.19-0.57 0.42-0.71 0.73-0.35 0.76 0.31 1.73 1.13 1.84 0.89 0.11 1.47-0.31 1.75-0.87z"/>
			<path id="&lt;Path&gt;" class="s4" d="m38.38 88.2c0.99 0.17 2.29-0.73 1.64-2.04-0.77-1.54-2.76-0.61-2.61 0.92 0.07 0.68 0.48 1.03 0.97 1.12z"/>
			<path id="&lt;Path&gt;" class="s3" d="m31.92 83.65q0.37 0.16 0.77 0.06c1.25-0.34 1.48-1.9 0.41-2.51-1.57-0.9-2.94 1.73-1.18 2.45z"/>
			<path id="&lt;Path&gt;" class="s9" d="m42.31 110.22q0.52-1.04 0.82-2.16c0.06-0.21 0.1-0.43 0.02-0.63-0.06-0.15-0.18-0.25-0.31-0.35q-0.7-0.54-1.56-0.76c-0.25-0.06-0.52-0.1-0.76-0.03-0.36 0.1-0.62 0.39-0.83 0.7-0.45 0.65-0.76 1.42-0.89 2.21-0.03 0.19-0.04 0.4 0.07 0.56 0.12 0.17 0.34 0.22 0.54 0.26 0.76 0.14 2.47 0.98 2.9 0.2z"/>
			<path id="&lt;Path&gt;" class="s6" d="m133.59 88.46c1.86-0.07 3.61-2.22 0.62-3.8-0.43-0.23-0.9-0.41-1.38-0.37-1.16 0.08-1.89 1.53-1.47 2.61 0.45 1.16 1.35 1.59 2.23 1.56z"/>
			<path id="&lt;Path&gt;" class="s10" d="m33.97 112.47c-0.69-0.11-1.71 0.28-2.13 0.85-0.42 0.57-0.48 1.39-0.16 2.02 0.82 1.59 3.76 1.58 3.93-0.47 0.08-1.08-0.56-2.22-1.64-2.4z"/>
			<path id="&lt;Path&gt;" class="s10" d="m49.15 82.01c-0.99-0.17-2.46 0.4-3.07 1.23-0.61 0.83-0.7 2.01-0.23 2.92 1.18 2.3 5.44 2.29 5.68-0.67 0.12-1.58-0.81-3.23-2.38-3.48z"/>
			<path id="&lt;Path&gt;" class="s5" d="m45.29 96.42c-1.08-0.18-2.68 0.44-3.33 1.33-0.66 0.9-0.77 2.18-0.26 3.18 1.29 2.49 5.91 2.48 6.17-0.74 0.13-1.7-0.88-3.49-2.58-3.77z"/>
			<path id="&lt;Path&gt;" class="s6" d="m135.61 30.25q0.09 0.01 0.17 0.01c1.02 0.03 1.99-0.89 1.91-1.9-0.11-1.52-1.84-2.74-3.26-1.92-1.8 1.04-0.58 3.61 1.18 3.81z"/>
			<g id="&lt;Group&gt;">
				<path id="&lt;Compound Path&gt;" class="s11" d="m116.5 48.65c-1.88-2.96-2.14-7.08-0.4-10.38 2.09-3.94 6.61-6.5 11.52-6.53 3.3-0.02 5.99 1.34 7.56 3.82q0.01 0 0.01 0.01c1.79 2.82 1.86 6.74 0.19 10.23-1.59 3.33-4.69 5.83-8.28 6.67-3.04 0.71-6.21 0.14-8.48-1.53q-1.27-0.95-2.12-2.29zm17.87-12.57c-1.39-2.19-3.79-3.39-6.75-3.37-4.48 0.02-8.77 2.44-10.66 6.02-2.06 3.88-1.06 9.01 2.23 11.43 2.04 1.5 4.92 2.02 7.69 1.37 3.26-0.77 6.18-3.12 7.63-6.14 1.53-3.2 1.48-6.76-0.14-9.31q0 0 0 0z"/>
				<path id="&lt;Path&gt;" class="s6" d="m128 46.96q-0.22 0.09-0.43 0.17-0.2 0.06-0.38 0.12-0.2 0.05-0.4 0.1-0.35 0.09-0.71 0.14h-0.01q-0.31 0.05-0.61 0.07-0.13 0.01-0.25 0.02-0.2 0.02-0.41 0.01-0.2 0.01-0.4 0.01-0.39-0.01-0.77-0.05-0.68-0.06-1.34-0.18c-0.83-0.16-1.71-0.43-2.23-1.1-0.35-0.46-0.49-1.05-0.57-1.62q-0.17-1.37 0.07-2.72 0-0.06 0.01-0.13 0.12-0.63 0.32-1.22 0.2-0.58 0.47-1.12 0.22-0.44 0.49-0.85c0.8-1.19 1.77-2.03 2.81-2.57q0.34-0.19 0.7-0.33 0.11-0.05 0.22-0.08 0.26-0.09 0.51-0.16 0.29-0.07 0.56-0.11c3.16-0.53 6.27 1.33 6.54 4.68q0.07 0.79-0.09 1.68-0.12 0.68-0.39 1.4-0.08 0.24-0.19 0.48-0.02 0.06-0.05 0.11c-0.65 1.49-1.97 2.62-3.47 3.25z"/>
				<path id="&lt;Path&gt;" class="s12" d="m131.71 43.12c-0.55-0.13-1.08-0.3-1.62-0.42q-1.27-0.28-2.55-0.45-0.83-0.11-1.67-0.18-0.01 0-0.02 0-0.63-0.05-1.25-0.07-0.48-0.02-0.97-0.02h-0.01q-0.03-0.01-0.06-0.01-1.13-0.02-2.27-0.06-0.14-0.01-0.28-0.02-0.72-0.04-1.44-0.09 0.12-0.63 0.32-1.22 0.2-0.58 0.47-1.12 0.3-0.08 0.61-0.14 1.34-0.28 2.74-0.32 0.45-0.01 0.89-0.01 0.39 0.01 0.78 0.02 0.24 0.01 0.47 0.02 0.5 0.03 0.99 0.08 1.97 0.16 3.91 0.59 0.73 0.15 1.44 0.34 0.07 0.79-0.09 1.68-0.12 0.68-0.39 1.4z"/>
				<path id="&lt;Path&gt;" class="s12" d="m128 46.96q-0.22 0.09-0.43 0.17-0.2 0.06-0.38 0.12-0.2 0.05-0.4 0.1-0.35 0.09-0.71 0.14h-0.01q-0.31 0.05-0.61 0.07-0.13 0.01-0.25 0.02-0.2 0.02-0.41 0.01-0.2 0.01-0.4 0.01c0.08-1.27 0.08-2.54 0.15-3.8q0.03-0.85 0.05-1.7 0-0.05 0-0.1 0.01-0.87 0-1.73 0-0.64 0-1.28 0-0.03-0.01-0.06c0-1.07-0.14-2.15-0.23-3.22q0.11-0.05 0.22-0.08 0.26-0.09 0.51-0.16 0.29-0.07 0.56-0.11c0.43 1.09 0.74 2.26 1.08 3.35q0.06 0.2 0.11 0.4 0.2 0.68 0.35 1.38 0.2 0.88 0.35 1.76 0.03 0.15 0.05 0.31 0.1 0.56 0.18 1.12c0.17 1.08 0.23 2.18 0.23 3.28z"/>
				<path id="&lt;Path&gt;" class="s13" d="m131.52 43.6q-1.23-0.43-2.5-0.73-0.71-0.17-1.43-0.31-0.84-0.16-1.69-0.29-0.65-0.1-1.3-0.17-0.41-0.06-0.83-0.11-0.07 0-0.14-0.01h-0.01q-0.03-0.01-0.06-0.01-0.07-0.01-0.13-0.01c-0.02-0.01-0.09-0.01-0.12-0.01q-0.02-0.01-0.03 0-0.35-0.03-0.69-0.05-0.67-0.03-1.34-0.02-0.12 0-0.24 0.01-0.54 0.02-1.09 0.05-0.18 0-0.36-0.01 0-0.06 0.01-0.13 0.12-0.63 0.32-1.22 0.21-0.03 0.41-0.06 0.87-0.1 1.73-0.15 0.83-0.06 1.67-0.09 0.45-0.03 0.9-0.01 0.27 0.01 0.54 0.02 0.24 0.02 0.47 0.03 0.79 0.06 1.58 0.17 0.61 0.08 1.22 0.2 1.53 0.32 3.01 0.8 0.35 0.11 0.68 0.23-0.12 0.68-0.39 1.4-0.08 0.24-0.19 0.48z"/>
				<path id="&lt;Path&gt;" class="s13" d="m126.08 47.49h-0.01q-0.31 0.05-0.61 0.07-0.13 0.01-0.25 0.02-0.2 0.02-0.41 0.01-0.2 0.01-0.4 0.01-0.39-0.01-0.77-0.05 0-0.11 0-0.22-0.02-0.78-0.01-1.55 0.01-1.37-0.01-2.75-0.01-0.53 0.02-1.05h-0.01l0.01-0.01q0.03-0.85 0.07-1.69v-0.01q0.01-0.64 0.01-1.27 0-0.75-0.05-1.5-0.03-0.68-0.01-1.36 0.01-0.05 0.01-0.1 0.34-0.19 0.7-0.33 0.11-0.05 0.22-0.08 0.15 0.37 0.27 0.75c0.2 0.62 0.3 1.27 0.4 1.91q0.01 0.04 0.01 0.08 0 0 0.01 0.01 0.02 0.1 0.04 0.2 0.03 0.19 0.07 0.38 0 0.03 0 0.05 0.09 0.46 0.17 0.92 0.03 0.2 0.06 0.39 0.1 0.61 0.19 1.23 0.04 0.26 0.07 0.52 0.01 0.1 0.03 0.2 0 0.05 0.01 0.11 0.04 0.41 0.05 0.82 0.04 0.84 0.07 1.66 0.03 0.82 0.04 1.63 0 0.5 0.01 1z"/>
			</g>
			<g id="&lt;Group&gt;">
				<path id="&lt;Compound Path&gt;" class="s13" d="m114.12 23.41q-0.5 0.51-1.1 0.94c-2.49 1.75-5.16 2.05-7.5 0.84-2.8-1.45-4.69-4.81-4.69-8.36 0-3.4 1.78-6.27 4.87-7.88 2.94-1.52 6.46-1.4 8.96 0.32 1.22 0.83 2.16 2.03 2.73 3.46 0.59 1.53 0.7 3.23 0.3 4.78-0.4 1.54-1.26 2.91-1.87 3.8-0.44 0.65-1 1.41-1.7 2.1zm-9.94-11.89c-1.81 1.8-2.14 3.99-2.14 5.31 0 3.06 1.66 6.06 4.03 7.29 1.36 0.7 3.55 1.14 6.25-0.76 1.09-0.77 1.91-1.86 2.5-2.73 0.89-1.3 1.43-2.39 1.7-3.42 0.34-1.31 0.25-2.74-0.26-4.03-0.47-1.2-1.28-2.23-2.28-2.92-2.11-1.44-5.21-1.53-7.72-0.23q-1.27 0.66-2.08 1.49z"/>
				<path id="&lt;Path&gt;" class="s12" d="m105.34 13.69c-1.78 2.58-2.26 6.38-0.05 8.15 3.37 2.69 7.47-1.71 8.1-4.76 0.46-2.21-0.21-4.96-2.32-5.77-2.26-0.86-4.37 0.41-5.73 2.38z"/>
			</g>
			<path id="&lt;Path&gt;" class="s12" d="m124.13 16.63c-4.34 1.28-6 7.61-2.12 10.42 1.59 1.14 3.69 1.38 5.61 1.01 2.01-0.39 3.95-1.47 5.04-3.2 2.67-4.27-1.29-8.02-5.4-8.43-1.05-0.11-2.13-0.1-3.13 0.2z"/>
			<path id="&lt;Path&gt;" class="s12" d="m125.48 18.69c0.35-0.11 0.75-0.14 1.09-0.19q0.08-0.01 0.15-0.01l0.01-0.01q0.56 0.02 1.08 0.11 0.08 0.01 0.15 0.04 0.51 0.14 1.01 0.36c0.3 0.15 0.79 0.53 0.9 0.62q0.06 0.05 0.12 0.09 0.39 0.4 0.72 0.86 0.15 0.24 0.25 0.49 0.29 0.63 0.31 1.33 0.04 0.95-0.39 1.81-0.46 0.86-1.28 1.4-0.85 0.52-1.83 0.57-0.39 0.05-0.8 0.11-0.17 0.03-0.34 0.05-0.03 0-0.06 0c-0.26 0.03-0.72-0.06-1.06-0.09q-0.1-0.02-0.19-0.02-0.67-0.12-1.19-0.55-0.41-0.22-0.66-0.6-0.47-0.48-0.66-1.11-0.01-0.03-0.02-0.07-0.08-0.46-0.16-0.88 0-0.05 0-0.09-0.02-0.88 0.38-1.68l0.01-0.01q0.09-0.34 0.23-0.67l0.56-0.8q0.68-0.75 1.67-1.06z"/>
			<path id="&lt;Path&gt;" class="s13" d="m126.72 18.49l0.01-0.01q0.56 0.02 1.08 0.11 0.08 0.01 0.15 0.04 0.51 0.14 1.01 0.36c0.3 0.15 0.79 0.53 0.9 0.62q0.06 0.05 0.12 0.09 0.39 0.4 0.72 0.87 0.15 0.23 0.25 0.48c-1.06 1.47-2.27 2.85-3.43 4.22q-0.45 0.53-0.9 1.05-0.03 0-0.06 0c-0.26 0.03-0.72-0.06-1.06-0.09q-0.1-0.02-0.19-0.02-0.67-0.12-1.19-0.55-0.41-0.22-0.66-0.6-0.47-0.48-0.66-1.11 0.63-0.8 1.25-1.62c0.97-1.28 1.77-2.57 2.66-3.84z"/>
			<path id="&lt;Compound Path&gt;" class="s13" d="m122.17 6.39c-2.16 1.28-2.8 4.59-0.65 6.26 0.21 0.16 0.47 0.23 0.73 0.29 1 0.25 2.06 0.49 3.05 0.21 1.56-0.44 2.53-2.2 2.33-3.8-0.3-2.43-3.18-4.32-5.46-2.96zm4.58 3.13q0.05 0.31 0 0.61c-0.1 0.52-0.52 0.92-0.91 1.29-0.55 0.51-1.18 1.06-1.93 1.05-0.55-0.01-1.05-0.31-1.49-0.64-0.37-0.28-0.74-0.6-0.96-1.02-1.25-2.41 1.75-4.54 3.86-3.36 0.76 0.42 1.3 1.21 1.43 2.07z"/>
			<path id="&lt;Path&gt;" class="s12" d="m122.55 9.26q-0.13 0.48 0 0.96c0.27 0.95 1.23 1.67 2.14 0.77 1.15-1.16 0.42-3.64-1.43-2.61-0.39 0.22-0.61 0.53-0.71 0.88z"/>
			<g id="&lt;Group&gt;">
				<path id="&lt;Compound Path&gt;" class="s14" d="m125.31 85.93q0.09-0.05 0.17-0.11 1.02-0.74 1.85-1.67 0.96-1.06 1.67-2.3 0.63-1.1 1.08-2.29c0.55-1.41 0.92-2.9 1.13-4.39q0.18-1.22 0.2-2.45c0.02-1.64-0.22-3.28-0.88-4.77q-0.08-0.17-0.17-0.34-0.46-0.91-1.09-1.71-0.71-0.9-1.57-1.68-1.12-1-2.38-1.78-0.89-0.56-1.86-1.02-1.99-0.94-4.16-1.46-0.83-0.21-1.68-0.37-0.09-0.01-0.18-0.03c-1.57-0.28-3.21-0.36-4.8-0.16q-0.86 0.11-1.69 0.33c-2.31 0.62-4.76 1.34-6.73 2.71q-0.09 0.06-0.17 0.12-1.02 0.74-1.85 1.67-0.96 1.06-1.67 2.3-0.64 1.1-1.08 2.29c-0.55 1.41-0.92 2.9-1.13 4.39q-0.19 1.22-0.2 2.45c-0.02 1.64 0.22 3.28 0.88 4.76q0.07 0.18 0.16 0.35 0.46 0.91 1.1 1.71 0.7 0.9 1.56 1.67 1.12 1.01 2.38 1.79 0.9 0.56 1.86 1.01 2 0.94 4.17 1.47 0.83 0.2 1.68 0.36 0.09 0.01 0.17 0.03c1.58 0.28 3.22 0.37 4.81 0.17q0.86-0.12 1.69-0.34c1.31-0.43 2.65-0.7 3.94-1.2 1.02-0.4 1.87-0.92 2.79-1.51zm-5.17-0.94q-1.01 0.4-2.04 0.62-1.04 0.21-2.09 0.33-1.91 0.24-3.84 0.06-0.12 0.01-0.26-0.01-0.93-0.1-1.86-0.32-1.61-0.4-3.07-1.17-0.97-0.52-1.79-1.21-1.15-0.94-1.95-2.19-0.2-0.32-0.38-0.66-0.5-0.95-0.82-1.98-0.07-0.22-0.13-0.44-0.4-1.41-0.54-2.75-0.12-1.24-0.03-2.39 0.13-1.62 0.68-3.05 0.51-1.31 1.36-2.41 0.67-0.87 1.53-1.6 0.85-0.7 1.89-1.23c1.49-0.78 2.96-1.49 4.63-1.82q1.04-0.21 2.09-0.33 1.91-0.25 3.84-0.07 0.12 0 0.25 0.02 0.94 0.1 1.87 0.32 1.61 0.39 3.06 1.17 0.97 0.52 1.8 1.21 1.15 0.94 1.95 2.19 0.2 0.32 0.38 0.65 0.49 0.96 0.82 1.99 0.06 0.22 0.13 0.43 0.4 1.42 0.54 2.76 0.12 1.23 0.03 2.39-0.14 1.62-0.69 3.05-0.5 1.31-1.35 2.41-0.67 0.87-1.54 1.59-0.84 0.7-1.88 1.24c-0.83 0.43-1.7 0.85-2.59 1.2z"/>
				<path id="&lt;Path&gt;" class="s13" d="m112.57 77.29c0.37 0.28 0.73 0.53 1.2 0.56 0.56 0.04 1.05 0.08 1.58-0.12 0.63-0.26 1.23-0.45 1.79-0.86 0.6-0.45 1.09-1.06 1.32-1.77 0.34-1.05 0.22-2.24-0.48-3.11q-0.24-0.29-0.59-0.56-0.18-0.13-0.41-0.24c-1.34-0.65-2.97-0.47-4.14 0.45-1.45 1.14-2.14 3.58-0.86 5.1q0.23 0.29 0.59 0.55z"/>
				<path id="&lt;Compound Path&gt;" class="s15" d="m119.84 82.14q0.52-0.27 1.03-0.61 0.91-0.63 1.69-1.4 0.79-0.78 1.43-1.69 0.35-0.5 0.59-1.03 0.56-1.16 0.63-2.52 0.01-0.12 0.01-0.24c0.06-1.67-0.19-3.73-1.05-5.29q-0.3-0.58-0.72-1.05-0.18-0.2-0.37-0.38-1.07-1.06-2.39-1.77-0.71-0.39-1.5-0.64-0.52-0.19-1.07-0.32-1.15-0.25-2.3-0.26-0.99-0.02-1.99 0.11c-1.88 0.25-3.61 0.73-5.17 1.8q-0.91 0.62-1.7 1.4-0.79 0.78-1.42 1.69-0.35 0.5-0.59 1.03-0.56 1.16-0.63 2.51-0.01 0.12-0.02 0.25c-0.05 1.67 0.2 3.73 1.06 5.29q0.3 0.58 0.72 1.04 0.18 0.21 0.37 0.39 1.06 1.06 2.39 1.77 0.71 0.39 1.5 0.64 0.52 0.19 1.07 0.31 1.15 0.26 2.3 0.27 0.99 0.02 1.99-0.11c1.48-0.2 2.85-0.53 4.14-1.19zm-4.16-1.65c-0.51 0.06-1.07 0.03-1.64-0.03-0.69-0.09-1.39-0.25-1.99-0.43q-0.15-0.05-0.29-0.1-0.83-0.3-1.56-0.79-0.57-0.38-1.07-0.86-0.45-0.44-0.83-0.96-0.13-0.18-0.25-0.37c-0.36-0.56-0.63-1.18-0.77-1.82q-0.16-0.74-0.08-1.48c0.09-0.84 0.38-1.65 0.77-2.37q0.09-0.18 0.19-0.34 0.37-0.6 0.82-1.07c0.57-0.6 1.2-1.26 2-1.49 0.86-0.26 1.67-0.4 2.56-0.47q0.15-0.01 0.3-0.02c0.52-0.06 1.08-0.04 1.64 0.03 0.69 0.08 1.39 0.24 1.99 0.43q0.15 0.04 0.29 0.1 0.83 0.3 1.56 0.79 0.58 0.38 1.07 0.86 0.45 0.44 0.83 0.96 0.13 0.18 0.26 0.37c0.35 0.56 0.63 1.18 0.77 1.82q0.15 0.74 0.08 1.48c-0.09 0.84-0.38 1.65-0.78 2.37q-0.08 0.18-0.18 0.34-0.37 0.6-0.83 1.07c-0.43 0.45-0.91 0.85-1.4 1.25-0.87 0.74-2.08 0.63-3.16 0.7q-0.15 0.02-0.3 0.03z"/>
				<path id="&lt;Path&gt;" class="s12" d="m113.52 62.44q-1.05 0.12-2.09 0.33-0.04-0.29-0.06-0.58-0.06-0.58-0.16-1.16-0.11-0.65-0.26-1.3 0.83-0.22 1.69-0.33 0.25 0.71 0.47 1.43 0.16 0.57 0.3 1.14 0.03 0.14 0.07 0.28 0.02 0.1 0.04 0.19z"/>
				<path id="&lt;Path&gt;" class="s13" d="m119.48 62.71q-0.93-0.22-1.87-0.32-0.13-0.02-0.25-0.02 0-0.1 0.01-0.19 0.02-0.39 0.05-0.76 0.02-0.21 0.04-0.41 0.02-0.21 0.03-0.42 0.02-0.14 0.03-0.28 0-0.06 0.01-0.14 0.01-0.14 0.03-0.27 0.01-0.06 0.03-0.11 0-0.06 0.02-0.12 0-0.04 0.01-0.08 0.85 0.16 1.68 0.37 0 0.05 0.01 0.1 0 0.05 0.01 0.09 0.01 0.09 0.02 0.18 0.02 0.17 0.03 0.34 0.08 0.62 0.1 1.24 0 0.32 0 0.63 0 0.08 0.01 0.17z"/>
				<path id="&lt;Path&gt;" class="s12" d="m124.34 65.09q-0.83-0.69-1.8-1.21 0.01-0.05 0.01-0.1 0.03-0.07 0.06-0.15 0.03-0.08 0.05-0.16 0.04-0.1 0.08-0.19 0.07-0.19 0.14-0.37 0.25-0.66 0.5-1.31 0.04-0.09 0.08-0.18 0.97 0.46 1.87 1.02-0.1 0.31-0.2 0.64-0.1 0.34-0.21 0.68-0.04 0.17-0.09 0.33-0.03 0.09-0.06 0.18c-0.06 0.18-0.12 0.34-0.25 0.48q-0.07 0.14-0.14 0.27-0.02 0.03-0.04 0.07z"/>
				<path id="&lt;Path&gt;" class="s13" d="m128.74 69.27l-0.19 0.12q-0.17 0.11-0.36 0.17-0.15 0.06-0.29 0.15-0.13 0.06-0.27 0.13-0.07 0.04-0.14 0.08-0.33-1.03-0.82-1.99 0.12-0.11 0.23-0.21 0.14-0.18 0.32-0.32 0.05-0.04 0.1-0.08 0.11-0.08 0.21-0.15 0.19-0.16 0.4-0.3 0.36-0.27 0.72-0.54 0.31-0.22 0.62-0.43 0.63 0.8 1.09 1.71 0.09 0.17 0.17 0.34-0.07 0.06-0.14 0.11-0.31 0.26-0.66 0.5-0.32 0.24-0.66 0.48-0.16 0.12-0.33 0.23z"/>
				<path id="&lt;Path&gt;" class="s12" d="m131.22 75.38q-0.45 0.08-0.9 0.14-0.65 0.1-1.3 0.17-0.32 0.03-0.65 0.02-0.08 0-0.17 0 0.09-1.16-0.03-2.39 0.21-0.03 0.42-0.05 0.48-0.05 0.96-0.09 0.91-0.09 1.82-0.24 0.03 0 0.05-0.01-0.01 1.23-0.2 2.45z"/>
				<path id="&lt;Path&gt;" class="s13" d="m129 81.85q-0.25-0.09-0.51-0.17-0.66-0.23-1.33-0.43-0.34-0.1-0.67-0.19-0.17-0.05-0.34-0.1 0.85-1.1 1.35-2.41 0.23 0.08 0.46 0.17 1.06 0.38 2.11 0.83 0 0 0.01 0.01-0.45 1.19-1.08 2.29z"/>
				<path id="&lt;Path&gt;" class="s12" d="m125.31 85.93q-0.12-0.04-0.22-0.1c-0.84-0.42-1.75-1.19-2.36-2.04q1.04-0.54 1.88-1.24c0.94 0.5 1.79 1.07 2.72 1.6q-0.83 0.93-1.85 1.67-0.08 0.06-0.17 0.11z"/>
				<path id="&lt;Path&gt;" class="s16" d="m119.36 69.15q-0.02 0.04-0.04 0.09-0.73-0.49-1.56-0.79 0.4-0.97 0.84-1.92 0.26-0.53 0.59-1.01 0.79 0.25 1.5 0.64-0.19 0.32-0.35 0.65-0.54 1.15-0.98 2.34z"/>
				<path id="&lt;Path&gt;" class="s16" d="m115.48 67.92c-0.56-0.07-1.12-0.09-1.64-0.03q-0.15 0.01-0.3 0.02-0.02-0.07-0.02-0.15-0.02-0.27-0.01-0.54 0.01-0.61 0.1-1.22 0.07-0.48 0.22-0.95 1-0.13 1.99-0.11-0.01 0.02-0.02 0.05-0.12 0.44-0.2 0.89-0.06 0.38-0.1 0.76-0.03 0.38-0.03 0.74 0.01 0.22 0.01 0.43 0 0.05 0 0.11z"/>
				<path id="&lt;Path&gt;" class="s16" d="m122.7 70.44l-0.36 0.23c-0.18 0.11-0.36 0.24-0.56 0.31q-0.19 0.05-0.38 0.02-0.08 0.03-0.18 0.06-0.38-0.52-0.83-0.96 0.03-0.03 0.05-0.05 0.1-0.12 0.19-0.22 0.05-0.2 0.19-0.35c0.16-0.17 0.38-0.3 0.57-0.44q0.2-0.13 0.38-0.27 0.18-0.13 0.36-0.25 0.18-0.12 0.37-0.22l0.58-0.37q0.19 0.18 0.37 0.38 0.42 0.47 0.72 1.05-0.38 0.3-0.76 0.59-0.16 0.13-0.34 0.25-0.19 0.13-0.37 0.24z"/>
				<path id="&lt;Path&gt;" class="s16" d="m124.58 77.41q-0.08 0-0.16-0.01-0.45-0.05-0.9-0.07-0.28-0.01-0.55-0.03-0.13 0-0.26-0.01c-0.14-0.01-0.3 0-0.44-0.03q-0.15-0.04-0.26-0.09-0.03-0.01-0.04-0.01-0.11-0.01-0.21-0.03-0.1-0.01-0.21-0.03c0.4-0.72 0.69-1.53 0.78-2.37q0.13-0.03 0.26-0.03 0.13 0 0.25 0 0.23 0 0.45 0.01 0.97 0.05 1.92 0.18-0.07 1.36-0.63 2.52z"/>
				<path id="&lt;Path&gt;" class="s16" d="m120.87 81.53q-0.1-0.11-0.22-0.2-0.3-0.27-0.57-0.56-0.38-0.37-0.72-0.76-0.09-0.11-0.18-0.21-0.02-0.02-0.04-0.04c0.49-0.4 0.97-0.8 1.4-1.25q0.02 0.01 0.03 0.02 0.27 0.18 0.53 0.37 0.16 0.14 0.32 0.26 0.34 0.26 0.65 0.53 0.25 0.21 0.49 0.44-0.78 0.77-1.69 1.4z"/>
				<path id="&lt;Path&gt;" class="s12" d="m116.01 85.94q1.05-0.12 2.09-0.33 0.03 0.29 0.06 0.58 0.06 0.58 0.16 1.16 0.11 0.65 0.26 1.29-0.83 0.22-1.69 0.34-0.26-0.71-0.47-1.43-0.16-0.57-0.31-1.14-0.03-0.14-0.06-0.28-0.03-0.1-0.04-0.19z"/>
				<path id="&lt;Path&gt;" class="s13" d="m110.05 85.67q0.93 0.22 1.86 0.32 0.14 0.02 0.26 0.01-0.01 0.1-0.01 0.2-0.03 0.39-0.05 0.76-0.03 0.21-0.05 0.4-0.01 0.22-0.03 0.43-0.01 0.13-0.03 0.28 0 0.06 0 0.14-0.01 0.14-0.03 0.27-0.01 0.06-0.03 0.11-0.01 0.06-0.02 0.12 0 0.03-0.01 0.07-0.85-0.16-1.68-0.36 0-0.06-0.01-0.1-0.01-0.05-0.01-0.09-0.01-0.09-0.02-0.18-0.02-0.17-0.04-0.35-0.07-0.62-0.09-1.24-0.01-0.31-0.01-0.62 0-0.09 0-0.17z"/>
				<path id="&lt;Path&gt;" class="s12" d="m105.19 83.29q0.82 0.69 1.79 1.21 0 0.05-0.01 0.09-0.02 0.08-0.05 0.16-0.03 0.08-0.06 0.16-0.03 0.1-0.07 0.19-0.07 0.19-0.15 0.37-0.24 0.65-0.5 1.3-0.03 0.1-0.08 0.18-0.96-0.45-1.86-1.01 0.1-0.32 0.2-0.64 0.1-0.34 0.2-0.68 0.05-0.17 0.1-0.34 0.03-0.08 0.05-0.17c0.07-0.18 0.13-0.34 0.26-0.49q0.07-0.13 0.14-0.26 0.02-0.04 0.04-0.07z"/>
				<path id="&lt;Path&gt;" class="s13" d="m100.79 79.1l0.18-0.11q0.17-0.11 0.37-0.17 0.14-0.07 0.29-0.15 0.13-0.06 0.26-0.14 0.08-0.03 0.15-0.07 0.32 1.03 0.82 1.98-0.12 0.12-0.24 0.22-0.13 0.18-0.32 0.32-0.05 0.04-0.09 0.08-0.11 0.08-0.21 0.15-0.19 0.16-0.4 0.3-0.37 0.27-0.73 0.53-0.31 0.23-0.61 0.44-0.64-0.8-1.1-1.71-0.09-0.17-0.16-0.35 0.07-0.05 0.13-0.11 0.32-0.25 0.66-0.49 0.33-0.24 0.67-0.49 0.16-0.12 0.33-0.23z"/>
				<path id="&lt;Path&gt;" class="s12" d="m98.32 73.21q0.45-0.08 0.9-0.14 0.65-0.11 1.3-0.17 0.32-0.03 0.65-0.02 0.08 0 0.17 0-0.09 1.15 0.03 2.39-0.21 0.02-0.42 0.05-0.48 0.05-0.96 0.09-0.91 0.09-1.82 0.24-0.03 0-0.05 0.01 0.01-1.23 0.2-2.45z"/>
				<path id="&lt;Path&gt;" class="s13" d="m100.53 66.53q0.25 0.08 0.5 0.17 0.67 0.23 1.34 0.43 0.34 0.09 0.67 0.19 0.17 0.04 0.34 0.1-0.85 1.1-1.36 2.41-0.22-0.09-0.45-0.17-1.07-0.38-2.11-0.83-0.01-0.01-0.01-0.01 0.44-1.19 1.08-2.29z"/>
				<path id="&lt;Path&gt;" class="s12" d="m104.22 62.44q0.11 0.05 0.22 0.11c0.84 0.42 1.75 1.19 2.36 2.04q-1.04 0.53-1.89 1.23c-0.93-0.5-1.78-1.07-2.71-1.59q0.83-0.93 1.85-1.67 0.08-0.06 0.17-0.12z"/>
				<path id="&lt;Path&gt;" class="s16" d="m110.17 79.23q0.02-0.05 0.03-0.09 0.73 0.49 1.56 0.79-0.39 0.97-0.83 1.91-0.27 0.54-0.59 1.02-0.79-0.25-1.5-0.64 0.18-0.32 0.34-0.65 0.55-1.15 0.99-2.34z"/>
				<path id="&lt;Path&gt;" class="s16" d="m114.04 80.46c0.57 0.06 1.13 0.09 1.64 0.03q0.15-0.01 0.3-0.03 0.03 0.08 0.03 0.15 0.01 0.28 0.01 0.55-0.01 0.61-0.1 1.22-0.07 0.48-0.22 0.95-1 0.13-1.99 0.11 0.01-0.03 0.02-0.05 0.12-0.45 0.19-0.9 0.07-0.37 0.11-0.76 0.03-0.37 0.03-0.73-0.01-0.22-0.02-0.43 0-0.06 0-0.11z"/>
				<path id="&lt;Path&gt;" class="s16" d="m106.82 77.94l0.37-0.23c0.18-0.12 0.36-0.24 0.56-0.31q0.18-0.06 0.37-0.03 0.09-0.02 0.18-0.05 0.38 0.52 0.83 0.96-0.02 0.02-0.04 0.05-0.1 0.11-0.19 0.22-0.06 0.2-0.2 0.35c-0.15 0.17-0.37 0.3-0.56 0.43q-0.2 0.14-0.39 0.27-0.17 0.14-0.36 0.26-0.18 0.11-0.36 0.22l-0.58 0.37q-0.19-0.18-0.37-0.38-0.42-0.47-0.72-1.05 0.37-0.3 0.76-0.59 0.16-0.13 0.34-0.25 0.18-0.13 0.36-0.24z"/>
				<path id="&lt;Path&gt;" class="s16" d="m104.95 70.97q0.07 0 0.15 0.01 0.46 0.04 0.91 0.06 0.28 0.02 0.54 0.03 0.14 0.01 0.26 0.02c0.15 0 0.31 0 0.44 0.03q0.15 0.04 0.26 0.09 0.03 0 0.05 0.01 0.11 0.01 0.21 0.03 0.1 0.01 0.2 0.03c-0.39 0.72-0.68 1.53-0.77 2.37q-0.13 0.03-0.27 0.03-0.12 0-0.24 0-0.23 0-0.46-0.01-0.96-0.05-1.91-0.19 0.07-1.35 0.63-2.51z"/>
				<path id="&lt;Path&gt;" class="s16" d="m108.66 66.85q0.1 0.1 0.21 0.2 0.3 0.27 0.58 0.56 0.37 0.36 0.72 0.76 0.09 0.1 0.18 0.21 0.02 0.02 0.03 0.03c-0.48 0.41-0.96 0.8-1.4 1.26q-0.01-0.01-0.03-0.02-0.27-0.18-0.52-0.38-0.16-0.13-0.33-0.25-0.33-0.26-0.65-0.53-0.24-0.21-0.49-0.44 0.79-0.78 1.7-1.4z"/>
				<path id="&lt;Path&gt;" class="s12" d="m116.2 75.77q0.13-0.12 0.25-0.25c0.41-0.48 0.64-1.12 0.57-1.75-0.06-0.44-0.26-0.84-0.52-1.19-0.24-0.33-0.53-0.34-0.93-0.34-0.79-0.01-1.6 0.33-2.14 0.92-0.28 0.3-0.49 0.68-0.56 1.09-0.15 0.84 0.12 2.01 1.1 2.21 0.75 0.15 1.66-0.21 2.23-0.69z"/>
			</g>
			<path id="&lt;Path&gt;" class="s14" d="m132.39 56.86c2.04-0.57 1.11-2.47-0.47-2.52-1.37-0.04-2.18 1.56-1.13 2.32 0.43 0.31 1.04 0.35 1.6 0.2z"/>
			<path id="&lt;Path&gt;" class="s14" d="m94.95 10.52c-2.8 0.66-1.34 3.54 0.88 3.75 1.91 0.17 2.9-2.11 1.37-3.33-0.62-0.49-1.48-0.6-2.25-0.42z"/>
			<path id="&lt;Path&gt;" class="s15" d="m81.78 105.33c2.97 1.64 6.11-2.8 2.83-4.38-2.74-1.32-5.89 2.68-2.83 4.38z"/>
			<path id="&lt;Path&gt;" class="s16" d="m84.33 104.56c0.31-0.23 0.36-0.29 0.56-0.61q0.01-0.02 0.02-0.05c0.05-0.1 0.12-0.25 0.14-0.39q0-0.01 0-0.01v-0.01q0.02-0.18 0.04-0.37 0-0.01 0-0.03-0.01-0.22-0.07-0.43c-0.04-0.12-0.22-0.45-0.19-0.41q-0.06-0.07-0.13-0.15-0.06-0.08-0.13-0.16 0 0-0.01-0.01-0.01-0.01-0.03-0.02c-0.03-0.02-0.24-0.19-0.37-0.24q-0.01-0.01-0.03-0.02c-0.1-0.04-0.25-0.09-0.36-0.13q-0.01 0-0.02 0-0.03-0.01-0.06-0.02-0.2-0.02-0.4-0.03-0.02 0-0.04 0-0.29 0-0.55 0.14-0.28 0.11-0.47 0.34-0.11 0.15-0.22 0.31-0.14 0.25-0.14 0.53-0.04 0.19 0.01 0.37 0.03 0.25 0.15 0.46 0 0.04 0.01 0.08 0.02 0.25 0.16 0.45 0.11 0.18 0.26 0.31 0.01 0.01 0.02 0.02 0.14 0.12 0.3 0.21 0 0 0.01 0c0.19 0.12 0.31 0.12 0.51 0.14 0.22 0.02 0.13 0.02 0.36-0.02q0.1-0.01 0.2-0.03 0.03-0.01 0.05-0.02 0.19-0.07 0.38-0.17 0.02-0.01 0.04-0.03z"/>
			<path id="&lt;Path&gt;" class="s16" d="m93.94 111.68c2.7-0.8 3.74-4.73 1.32-6.48-0.99-0.72-2.3-0.86-3.49-0.63-1.25 0.24-2.46 0.91-3.14 1.99-1.66 2.65 0.81 4.99 3.37 5.25 0.65 0.06 1.32 0.06 1.94-0.13z"/>
			<path id="&lt;Path&gt;" class="s16" d="m126.33 100.19c2.58-0.74 1.88-4.78-0.82-4.33-1.48 0.25-2.63 1.58-1.97 3.04 0.47 1.02 1.72 1.6 2.79 1.29z"/>
			<path id="&lt;Path&gt;" class="s16" d="m81.26 108.48q-0.03-0.06-0.06-0.12c-0.42-0.69-1.46-0.95-2.11-0.46-0.97 0.72-1.04 2.41 0.12 3.01 1.47 0.76 2.67-1.16 2.05-2.43z"/>
			<path id="&lt;Path&gt;" class="s12" d="m93.1 110.4c-0.21 0.07-0.46 0.09-0.68 0.12q-0.05 0.01-0.09 0.01h-0.01q-0.34-0.01-0.67-0.07-0.05-0.01-0.09-0.02-0.32-0.09-0.63-0.23c-0.19-0.09-0.5-0.33-0.56-0.38q-0.04-0.03-0.08-0.06-0.24-0.25-0.44-0.54-0.1-0.14-0.16-0.3-0.18-0.39-0.19-0.83-0.03-0.59 0.24-1.12 0.29-0.54 0.8-0.88 0.53-0.32 1.13-0.35 0.25-0.03 0.5-0.07 0.11-0.02 0.22-0.03 0.01 0 0.03 0c0.16-0.02 0.45 0.03 0.67 0.05q0.06 0.02 0.11 0.02 0.42 0.08 0.74 0.34 0.26 0.13 0.41 0.37 0.3 0.3 0.42 0.69 0 0.03 0.01 0.05 0.04 0.28 0.09 0.55 0 0.03 0 0.05 0.02 0.55-0.23 1.05h-0.01q-0.05 0.21-0.14 0.42l-0.35 0.5q-0.42 0.47-1.04 0.66z"/>
			<path id="&lt;Path&gt;" class="s15" d="m92.33 110.53h-0.01q-0.34-0.01-0.67-0.07-0.05-0.01-0.09-0.02-0.32-0.09-0.63-0.23c-0.19-0.09-0.5-0.33-0.56-0.38q-0.04-0.03-0.08-0.06-0.24-0.25-0.44-0.54-0.1-0.14-0.16-0.3c0.66-0.92 1.41-1.77 2.14-2.63q0.27-0.33 0.56-0.65 0.01 0 0.03 0c0.16-0.02 0.45 0.03 0.67 0.05q0.06 0.02 0.11 0.02 0.42 0.08 0.74 0.34 0.26 0.13 0.41 0.37 0.3 0.3 0.42 0.69-0.4 0.5-0.78 1.01c-0.61 0.8-1.11 1.61-1.66 2.4z"/>
			<g id="&lt;Group&gt;">
				<path id="&lt;Path&gt;" class="s15" d="m110.2 109.97c2.97 1.65 6.11-2.79 2.83-4.37-2.74-1.32-5.89 2.68-2.83 4.37z"/>
				<path id="&lt;Path&gt;" class="s16" d="m112.75 109.21c0.31-0.23 0.36-0.29 0.56-0.61q0.01-0.02 0.02-0.05c0.05-0.1 0.12-0.25 0.14-0.39q0-0.01 0-0.01v-0.01q0.02-0.19 0.04-0.37 0-0.01 0-0.03-0.01-0.22-0.07-0.43c-0.03-0.13-0.22-0.45-0.19-0.41q-0.06-0.07-0.12-0.15-0.07-0.08-0.14-0.16 0 0-0.01-0.01-0.01-0.01-0.02-0.02c-0.04-0.02-0.25-0.19-0.37-0.25q-0.02 0-0.03-0.01c-0.11-0.04-0.26-0.09-0.37-0.13q-0.01 0-0.02 0-0.03-0.01-0.06-0.02-0.2-0.02-0.4-0.03-0.02 0-0.04 0-0.29 0-0.54 0.14-0.28 0.1-0.48 0.34-0.11 0.15-0.21 0.31-0.15 0.25-0.15 0.53-0.04 0.19 0.02 0.37 0.02 0.25 0.15 0.46-0.01 0.04 0 0.08 0.02 0.25 0.16 0.45 0.11 0.18 0.26 0.31 0.01 0.01 0.02 0.02 0.14 0.12 0.3 0.21 0.01 0 0.01 0c0.19 0.12 0.31 0.12 0.51 0.14 0.22 0.02 0.14 0.02 0.36-0.02q0.1-0.01 0.2-0.03 0.03-0.01 0.05-0.02 0.2-0.07 0.38-0.17 0.02-0.01 0.04-0.03z"/>
			</g>
			<path id="&lt;Path&gt;" class="s16" d="m104.56 112.15q-0.06 0.02-0.13 0.05c-0.75 0.29-1.18 1.26-0.82 1.98 0.54 1.09 2.19 1.46 2.99 0.42 1-1.31-0.68-2.84-2.04-2.45z"/>
			<g id="&lt;Group&gt;">
				<path id="&lt;Path&gt;" class="s16" d="m123.39 113.99c2.69-0.8 3.73-4.74 1.31-6.49-0.98-0.71-2.3-0.86-3.49-0.63-1.25 0.24-2.46 0.91-3.14 1.99-1.66 2.66 0.81 4.99 3.37 5.25 0.65 0.07 1.32 0.07 1.95-0.12z"/>
				<path id="&lt;Path&gt;" class="s12" d="m122.55 112.7c-0.22 0.07-0.47 0.09-0.69 0.12q-0.05 0.01-0.09 0.01h-0.01q-0.34 0-0.67-0.07-0.05 0-0.09-0.02-0.32-0.08-0.63-0.23c-0.19-0.09-0.49-0.33-0.56-0.38q-0.04-0.03-0.08-0.06-0.24-0.25-0.44-0.53-0.1-0.15-0.16-0.3-0.18-0.4-0.19-0.83-0.03-0.6 0.24-1.13 0.29-0.53 0.8-0.87 0.53-0.32 1.13-0.36 0.25-0.03 0.5-0.06 0.11-0.03 0.22-0.03 0.02-0.01 0.03-0.01c0.17-0.01 0.45 0.04 0.67 0.06q0.06 0.01 0.11 0.01 0.42 0.08 0.74 0.35 0.26 0.13 0.41 0.37 0.3 0.3 0.42 0.69 0 0.02 0.01 0.04 0.04 0.29 0.09 0.55 0 0.03 0 0.06 0.02 0.55-0.23 1.04l-0.01 0.01q-0.05 0.21-0.14 0.41l-0.35 0.5q-0.42 0.47-1.03 0.66z"/>
				<path id="&lt;Path&gt;" class="s15" d="m121.77 112.83h-0.01q-0.34 0-0.67-0.07-0.05 0-0.09-0.02-0.32-0.08-0.63-0.23c-0.19-0.09-0.49-0.33-0.56-0.38q-0.04-0.03-0.08-0.06-0.24-0.25-0.44-0.53-0.1-0.15-0.16-0.3c0.66-0.92 1.41-1.78 2.14-2.63q0.28-0.33 0.56-0.65 0.02-0.01 0.03-0.01c0.17-0.01 0.45 0.04 0.67 0.06q0.06 0.01 0.11 0.01 0.42 0.08 0.74 0.35 0.26 0.13 0.41 0.37 0.3 0.3 0.42 0.69-0.4 0.5-0.78 1.01c-0.61 0.79-1.11 1.6-1.66 2.39z"/>
			</g>
			<g id="&lt;Group&gt;">
				<path id="&lt;Path&gt;" class="s1" d="m126.18 53.18q-0.01-0.07-0.02-0.13-0.03-0.2-0.06-0.4c-0.45-2.57-1.48-4.81-2.91-6.25-2.33-2.33-5.1-3.56-8.02-3.56-2.63 0-4.76 0.97-6.08 1.78q-1.08 0.67-1.82 1.43-0.35-0.34-0.74-0.66-0.01 0-0.01 0-0.41-0.34-0.89-0.65l5.27-15.1c0.91-2.62 0.5-5.54-1.12-7.8-1.6-2.25-4.21-3.59-6.98-3.59q-0.01 0-0.03 0l-15.98 0.07c-2.63 0.02-5.08 1.21-6.7 3.28l-7.37 9.38q-1.21-1.08-2.75-1.88 0.23-0.12 0.45-0.25 1.04-0.63 1.58-1.53c0.25-0.4 0.47-0.91 0.71-1.59 0 0 0.9-2.61 1.02-2.96q0.54-1.58-0.01-2.9c-0.28-0.68-0.92-1.58-2.37-2.09q-1.1-0.38-2.75-0.38-1.29 0-2.39 0.26-0.95 0.22-1.73 0.63c-0.91-0.6-2.11-0.89-3.74-0.89q-1.2 0-2.19 0.25-0.9 0.23-1.64 0.65-0.56-0.35-1.31-0.58-1.04-0.32-2.37-0.32-1.57 0-2.87 0.42-0.61 0.2-1.12 0.47c-0.91-0.6-2.11-0.89-3.74-0.89q-1.19 0-2.19 0.25-1.11 0.28-1.98 0.85-0.96 0.63-1.47 1.43-0.38 0.6-0.68 1.48c0 0-1.24 3.57-1.24 3.57l-0.83 2.39-0.4 1.14-0.42 1.23h5.21c-4.25 2.3-7.37 6.18-9.25 11.55l-1.09 3.11q-0.3 0.86-0.41 1.75 0 0.01 0 0.02-0.02 0.16-0.04 0.31 0 0.04 0 0.08-0.01 0.13-0.02 0.27 0 0.06 0 0.12-0.01 0.11-0.01 0.23 0 0.08 0 0.16 0 0.1 0.01 0.19 0 0.1 0.01 0.21 0 0.07 0.01 0.15 0.01 0.12 0.02 0.24 0 0.06 0.01 0.12 0.02 0.14 0.04 0.28 0.01 0.04 0.01 0.09 0.03 0.15 0.06 0.3 0 0.03 0.01 0.06 0.04 0.17 0.08 0.35 0 0 0 0.01 0.14 0.56 0.36 1.1-0.14 0.08-0.27 0.17-1.17 0.72-2.07 1.77-1 1.18-1.55 2.7l-1.01 2.88c-1.75 5.01-2.33 8.4-1.93 11.31 0.33 2.41 1.75 6.92 7.54 9.97 3.11 1.64 7.19 2.44 12.47 2.44h0.02q0.39 0 0.77-0.01 0.08 0 0.15 0 0.3-0.01 0.59-0.02 0.12 0 0.24 0 0.25-0.01 0.5-0.03 0.14 0 0.27-0.01 0.23-0.01 0.46-0.03 0.14-0.01 0.28-0.02 0.22-0.01 0.43-0.03 0.15-0.02 0.3-0.03 0.21-0.02 0.41-0.04 0.15-0.01 0.3-0.03 0.2-0.02 0.4-0.05 0.15-0.02 0.3-0.03 0.21-0.03 0.41-0.06 0.11-0.02 0.22-0.03 0.06-0.01 0.12-0.02 0.14-0.02 0.28-0.05 0.14-0.02 0.28-0.04 0.2-0.03 0.4-0.07 0.13-0.02 0.26-0.05 0.2-0.03 0.39-0.07 0.13-0.03 0.25-0.05 0.2-0.05 0.4-0.09 0.11-0.03 0.23-0.05 0.1-0.03 0.21-0.05 0.01 0 0.01-0.01 0.09-0.02 0.18-0.04 0.11-0.02 0.21-0.05 0.13-0.03 0.26-0.07 0.01 0 0.01 0 0.07-0.02 0.14-0.04 0.09-0.02 0.18-0.05 0.22-0.05 0.43-0.12 0.01 0 0.02 0-0.11 0.33-0.23 0.7l-2.78 8.41-0.06 0.16q-0.36-0.16-0.77-0.29-1.22-0.36-2.77-0.36-1.58 0-2.93 0.36-1.41 0.37-2.47 1.1-0.49-0.44-1.27-0.8c-0.98-0.44-2.19-0.66-3.7-0.66q-1.58 0-2.96 0.37-1.48 0.4-2.56 1.14-1.19 0.84-1.76 1.9-0.38 0.72-0.8 2l-0.94 2.89c-0.45 1.38-0.59 2.45-0.44 3.36 0.13 0.77 0.64 2.19 2.58 3.01 0.97 0.41 2.15 0.6 3.64 0.6q2.08 0 3.78-0.64 0.96-0.36 1.67-0.83 0.81 0.74 2.03 1.11 1.22 0.36 2.78 0.36 0.69 0.01 1.37-0.07 0.61-0.06 1.2-0.15c-0.17 0.41-0.34 0.76-0.52 1.17-0.21 0.47-0.39 1.02-0.55 1.51l-0.94 2.88c-0.45 1.39-0.59 2.46-0.44 3.36 0.13 0.78 0.64 2.15 2.58 2.97 0.96 0.41 2.15 0.48 3.63 0.48 0.91 0 2.54-0.04 2.54-0.04h46.9c1.08 0 2.04-0.69 2.37-1.72q0.36-1.2 0.72-2.4 0.69-2.29 1.38-4.58 0.28-0.94 0.56-1.87c0.16-0.55 0.33-0.97 0.76-1.37 0.32-0.3 0.87-0.37 1.27-0.37 0.01 0 8.63 0 8.63 0 1.08 0 2.03-0.7 2.37-1.72l3.22-9.88c0.24-0.76 0.11-1.59-0.36-2.23-0.46-0.65-1.21-1.03-2.01-1.03h-30.2l2.2-7.07h2.27q1.16 0 1.85-0.1 0.89-0.13 1.62-0.49 0.96-0.46 1.57-1.31c0.33-0.46 0.61-1.06 0.92-2.01l0.69-2.14c1.28 0.98 2.44 1.74 3.39 2.3h0.01c1.12 0.67 1.96 1.06 2.35 1.23l0.06 0.03q0.5 0.22 1.03 0.22 0.52 0 1.01-0.21l0.07-0.03c1.02-0.45 5.23-2.48 9.74-7.04 1.5-1.52 3.04-3.33 4.5-5.45q1.07-1.56 1.79-3.06 0.09-0.19 0.18-0.38 0-0.01 0-0.02c1.72-3.75 2.06-7.41 1.62-10.46z"/>
				<g id="&lt;Group&gt;">
					<g id="&lt;Group&gt;">
						<path id="&lt;Compound Path&gt;" class="s17" d="m40.97 95.96h-3.87l0.56-1.72q0.25-0.75 0.18-0.93-0.06-0.19-0.48-0.19-0.48 0-0.68 0.23-0.21 0.23-0.45 0.98l-1.49 4.58q-0.24 0.72-0.18 0.94 0.05 0.22 0.5 0.22 0.44 0 0.64-0.22 0.21-0.22 0.47-1.03l0.41-1.24h3.86l-0.13 0.38q-0.5 1.54-1.03 2.18-0.54 0.64-1.81 1.12-1.27 0.48-2.9 0.48-1.7 0-2.67-0.41-0.97-0.4-1.09-1.13-0.12-0.72 0.35-2.17l0.94-2.89q0.35-1.06 0.63-1.6 0.29-0.53 0.99-1.03 0.71-0.49 1.77-0.77 1.06-0.29 2.32-0.29 1.71 0 2.67 0.44 0.97 0.44 1.11 1.09 0.13 0.66-0.32 2.04z"/>
						<path id="&lt;Compound Path&gt;" class="s17" d="m50.7 97.44q-0.49 1.49-0.8 2.11-0.3 0.62-1.03 1.13-0.72 0.51-1.75 0.79-1.04 0.27-2.29 0.27-1.2 0-2.06-0.26-0.87-0.25-1.28-0.77-0.41-0.52-0.32-1.13 0.09-0.61 0.59-2.14l0.55-1.69q0.48-1.49 0.79-2.11 0.31-0.61 1.03-1.13 0.72-0.51 1.76-0.78 1.03-0.28 2.29-0.28 1.19 0 2.06 0.26 0.86 0.26 1.27 0.78 0.41 0.52 0.32 1.13-0.09 0.61-0.58 2.13zm-2.81-3.24q0.23-0.69 0.17-0.88-0.05-0.2-0.41-0.2-0.3 0-0.51 0.16-0.21 0.16-0.46 0.92l-1.5 4.61q-0.28 0.86-0.24 1.06 0.04 0.2 0.42 0.2 0.4 0 0.58-0.23 0.19-0.23 0.47-1.1z"/>
						<path id="&lt;Compound Path&gt;" class="s17" d="m57.89 91.66l-2.58 7.9h2.35l-0.64 1.98h-6.22l3.22-9.88z"/>
						<path id="&lt;Compound Path&gt;" class="s17" d="m65.03 91.66l-2.57 7.9h2.35l-0.65 1.98h-6.21l3.22-9.88z"/>
						<path id="&lt;Compound Path&gt;" class="s17" d="m68.32 91.66h6.44l-0.64 1.98h-2.58l-0.61 1.87h2.41l-0.61 1.88h-2.41l-0.71 2.17h2.83l-0.64 1.98h-6.7z"/>
						<path id="&lt;Compound Path&gt;" class="s17" d="m83.75 95.96h-3.86l0.55-1.72q0.25-0.75 0.18-0.93-0.06-0.19-0.48-0.19-0.48 0-0.68 0.23-0.2 0.23-0.45 0.98l-1.49 4.58q-0.24 0.72-0.18 0.94 0.06 0.22 0.51 0.22 0.43 0 0.63-0.22 0.21-0.22 0.47-1.03l0.41-1.24h3.86l-0.12 0.38q-0.5 1.54-1.04 2.18-0.53 0.64-1.81 1.12-1.27 0.48-2.9 0.48-1.7 0-2.67-0.41-0.97-0.4-1.09-1.13-0.12-0.72 0.35-2.17l0.94-2.89q0.35-1.06 0.64-1.6 0.28-0.53 0.99-1.03 0.7-0.49 1.76-0.77 1.07-0.29 2.32-0.29 1.71 0 2.68 0.44 0.96 0.44 1.1 1.09 0.13 0.66-0.32 2.04z"/>
						<path id="&lt;Compound Path&gt;" class="s17" d="m94.32 91.66l-0.65 1.98h-2.29l-2.58 7.9h-3.86l2.58-7.9h-2.29l0.64-1.98z"/>
						<path id="&lt;Compound Path&gt;" class="s17" d="m99.06 91.66l-3.22 9.88h-3.86l3.22-9.88z"/>
						<path id="&lt;Compound Path&gt;" class="s17" d="m107.56 97.44q-0.49 1.49-0.8 2.11-0.3 0.62-1.02 1.13-0.73 0.51-1.76 0.79-1.04 0.27-2.29 0.27-1.2 0-2.06-0.26-0.87-0.25-1.28-0.77-0.41-0.52-0.32-1.13 0.09-0.61 0.59-2.14l0.55-1.69q0.48-1.49 0.79-2.11 0.31-0.61 1.03-1.13 0.72-0.51 1.76-0.78 1.03-0.28 2.29-0.28 1.19 0 2.06 0.26 0.86 0.26 1.27 0.78 0.41 0.52 0.32 1.13-0.09 0.61-0.58 2.13zm-2.81-3.24q0.23-0.69 0.17-0.88-0.05-0.2-0.41-0.2-0.3 0-0.51 0.16-0.21 0.16-0.46 0.92l-1.5 4.61q-0.28 0.86-0.24 1.06 0.04 0.2 0.42 0.2 0.4 0 0.58-0.23 0.19-0.23 0.47-1.1z"/>
						<path id="&lt;Compound Path&gt;" class="s17" d="m119.51 91.66l-3.22 9.88h-3.39l-0.54-4.49-1.47 4.49h-3.23l3.22-9.88h3.23l0.72 4.45 1.45-4.45z"/>
					</g>
					<g id="&lt;Group&gt;">
						<path id="&lt;Compound Path&gt;" class="s17" d="m57.56 108.28h-3.86l0.56-1.72q0.24-0.75 0.18-0.94-0.07-0.18-0.49-0.18-0.47 0-0.68 0.22-0.2 0.23-0.44 0.98l-1.5 4.59q-0.23 0.72-0.18 0.94 0.06 0.22 0.51 0.22 0.43 0 0.64-0.22 0.2-0.22 0.47-1.04l0.4-1.24h3.87l-0.13 0.39q-0.5 1.53-1.03 2.17-0.54 0.64-1.81 1.13-1.27 0.48-2.91 0.48-1.7 0-2.66-0.41-0.97-0.41-1.09-1.13-0.13-0.72 0.35-2.18l0.94-2.88q0.35-1.07 0.63-1.6 0.28-0.54 0.99-1.03 0.71-0.5 1.77-0.78 1.06-0.28 2.32-0.28 1.7 0 2.67 0.44 0.97 0.43 1.1 1.09 0.14 0.65-0.31 2.04z"/>
						<path id="&lt;Compound Path&gt;" class="s17" d="m60.35 103.98h6.44l-0.64 1.97h-2.58l-0.61 1.87h2.41l-0.61 1.88h-2.41l-0.71 2.18h2.83l-0.64 1.97h-6.7z"/>
						<path id="&lt;Compound Path&gt;" class="s17" d="m76.78 103.98l-3.21 9.87h-3.39l-0.55-4.49-1.46 4.49h-3.23l3.22-9.87h3.23l0.72 4.44 1.44-4.44z"/>
						<path id="&lt;Compound Path&gt;" class="s17" d="m86.12 103.98l-0.65 1.97h-2.29l-2.57 7.9h-3.87l2.58-7.9h-2.29l0.65-1.97z"/>
						<path id="&lt;Compound Path&gt;" class="s17" d="m87 103.98h2.73q2.74 0 3.66 0.14 0.92 0.14 1.35 0.71 0.42 0.58 0.01 1.84-0.38 1.15-0.94 1.55-0.56 0.4-1.85 0.48 1.08 0.19 1.37 0.5 0.3 0.32 0.31 0.59 0.01 0.26-0.38 1.46l-0.85 2.6h-3.59l1.07-3.28q0.26-0.79 0.13-0.98-0.13-0.19-0.92-0.19l-1.46 4.45h-3.86zm3.31 1.69l-0.71 2.2q0.65 0 0.95-0.12 0.3-0.12 0.51-0.77l0.18-0.55q0.15-0.47-0.05-0.61-0.21-0.15-0.88-0.15z"/>
						<path id="&lt;Compound Path&gt;" class="s17" d="m97.12 103.98h6.44l-0.64 1.97h-2.58l-0.61 1.87h2.41l-0.61 1.88h-2.41l-0.71 2.18h2.84l-0.65 1.97h-6.7z"/>
					</g>
				</g>
				<g id="&lt;Group&gt;">
					<g id="&lt;Group&gt;">
						<path id="&lt;Compound Path&gt;" class="s18" d="m107.76 23.29c-1.15-1.61-3.01-2.56-4.98-2.55l-15.98 0.07c-1.86 0.01-3.61 0.87-4.76 2.33l-9.2 11.72q-0.38-0.56-0.78-1.02 0 0 0 0c-2.76-3.23-7.52-4.67-15.4-4.67-5.57-0.01-9.93 0.79-13.33 2.43-4.03 1.94-6.97 5.48-8.73 10.51l-1.09 3.11c-0.65 1.86-0.37 3.92 0.77 5.53q0.44 0.61 1 1.09c-2.5 0.09-4.69 1.7-5.52 4.06l-1.01 2.88c-1.6 4.56-2.16 7.68-1.82 10.15 0.33 2.37 1.68 5.7 6.23 8.1 2.75 1.45 6.45 2.16 11.31 2.16q0.01 0 0.02 0c4.01 0 7.59-0.53 10.64-1.57 3.42-1.17 6.24-2.97 8.37-5.34 2-2.22 3.6-5.1 4.89-8.79q0.09-0.25 0.17-0.49l3.41-0.01c-0.06 1.34 0.33 2.69 1.13 3.82 1.14 1.6 2.98 2.55 4.95 2.55q0.01 0 0.03 0l12.06-0.06c2.58-0.01 4.87-1.64 5.72-4.08l0.84-2.41c2.2-0.33 4.08-1.86 4.83-4.01l2.16-6.21c0.65-1.86 0.36-3.92-0.79-5.53q-0.23-0.32-0.49-0.61l6.14-17.63c0.65-1.86 0.36-3.92-0.79-5.53zm-0.71 5.01l-6.49 18.63q0.6 0.43 1.05 1.05c0.85 1.19 1.06 2.71 0.58 4.09l-2.16 6.21c-0.63 1.8-2.32 3-4.22 3.01h-0.26l-1.19 3.41c-0.63 1.8-2.32 3.01-4.22 3.02l-12.07 0.05q-0.01 0-0.02 0c-1.45 0-2.82-0.7-3.66-1.88-0.85-1.19-1.07-2.72-0.59-4.1l0.15-0.4-6.54 0.03q-0.23 0.74-0.52 1.55c-1.22 3.49-2.72 6.19-4.57 8.25-1.95 2.17-4.54 3.82-7.7 4.89-2.89 0.99-6.3 1.49-10.13 1.49q-0.01 0-0.02 0c-4.59 0-8.05-0.65-10.57-1.97-3.96-2.09-5.12-4.92-5.4-6.92-0.3-2.2 0.24-5.1 1.75-9.4l1.01-2.88c0.63-1.8 2.33-3.01 4.24-3.01q0 0 0 0h5.96l0.6-1.69h-2.82c-1.45 0-2.82-0.71-3.66-1.9-0.84-1.19-1.06-2.71-0.57-4.09l1.08-3.1c1.63-4.63 4.29-7.86 7.93-9.61 3.17-1.53 7.3-2.28 12.61-2.28q0.01 0 0.02 0c7.39 0.01 11.77 1.28 14.2 4.12q0 0 0.01 0c0.64 0.75 1.26 1.71 1.71 2.9l10.72-13.65c0.85-1.08 2.14-1.72 3.52-1.72l15.98-0.07q0.01 0 0.02 0c1.45 0 2.81 0.7 3.66 1.88 0.84 1.19 1.06 2.71 0.58 4.09z"/>
						<path id="&lt;Path&gt;" class="s18" d="m67.44 37.79q-2.18-2.54-10.79-2.54-6.88 0-10.68 1.83-3.8 1.83-5.63 7.05l-1.09 3.1 12.04 0.01 1.04-2.99q0.74-2.1 1.42-2.74 0.69-0.64 1.94-0.64 1.11 0 1.41 0.61 0.31 0.61-0.36 2.52l-0.71 2.02q-0.62 1.78-1.36 2.61-0.74 0.84-1.84 1.08-1.1 0.25-5.39 0.25l-1.85 5.28q3.5 0.05 4.61 0.35 1.12 0.31 1.4 1.28 0.29 0.96-0.44 3.06l-0.89 2.52q-1.2 3.41-1.93 4.22-0.73 0.81-2.13 0.81-1.28 0-1.43-0.64-0.15-0.64 0.68-3l2.08-5.92h-12.04l-1.01 2.88q-1.82 5.19-1.53 7.3 0.29 2.1 3.04 3.55 2.76 1.45 8.48 1.46 5.03 0 8.69-1.25 3.66-1.25 5.81-3.64 2.15-2.4 3.67-6.74 2.05-5.85 1.27-7.44-0.78-1.59-3.28-2.29 3.16-1.12 4.74-2.48 1.58-1.36 2.66-4.42 1.58-4.51-0.6-7.06z"/>
					</g>
					<path id="&lt;Compound Path&gt;" class="s18" d="m102.81 26.82l-8.3 23.79 3.44-0.02-2.16 6.21-3.44 0.01-2.23 6.41-12.07 0.05 2.23-6.4-14.34 0.06 2.17-6.2 18.72-23.84zm-20.36 23.84l5.4-15.49-10.74 15.52z"/>
					<g id="&lt;Group&gt;">
						<g id="&lt;Group&gt;">
							<path id="&lt;Compound Path&gt;" class="s12" d="m46.65 26.02l-0.42 1.23h-6.44l0.36-1.03q3.86-2.88 4.63-3.56 0.78-0.69 0.91-1.07 0.1-0.29-0.01-0.44-0.11-0.14-0.45-0.14-0.33 0-0.55 0.16-0.22 0.16-0.38 0.63l-0.24 0.69h-2.62l0.09-0.26q0.21-0.61 0.44-0.96 0.22-0.35 0.73-0.69 0.52-0.34 1.22-0.51 0.69-0.17 1.58-0.17 1.75 0 2.46 0.53 0.7 0.53 0.42 1.35-0.21 0.62-0.95 1.31-0.75 0.69-3.98 2.93z"/>
							<path id="&lt;Compound Path&gt;" class="s19" d="m55.84 22.48l-0.84 2.4q-0.28 0.82-0.55 1.19-0.28 0.38-0.85 0.7-0.57 0.33-1.26 0.47-0.69 0.14-1.49 0.14-1.05 0-1.69-0.15-0.64-0.15-0.95-0.46-0.3-0.32-0.35-0.67-0.05-0.35 0.21-1.11l0.87-2.51q0.35-1 0.79-1.49 0.45-0.5 1.39-0.79 0.93-0.3 2.11-0.3 0.96 0 1.65 0.2 0.69 0.21 0.96 0.51 0.27 0.3 0.28 0.67 0 0.38-0.28 1.2zm-2.72-0.61q0.2-0.57 0.16-0.72-0.04-0.14-0.37-0.14-0.33 0-0.49 0.15-0.15 0.15-0.35 0.71l-1.21 3.52q-0.22 0.63-0.17 0.76 0.05 0.12 0.38 0.12 0.32 0 0.48-0.15 0.15-0.15 0.34-0.68z"/>
							<path id="&lt;Compound Path&gt;" class="s12" d="m61.89 26.02l-0.43 1.23h-6.43l0.36-1.03q3.85-2.88 4.63-3.56 0.77-0.69 0.91-1.07 0.1-0.29-0.02-0.44-0.11-0.14-0.44-0.14-0.33 0-0.55 0.16-0.22 0.16-0.39 0.63l-0.23 0.69h-2.62l0.09-0.26q0.21-0.61 0.43-0.96 0.22-0.35 0.74-0.69 0.51-0.34 1.21-0.51 0.7-0.17 1.59-0.17 1.74 0 2.45 0.53 0.71 0.53 0.43 1.35-0.22 0.62-0.96 1.31-0.74 0.69-3.98 2.93z"/>
							<path id="&lt;Compound Path&gt;" class="s19" d="m71.38 21.95h-2.93q0.18-0.5 0.2-0.63 0.03-0.14-0.09-0.22-0.13-0.09-0.4-0.09-0.22 0-0.39 0.08-0.18 0.09-0.25 0.22-0.06 0.13-0.2 0.54l-0.4 1.15q0.32-0.29 0.81-0.44 0.48-0.14 1.12-0.14 0.8 0 1.32 0.26 0.53 0.27 0.56 0.65 0.04 0.37-0.18 1.01l-0.2 0.57q-0.26 0.76-0.48 1.13-0.23 0.37-0.74 0.68-0.52 0.32-1.3 0.49-0.77 0.17-1.72 0.17-1.18 0-1.86-0.2-0.68-0.2-0.96-0.57-0.28-0.38-0.2-0.79 0.07-0.42 0.49-1.61l0.34-1q0.45-1.29 0.66-1.72 0.21-0.44 0.79-0.82 0.57-0.39 1.4-0.58 0.83-0.2 1.83-0.2 1.23 0 1.93 0.25 0.71 0.24 0.89 0.69 0.19 0.44-0.04 1.12zm-3.71 2.25q0.14-0.38 0.05-0.53-0.09-0.14-0.4-0.14-0.31 0-0.49 0.14-0.19 0.13-0.33 0.53l-0.45 1.3q-0.17 0.48-0.08 0.63 0.08 0.14 0.39 0.14 0.19 0 0.43-0.11 0.24-0.11 0.42-0.61z"/>
						</g>
					</g>
					<g id="&lt;Group&gt;">
						<g id="&lt;Group&gt;">
							<path id="&lt;Compound Path&gt;" class="s8" d="m69.82 74.95h-2.72l0.22-0.67q0.2-0.63 0.17-0.79-0.02-0.16-0.31-0.16-0.25 0-0.39 0.14-0.13 0.13-0.32 0.7l-1.14 3.53q-0.17 0.5-0.13 0.65 0.04 0.16 0.31 0.16 0.3 0 0.47-0.18 0.16-0.18 0.33-0.69l0.28-0.87h-0.55l0.37-1.12h3.18l-1.29 3.95h-1.7l-0.08-0.53q-0.39 0.34-0.87 0.51-0.48 0.18-1.05 0.18-0.69 0-1.21-0.24-0.52-0.23-0.72-0.58-0.2-0.34-0.15-0.72 0.04-0.38 0.29-1.14l0.71-2.19q0.34-1.05 0.66-1.53 0.32-0.48 1.21-0.88 0.9-0.4 2.11-0.4 1.19 0 1.87 0.35 0.67 0.35 0.76 0.82 0.08 0.48-0.21 1.38z"/>
							<path id="&lt;Compound Path&gt;" class="s5" d="m71.75 72.24h1.92q1.93 0 2.58 0.1 0.64 0.11 0.93 0.54 0.29 0.43-0.01 1.37-0.28 0.86-0.68 1.15-0.4 0.3-1.31 0.36 0.76 0.14 0.96 0.38 0.2 0.23 0.2 0.43 0.01 0.2-0.28 1.09l-0.63 1.94h-2.53l0.8-2.45q0.19-0.59 0.1-0.73-0.08-0.14-0.65-0.14l-1.07 3.32h-2.72zm2.31 1.26l-0.54 1.64q0.46 0 0.68-0.09 0.21-0.09 0.37-0.58l0.13-0.4q0.11-0.35-0.03-0.46-0.14-0.11-0.61-0.11z"/>
							<path id="&lt;Compound Path&gt;" class="s20" d="m83.57 72.24l-0.84 7.36h-2.78l0.29-1.32h-0.97l-0.6 1.32h-2.81l3.78-7.36zm-2.98 4.73q0.2-1.25 0.59-3.09-1.1 2.12-1.52 3.09z"/>
							<path id="&lt;Compound Path&gt;" class="s21" d="m91.66 72.24l-2.4 7.36h-2.38l-0.32-3.35-1.09 3.35h-2.28l2.4-7.36h2.27l0.45 3.31 1.07-3.31z"/>
							<path id="&lt;Compound Path&gt;" class="s2" d="m92.75 72.24h2.03q1.97 0 2.62 0.13 0.66 0.12 0.92 0.41 0.27 0.3 0.24 0.65-0.02 0.36-0.36 1.41l-0.84 2.57q-0.32 1-0.56 1.33-0.24 0.33-0.63 0.52-0.39 0.19-0.9 0.27-0.51 0.07-1.49 0.07h-3.42zm2.3 1.26l-1.57 4.84q0.59 0 0.78-0.16 0.19-0.17 0.43-0.91l0.93-2.86q0.16-0.5 0.16-0.64 0-0.14-0.14-0.2-0.14-0.07-0.59-0.07z"/>
						</g>
					</g>
					<g id="&lt;Group&gt;">
						<g id="&lt;Group&gt;">
							<path id="&lt;Compound Path&gt;" class="s2" d="m56.91 81.73h4.61l-0.48 1.47h-1.89l-0.45 1.4h1.68l-0.46 1.4h-1.67l-1.01 3.09h-2.72z"/>
							<path id="&lt;Compound Path&gt;" class="s21" d="m64.89 81.73l-2.39 7.36h-2.72l2.4-7.36z"/>
							<path id="&lt;Compound Path&gt;" class="s20" d="m72.06 81.73l-2.4 7.36h-2.38l-0.33-3.35-1.08 3.35h-2.28l2.4-7.36h2.27l0.45 3.31 1.07-3.31z"/>
							<path id="&lt;Compound Path&gt;" class="s5" d="m77.85 81.73l-0.84 7.36h-2.78l0.28-1.32h-0.97l-0.59 1.32h-2.81l3.78-7.36zm-2.98 4.73q0.2-1.25 0.59-3.09-1.1 2.11-1.53 3.09z"/>
							<g id="&lt;Group&gt;">
								<path id="&lt;Compound Path&gt;" class="s5" d="m82.55 81.72l-1.92 5.89h1.63l-0.48 1.48h-4.31l2.39-7.37z"/>
								<path id="&lt;Compound Path&gt;" class="s8" d="m84.83 81.72h4.47l-0.48 1.48h-1.79l-0.45 1.39h1.67l-0.45 1.4h-1.68l-0.53 1.62h1.97l-0.48 1.48h-4.65z"/>
							</g>
						</g>
					</g>
					<g id="&lt;Group&gt;">
						<g id="&lt;Group&gt;">
							<g id="&lt;Group&gt;">
								<g id="&lt;Group&gt;">
									<path id="&lt;Path&gt;" class="s22" d="m121.42 48.17c-3.99-3.99-8.32-3.08-11.03-1.42-2.46 1.51-3.04 3.79-3.12 4.19-0.08-0.4-0.66-2.68-3.12-4.19-2.71-1.66-7.04-2.57-11.03 1.42-2.58 2.58-4.18 10.18 0.88 17.52 5.53 8 12.14 11.15 13.2 11.61l0.07 0.03 0.07-0.03c1.06-0.46 7.67-3.61 13.2-11.61 5.05-7.34 3.46-14.94 0.88-17.52z"/>
								</g>
							</g>
						</g>
						<g id="&lt;Group&gt;">
							<g id="&lt;Group&gt;">
								<g id="&lt;Group&gt;">
									<g id="&lt;Group&gt;">
										<path id="&lt;Path&gt;" class="s18" d="m106.79 56.37c0.05-0.01 0.14-0.01 0.41 0.03 0.1 0.55-0.1 0.94-0.25 1.1-0.17 0.13-0.26 0.15-0.4 0.13-0.9-0.09-0.39-2.36-0.4-3.29q-0.18-0.02-0.36-0.04c0-0.29 0.01-0.48 0.03-0.78q0.17 0.01 0.33 0.02 0.04-0.96 0.07-1.92 0.21 0.04 0.43 0.08 0 0.01 0 0.02c-0.06 0.81-0.09 1.2-0.14 1.85 0.18 0.04 0.41 0.1 0.59 0.13 0-0.01-0.01 0.47-0.04 0.71-0.31-0.03-0.53-0.05-0.53-0.05-0.02 0.73-0.29 2.63 0.17 2.36 0.13-0.1 0.08-0.27 0.09-0.35z"/>
										<path id="&lt;Path&gt;" class="s18" d="m95.06 51.85q0.23 0 0.45 0.01c0 0.73-0.03 1.53-0.01 2.28 0.14-0.07 0.2-0.13 0.53-0.1 0.28 0.16 0.4 0.47 0.47 0.87 0.07 0.43 0.14 2.75 0.07 2.9-0.11-0.01-0.27-0.01-0.4-0.03-0.06-0.92 0.06-1.71-0.03-2.72-0.04-0.39-0.23-0.32-0.32-0.33-0.15 0.02-0.2 0.06-0.25 0.18-0.12 0.76 0.01 2.13-0.06 2.81-0.12 0.03-0.26 0-0.39-0.01 0-1.11 0.07-2.34 0.03-3.47-0.02-0.57-0.07-1.84-0.09-2.39z"/>
										<path id="&lt;Path&gt;" class="s18" d="m94.02 51.9q0.19 0 0.38 0 0.01 0.93 0.02 1.85c0.18 0.01 0.32 0 0.48 0.02 0.01 0.21 0.01 0.46 0.02 0.67q-0.01 0.03-0.02 0.06-0.28 0.02-0.55 0.05c0.01 0.75-0.18 2.25 0.13 2.37 0.21 0.02 0.22-0.33 0.25-0.34 0.09-0.01 0.17-0.01 0.34 0 0 0.43-0.11 1.04-0.41 1.18-1.06 0.47-0.69-1.69-0.66-3.24q-0.2 0-0.4 0 0-0.41 0-0.82 0.2-0.01 0.4-0.03 0.01-0.88 0.02-1.77z"/>
										<path id="&lt;Path&gt;" class="s18" d="m112.54 51.9c0.17 0.01 0.39 0 0.55 0.01-0.01 0.75-0.11 1.57-0.02 2.3 0.12-0.07 0.42-0.18 0.64-0.11 0.51 0.16 0.69 0.85 0.64 1.94-0.02 0.37 0.11 1.13 0.1 1.82-0.14-0.01-0.38 0-0.52-0.01-0.1-0.45 0.1-2.8-0.09-2.93-0.16-0.21-0.42-0.22-0.6-0.09-0.28 0.17-0.12 1.77-0.13 2.93-0.15-0.01-0.34 0-0.49-0.01 0.02-1.18 0.09-1.87 0.04-3.09-0.04-0.91-0.14-1.83-0.12-2.76z"/>
										<path id="&lt;Path&gt;" class="s18" d="m118.94 56.83c0.03 0.73-0.02 1.17-0.6 1.16-0.84-0.04-0.39-2.48-0.4-3.13q-0.17-0.02-0.35-0.03 0.02-0.37 0.03-0.75c0.13 0.01 0.19 0.02 0.32 0.02 0.03-0.59 0.05-1.22 0.08-1.81q0.2 0.02 0.4 0.05c-0.04 0.5-0.1 1.06-0.11 1.82 0.17 0.02 0.38 0.07 0.55 0.09q0.01 0.07 0.01 0.14-0.03 0.27-0.05 0.54-0.25-0.02-0.5-0.05c-0.04 0.8-0.05 1.03-0.08 1.65-0.03 0.67 0.07 0.64 0.18 0.64 0.13-0.01 0.15-0.21 0.17-0.36q0.18 0.01 0.35 0.02z"/>
										<path id="&lt;Path&gt;" class="s18" d="m102.08 53.92c-0.01 0.29-0.03 0.6-0.03 0.88-0.1 0.02-0.41 0.11-0.51 0.31-0.16 0.86-0.07 1.48-0.04 2.52q-0.02 0-0.03 0-0.24-0.03-0.47-0.05 0-0.08 0-0.16c0.09-1.25 0.12-2.32 0.12-3.44q0.18 0 0.35 0 0 0.26 0 0.52 0.03-0.02 0.05-0.03c0.07-0.24 0.27-0.53 0.56-0.55z"/>
										<path id="&lt;Path&gt;" class="s18" d="m112.39 54.03q0.01 0.43 0 0.86c-1.23-0.14-1.23 2.11-0.17 2.12q0.01 0.38 0.02 0.75c-1.95 0.26-1.61-4.01 0.15-3.73z"/>
										<path id="&lt;Path&gt;" class="s18" d="m110.97 54.06q-0.01 0.42-0.02 0.85c-1.05-0.03-0.49 2.27-0.57 2.82-0.18-0.01-0.38-0.03-0.56-0.05 0.12-0.72 0.13-2.84 0.12-3.59 0.07-0.01 0.17-0.01 0.41-0.01q-0.01 0.26-0.02 0.51 0.02 0.02 0.04 0c0.11-0.26 0.27-0.53 0.6-0.53z"/>
										<path id="&lt;Path&gt;" class="s18" d="m119.27 54.11q0.18 0 0.37 0c0 0.16-0.01 0.24 0.01 0.44 0.15-0.18 0.25-0.38 0.54-0.41q-0.01 0.29-0.01 0.57c-0.76 0.07-0.46 1.83-0.49 3.1q-0.26 0.03-0.51 0.01c0.07-1.03 0.04-1.85 0.09-3.71z"/>
										<path id="&lt;Path&gt;" class="s18" d="m117.42 54.75c-0.31-0.04-0.66 0.17-0.26 0.99 0.47 0.82 0.61 2.28-0.82 2.15q0.02-0.31 0.03-0.62c0.94-0.08 0.59-1.12 0.46-1.31-0.22-0.35-0.83-1.9 0.66-1.68-0.02 0.15-0.05 0.33-0.07 0.47z"/>
										<path id="&lt;Compound Path&gt;" class="s18" d="m100.02 57.42c-0.2-0.09-0.45-0.12-0.47-0.25-0.05-0.54 0.21-0.05 0.5-0.18 0.15-0.07 0.29-0.28 0.35-0.39 0.31-0.61 0.33-1.51 0.17-2.28 0.05 0 0.16 0.01 0.21 0.02 0.03-0.18 0.05-0.35-0.08-0.49q-0.1-0.08-0.18-0.05c-0.06 0.04-0.11 0.04-0.15 0.28-0.99-0.45-1.3 1.4-0.97 2.39-0.19 0.09-0.36 0.21-0.36 0.46 0.01 0.31 0.12 0.39 0.23 0.52-0.27 0.15-0.27 0.55-0.16 0.75q0.17-0.07 0.38-0.23c-0.09-0.31 0.14-0.37 0.41-0.21 0.28 0.18 0.49 0.32 0.59 0.55 0.11 0.26 0.01 0.41-0.13 0.42-0.34-0.05-0.51-0.23-0.72-0.47q-0.17 0.08-0.33 0.21c0.29 0.48 1.61 1.21 1.66 0.14 0.02-0.48-0.47-0.97-0.95-1.19zm0.09-2.88c0.32 0.02 0.39 0.97-0.04 1.82-0.18 0.24-0.33 0.02-0.39-0.25-0.11-0.47-0.04-1.51 0.43-1.57z"/>
										<path id="&lt;Compound Path&gt;" class="s18" d="m102.85 55.78q0.55-0.01 1.1-0.03c-0.05-0.64-0.2-1.39-0.45-1.54-1.16-0.51-1.39 1.56-1.03 2.57 0.17 0.5 0.64 0.94 1.4 0.8q-0.02-0.33-0.04-0.66c-0.8 0.02-1.01-0.49-0.98-1.14zm0.21-1.18c0.04-0.05 0.1-0.14 0.19-0.03 0.13 0.22 0.18 0.47 0.17 0.85q-0.29 0.01-0.57 0.03c0-0.37 0.06-0.62 0.21-0.85z"/>
										<path id="&lt;Compound Path&gt;" class="s18" d="m115.07 55.93q0.59-0.01 1.17-0.02c-0.06-0.95-0.27-1.5-0.45-1.57-1.23-0.53-1.46 1.57-1.1 2.6 0.16 0.45 0.67 0.95 1.48 0.79q-0.01-0.32-0.03-0.64c-0.75 0-1.07-0.4-1.07-1.16zm0.27-1.23c0.07-0.01 0.13-0.03 0.23 0.14 0.08 0.25 0.13 0.4 0.12 0.73q-0.31 0.02-0.62 0.03c-0.01-0.02 0-0.14-0.01-0.16 0.02-0.27 0.13-0.67 0.28-0.74z"/>
										<path id="&lt;Compound Path&gt;" class="s18" d="m97.19 56.07c0.35-0.04 0.66-0.06 1.01-0.1 0-0.82-0.13-1.77-0.78-1.83q-0.31 0.04-0.47 0.25c-0.47 0.65-0.4 2.58 0.17 3.03 0.26 0.2 0.62 0.22 1.08 0.18q-0.04-0.33-0.08-0.66c-1.18 0.2-0.93-1.02-0.93-0.87zm-0.03-1.12c0.06-0.19 0.08-0.22 0.21-0.22 0.21 0.12 0.25 0.26 0.29 0.55 0 0.06 0.04 0.18 0.04 0.24q-0.29 0.07-0.58 0.13c0-0.33-0.02-0.46 0.04-0.7z"/>
										<path id="&lt;Compound Path&gt;" class="s18" d="m108.88 54.26c-1.27 0.01-1.03 2.7-0.57 3.22 0.75 0.58 1.22-0.24 1.31-1.48 0.06-0.89-0.16-1.79-0.74-1.74zm0.36 1.49c-0.03 0.6-0.16 1.39-0.57 1.24-0.25-0.09-0.35-1.04-0.27-1.55 0.07-0.26 0.15-0.53 0.37-0.61q0.17-0.07 0.31 0.13c0.09 0.13 0.17 0.59 0.16 0.79z"/>
										<path id="&lt;Compound Path&gt;" class="s18" d="m121.34 54.33c-0.56-0.55-1.03 0.02-1.1 0.76q0 0.01 0 0.02 0.2 0 0.4 0 0.02-0.16 0.03-0.33 0.09-0.07 0.17-0.13c0.3 0.05 0.31 0.5 0.28 0.8-1.3-0.11-1.31 2.08-0.63 2.39 0.39 0.08 0.5-0.08 0.68-0.26q0.01 0.15 0.02 0.31 0.25-0.02 0.5-0.03c-0.2-1.12 0.08-2.92-0.35-3.53zm-0.62 2.97c-0.22-0.13-0.34-0.51-0.19-1.08 0.06-0.2 0.38-0.34 0.61-0.44-0.08 0.62 0.19 1.61-0.42 1.52z"/>
										<path id="&lt;Compound Path&gt;" class="s18" d="m105.09 53.95q-0.14-0.09-0.31-0.04c-0.25 0.08-0.45 0.41-0.67 1.03 0.14 0.05 0.28 0.07 0.41 0.12 0.07-0.11 0.11-0.27 0.21-0.32 0.22-0.11 0.35 0.28 0.34 0.6-0.51 0.43-1.18 1.06-0.8 2.01 0.24 0.58 1.02 0.35 1.05-0.36q0.03 0 0.05 0 0 0.36 0.02 0.63 0.22 0 0.46-0.02c-0.09-1.3-0.14-3.27-0.76-3.65zm-0.09 2.99c-0.09 0.13-0.28 0.2-0.37 0.11-0.17-0.21-0.09-0.72 0.47-1.14 0.17-0.07 0.03 0.79-0.1 1.03z"/>
										<path id="&lt;Path&gt;" class="s18" d="m103.91 58.74c-0.01 0.62-0.06 1.07-0.04 2.13 0.97-0.31 1.41 0.43 1.36 0.99 0 0.49 0.02 0.7 0.02 1.06 0.04 0.38 0.17 0.9 0.13 1.4-0.16-0.01-0.41-0.01-0.57-0.02-0.14-1.3 0.2-2.84-0.36-2.87-0.86-0.05-0.45 0.68-0.55 2.82q-0.23-0.02-0.49-0.02c0.01-1.34 0.12-2.44-0.02-4.1q-0.02-0.69-0.03-1.38c0.21-0.03 0.3-0.01 0.55-0.01z"/>
										<path id="&lt;Path&gt;" class="s18" d="m110.16 58.88q0.21 0 0.43 0c-0.01 0.3-0.01 1.22-0.01 1.71 0.16 0.02 0.37 0.02 0.53 0.04q0.01 0.32 0.03 0.64-0.02 0.02-0.03 0.05-0.28 0.01-0.56 0.02c-0.03 0.69-0.11 1.76-0.02 2.1 0.03 0.12 0.13 0.2 0.24 0.14 0.12-0.09 0.09-0.15 0.14-0.31q0.2 0.01 0.41-0.01-0.01 0.03-0.01 0.06c-0.07 0.59-0.15 1.13-0.75 1.09-0.31-0.07-0.44-0.44-0.45-0.6q0.03-1.23 0.05-2.47-0.21 0-0.42 0 0.01-0.4 0.02-0.79 0.2 0 0.4 0 0-0.84 0-1.67z"/>
										<path id="&lt;Path&gt;" class="s18" d="m100.51 63.76q-0.27 0.03-0.52 0.04c0 0.6 0 1.23 0 1.83q-0.19 0-0.38 0-0.01-0.88-0.02-1.77-0.22-0.01-0.43-0.03 0-0.41 0-0.82 0.21 0 0.43 0c0-1.24-0.31-2.89 0.22-3.21 0.18-0.08 0.32-0.09 0.5 0.01 0.29 0.13 0.4 0.77 0.4 1.15q-0.19 0.01-0.38-0.01c-0.02-0.23-0.05-0.32-0.15-0.35-0.1-0.02-0.2 0.02-0.22 0.1-0.12 0.66-0.07 1.58 0 2.31q0.29 0.03 0.58 0.05-0.02 0.35-0.03 0.7z"/>
										<path id="&lt;Path&gt;" class="s18" d="m107.36 59.75c0.15 0.02 0.2 0.03 0.25 0.14 0.07 0.15 0.05 0.32 0.01 0.48q-0.05 0.09-0.18 0.12c-0.09 0-0.14 0-0.2-0.07-0.07-0.14-0.09-0.26-0.05-0.44q0.04-0.15 0.17-0.23z"/>
										<path id="&lt;Path&gt;" class="s18" d="m117.21 64.19c0.01-0.21-0.02-0.41-0.01-0.63 1.97-0.37-0.64-2.28 0.52-3.02 0.25-0.17 0.48-0.19 0.81-0.1q-0.05 0.25-0.1 0.49c-0.19-0.06-0.37 0.03-0.45 0.16-0.1 0.48 0.17 0.82 0.44 1.48 0.21 0.51 0.2 1.76-1.21 1.62z"/>
										<path id="&lt;Path&gt;" class="s18" d="m109.52 61.01c-0.3-0.05-0.57-0.08-0.64 0.31-0.14 0.53 1.1 1.96 0.11 2.73-0.24 0.19-0.48 0.32-0.88 0.35q-0.05-0.33-0.1-0.67c0.01-0.01 0.21-0.04 0.22-0.04 1.06-0.36 0.32-1.43 0.11-1.98-0.35-0.9 0.28-1.47 1.25-1.23-0.02 0.16-0.06 0.37-0.07 0.53z"/>
										<path id="&lt;Path&gt;" class="s18" d="m112.26 60.55q0 0.15 0 0.3 0.03-0.02 0.05-0.05c0.11-0.14 0.32-0.3 0.56-0.2 0.28 0.12 0.29 0.3 0.39 0.61 0.03 0.04 0.07 0.01 0.09 0 0.05-0.46 0.31-0.81 0.79-0.67 0.15 0.08 0.23 0.15 0.32 0.34 0.14 0.55 0.05 1.59 0.09 2.48 0.01 0.2 0.04 0.77 0.06 0.96q-0.32 0.02-0.65 0c-0.03-0.64 0.17-2.95-0.3-2.79-0.46 0.01-0.21 1.98-0.25 2.79q-0.3 0-0.6 0c0.02-0.59 0.24-2.57-0.05-2.8-0.09-0.07-0.15-0.07-0.27-0.05-0.41 0.07-0.28 1.9-0.3 2.83q-0.28 0-0.55 0 0-0.02 0-0.03c0.05-0.93 0.08-1.83 0.13-2.76 0-0.32 0.02-0.67 0.02-0.99q0.23 0.01 0.47 0.03z"/>
										<path id="&lt;Path&gt;" class="s18" d="m105.74 60.73q0.18 0 0.37 0c0 0.14 0.02 0.25 0.03 0.41 0.03-0.02 0.05-0.01 0.09-0.04 0.09-0.2 0.22-0.3 0.51-0.37q-0.01 0.28-0.01 0.56c-0.95 0.27-0.45 1.81-0.54 3.06q-0.28 0-0.55 0 0.05-1.81 0.1-3.62z"/>
										<path id="&lt;Path&gt;" class="s18" d="m103.11 60.85c-0.01 0.13-0.01 0.45-0.02 0.65-0.29 0.06-0.61 0.28-0.66 0.53-0.11 0.68 0 1.25 0.66 1.39q0.01 0.44 0.02 0.88-0.07 0-0.15 0c-0.37-0.08-0.53-0.23-0.72-0.41-0.4-0.37-0.54-1.9-0.15-2.52 0.29-0.47 0.62-0.51 1.02-0.52z"/>
										<path id="&lt;Path&gt;" class="s18" d="m107.16 61.39q0.21 0.02 0.43 0.03 0.01 1.43 0.02 2.85-0.25 0-0.5 0 0.03-1.44 0.05-2.88z"/>
										<path id="&lt;Compound Path&gt;" class="s18" d="m97.95 61.04c-0.36 0.07-0.52 0.4-0.64 0.71-0.27 0.76-0.3 2.88 0.67 2.88 1.24-0.01 1.29-3.71-0.03-3.59zm-0.01 2.87c-0.42-0.09-0.4-2.35 0.25-2.21 0.42 0.15 0.41 2.24-0.25 2.21z"/>
										<path id="&lt;Compound Path&gt;" class="s18" d="m116.31 61.01c-0.45-0.69-1.44-0.34-1.42 0.54q0.19 0.02 0.39 0.05c0.06-0.22 0.09-0.27 0.26-0.39q0.16-0.07 0.3 0.03c0.1 0.15 0.14 0.3 0.16 0.48q-0.37 0.32-0.74 0.65c-0.53 0.7-0.34 1.93 0.39 1.86 0.27-0.04 0.49-0.3 0.56-0.73q0.03-0.01 0.05-0.03 0.04 0.31 0.08 0.62 0.01 0.03 0.02 0.05 0.25-0.03 0.51-0.02c-0.08-0.98-0.17-2.52-0.56-3.11zm-0.72 2.59c-0.44-0.26-0.13-0.96 0.13-1.13 0.12-0.09 0.29-0.2 0.32-0.2 0.01 0.46-0.1 1.48-0.45 1.33z"/>
										<path id="&lt;Path&gt;" class="s18" d="m111.59 70.26q0.02 0.75-0.19 1.03c-0.12 0.15-0.24 0.18-0.49 0.18-0.8-0.01-0.37-2.36-0.4-3.28q-0.19-0.01-0.38-0.03c0.01-0.29 0-0.64 0.04-0.78 0.15 0.03 0.25 0.05 0.37 0.01q0.02-0.95 0.05-1.9 0.21 0.03 0.42 0.05c0 0.01-0.03 0.3-0.05 0.73-0.05 0.6-0.05 0.79-0.07 1.18 0.17 0.04 0.4 0.09 0.57 0.12q0 0.12 0 0.23c-0.01 0.2-0.01 0.31-0.03 0.46-0.37-0.03-0.51-0.06-0.53-0.04-0.02 0.73-0.15 2.37 0.01 2.39 0.28 0.06 0.21-0.29 0.26-0.38 0.01-0.03 0.27 0 0.42 0.03z"/>
										<path id="&lt;Path&gt;" class="s18" d="m103.46 65.62q0.06 0 0.13 0.01c-0.08 0.64-0.12 1.49-0.05 2.15 0.97-0.33 1.35 0.31 1.35 1 0 0.61 0 0.77 0.02 1.19 0.06 0.34 0.13 0.56 0.13 1.24-0.16 0-0.4 0.01-0.55 0-0.21-0.81 0.14-2.7-0.2-2.84-1.14-0.47-0.62 1.46-0.72 2.77q-0.25-0.02-0.51 0c0.01-1.34 0.06-2.77-0.02-4.11q-0.02-0.69-0.03-1.38 0.23-0.02 0.45-0.03z"/>
										<path id="&lt;Path&gt;" class="s18" d="m109.29 66.06q0.08-0.04 0.17-0.01 0.07 0.03 0.13 0.11 0.07 0.12 0.05 0.28c-0.05 0.11-0.07 0.17-0.17 0.22q-0.12 0.06-0.23-0.01c-0.1-0.09-0.13-0.17-0.13-0.36q0.04-0.2 0.18-0.23z"/>
										<path id="&lt;Path&gt;" class="s18" d="m112.11 67.19q0.3 0.01 0.6 0.02c0.07 0.65 0.19 1.37 0.33 2.06q0.01-0.03 0.02-0.05 0.31-0.89 0.63-1.78 0.33 0.02 0.67 0.03c-0.18 0.68-0.35 1.06-0.52 1.54-0.25 0.71-0.49 1.34-0.73 2.06q-0.31 0.78-0.62 1.56-0.37-0.18-0.73-0.36 0.46-0.84 0.93-1.69c-0.23-1.16-0.43-2.26-0.58-3.39z"/>
										<path id="&lt;Path&gt;" class="s18" d="m107.68 67.44c0.13 0 0.3-0.01 0.43-0.01 0.01 0.14-0.01 0.27 0.01 0.41q0.06-0.05 0.12-0.09c0.09-0.2 0.25-0.24 0.47-0.31q-0.01 0.29-0.02 0.57c-0.53 0.08-0.59 0.71-0.55 1.77 0.02 0.46 0 0.93 0.02 1.29q-0.27 0-0.55 0 0.04-1.82 0.07-3.63z"/>
										<path id="&lt;Path&gt;" class="s18" d="m102.55 67.85c0.01 0.2 0.01 0.47 0 0.67-0.33 0.05-0.59 0.26-0.65 0.47-0.11 0.68 0.04 1.31 0.64 1.43q0.01 0.44 0.02 0.88c-0.05 0-1.13 0.04-1.23-1.47-0.04-0.61 0.01-1.14 0.21-1.46 0.28-0.48 0.66-0.52 1.01-0.52z"/>
										<path id="&lt;Path&gt;" class="s18" d="m109.64 68.03c-0.03 1.06 0.02 2.14 0.02 3.19q-0.32 0.01-0.65 0.03 0-0.02 0-0.03 0.06-1.61 0.13-3.21 0.01 0 0.02 0 0.24 0.01 0.48 0.02z"/>
										<path id="&lt;Compound Path&gt;" class="s18" d="m106.59 67.47c-0.77-0.24-1.02 0.27-1.1 0.95q0.22 0 0.45 0 0.02-0.17 0.05-0.33c0.09-0.18 0.24-0.21 0.37-0.1q0.15 0.16 0.15 0.74c-0.63 0.05-1.14 0.4-1.23 1.01-0.13 0.88 0.22 1.88 0.96 1.53q0.17-0.07 0.32-0.26c0.03-0.01 0.02 0.16 0.03 0.31q0.28 0 0.57 0c-0.17-1.47 0.05-3.64-0.57-3.85zm-0.08 2.95c-0.06 0.23-0.3 0.35-0.48 0.28-0.49-0.37-0.41-1.26 0.28-1.52q0.16-0.07 0.21-0.07c-0.01 0.48 0 0.99-0.01 1.31z"/>
									</g>
								</g>
							</g>
						</g>
					</g>
				</g>
				<g id="&lt;Group&gt;">
					<path id="&lt;Path&gt;" class="s1" d="m109.92 30.36l-4.92 0.14-2.95 8.83h10.53l2.99-8.97z"/>
					<g id="&lt;Group&gt;">
						<path id="&lt;Compound Path&gt;" class="s2" d="m107.66 32.53l-0.23 0.69h0.5l-0.23 0.7h-0.5l-0.77 2.35q-0.14 0.43-0.1 0.48 0.05 0.05 0.5 0.05l-0.24 0.71h-0.74q-0.63 0-0.88-0.04-0.26-0.04-0.42-0.18-0.16-0.14-0.15-0.32 0.01-0.17 0.22-0.83l0.74-2.23h-0.4l0.23-0.7h0.4l0.22-0.69z"/>
						<path id="&lt;Compound Path&gt;" class="s21" d="m110.62 32.16l-0.4 1.21q0.29-0.16 0.59-0.24 0.3-0.08 0.62-0.07 0.48 0 0.76 0.18 0.28 0.18 0.28 0.41 0 0.24-0.2 0.86l-1 3.03-1.84-0.01 1.02-3.1q0.12-0.38 0.11-0.49-0.02-0.11-0.2-0.11-0.17 0-0.27 0.11-0.09 0.11-0.2 0.45l-1.04 3.13h-1.84l1.77-5.37z"/>
					</g>
				</g>
			</g>
		</g>
	</g>
</svg>